<?xml version="1.0" encoding="UTF-8" standalone="no"?><svg xmlns="http://www.w3.org/2000/svg" xmlns:xlink="http://www.w3.org/1999/xlink" contentStyleType="text/css" height="1022px" preserveAspectRatio="none" style="width:626px;height:1022px;background:#FFFFFF;" version="1.1" viewBox="0 0 626 1022" width="626px" zoomAndPan="magnify"><defs/><g><rect fill="none" height="27.6094" id="_title" style="stroke:none;stroke-width:1.0;" width="214" x="199" y="5"/><text fill="#000000" font-family="sans-serif" font-size="14" font-weight="bold" lengthAdjust="spacing" textLength="204" x="204" y="24.5332">Diagrama de clases: Horarios</text><!--MD5=[3184df7dc2ab39bd027bebd5f4479e81]
class AlumnoClase--><g id="elem_AlumnoClase"><rect codeLine="4" fill="#F1F1F1" height="83.2188" id="AlumnoClase" rx="2.5" ry="2.5" style="stroke:#181818;stroke-width:0.5;" width="203" x="143.5" y="107.1094"/><ellipse cx="199.25" cy="123.1094" fill="#ADD1B2" rx="11" ry="11" style="stroke:#181818;stroke-width:1.0;"/><path d="M202.0156,118.9844 Q202.1719,118.7656 202.3594,118.6563 Q202.5469,118.5469 202.7656,118.5469 Q203.1406,118.5469 203.375,118.8125 Q203.6094,119.0625 203.6094,119.6719 L203.6094,121.125 Q203.6094,121.7344 203.375,122 Q203.1406,122.2656 202.7656,122.2656 Q202.4219,122.2656 202.2188,122.0625 Q202.0156,121.875 201.9063,121.3594 Q201.8594,121 201.6719,120.8125 Q201.3438,120.4375 200.7344,120.2188 Q200.125,120 199.5,120 Q198.7344,120 198.0938,120.3281 Q197.4688,120.6563 196.9688,121.4063 Q196.4844,122.1563 196.4844,123.1875 L196.4844,124.2813 Q196.4844,125.5156 197.375,126.3438 Q198.2656,127.1563 199.8594,127.1563 Q200.7969,127.1563 201.4531,126.9063 Q201.8438,126.75 202.2656,126.3125 Q202.5313,126.0469 202.6719,125.9688 Q202.8281,125.8906 203.0313,125.8906 Q203.3594,125.8906 203.6094,126.1563 Q203.875,126.4063 203.875,126.75 Q203.875,127.0938 203.5313,127.5 Q203.0313,128.0781 202.2344,128.4063 Q201.1563,128.8594 199.8594,128.8594 Q198.3438,128.8594 197.1406,128.2344 Q196.1563,127.7344 195.4688,126.6719 Q194.7813,125.5938 194.7813,124.3125 L194.7813,123.1563 Q194.7813,121.8281 195.3906,120.6875 Q196.0156,119.5313 197.1094,118.9219 Q198.2031,118.2969 199.4375,118.2969 Q200.1719,118.2969 200.8125,118.4688 Q201.4688,118.625 202.0156,118.9844 Z " fill="#000000"/><text fill="#000000" font-family="sans-serif" font-size="14" lengthAdjust="spacing" textLength="83" x="219.75" y="128.8379">AlumnoClase</text><line style="stroke:#181818;stroke-width:0.5;" x1="144.5" x2="345.5" y1="139.1094" y2="139.1094"/><text fill="#000000" font-family="sans-serif" font-size="14" lengthAdjust="spacing" textLength="178" x="149.5" y="157.6426">PK FK idEstudiante : Integer</text><text fill="#000000" font-family="sans-serif" font-size="14" lengthAdjust="spacing" textLength="191" x="149.5" y="175.252">PK FK idEventoClase : Integer</text><line style="stroke:#181818;stroke-width:0.5;" x1="144.5" x2="345.5" y1="182.3281" y2="182.3281"/></g><!--MD5=[9196e7f5424c8ba52e10312e1fe81956]
class Estudiante--><g id="elem_Estudiante"><rect codeLine="9" fill="#F1F1F1" height="241.7031" id="Estudiante" rx="2.5" ry="2.5" style="stroke:#181818;stroke-width:0.5;" width="181" x="276.5" y="311.6094"/><ellipse cx="329.25" cy="327.6094" fill="#ADD1B2" rx="11" ry="11" style="stroke:#181818;stroke-width:1.0;"/><path d="M332.0156,323.4844 Q332.1719,323.2656 332.3594,323.1563 Q332.5469,323.0469 332.7656,323.0469 Q333.1406,323.0469 333.375,323.3125 Q333.6094,323.5625 333.6094,324.1719 L333.6094,325.625 Q333.6094,326.2344 333.375,326.5 Q333.1406,326.7656 332.7656,326.7656 Q332.4219,326.7656 332.2188,326.5625 Q332.0156,326.375 331.9063,325.8594 Q331.8594,325.5 331.6719,325.3125 Q331.3438,324.9375 330.7344,324.7188 Q330.125,324.5 329.5,324.5 Q328.7344,324.5 328.0938,324.8281 Q327.4688,325.1563 326.9688,325.9063 Q326.4844,326.6563 326.4844,327.6875 L326.4844,328.7813 Q326.4844,330.0156 327.375,330.8438 Q328.2656,331.6563 329.8594,331.6563 Q330.7969,331.6563 331.4531,331.4063 Q331.8438,331.25 332.2656,330.8125 Q332.5313,330.5469 332.6719,330.4688 Q332.8281,330.3906 333.0313,330.3906 Q333.3594,330.3906 333.6094,330.6563 Q333.875,330.9063 333.875,331.25 Q333.875,331.5938 333.5313,332 Q333.0313,332.5781 332.2344,332.9063 Q331.1563,333.3594 329.8594,333.3594 Q328.3438,333.3594 327.1406,332.7344 Q326.1563,332.2344 325.4688,331.1719 Q324.7813,330.0938 324.7813,328.8125 L324.7813,327.6563 Q324.7813,326.3281 325.3906,325.1875 Q326.0156,324.0313 327.1094,323.4219 Q328.2031,322.7969 329.4375,322.7969 Q330.1719,322.7969 330.8125,322.9688 Q331.4688,323.125 332.0156,323.4844 Z " fill="#000000"/><text fill="#000000" font-family="sans-serif" font-size="14" lengthAdjust="spacing" textLength="67" x="349.75" y="333.3379">Estudiante</text><line style="stroke:#181818;stroke-width:0.5;" x1="277.5" x2="456.5" y1="343.6094" y2="343.6094"/><text fill="#000000" font-family="sans-serif" font-size="14" lengthAdjust="spacing" textLength="156" x="282.5" y="362.1426">PK idEstudiante : Integer</text><text fill="#000000" font-family="sans-serif" font-size="14" lengthAdjust="spacing" textLength="135" x="282.5" y="379.752">FK idHorario : Integer</text><text fill="#000000" font-family="sans-serif" font-size="14" lengthAdjust="spacing" textLength="71" x="282.5" y="397.3613">DNI : String</text><text fill="#000000" font-family="sans-serif" font-size="14" lengthAdjust="spacing" textLength="157" x="282.5" y="414.9707">nombreCompleto : String</text><text fill="#000000" font-family="sans-serif" font-size="14" lengthAdjust="spacing" textLength="153" x="282.5" y="432.5801">fechaNacimiento : String</text><text fill="#000000" font-family="sans-serif" font-size="14" lengthAdjust="spacing" textLength="78" x="282.5" y="450.1895">sexo : String</text><text fill="#000000" font-family="sans-serif" font-size="14" lengthAdjust="spacing" textLength="101" x="282.5" y="467.7988">fechaAlta : Date</text><text fill="#000000" font-family="sans-serif" font-size="14" lengthAdjust="spacing" textLength="102" x="282.5" y="485.4082">direccion: String</text><text fill="#000000" font-family="sans-serif" font-size="14" lengthAdjust="spacing" textLength="100" x="282.5" y="503.0176">telefono : String</text><text fill="#000000" font-family="sans-serif" font-size="14" lengthAdjust="spacing" textLength="160" x="282.5" y="520.627">correoElectronico : String</text><text fill="#000000" font-family="sans-serif" font-size="14" lengthAdjust="spacing" textLength="169" x="282.5" y="538.2363">datosVerificados : Boolean</text><line style="stroke:#181818;stroke-width:0.5;" x1="277.5" x2="456.5" y1="545.3125" y2="545.3125"/></g><!--MD5=[c0c5b535360f0239688a18024c124204]
class EventoClase--><g id="elem_EventoClase"><rect codeLine="23" fill="#F1F1F1" height="100.8281" id="EventoClase" rx="2.5" ry="2.5" style="stroke:#181818;stroke-width:0.5;" width="234" x="7" y="382.1094"/><ellipse cx="79.75" cy="398.1094" fill="#ADD1B2" rx="11" ry="11" style="stroke:#181818;stroke-width:1.0;"/><path d="M82.5156,393.9844 Q82.6719,393.7656 82.8594,393.6563 Q83.0469,393.5469 83.2656,393.5469 Q83.6406,393.5469 83.875,393.8125 Q84.1094,394.0625 84.1094,394.6719 L84.1094,396.125 Q84.1094,396.7344 83.875,397 Q83.6406,397.2656 83.2656,397.2656 Q82.9219,397.2656 82.7188,397.0625 Q82.5156,396.875 82.4063,396.3594 Q82.3594,396 82.1719,395.8125 Q81.8438,395.4375 81.2344,395.2188 Q80.625,395 80,395 Q79.2344,395 78.5938,395.3281 Q77.9688,395.6563 77.4688,396.4063 Q76.9844,397.1563 76.9844,398.1875 L76.9844,399.2813 Q76.9844,400.5156 77.875,401.3438 Q78.7656,402.1563 80.3594,402.1563 Q81.2969,402.1563 81.9531,401.9063 Q82.3438,401.75 82.7656,401.3125 Q83.0313,401.0469 83.1719,400.9688 Q83.3281,400.8906 83.5313,400.8906 Q83.8594,400.8906 84.1094,401.1563 Q84.375,401.4063 84.375,401.75 Q84.375,402.0938 84.0313,402.5 Q83.5313,403.0781 82.7344,403.4063 Q81.6563,403.8594 80.3594,403.8594 Q78.8438,403.8594 77.6406,403.2344 Q76.6563,402.7344 75.9688,401.6719 Q75.2813,400.5938 75.2813,399.3125 L75.2813,398.1563 Q75.2813,396.8281 75.8906,395.6875 Q76.5156,394.5313 77.6094,393.9219 Q78.7031,393.2969 79.9375,393.2969 Q80.6719,393.2969 81.3125,393.4688 Q81.9688,393.625 82.5156,393.9844 Z " fill="#000000"/><text fill="#000000" font-family="sans-serif" font-size="14" lengthAdjust="spacing" textLength="80" x="100.25" y="403.8379">EventoClase</text><line style="stroke:#181818;stroke-width:0.5;" x1="8" x2="240" y1="414.1094" y2="414.1094"/><text fill="#000000" font-family="sans-serif" font-size="14" lengthAdjust="spacing" textLength="169" x="13" y="432.6426">PK idEventoClase : Integer</text><text fill="#000000" font-family="sans-serif" font-size="14" lengthAdjust="spacing" textLength="222" x="13" y="450.252">nombreActividadAsignatura : String</text><text fill="#000000" font-family="sans-serif" font-size="14" lengthAdjust="spacing" textLength="140" x="13" y="467.8613">lugarAsignado : String</text><line style="stroke:#181818;stroke-width:0.5;" x1="8" x2="240" y1="474.9375" y2="474.9375"/></g><!--MD5=[74438b4bcd0b343607a1e9b7af88b110]
class Horario--><g id="elem_Horario"><rect codeLine="29" fill="#F1F1F1" height="100.8281" id="Horario" rx="2.5" ry="2.5" style="stroke:#181818;stroke-width:0.5;" width="147" x="264.5" y="666.1094"/><ellipse cx="310.75" cy="682.1094" fill="#ADD1B2" rx="11" ry="11" style="stroke:#181818;stroke-width:1.0;"/><path d="M313.5156,677.9844 Q313.6719,677.7656 313.8594,677.6563 Q314.0469,677.5469 314.2656,677.5469 Q314.6406,677.5469 314.875,677.8125 Q315.1094,678.0625 315.1094,678.6719 L315.1094,680.125 Q315.1094,680.7344 314.875,681 Q314.6406,681.2656 314.2656,681.2656 Q313.9219,681.2656 313.7188,681.0625 Q313.5156,680.875 313.4063,680.3594 Q313.3594,680 313.1719,679.8125 Q312.8438,679.4375 312.2344,679.2188 Q311.625,679 311,679 Q310.2344,679 309.5938,679.3281 Q308.9688,679.6563 308.4688,680.4063 Q307.9844,681.1563 307.9844,682.1875 L307.9844,683.2813 Q307.9844,684.5156 308.875,685.3438 Q309.7656,686.1563 311.3594,686.1563 Q312.2969,686.1563 312.9531,685.9063 Q313.3438,685.75 313.7656,685.3125 Q314.0313,685.0469 314.1719,684.9688 Q314.3281,684.8906 314.5313,684.8906 Q314.8594,684.8906 315.1094,685.1563 Q315.375,685.4063 315.375,685.75 Q315.375,686.0938 315.0313,686.5 Q314.5313,687.0781 313.7344,687.4063 Q312.6563,687.8594 311.3594,687.8594 Q309.8438,687.8594 308.6406,687.2344 Q307.6563,686.7344 306.9688,685.6719 Q306.2813,684.5938 306.2813,683.3125 L306.2813,682.1563 Q306.2813,680.8281 306.8906,679.6875 Q307.5156,678.5313 308.6094,677.9219 Q309.7031,677.2969 310.9375,677.2969 Q311.6719,677.2969 312.3125,677.4688 Q312.9688,677.625 313.5156,677.9844 Z " fill="#000000"/><text fill="#000000" font-family="sans-serif" font-size="14" lengthAdjust="spacing" textLength="46" x="331.25" y="687.8379">Horario</text><line style="stroke:#181818;stroke-width:0.5;" x1="265.5" x2="410.5" y1="698.1094" y2="698.1094"/><text fill="#000000" font-family="sans-serif" font-size="14" lengthAdjust="spacing" textLength="135" x="270.5" y="716.6426">PK idHorario : Integer</text><text fill="#000000" font-family="sans-serif" font-size="14" lengthAdjust="spacing" textLength="84" x="270.5" y="734.252">curso : String</text><text fill="#000000" font-family="sans-serif" font-size="14" lengthAdjust="spacing" textLength="86" x="270.5" y="751.8613">grado : String</text><line style="stroke:#181818;stroke-width:0.5;" x1="265.5" x2="410.5" y1="758.9375" y2="758.9375"/></g><!--MD5=[3293686c6f7d5090ebc8c83f6b998ca3]
class HorarioEventoClase--><g id="elem_HorarioEventoClase"><rect codeLine="35" fill="#F1F1F1" height="118.4375" id="HorarioEventoClase" rx="2.5" ry="2.5" style="stroke:#181818;stroke-width:0.5;" width="192" x="125" y="888.6094"/><ellipse cx="155.3" cy="904.6094" fill="#ADD1B2" rx="11" ry="11" style="stroke:#181818;stroke-width:1.0;"/><path d="M158.0656,900.4844 Q158.2219,900.2656 158.4094,900.1563 Q158.5969,900.0469 158.8156,900.0469 Q159.1906,900.0469 159.425,900.3125 Q159.6594,900.5625 159.6594,901.1719 L159.6594,902.625 Q159.6594,903.2344 159.425,903.5 Q159.1906,903.7656 158.8156,903.7656 Q158.4719,903.7656 158.2688,903.5625 Q158.0656,903.375 157.9563,902.8594 Q157.9094,902.5 157.7219,902.3125 Q157.3938,901.9375 156.7844,901.7188 Q156.175,901.5 155.55,901.5 Q154.7844,901.5 154.1438,901.8281 Q153.5188,902.1563 153.0188,902.9063 Q152.5344,903.6563 152.5344,904.6875 L152.5344,905.7813 Q152.5344,907.0156 153.425,907.8438 Q154.3156,908.6563 155.9094,908.6563 Q156.8469,908.6563 157.5031,908.4063 Q157.8938,908.25 158.3156,907.8125 Q158.5813,907.5469 158.7219,907.4688 Q158.8781,907.3906 159.0813,907.3906 Q159.4094,907.3906 159.6594,907.6563 Q159.925,907.9063 159.925,908.25 Q159.925,908.5938 159.5813,909 Q159.0813,909.5781 158.2844,909.9063 Q157.2063,910.3594 155.9094,910.3594 Q154.3938,910.3594 153.1906,909.7344 Q152.2063,909.2344 151.5188,908.1719 Q150.8313,907.0938 150.8313,905.8125 L150.8313,904.6563 Q150.8313,903.3281 151.4406,902.1875 Q152.0656,901.0313 153.1594,900.4219 Q154.2531,899.7969 155.4875,899.7969 Q156.2219,899.7969 156.8625,899.9688 Q157.5188,900.125 158.0656,900.4844 Z " fill="#000000"/><text fill="#000000" font-family="sans-serif" font-size="14" lengthAdjust="spacing" textLength="126" x="172.7" y="910.3379">HorarioEventoClase</text><line style="stroke:#181818;stroke-width:0.5;" x1="126" x2="316" y1="920.6094" y2="920.6094"/><text fill="#000000" font-family="sans-serif" font-size="14" lengthAdjust="spacing" textLength="157" x="131" y="939.1426">PK FK idHorario : Integer</text><text fill="#000000" font-family="sans-serif" font-size="14" lengthAdjust="spacing" textLength="180" x="131" y="956.752">PK FK EventoClase : Integer</text><text fill="#000000" font-family="sans-serif" font-size="14" lengthAdjust="spacing" textLength="129" x="131" y="974.3613">horaInicio : Datetime</text><text fill="#000000" font-family="sans-serif" font-size="14" lengthAdjust="spacing" textLength="117" x="131" y="991.9707">horaFin : Datetime</text><line style="stroke:#181818;stroke-width:0.5;" x1="126" x2="316" y1="999.0469" y2="999.0469"/></g><!--MD5=[36acb3e840b16351e2158aca66e9df6c]
class PAS--><g id="elem_PAS"><rect codeLine="42" fill="#F1F1F1" height="206.4844" id="PAS" rx="2.5" ry="2.5" style="stroke:#181818;stroke-width:0.5;" width="172" x="382" y="45.6094"/><ellipse cx="450.25" cy="61.6094" fill="#ADD1B2" rx="11" ry="11" style="stroke:#181818;stroke-width:1.0;"/><path d="M453.0156,57.4844 Q453.1719,57.2656 453.3594,57.1563 Q453.5469,57.0469 453.7656,57.0469 Q454.1406,57.0469 454.375,57.3125 Q454.6094,57.5625 454.6094,58.1719 L454.6094,59.625 Q454.6094,60.2344 454.375,60.5 Q454.1406,60.7656 453.7656,60.7656 Q453.4219,60.7656 453.2188,60.5625 Q453.0156,60.375 452.9063,59.8594 Q452.8594,59.5 452.6719,59.3125 Q452.3438,58.9375 451.7344,58.7188 Q451.125,58.5 450.5,58.5 Q449.7344,58.5 449.0938,58.8281 Q448.4688,59.1563 447.9688,59.9063 Q447.4844,60.6563 447.4844,61.6875 L447.4844,62.7813 Q447.4844,64.0156 448.375,64.8438 Q449.2656,65.6563 450.8594,65.6563 Q451.7969,65.6563 452.4531,65.4063 Q452.8438,65.25 453.2656,64.8125 Q453.5313,64.5469 453.6719,64.4688 Q453.8281,64.3906 454.0313,64.3906 Q454.3594,64.3906 454.6094,64.6563 Q454.875,64.9063 454.875,65.25 Q454.875,65.5938 454.5313,66 Q454.0313,66.5781 453.2344,66.9063 Q452.1563,67.3594 450.8594,67.3594 Q449.3438,67.3594 448.1406,66.7344 Q447.1563,66.2344 446.4688,65.1719 Q445.7813,64.0938 445.7813,62.8125 L445.7813,61.6563 Q445.7813,60.3281 446.3906,59.1875 Q447.0156,58.0313 448.1094,57.4219 Q449.2031,56.7969 450.4375,56.7969 Q451.1719,56.7969 451.8125,56.9688 Q452.4688,57.125 453.0156,57.4844 Z " fill="#000000"/><text fill="#000000" font-family="sans-serif" font-size="14" lengthAdjust="spacing" textLength="27" x="470.75" y="67.3379">PAS</text><line style="stroke:#181818;stroke-width:0.5;" x1="383" x2="553" y1="77.6094" y2="77.6094"/><text fill="#000000" font-family="sans-serif" font-size="14" lengthAdjust="spacing" textLength="116" x="388" y="96.1426">PK idPAS : Integer</text><text fill="#000000" font-family="sans-serif" font-size="14" lengthAdjust="spacing" textLength="71" x="388" y="113.752">DNI : String</text><text fill="#000000" font-family="sans-serif" font-size="14" lengthAdjust="spacing" textLength="157" x="388" y="131.3613">nombreCompleto : String</text><text fill="#000000" font-family="sans-serif" font-size="14" lengthAdjust="spacing" textLength="153" x="388" y="148.9707">fechaNacimiento : String</text><text fill="#000000" font-family="sans-serif" font-size="14" lengthAdjust="spacing" textLength="78" x="388" y="166.5801">sexo : String</text><text fill="#000000" font-family="sans-serif" font-size="14" lengthAdjust="spacing" textLength="101" x="388" y="184.1895">fechaAlta : Date</text><text fill="#000000" font-family="sans-serif" font-size="14" lengthAdjust="spacing" textLength="102" x="388" y="201.7988">direccion: String</text><text fill="#000000" font-family="sans-serif" font-size="14" lengthAdjust="spacing" textLength="100" x="388" y="219.4082">telefono : String</text><text fill="#000000" font-family="sans-serif" font-size="14" lengthAdjust="spacing" textLength="160" x="388" y="237.0176">correoElectronico : String</text><line style="stroke:#181818;stroke-width:0.5;" x1="383" x2="553" y1="244.0938" y2="244.0938"/></g><!--MD5=[5b14968682f2e46256dc8a570ae0d27b]
class PDI--><g id="elem_PDI"><rect codeLine="54" fill="#F1F1F1" height="206.4844" id="PDI" rx="2.5" ry="2.5" style="stroke:#181818;stroke-width:0.5;" width="172" x="447" y="613.6094"/><ellipse cx="517.75" cy="629.6094" fill="#ADD1B2" rx="11" ry="11" style="stroke:#181818;stroke-width:1.0;"/><path d="M520.5156,625.4844 Q520.6719,625.2656 520.8594,625.1563 Q521.0469,625.0469 521.2656,625.0469 Q521.6406,625.0469 521.875,625.3125 Q522.1094,625.5625 522.1094,626.1719 L522.1094,627.625 Q522.1094,628.2344 521.875,628.5 Q521.6406,628.7656 521.2656,628.7656 Q520.9219,628.7656 520.7188,628.5625 Q520.5156,628.375 520.4063,627.8594 Q520.3594,627.5 520.1719,627.3125 Q519.8438,626.9375 519.2344,626.7188 Q518.625,626.5 518,626.5 Q517.2344,626.5 516.5938,626.8281 Q515.9688,627.1563 515.4688,627.9063 Q514.9844,628.6563 514.9844,629.6875 L514.9844,630.7813 Q514.9844,632.0156 515.875,632.8438 Q516.7656,633.6563 518.3594,633.6563 Q519.2969,633.6563 519.9531,633.4063 Q520.3438,633.25 520.7656,632.8125 Q521.0313,632.5469 521.1719,632.4688 Q521.3281,632.3906 521.5313,632.3906 Q521.8594,632.3906 522.1094,632.6563 Q522.375,632.9063 522.375,633.25 Q522.375,633.5938 522.0313,634 Q521.5313,634.5781 520.7344,634.9063 Q519.6563,635.3594 518.3594,635.3594 Q516.8438,635.3594 515.6406,634.7344 Q514.6563,634.2344 513.9688,633.1719 Q513.2813,632.0938 513.2813,630.8125 L513.2813,629.6563 Q513.2813,628.3281 513.8906,627.1875 Q514.5156,626.0313 515.6094,625.4219 Q516.7031,624.7969 517.9375,624.7969 Q518.6719,624.7969 519.3125,624.9688 Q519.9688,625.125 520.5156,625.4844 Z " fill="#000000"/><text fill="#000000" font-family="sans-serif" font-size="14" lengthAdjust="spacing" textLength="22" x="538.25" y="635.3379">PDI</text><line style="stroke:#181818;stroke-width:0.5;" x1="448" x2="618" y1="645.6094" y2="645.6094"/><text fill="#000000" font-family="sans-serif" font-size="14" lengthAdjust="spacing" textLength="111" x="453" y="664.1426">PK idPDI : Integer</text><text fill="#000000" font-family="sans-serif" font-size="14" lengthAdjust="spacing" textLength="71" x="453" y="681.752">DNI : String</text><text fill="#000000" font-family="sans-serif" font-size="14" lengthAdjust="spacing" textLength="157" x="453" y="699.3613">nombreCompleto : String</text><text fill="#000000" font-family="sans-serif" font-size="14" lengthAdjust="spacing" textLength="153" x="453" y="716.9707">fechaNacimiento : String</text><text fill="#000000" font-family="sans-serif" font-size="14" lengthAdjust="spacing" textLength="78" x="453" y="734.5801">sexo : String</text><text fill="#000000" font-family="sans-serif" font-size="14" lengthAdjust="spacing" textLength="101" x="453" y="752.1895">fechaAlta : Date</text><text fill="#000000" font-family="sans-serif" font-size="14" lengthAdjust="spacing" textLength="102" x="453" y="769.7988">direccion: String</text><text fill="#000000" font-family="sans-serif" font-size="14" lengthAdjust="spacing" textLength="100" x="453" y="787.4082">telefono : String</text><text fill="#000000" font-family="sans-serif" font-size="14" lengthAdjust="spacing" textLength="160" x="453" y="805.0176">correoElectronico : String</text><line style="stroke:#181818;stroke-width:0.5;" x1="448" x2="618" y1="812.0938" y2="812.0938"/></g><!--MD5=[79e384cf2055b8aaf72e41e1cbf45d89]
class PropuestaCambioHorario--><g id="elem_PropuestaCambioHorario"><rect codeLine="66" fill="#F1F1F1" height="136.0469" id="PropuestaCambioHorario" rx="2.5" ry="2.5" style="stroke:#181818;stroke-width:0.5;" width="224" x="372" y="879.6094"/><ellipse cx="401.85" cy="895.6094" fill="#ADD1B2" rx="11" ry="11" style="stroke:#181818;stroke-width:1.0;"/><path d="M404.6156,891.4844 Q404.7719,891.2656 404.9594,891.1563 Q405.1469,891.0469 405.3656,891.0469 Q405.7406,891.0469 405.975,891.3125 Q406.2094,891.5625 406.2094,892.1719 L406.2094,893.625 Q406.2094,894.2344 405.975,894.5 Q405.7406,894.7656 405.3656,894.7656 Q405.0219,894.7656 404.8188,894.5625 Q404.6156,894.375 404.5063,893.8594 Q404.4594,893.5 404.2719,893.3125 Q403.9438,892.9375 403.3344,892.7188 Q402.725,892.5 402.1,892.5 Q401.3344,892.5 400.6938,892.8281 Q400.0688,893.1563 399.5688,893.9063 Q399.0844,894.6563 399.0844,895.6875 L399.0844,896.7813 Q399.0844,898.0156 399.975,898.8438 Q400.8656,899.6563 402.4594,899.6563 Q403.3969,899.6563 404.0531,899.4063 Q404.4438,899.25 404.8656,898.8125 Q405.1313,898.5469 405.2719,898.4688 Q405.4281,898.3906 405.6313,898.3906 Q405.9594,898.3906 406.2094,898.6563 Q406.475,898.9063 406.475,899.25 Q406.475,899.5938 406.1313,900 Q405.6313,900.5781 404.8344,900.9063 Q403.7563,901.3594 402.4594,901.3594 Q400.9438,901.3594 399.7406,900.7344 Q398.7563,900.2344 398.0688,899.1719 Q397.3813,898.0938 397.3813,896.8125 L397.3813,895.6563 Q397.3813,894.3281 397.9906,893.1875 Q398.6156,892.0313 399.7094,891.4219 Q400.8031,890.7969 402.0375,890.7969 Q402.7719,890.7969 403.4125,890.9688 Q404.0688,891.125 404.6156,891.4844 Z " fill="#000000"/><text fill="#000000" font-family="sans-serif" font-size="14" lengthAdjust="spacing" textLength="159" x="419.15" y="901.3379">PropuestaCambioHorario</text><line style="stroke:#181818;stroke-width:0.5;" x1="373" x2="595" y1="911.6094" y2="911.6094"/><text fill="#000000" font-family="sans-serif" font-size="14" lengthAdjust="spacing" textLength="202" x="378" y="930.1426">PK idPropuestaCambio : Integer</text><text fill="#000000" font-family="sans-serif" font-size="14" lengthAdjust="spacing" textLength="111" x="378" y="947.752">FK idPDI : Integer</text><text fill="#000000" font-family="sans-serif" font-size="14" lengthAdjust="spacing" textLength="135" x="378" y="965.3613">FK idHorario : Integer</text><text fill="#000000" font-family="sans-serif" font-size="14" lengthAdjust="spacing" textLength="212" x="378" y="982.9707">motivoProposicionCambio : String</text><text fill="#000000" font-family="sans-serif" font-size="14" lengthAdjust="spacing" textLength="159" x="378" y="1000.5801">cambioPropuesto : String</text><line style="stroke:#181818;stroke-width:0.5;" x1="373" x2="595" y1="1007.6563" y2="1007.6563"/></g><!--MD5=[2e7b7bb0d668f1d56e275d3138aea4bf]
link AlumnoClase to Estudiante--><g id="link_AlumnoClase_Estudiante"><path codeLine="74" d="M262.61,190.3094 C276.4,222.1894 296.33,268.2494 315.08,311.5994 " fill="none" id="AlumnoClase-Estudiante" style="stroke:#181818;stroke-width:1.0;"/><text fill="#000000" font-family="sans-serif" font-size="13" lengthAdjust="spacing" textLength="26" x="237.3447" y="211.736">0..m</text><text fill="#000000" font-family="sans-serif" font-size="13" lengthAdjust="spacing" textLength="7" x="304.5297" y="300.8506">1</text></g><!--MD5=[f0ef5e0fed5464f827e253beebe26b53]
link AlumnoClase to EventoClase--><g id="link_AlumnoClase_EventoClase"><path codeLine="75" d="M227.53,190.3094 C205.81,240.9494 168.72,327.3794 145.34,381.8894 " fill="none" id="AlumnoClase-EventoClase" style="stroke:#181818;stroke-width:1.0;"/><text fill="#000000" font-family="sans-serif" font-size="13" lengthAdjust="spacing" textLength="26" x="196.6738" y="211.736">0..m</text><text fill="#000000" font-family="sans-serif" font-size="13" lengthAdjust="spacing" textLength="7" x="140.8488" y="371.1638">1</text></g><!--MD5=[393ba1a3c4dafd861e5090b8d5a53bc3]
link Estudiante to Horario--><g id="link_Estudiante_Horario"><path codeLine="76" d="M354.66,553.6094 C350.6,593.0394 346.32,634.6994 343.11,665.9094 " fill="none" id="Estudiante-Horario" style="stroke:#181818;stroke-width:1.0;stroke-dasharray:7.0,7.0;"/><text fill="#000000" font-family="sans-serif" font-size="13" lengthAdjust="spacing" textLength="26" x="327.1158" y="574.9852">0..m</text><text fill="#000000" font-family="sans-serif" font-size="13" lengthAdjust="spacing" textLength="7" x="336.3364" y="655.1866">1</text></g><!--MD5=[035459fd4da61150c183d52e96eba128]
link EventoClase to HorarioEventoClase--><g id="link_EventoClase_HorarioEventoClase"><path codeLine="77" d="M133.39,483.2594 C151.41,578.5594 190.76,786.6594 209.98,888.3494 " fill="none" id="EventoClase-HorarioEventoClase" style="stroke:#181818;stroke-width:1.0;"/><text fill="#000000" font-family="sans-serif" font-size="13" lengthAdjust="spacing" textLength="7" x="127.1447" y="504.3026">1</text><text fill="#000000" font-family="sans-serif" font-size="13" lengthAdjust="spacing" textLength="26" x="181.0526" y="877.6419">0..m</text></g><!--MD5=[ed51ed19ee51358231abbd789ae7a664]
link Horario to HorarioEventoClase--><g id="link_Horario_HorarioEventoClase"><path codeLine="78" d="M312.61,767.2994 C294.4,802.9494 269.8,851.0894 250.68,888.5194 " fill="none" id="Horario-HorarioEventoClase" style="stroke:#181818;stroke-width:1.0;"/><text fill="#000000" font-family="sans-serif" font-size="13" lengthAdjust="spacing" textLength="7" x="301.9085" y="788.3477">1</text><text fill="#000000" font-family="sans-serif" font-size="13" lengthAdjust="spacing" textLength="26" x="226.7129" y="877.8327">0..m</text></g><!--MD5=[c3f45514f87df5513dabae71e3ce8770]
link Horario to PropuestaCambioHorario--><g id="link_Horario_PropuestaCambioHorario"><path codeLine="79" d="M369.68,767.2994 C390.56,800.0494 418.17,843.3594 441.03,879.2094 " fill="none" id="Horario-PropuestaCambioHorario" style="stroke:#181818;stroke-width:1.0;stroke-dasharray:7.0,7.0;"/><text fill="#000000" font-family="sans-serif" font-size="13" lengthAdjust="spacing" textLength="7" x="366.2906" y="788.3477">1</text><text fill="#000000" font-family="sans-serif" font-size="13" lengthAdjust="spacing" textLength="26" x="409.2581" y="868.8415">0..m</text></g><!--MD5=[8343760cf3d6c8f3b88a6f1d244568f8]
link PDI to PropuestaCambioHorario--><g id="link_PDI_PropuestaCambioHorario"><path codeLine="80" d="M511.15,819.7194 C506.81,839.9994 502.36,860.7994 498.35,879.5394 " fill="none" id="PDI-PropuestaCambioHorario" style="stroke:#181818;stroke-width:1.0;stroke-dasharray:7.0,7.0;"/><text fill="#000000" font-family="sans-serif" font-size="13" lengthAdjust="spacing" textLength="7" x="502.2091" y="841.7163">1</text><text fill="#000000" font-family="sans-serif" font-size="13" lengthAdjust="spacing" textLength="26" x="472.4977" y="868.731">0..m</text></g><!--MD5=[dfcaf39af65262e51d9b9bfe17587b1d]
@startuml IRs_horarios

title Diagrama de clases: Horarios

Class AlumnoClase {
    PK FK idEstudiante : Integer
    PK FK idEventoClase : Integer
}

Class Estudiante {
    PK idEstudiante : Integer
    FK idHorario : Integer
    DNI : String
    nombreCompleto : String
    fechaNacimiento : String
    sexo : String
    fechaAlta : Date
    direccion: String
    telefono : String
    correoElectronico : String
    datosVerificados : Boolean
}

Class EventoClase {
    PK idEventoClase : Integer
    nombreActividadAsignatura : String
    lugarAsignado : String
}

Class Horario {
    PK idHorario : Integer
    curso : String
    grado : String
}

Class HorarioEventoClase {
    PK FK idHorario : Integer
    PK FK EventoClase : Integer
    horaInicio : Datetime
    horaFin : Datetime
}

Class PAS {
    PK idPAS : Integer
    DNI : String
    nombreCompleto : String
    fechaNacimiento : String
    sexo : String
    fechaAlta : Date
    direccion: String
    telefono : String
    correoElectronico : String
}

Class PDI {
    PK idPDI : Integer
    DNI : String
    nombreCompleto : String
    fechaNacimiento : String
    sexo : String
    fechaAlta : Date
    direccion: String
    telefono : String
    correoElectronico : String
}

Class PropuestaCambioHorario {
    PK idPropuestaCambio : Integer
    FK idPDI : Integer
    FK idHorario : Integer
    motivoProposicionCambio : String
    cambioPropuesto : String
}

AlumnoClase "0..m" - - "1" Estudiante
AlumnoClase "0..m" - - "1" EventoClase
Estudiante "0..m" .. "1" Horario
EventoClase "1" - - "0..m" HorarioEventoClase
Horario "1" - - "0..m" HorarioEventoClase
Horario "1" .. "0..m" PropuestaCambioHorario
PDI "1" .. "0..m" PropuestaCambioHorario

@enduml

PlantUML version 1.2022.7(Mon Aug 22 19:01:30 CEST 2022)
(GPL source distribution)
Java Runtime: OpenJDK Runtime Environment
JVM: OpenJDK 64-Bit Server VM
Default Encoding: Cp1252
Language: es
Country: ES
--></g></svg>