<?xml version="1.0" encoding="UTF-8" standalone="no"?><svg xmlns="http://www.w3.org/2000/svg" xmlns:xlink="http://www.w3.org/1999/xlink" contentStyleType="text/css" height="724px" preserveAspectRatio="none" style="width:1819px;height:724px;background:#FFFFFF;" version="1.1" viewBox="0 0 1819 724" width="1819px" zoomAndPan="magnify"><defs/><g><rect fill="none" height="27.6094" id="_title" style="stroke:none;stroke-width:1.0;" width="153" x="826.4821" y="5"/><text fill="#000000" font-family="sans-serif" font-size="14" font-weight="bold" lengthAdjust="spacing" textLength="143" x="831.4821" y="24.5332">Sistema de Compras</text><!--MD5=[23bc7945312e1f0a2e37cebfe503a03b]
entity A1--><g id="elem_A1"><ellipse cx="263.5" cy="191.6094" fill="#F1F1F1" rx="8" ry="8" style="stroke:#181818;stroke-width:0.5;"/><path d="M263.5,199.6094 L263.5,226.6094 M250.5,207.6094 L276.5,207.6094 M263.5,226.6094 L250.5,241.6094 M263.5,226.6094 L276.5,241.6094 " fill="none" style="stroke:#181818;stroke-width:0.5;"/><text fill="#000000" font-family="sans-serif" font-size="14" lengthAdjust="spacing" textLength="87" x="220" y="257.6426">Administrador</text></g><!--MD5=[406a5e0ae180932da9bcb21c819a1904]
entity A2--><g id="elem_A2"><ellipse cx="540.5" cy="191.6094" fill="#F1F1F1" rx="8" ry="8" style="stroke:#181818;stroke-width:0.5;"/><path d="M540.5,199.6094 L540.5,226.6094 M527.5,207.6094 L553.5,207.6094 M540.5,226.6094 L527.5,241.6094 M540.5,226.6094 L553.5,241.6094 " fill="none" style="stroke:#181818;stroke-width:0.5;"/><text fill="#000000" font-family="sans-serif" font-size="14" lengthAdjust="spacing" textLength="71" x="505" y="257.6426">Comprador</text></g><!--MD5=[305b0bf20d1e87c4314d270a9e4e4ae4]
entity A3--><g id="elem_A3"><ellipse cx="1496.5" cy="191.6094" fill="#F1F1F1" rx="8" ry="8" style="stroke:#181818;stroke-width:0.5;"/><path d="M1496.5,199.6094 L1496.5,226.6094 M1483.5,207.6094 L1509.5,207.6094 M1496.5,226.6094 L1483.5,241.6094 M1496.5,226.6094 L1509.5,241.6094 " fill="none" style="stroke:#181818;stroke-width:0.5;"/><text fill="#000000" font-family="sans-serif" font-size="14" lengthAdjust="spacing" textLength="66" x="1463.5" y="257.6426">Proveedor</text></g><!--MD5=[b4296d86aafbbd2074f03a740cb37cff]
entity A4--><g id="elem_A4"><ellipse cx="776.5" cy="52.6094" fill="#F1F1F1" rx="8" ry="8" style="stroke:#181818;stroke-width:0.5;"/><path d="M776.5,60.6094 L776.5,87.6094 M763.5,68.6094 L789.5,68.6094 M776.5,87.6094 L763.5,102.6094 M776.5,87.6094 L789.5,102.6094 " fill="none" style="stroke:#181818;stroke-width:0.5;"/><text fill="#000000" font-family="sans-serif" font-size="14" lengthAdjust="spacing" textLength="48" x="752.5" y="118.6426">Usuario</text></g><!--MD5=[92e12b53097991ea4e702b1584848830]
entity A5--><g id="elem_A5"><ellipse cx="829.5" cy="191.6094" fill="#F1F1F1" rx="8" ry="8" style="stroke:#181818;stroke-width:0.5;"/><path d="M829.5,199.6094 L829.5,226.6094 M816.5,207.6094 L842.5,207.6094 M829.5,226.6094 L816.5,241.6094 M829.5,226.6094 L842.5,241.6094 " fill="none" style="stroke:#181818;stroke-width:0.5;"/><text fill="#000000" font-family="sans-serif" font-size="14" lengthAdjust="spacing" textLength="62" x="798.5" y="257.6426">Vendedor</text></g><g id="elem_UC1"><ellipse cx="964.4259" cy="555.8946" fill="#F1F1F1" rx="71.9259" ry="16.7852" style="stroke:#181818;stroke-width:0.5;"/><text fill="#000000" font-family="sans-serif" font-size="14" lengthAdjust="spacing" textLength="93" x="914.9259" y="560.4112">Acordar precio</text></g><g id="elem_UC2"><ellipse cx="464.6819" cy="394.7458" fill="#F1F1F1" rx="78.6819" ry="18.1364" style="stroke:#181818;stroke-width:0.5;"/><text fill="#000000" font-family="sans-serif" font-size="14" lengthAdjust="spacing" textLength="111" x="407.5947" y="398.9177">Agregar producto</text></g><g id="elem_UC3"><ellipse cx="1389.5624" cy="222.0611" fill="#F1F1F1" rx="39.0624" ry="15.4517" style="stroke:#181818;stroke-width:0.5;"/><text fill="#000000" font-family="sans-serif" font-size="14" lengthAdjust="spacing" textLength="39" x="1370.0624" y="225.7896">Avisar</text></g><g id="elem_UC4"><ellipse cx="1694.7321" cy="394.5057" fill="#F1F1F1" rx="119.2321" ry="55.3963" style="stroke:#181818;stroke-width:0.5;"/><text fill="#000000" font-family="sans-serif" font-size="14" lengthAdjust="spacing" textLength="162" x="1615.0609" y="371.6286">Avisar de nuevo producto</text><text fill="#000000" font-family="sans-serif" font-size="14" lengthAdjust="spacing" textLength="4" x="1694.0609" y="389.238"> </text><line style="stroke:#181818;stroke-width:1.0;" x1="1576.5933" x2="1812.8709" y1="392.3142" y2="392.3142"/><text fill="#000000" font-family="sans-serif" font-size="14" font-weight="bold" lengthAdjust="spacing" textLength="118" x="1637.0609" y="410.8474">extension points</text><text fill="#000000" font-family="sans-serif" font-size="14" lengthAdjust="spacing" textLength="106" x="1643.0609" y="428.4567">Incorporar oferta</text></g><g id="elem_UC5"><ellipse cx="1458.4202" cy="394.3934" fill="#F1F1F1" rx="81.9202" ry="18.784" style="stroke:#181818;stroke-width:0.5;"/><text fill="#000000" font-family="sans-serif" font-size="14" lengthAdjust="spacing" textLength="119" x="1398.7512" y="398.1722">Avisar fin de oferta</text></g><g id="elem_UC6"><ellipse cx="725.4763" cy="394.7046" fill="#F1F1F1" rx="75.9763" ry="17.5953" style="stroke:#181818;stroke-width:0.5;"/><text fill="#000000" font-family="sans-serif" font-size="14" lengthAdjust="spacing" textLength="104" x="670.5467" y="399.2051">Buscar producto</text></g><g id="elem_UC7"><ellipse cx="1178.3461" cy="222.0375" fill="#F1F1F1" rx="97.8461" ry="27.9281" style="stroke:#181818;stroke-width:0.5;"/><text fill="#000000" font-family="sans-serif" font-size="14" lengthAdjust="spacing" textLength="118" x="1114.3636" y="217.7452">Consultar histórico</text><text fill="#000000" font-family="sans-serif" font-size="14" lengthAdjust="spacing" textLength="62" x="1146.3636" y="235.3545">de ventas</text></g><g id="elem_UC8"><ellipse cx="970.7256" cy="222.0545" fill="#F1F1F1" rx="75.2256" ry="17.4451" style="stroke:#181818;stroke-width:0.5;"/><text fill="#000000" font-family="sans-serif" font-size="14" lengthAdjust="spacing" textLength="102" x="916.7256" y="226.5711">Consultar oferta</text></g><g id="elem_UC9"><ellipse cx="687.4763" cy="222.2046" fill="#F1F1F1" rx="75.9763" ry="17.5953" style="stroke:#181818;stroke-width:0.5;"/><text fill="#000000" font-family="sans-serif" font-size="14" lengthAdjust="spacing" textLength="104" x="632.5467" y="226.7051">Consultar precio</text></g><g id="elem_UC10"><ellipse cx="685.2516" cy="556.0597" fill="#F1F1F1" rx="82.7516" ry="18.9503" style="stroke:#181818;stroke-width:0.5;"/><text fill="#000000" font-family="sans-serif" font-size="14" lengthAdjust="spacing" textLength="121" x="624.7516" y="559.7882">Consultar producto</text></g><g id="elem_UC11"><ellipse cx="1458.7113" cy="556.2516" fill="#F1F1F1" rx="71.2113" ry="16.6423" style="stroke:#181818;stroke-width:0.5;"/><text fill="#000000" font-family="sans-serif" font-size="14" lengthAdjust="spacing" textLength="91" x="1410.2113" y="560.7682">Eliminar oferta</text></g><g id="elem_UC12"><ellipse cx="84.2877" cy="394.6669" fill="#F1F1F1" rx="78.2877" ry="18.0575" style="stroke:#181818;stroke-width:0.5;"/><text fill="#000000" font-family="sans-serif" font-size="14" lengthAdjust="spacing" textLength="110" x="27.5149" y="398.8867">Eliminar producto</text></g><g id="elem_UC13"><ellipse cx="1260.2827" cy="394.5659" fill="#F1F1F1" rx="80.2827" ry="18.4565" style="stroke:#181818;stroke-width:0.5;"/><text fill="#000000" font-family="sans-serif" font-size="14" lengthAdjust="spacing" textLength="115" x="1201.9192" y="398.5435">Enviar notificación</text></g><g id="elem_UC14"><ellipse cx="274.4763" cy="394.7046" fill="#F1F1F1" rx="75.9763" ry="17.5953" style="stroke:#181818;stroke-width:0.5;"/><text fill="#000000" font-family="sans-serif" font-size="14" lengthAdjust="spacing" textLength="104" x="219.5467" y="399.2051">Finalizar compra</text></g><g id="elem_UC15"><ellipse cx="1694.7363" cy="222.3566" fill="#F1F1F1" rx="76.7363" ry="17.7473" style="stroke:#181818;stroke-width:0.5;"/><text fill="#000000" font-family="sans-serif" font-size="14" lengthAdjust="spacing" textLength="106" x="1639.2006" y="226.7648">Incorporar oferta</text></g><g id="elem_UC16"><ellipse cx="464.5599" cy="556.0128" fill="#F1F1F1" rx="88.5599" ry="27.9034" style="stroke:#181818;stroke-width:0.5;"/><text fill="#000000" font-family="sans-serif" font-size="14" lengthAdjust="spacing" textLength="104" x="410.5599" y="550.9366">Marcar producto</text><text fill="#000000" font-family="sans-serif" font-size="14" lengthAdjust="spacing" textLength="105" x="414.0599" y="568.546">como bloqueado</text></g><g id="elem_UC17"><ellipse cx="964.2977" cy="394.5523" fill="#F1F1F1" rx="127.7977" ry="52.943" style="stroke:#181818;stroke-width:0.5;"/><text fill="#000000" font-family="sans-serif" font-size="14" lengthAdjust="spacing" textLength="90" x="910.4006" y="363.6165">Realizar venta</text><text fill="#000000" font-family="sans-serif" font-size="14" lengthAdjust="spacing" textLength="4" x="953.4006" y="381.2259"> </text><line style="stroke:#181818;stroke-width:1.0;" x1="839.9181" x2="1088.6773" y1="384.302" y2="384.302"/><text fill="#000000" font-family="sans-serif" font-size="14" font-weight="bold" lengthAdjust="spacing" textLength="118" x="896.4006" y="402.8352">extension points</text><text fill="#000000" font-family="sans-serif" font-size="14" lengthAdjust="spacing" textLength="184" x="863.4006" y="420.4446">Consultar histórico de ventas</text></g><g id="elem_UC18"><ellipse cx="685.6968" cy="690.1184" fill="#F1F1F1" rx="115.1968" ry="28.0091" style="stroke:#181818;stroke-width:0.5;"/><text fill="#000000" font-family="sans-serif" font-size="14" lengthAdjust="spacing" textLength="142" x="609.6968" y="685.8303">Verificar disponibilidad</text><text fill="#000000" font-family="sans-serif" font-size="14" lengthAdjust="spacing" textLength="76" x="646.6968" y="703.4397">de producto</text></g><!--MD5=[10159b74302dd5adf4c61a645b898846]
link A1 to UC12--><g id="link_A1_UC12"><path d="M223.33,261.3694 C187.03,295.9494 134.98,345.5294 106.02,373.1094 " fill="none" id="A1-to-UC12" style="stroke:#181818;stroke-width:1.0;"/><polygon fill="#181818" points="102.27,376.6894,111.552,373.3964,105.8971,373.2479,106.0456,367.593,102.27,376.6894" style="stroke:#181818;stroke-width:1.0;"/></g><!--MD5=[055b0ace703f03074974399e2ede2a69]
link A2 to UC2--><g id="link_A2_UC2"><path d="M523.44,261.3694 C508.22,295.5294 486.47,344.3194 474.09,372.0894 " fill="none" id="A2-to-UC2" style="stroke:#181818;stroke-width:1.0;"/><polygon fill="#181818" points="472.04,376.6894,479.3467,370.0854,474.068,372.1191,472.0343,366.8405,472.04,376.6894" style="stroke:#181818;stroke-width:1.0;"/></g><!--MD5=[335ee4181e20ba48a1aa3d9c170383b7]
link A2 to UC10--><g id="link_A2_UC10"><path d="M554.56,261.3194 C571.59,306.8094 601.71,384.8294 631.5,450.1094 C644.71,479.0594 661.76,511.5194 673.13,532.5794 " fill="none" id="A2-to-UC10" style="stroke:#181818;stroke-width:1.0;"/><polygon fill="#181818" points="675.61,537.1494,674.8365,527.3309,673.2267,532.7539,667.8038,531.1441,675.61,537.1494" style="stroke:#181818;stroke-width:1.0;"/></g><!--MD5=[65f5e5e40ea15cfbe2aeeda41fba9ccd]
link A2 to UC14--><g id="link_A2_UC14"><path d="M504.9,245.9294 C451.58,280.0994 352.03,343.9094 303.12,375.2694 " fill="none" id="A2-to-UC14" style="stroke:#181818;stroke-width:1.0;"/><polygon fill="#181818" points="298.83,378.0094,308.5659,376.5223,303.0401,375.3121,304.2503,369.7862,298.83,378.0094" style="stroke:#181818;stroke-width:1.0;"/></g><!--MD5=[6821d1e8c340f8369ba3c699ed033d0e]
link A2 to UC17--><g id="link_A2_UC17"><path d="M576.12,249.9794 C581.82,253.8894 587.74,257.7294 593.5,261.1094 C636.7,286.4794 648.26,292.4194 695.5,309.1094 C748.56,327.8494 764.71,322.5794 818.5,339.1094 C834.55,344.0494 851.41,349.7894 867.73,355.6694 " fill="none" id="A2-to-UC17" style="stroke:#181818;stroke-width:1.0;"/><polygon fill="#181818" points="872.77,357.4894,865.6672,350.6666,868.0681,355.7887,862.9461,358.1897,872.77,357.4894" style="stroke:#181818;stroke-width:1.0;"/></g><!--MD5=[50022cb1530fb6bfb70927a85de8a071]
link A3 to UC4--><g id="link_A3_UC4"><path d="M1529.64,251.6494 C1558.1,276.1494 1599.84,312.0994 1634.2,341.6894 " fill="none" id="A3-to-UC4" style="stroke:#181818;stroke-width:1.0;"/><polygon fill="#181818" points="1638.36,345.2594,1634.1299,336.3652,1634.5637,342.0054,1628.9235,342.4393,1638.36,345.2594" style="stroke:#181818;stroke-width:1.0;"/></g><!--MD5=[d36c84840c9d943262c953b992b4a936]
link A3 to UC5--><g id="link_A3_UC5"><path d="M1487.97,261.3694 C1480.51,294.8294 1469.93,342.3394 1463.68,370.3594 " fill="none" id="A3-to-UC5" style="stroke:#181818;stroke-width:1.0;"/><polygon fill="#181818" points="1462.57,375.3594,1468.432,367.4451,1463.6577,370.4791,1460.6236,365.7048,1462.57,375.3594" style="stroke:#181818;stroke-width:1.0;"/></g><!--MD5=[eea72cf21e663a81dcc210105fafd51c]
link A4 to UC8--><g id="link_A4_UC8"><path d="M800.68,101.1794 C837.08,126.8894 905.74,175.3794 943.66,202.1494 " fill="none" id="A4-to-UC8" style="stroke:#181818;stroke-width:1.0;"/><polygon fill="#181818" points="948.12,205.3094,943.0763,196.85,944.036,202.4248,938.4611,203.3844,948.12,205.3094" style="stroke:#181818;stroke-width:1.0;"/></g><!--MD5=[bf52976b87eeed91e37d3e4ffb80963c]
link A4 to UC9--><g id="link_A4_UC9"><path d="M752.42,121.1794 C735.88,146.6294 714.55,179.4694 700.94,200.4194 " fill="none" id="A4-to-UC9" style="stroke:#181818;stroke-width:1.0;"/><polygon fill="#181818" points="698.16,204.6994,706.4257,199.3442,700.8905,200.5108,699.7239,194.9755,698.16,204.6994" style="stroke:#181818;stroke-width:1.0;"/></g><!--MD5=[efb7b989c163c15e208ec355cdbd928a]
link A5 to UC17--><g id="link_A5_UC17"><path d="M859.8,261.3694 C878.17,284.5794 901.89,314.5394 922.11,340.0694 " fill="none" id="A5-to-UC17" style="stroke:#181818;stroke-width:1.0;"/><polygon fill="#181818" points="925.32,344.1294,922.8681,334.5906,922.2158,340.2097,916.5966,339.5574,925.32,344.1294" style="stroke:#181818;stroke-width:1.0;"/></g><!--MD5=[e3dcc9021ddc83ccbc4778239705f4f0]
reverse link A4 to A1--><g id="link_A4_A1"><path d="M732.93,95.7494 C636.18,121.5794 404.36,183.4894 307.35,209.3994 " fill="none" id="A4-backto-A1" style="stroke:#181818;stroke-width:1.0;"/><polygon fill="none" points="731.32,88.9294,752.45,90.5294,734.93,102.4594,731.32,88.9294" style="stroke:#181818;stroke-width:1.0;"/></g><!--MD5=[f04391b4b1281decd3208e17f062a140]
reverse link A4 to A2--><g id="link_A4_A2"><path d="M734.17,105.0894 C696.52,124.1894 640.33,153.8194 593.5,183.1094 C587.74,186.7094 581.77,190.7094 576,194.7294 " fill="none" id="A4-backto-A2" style="stroke:#181818;stroke-width:1.0;"/><polygon fill="none" points="731.25,98.7194,752.27,95.9894,737.54,111.2294,731.25,98.7194" style="stroke:#181818;stroke-width:1.0;"/></g><!--MD5=[70b0344d7a976e995a51ae62e2d2893f]
reverse link A4 to A3--><g id="link_A4_A3"><path d="M820.8,83.3294 C930.96,82.9294 1224.36,91.2694 1445.5,183.1094 C1451.62,185.6494 1457.67,189.0894 1463.35,192.8594 " fill="none" id="A4-backto-A3" style="stroke:#181818;stroke-width:1.0;"/><polygon fill="none" points="820.78,90.3294,800.72,83.5194,820.66,76.3294,820.78,90.3294" style="stroke:#181818;stroke-width:1.0;"/></g><!--MD5=[3494d9d3c2c274ef7601de895729adc0]
reverse link A4 to A5--><g id="link_A4_A5"><path d="M798.63,141.3094 C804.02,155.2594 809.67,169.8394 814.63,182.6794 " fill="none" id="A4-backto-A5" style="stroke:#181818;stroke-width:1.0;"/><polygon fill="none" points="791.95,143.4494,791.26,122.2694,805.01,138.3994,791.95,143.4494" style="stroke:#181818;stroke-width:1.0;"/></g><!--MD5=[d4a5aae1b0e654ff863e0f2caddd3bea]
reverse link UC3 to UC4--><g id="link_UC3_UC4"><path d="M1424.05,247.3994 C1431.06,252.0894 1438.45,256.8594 1445.5,261.1094 C1500.54,294.2994 1564.59,328.2794 1613.95,353.5294 " fill="none" id="UC3-backto-UC4" style="stroke:#181818;stroke-width:1.0;"/><polygon fill="none" points="1419.87,253.0194,1407.34,235.9294,1427.79,241.4694,1419.87,253.0194" style="stroke:#181818;stroke-width:1.0;"/></g><!--MD5=[a1313c52b5c2d6db7ccca18a4247035e]
reverse link UC3 to UC5--><g id="link_UC3_UC5"><path d="M1402.59,256.5894 C1408.86,272.5194 1416.5,291.8194 1423.5,309.1094 C1432.79,332.0694 1443.76,358.4294 1450.9,375.5094 " fill="none" id="UC3-backto-UC5" style="stroke:#181818;stroke-width:1.0;"/><polygon fill="none" points="1395.99,258.9194,1395.2,237.7494,1409.02,253.8094,1395.99,258.9194" style="stroke:#181818;stroke-width:1.0;"/></g><!--MD5=[053c46636aba9a94c8c1280b18a6b98c]
reverse link UC6 to UC10--><g id="link_UC6_UC10"><path d="M716.38,431.9794 C708.15,464.7994 696.38,511.7094 690.01,537.1094 " fill="none" id="UC6-backto-UC10" style="stroke:#181818;stroke-width:1.0;"/><polygon fill="none" points="709.64,430.0694,721.29,412.3794,723.22,433.4794,709.64,430.0694" style="stroke:#181818;stroke-width:1.0;"/></g><!--MD5=[ba7a27d4d845c764fca708d1fb834800]
link UC7 to UC17--><g id="link_UC7_UC17"><path d="M1146.46,248.6394 C1114.96,273.7294 1066.04,312.7094 1026.86,343.9294 " fill="none" id="UC7-to-UC17" style="stroke:#181818;stroke-width:1.0;stroke-dasharray:7.0,7.0;"/><polygon fill="#181818" points="1022.61,347.3094,1032.1377,344.8148,1026.5157,344.1876,1027.1429,338.5657,1022.61,347.3094" style="stroke:#181818;stroke-width:1.0;"/><text fill="#000000" font-family="sans-serif" font-size="13" lengthAdjust="spacing" textLength="55" x="1092.5" y="305.6045">«Extend»</text></g><!--MD5=[bfd8dde6ab81d7a2b55598cd820ae084]
link UC15 to UC4--><g id="link_UC15_UC4"><path d="M1694.5,239.7694 C1694.5,261.3994 1694.5,300.3394 1694.5,333.6194 " fill="none" id="UC15-to-UC4" style="stroke:#181818;stroke-width:1.0;stroke-dasharray:7.0,7.0;"/><polygon fill="#181818" points="1694.5,338.9194,1698.5,329.9194,1694.5,333.9194,1690.5,329.9194,1694.5,338.9194" style="stroke:#181818;stroke-width:1.0;"/><text fill="#000000" font-family="sans-serif" font-size="13" lengthAdjust="spacing" textLength="55" x="1695.5" y="305.6045">«Extend»</text></g><!--MD5=[9892b2e98b11eaea265fba5f9446f3b5]
link UC2 to UC16--><g id="link_UC2_UC16"><path d="M464.5,412.6794 C464.5,438.9194 464.5,489.6194 464.5,522.9094 " fill="none" id="UC2-to-UC16" style="stroke:#181818;stroke-width:1.0;stroke-dasharray:7.0,7.0;"/><polygon fill="#181818" points="464.5,528.0994,468.5,519.0994,464.5,523.0994,460.5,519.0994,464.5,528.0994" style="stroke:#181818;stroke-width:1.0;"/><text fill="#000000" font-family="sans-serif" font-size="13" lengthAdjust="spacing" textLength="55" x="465.5" y="494.6045">«Include»</text></g><!--MD5=[b8f1b1fd37715a8078fbd4c01fa74a1e]
link UC3 to UC13--><g id="link_UC3_UC13"><path d="M1378.94,237.0594 C1356.45,266.7894 1303.67,336.5594 1276.81,372.0494 " fill="none" id="UC3-to-UC13" style="stroke:#181818;stroke-width:1.0;stroke-dasharray:7.0,7.0;"/><polygon fill="#181818" points="1273.67,376.1994,1282.2891,371.4338,1276.686,372.2114,1275.9084,366.6083,1273.67,376.1994" style="stroke:#181818;stroke-width:1.0;"/><text fill="#000000" font-family="sans-serif" font-size="13" lengthAdjust="spacing" textLength="55" x="1338.5" y="305.6045">«Include»</text></g><!--MD5=[992ad1d86e7e2107573929e9c7f93d19]
link UC5 to UC11--><g id="link_UC5_UC11"><path d="M1458.5,413.9094 C1458.5,443.7594 1458.5,502.7794 1458.5,534.2294 " fill="none" id="UC5-to-UC11" style="stroke:#181818;stroke-width:1.0;stroke-dasharray:7.0,7.0;"/><polygon fill="#181818" points="1458.5,539.3994,1462.5,530.3994,1458.5,534.3994,1454.5,530.3994,1458.5,539.3994" style="stroke:#181818;stroke-width:1.0;"/><text fill="#000000" font-family="sans-serif" font-size="13" lengthAdjust="spacing" textLength="55" x="1459.5" y="494.6045">«Include»</text></g><!--MD5=[79f3d2acaec08e152149ce4e84fa776e]
link UC9 to UC6--><g id="link_UC9_UC6"><path d="M691.21,239.7694 C698.11,270.7094 712.89,337.0394 720.6,371.6194 " fill="none" id="UC9-to-UC6" style="stroke:#181818;stroke-width:1.0;stroke-dasharray:7.0,7.0;"/><polygon fill="#181818" points="721.77,376.8794,723.7164,367.2248,720.6823,371.9991,715.908,368.9651,721.77,376.8794" style="stroke:#181818;stroke-width:1.0;"/><text fill="#000000" font-family="sans-serif" font-size="13" lengthAdjust="spacing" textLength="55" x="707.5" y="305.6045">«Include»</text></g><!--MD5=[90fc8e7eeedf7c39018ba1c418da7951]
link UC10 to UC18--><g id="link_UC10_UC18"><path d="M685.5,575.1894 C685.5,596.2394 685.5,631.3994 685.5,657.0994 " fill="none" id="UC10-to-UC18" style="stroke:#181818;stroke-width:1.0;stroke-dasharray:7.0,7.0;"/><polygon fill="#181818" points="685.5,662.1094,689.5,653.1094,685.5,657.1094,681.5,653.1094,685.5,662.1094" style="stroke:#181818;stroke-width:1.0;"/><text fill="#000000" font-family="sans-serif" font-size="13" lengthAdjust="spacing" textLength="55" x="686.5" y="628.6045">«Include»</text></g><!--MD5=[1c1b821b4642fc95b634e62a055e6ffe]
link UC17 to UC1--><g id="link_UC17_UC1"><path d="M964.5,447.8394 C964.5,476.9794 964.5,511.7194 964.5,533.5994 " fill="none" id="UC17-to-UC1" style="stroke:#181818;stroke-width:1.0;stroke-dasharray:7.0,7.0;"/><polygon fill="#181818" points="964.5,538.8694,968.5,529.8694,964.5,533.8694,960.5,529.8694,964.5,538.8694" style="stroke:#181818;stroke-width:1.0;"/><text fill="#000000" font-family="sans-serif" font-size="13" lengthAdjust="spacing" textLength="55" x="965.5" y="494.6045">«Include»</text></g><!--MD5=[087d045794be995c5c60a5b4d8441b6b]
@startuml sistema_de_compras

title Sistema de Compras

:Administrador: as A1
:Comprador: as A2
:Proveedor: as A3
:Usuario: as A4
:Vendedor: as A5

(Acordar precio) as UC1
(Agregar producto)  as UC2
(Avisar)  as UC3
usecase UC4 as "Avisar de nuevo producto

- -
**extension points**
Incorporar oferta"
(Avisar fin de oferta) as UC5
(Buscar producto) as UC6
(Consultar histórico \n de ventas) as UC7
(Consultar oferta) as UC8
(Consultar precio) as UC9
(Consultar producto) as UC10
(Eliminar oferta) as UC11
(Eliminar producto) as UC12
(Enviar notificación) as UC13
(Finalizar compra) as UC14
(Incorporar oferta) as UC15
(Marcar producto \n como bloqueado) as UC16
usecase UC17 as "Realizar venta

- -
**extension points**
Consultar histórico de ventas"
(Verificar disponibilidad \n de producto) as UC18

A1 - -> UC12
A2 - -> UC2
A2 - -> UC10
A2 - -> UC14
A2 - -> UC17
A3 - -> UC4
A3 - -> UC5
A4 - -> UC8
A4 - -> UC9
A5 - -> UC17

A4 <|- - A1
A4 <|- - A2
A4 <|- - A3
A4 <|- - A5
UC3 <|- - UC4
UC3 <|- - UC5
UC6 <|- - UC10

UC7 ..> UC17 : <<Extend>>
UC15 ..> UC4 : <<Extend>>

UC2 ..> UC16 : <<Include>>
UC3 ..> UC13 : <<Include>>
UC5 ..> UC11 : <<Include>>
UC9 ..> UC6 : <<Include>>
UC10 ..> UC18 : <<Include>>
UC17 ..> UC1 : <<Include>>

@enduml

PlantUML version 1.2022.7(Mon Aug 22 19:01:30 CEST 2022)
(GPL source distribution)
Java Runtime: OpenJDK Runtime Environment
JVM: OpenJDK 64-Bit Server VM
Default Encoding: Cp1252
Language: es
Country: ES
--></g></svg>