<?xml version="1.0" encoding="UTF-8" standalone="no"?><svg xmlns="http://www.w3.org/2000/svg" xmlns:xlink="http://www.w3.org/1999/xlink" contentStyleType="text/css" height="1544px" preserveAspectRatio="none" style="width:907px;height:1544px;background:#FFFFFF;" version="1.1" viewBox="0 0 907 1544" width="907px" zoomAndPan="magnify"><defs/><g><rect fill="none" height="27.6094" id="_title" style="stroke:none;stroke-width:1.0;" width="323" x="285" y="5"/><text fill="#000000" font-family="sans-serif" font-size="14" font-weight="bold" lengthAdjust="spacing" textLength="313" x="290" y="24.5332">Requisitos Información: Sistema de Compras</text><!--MD5=[fdcda49d453d44c676d62f3f6af62207]
class Administrador--><g id="elem_Administrador"><rect codeLine="4" fill="#F1F1F1" height="224.0938" id="Administrador" rx="2.5" ry="2.5" style="stroke:#181818;stroke-width:0.5;" width="210" x="7" y="45.6094"/><ellipse cx="64.25" cy="61.6094" fill="#ADD1B2" rx="11" ry="11" style="stroke:#181818;stroke-width:1.0;"/><path d="M67.0156,57.4844 Q67.1719,57.2656 67.3594,57.1563 Q67.5469,57.0469 67.7656,57.0469 Q68.1406,57.0469 68.375,57.3125 Q68.6094,57.5625 68.6094,58.1719 L68.6094,59.625 Q68.6094,60.2344 68.375,60.5 Q68.1406,60.7656 67.7656,60.7656 Q67.4219,60.7656 67.2188,60.5625 Q67.0156,60.375 66.9063,59.8594 Q66.8594,59.5 66.6719,59.3125 Q66.3438,58.9375 65.7344,58.7188 Q65.125,58.5 64.5,58.5 Q63.7344,58.5 63.0938,58.8281 Q62.4688,59.1563 61.9688,59.9063 Q61.4844,60.6563 61.4844,61.6875 L61.4844,62.7813 Q61.4844,64.0156 62.375,64.8438 Q63.2656,65.6563 64.8594,65.6563 Q65.7969,65.6563 66.4531,65.4063 Q66.8438,65.25 67.2656,64.8125 Q67.5313,64.5469 67.6719,64.4688 Q67.8281,64.3906 68.0313,64.3906 Q68.3594,64.3906 68.6094,64.6563 Q68.875,64.9063 68.875,65.25 Q68.875,65.5938 68.5313,66 Q68.0313,66.5781 67.2344,66.9063 Q66.1563,67.3594 64.8594,67.3594 Q63.3438,67.3594 62.1406,66.7344 Q61.1563,66.2344 60.4688,65.1719 Q59.7813,64.0938 59.7813,62.8125 L59.7813,61.6563 Q59.7813,60.3281 60.3906,59.1875 Q61.0156,58.0313 62.1094,57.4219 Q63.2031,56.7969 64.4375,56.7969 Q65.1719,56.7969 65.8125,56.9688 Q66.4688,57.125 67.0156,57.4844 Z " fill="#000000"/><text fill="#000000" font-family="sans-serif" font-size="14" lengthAdjust="spacing" textLength="87" x="84.75" y="67.3379">Administrador</text><line style="stroke:#181818;stroke-width:0.5;" x1="8" x2="216" y1="77.6094" y2="77.6094"/><text fill="#000000" font-family="sans-serif" font-size="14" lengthAdjust="spacing" textLength="198" x="13" y="96.1426">PK FK idAdministrador : Integer</text><text fill="#000000" font-family="sans-serif" font-size="14" lengthAdjust="spacing" textLength="71" x="13" y="113.752">DNI : String</text><text fill="#000000" font-family="sans-serif" font-size="14" lengthAdjust="spacing" textLength="157" x="13" y="131.3613">nombreCompleto : String</text><text fill="#000000" font-family="sans-serif" font-size="14" lengthAdjust="spacing" textLength="157" x="13" y="148.9707">nombreCompleto : String</text><text fill="#000000" font-family="sans-serif" font-size="14" lengthAdjust="spacing" textLength="153" x="13" y="166.5801">fechaNacimiento : String</text><text fill="#000000" font-family="sans-serif" font-size="14" lengthAdjust="spacing" textLength="78" x="13" y="184.1895">sexo : String</text><text fill="#000000" font-family="sans-serif" font-size="14" lengthAdjust="spacing" textLength="101" x="13" y="201.7988">fechaAlta : Date</text><text fill="#000000" font-family="sans-serif" font-size="14" lengthAdjust="spacing" textLength="102" x="13" y="219.4082">direccion: String</text><text fill="#000000" font-family="sans-serif" font-size="14" lengthAdjust="spacing" textLength="100" x="13" y="237.0176">telefono : String</text><text fill="#000000" font-family="sans-serif" font-size="14" lengthAdjust="spacing" textLength="160" x="13" y="254.627">correoElectronico : String</text><line style="stroke:#181818;stroke-width:0.5;" x1="8" x2="216" y1="261.7031" y2="261.7031"/></g><!--MD5=[b757b6e529b763f8ad1e01e238f23ef8]
class Aviso--><g id="elem_Aviso"><rect codeLine="17" fill="#F1F1F1" height="171.2656" id="Aviso" rx="2.5" ry="2.5" style="stroke:#181818;stroke-width:0.5;" width="262" x="461" y="72.1094"/><ellipse cx="570.75" cy="88.1094" fill="#ADD1B2" rx="11" ry="11" style="stroke:#181818;stroke-width:1.0;"/><path d="M573.5156,83.9844 Q573.6719,83.7656 573.8594,83.6563 Q574.0469,83.5469 574.2656,83.5469 Q574.6406,83.5469 574.875,83.8125 Q575.1094,84.0625 575.1094,84.6719 L575.1094,86.125 Q575.1094,86.7344 574.875,87 Q574.6406,87.2656 574.2656,87.2656 Q573.9219,87.2656 573.7188,87.0625 Q573.5156,86.875 573.4063,86.3594 Q573.3594,86 573.1719,85.8125 Q572.8438,85.4375 572.2344,85.2188 Q571.625,85 571,85 Q570.2344,85 569.5938,85.3281 Q568.9688,85.6563 568.4688,86.4063 Q567.9844,87.1563 567.9844,88.1875 L567.9844,89.2813 Q567.9844,90.5156 568.875,91.3438 Q569.7656,92.1563 571.3594,92.1563 Q572.2969,92.1563 572.9531,91.9063 Q573.3438,91.75 573.7656,91.3125 Q574.0313,91.0469 574.1719,90.9688 Q574.3281,90.8906 574.5313,90.8906 Q574.8594,90.8906 575.1094,91.1563 Q575.375,91.4063 575.375,91.75 Q575.375,92.0938 575.0313,92.5 Q574.5313,93.0781 573.7344,93.4063 Q572.6563,93.8594 571.3594,93.8594 Q569.8438,93.8594 568.6406,93.2344 Q567.6563,92.7344 566.9688,91.6719 Q566.2813,90.5938 566.2813,89.3125 L566.2813,88.1563 Q566.2813,86.8281 566.8906,85.6875 Q567.5156,84.5313 568.6094,83.9219 Q569.7031,83.2969 570.9375,83.2969 Q571.6719,83.2969 572.3125,83.4688 Q572.9688,83.625 573.5156,83.9844 Z " fill="#000000"/><text fill="#000000" font-family="sans-serif" font-size="14" lengthAdjust="spacing" textLength="34" x="591.25" y="93.8379">Aviso</text><line style="stroke:#181818;stroke-width:0.5;" x1="462" x2="722" y1="104.1094" y2="104.1094"/><text fill="#000000" font-family="sans-serif" font-size="14" lengthAdjust="spacing" textLength="145" x="467" y="122.6426">PK FK idAviso : Integer</text><text fill="#000000" font-family="sans-serif" font-size="14" lengthAdjust="spacing" textLength="90" x="467" y="140.252">motivo : String</text><text fill="#000000" font-family="sans-serif" font-size="14" lengthAdjust="spacing" textLength="93" x="467" y="157.8613">cuerpo : String</text><text fill="#000000" font-family="sans-serif" font-size="14" lengthAdjust="spacing" textLength="146" x="467" y="175.4707">FK idProducto : Integer</text><text fill="#000000" font-family="sans-serif" font-size="14" lengthAdjust="spacing" textLength="129" x="467" y="193.0801">FK idOferta : Integer</text><text fill="#000000" font-family="sans-serif" font-size="14" lengthAdjust="spacing" textLength="155" x="467" y="210.6895">FK idProveedor : Integer</text><line style="stroke:#181818;stroke-width:0.5;" x1="462" x2="722" y1="217.7656" y2="217.7656"/><text fill="#000000" font-family="sans-serif" font-size="14" lengthAdjust="spacing" textLength="250" x="467" y="236.2988">tipo : ENUM('nuevoProducto','finOferta')</text></g><!--MD5=[397824e8babee918cdd33b0c25bcd5bc]
class Carrito--><g id="elem_Carrito"><rect codeLine="27" fill="#F1F1F1" height="83.2188" id="Carrito" rx="2.5" ry="2.5" style="stroke:#181818;stroke-width:0.5;" width="172" x="588" y="835.1094"/><ellipse cx="648.25" cy="851.1094" fill="#ADD1B2" rx="11" ry="11" style="stroke:#181818;stroke-width:1.0;"/><path d="M651.0156,846.9844 Q651.1719,846.7656 651.3594,846.6563 Q651.5469,846.5469 651.7656,846.5469 Q652.1406,846.5469 652.375,846.8125 Q652.6094,847.0625 652.6094,847.6719 L652.6094,849.125 Q652.6094,849.7344 652.375,850 Q652.1406,850.2656 651.7656,850.2656 Q651.4219,850.2656 651.2188,850.0625 Q651.0156,849.875 650.9063,849.3594 Q650.8594,849 650.6719,848.8125 Q650.3438,848.4375 649.7344,848.2188 Q649.125,848 648.5,848 Q647.7344,848 647.0938,848.3281 Q646.4688,848.6563 645.9688,849.4063 Q645.4844,850.1563 645.4844,851.1875 L645.4844,852.2813 Q645.4844,853.5156 646.375,854.3438 Q647.2656,855.1563 648.8594,855.1563 Q649.7969,855.1563 650.4531,854.9063 Q650.8438,854.75 651.2656,854.3125 Q651.5313,854.0469 651.6719,853.9688 Q651.8281,853.8906 652.0313,853.8906 Q652.3594,853.8906 652.6094,854.1563 Q652.875,854.4063 652.875,854.75 Q652.875,855.0938 652.5313,855.5 Q652.0313,856.0781 651.2344,856.4063 Q650.1563,856.8594 648.8594,856.8594 Q647.3438,856.8594 646.1406,856.2344 Q645.1563,855.7344 644.4688,854.6719 Q643.7813,853.5938 643.7813,852.3125 L643.7813,851.1563 Q643.7813,849.8281 644.3906,848.6875 Q645.0156,847.5313 646.1094,846.9219 Q647.2031,846.2969 648.4375,846.2969 Q649.1719,846.2969 649.8125,846.4688 Q650.4688,846.625 651.0156,846.9844 Z " fill="#000000"/><text fill="#000000" font-family="sans-serif" font-size="14" lengthAdjust="spacing" textLength="43" x="668.75" y="856.8379">Carrito</text><line style="stroke:#181818;stroke-width:0.5;" x1="589" x2="759" y1="867.1094" y2="867.1094"/><text fill="#000000" font-family="sans-serif" font-size="14" lengthAdjust="spacing" textLength="154" x="594" y="885.6426">PK FK idCarrito : Integer</text><text fill="#000000" font-family="sans-serif" font-size="14" lengthAdjust="spacing" textLength="160" x="594" y="903.252">FK idComprador : Integer</text><line style="stroke:#181818;stroke-width:0.5;" x1="589" x2="759" y1="910.3281" y2="910.3281"/></g><!--MD5=[b7fe046d4845e3bd8f5da0df8750d115]
class compra--><g id="elem_compra"><rect codeLine="32" fill="#F1F1F1" height="118.4375" id="compra" rx="2.5" ry="2.5" style="stroke:#181818;stroke-width:0.5;" width="173" x="252.5" y="98.6094"/><ellipse cx="311.25" cy="114.6094" fill="#ADD1B2" rx="11" ry="11" style="stroke:#181818;stroke-width:1.0;"/><path d="M314.0156,110.4844 Q314.1719,110.2656 314.3594,110.1563 Q314.5469,110.0469 314.7656,110.0469 Q315.1406,110.0469 315.375,110.3125 Q315.6094,110.5625 315.6094,111.1719 L315.6094,112.625 Q315.6094,113.2344 315.375,113.5 Q315.1406,113.7656 314.7656,113.7656 Q314.4219,113.7656 314.2188,113.5625 Q314.0156,113.375 313.9063,112.8594 Q313.8594,112.5 313.6719,112.3125 Q313.3438,111.9375 312.7344,111.7188 Q312.125,111.5 311.5,111.5 Q310.7344,111.5 310.0938,111.8281 Q309.4688,112.1563 308.9688,112.9063 Q308.4844,113.6563 308.4844,114.6875 L308.4844,115.7813 Q308.4844,117.0156 309.375,117.8438 Q310.2656,118.6563 311.8594,118.6563 Q312.7969,118.6563 313.4531,118.4063 Q313.8438,118.25 314.2656,117.8125 Q314.5313,117.5469 314.6719,117.4688 Q314.8281,117.3906 315.0313,117.3906 Q315.3594,117.3906 315.6094,117.6563 Q315.875,117.9063 315.875,118.25 Q315.875,118.5938 315.5313,119 Q315.0313,119.5781 314.2344,119.9063 Q313.1563,120.3594 311.8594,120.3594 Q310.3438,120.3594 309.1406,119.7344 Q308.1563,119.2344 307.4688,118.1719 Q306.7813,117.0938 306.7813,115.8125 L306.7813,114.6563 Q306.7813,113.3281 307.3906,112.1875 Q308.0156,111.0313 309.1094,110.4219 Q310.2031,109.7969 311.4375,109.7969 Q312.1719,109.7969 312.8125,109.9688 Q313.4688,110.125 314.0156,110.4844 Z " fill="#000000"/><text fill="#000000" font-family="sans-serif" font-size="14" lengthAdjust="spacing" textLength="47" x="331.75" y="120.3379">compra</text><line style="stroke:#181818;stroke-width:0.5;" x1="253.5" x2="424.5" y1="130.6094" y2="130.6094"/><text fill="#000000" font-family="sans-serif" font-size="14" lengthAdjust="spacing" textLength="161" x="258.5" y="149.1426">PK FK idCompra : Integer</text><text fill="#000000" font-family="sans-serif" font-size="14" lengthAdjust="spacing" textLength="77" x="258.5" y="166.752">fecha : Date</text><text fill="#000000" font-family="sans-serif" font-size="14" lengthAdjust="spacing" textLength="160" x="258.5" y="184.3613">FK idComprador : Integer</text><text fill="#000000" font-family="sans-serif" font-size="14" lengthAdjust="spacing" textLength="136" x="258.5" y="201.9707">FK  idCarrito : Integer</text><line style="stroke:#181818;stroke-width:0.5;" x1="253.5" x2="424.5" y1="209.0469" y2="209.0469"/></g><!--MD5=[42ab3172323ec0cd54427087d08fabe5]
class Comprador--><g id="elem_Comprador"><rect codeLine="39" fill="#F1F1F1" height="224.0938" id="Comprador" rx="2.5" ry="2.5" style="stroke:#181818;stroke-width:0.5;" width="194" x="577" y="1056.6094"/><ellipse cx="634.25" cy="1072.6094" fill="#ADD1B2" rx="11" ry="11" style="stroke:#181818;stroke-width:1.0;"/><path d="M637.0156,1068.4844 Q637.1719,1068.2656 637.3594,1068.1563 Q637.5469,1068.0469 637.7656,1068.0469 Q638.1406,1068.0469 638.375,1068.3125 Q638.6094,1068.5625 638.6094,1069.1719 L638.6094,1070.625 Q638.6094,1071.2344 638.375,1071.5 Q638.1406,1071.7656 637.7656,1071.7656 Q637.4219,1071.7656 637.2188,1071.5625 Q637.0156,1071.375 636.9063,1070.8594 Q636.8594,1070.5 636.6719,1070.3125 Q636.3438,1069.9375 635.7344,1069.7188 Q635.125,1069.5 634.5,1069.5 Q633.7344,1069.5 633.0938,1069.8281 Q632.4688,1070.1563 631.9688,1070.9063 Q631.4844,1071.6563 631.4844,1072.6875 L631.4844,1073.7813 Q631.4844,1075.0156 632.375,1075.8438 Q633.2656,1076.6563 634.8594,1076.6563 Q635.7969,1076.6563 636.4531,1076.4063 Q636.8438,1076.25 637.2656,1075.8125 Q637.5313,1075.5469 637.6719,1075.4688 Q637.8281,1075.3906 638.0313,1075.3906 Q638.3594,1075.3906 638.6094,1075.6563 Q638.875,1075.9063 638.875,1076.25 Q638.875,1076.5938 638.5313,1077 Q638.0313,1077.5781 637.2344,1077.9063 Q636.1563,1078.3594 634.8594,1078.3594 Q633.3438,1078.3594 632.1406,1077.7344 Q631.1563,1077.2344 630.4688,1076.1719 Q629.7813,1075.0938 629.7813,1073.8125 L629.7813,1072.6563 Q629.7813,1071.3281 630.3906,1070.1875 Q631.0156,1069.0313 632.1094,1068.4219 Q633.2031,1067.7969 634.4375,1067.7969 Q635.1719,1067.7969 635.8125,1067.9688 Q636.4688,1068.125 637.0156,1068.4844 Z " fill="#000000"/><text fill="#000000" font-family="sans-serif" font-size="14" lengthAdjust="spacing" textLength="71" x="654.75" y="1078.3379">Comprador</text><line style="stroke:#181818;stroke-width:0.5;" x1="578" x2="770" y1="1088.6094" y2="1088.6094"/><text fill="#000000" font-family="sans-serif" font-size="14" lengthAdjust="spacing" textLength="182" x="583" y="1107.1426">PK FK idComprador : Integer</text><text fill="#000000" font-family="sans-serif" font-size="14" lengthAdjust="spacing" textLength="71" x="583" y="1124.752">DNI : String</text><text fill="#000000" font-family="sans-serif" font-size="14" lengthAdjust="spacing" textLength="157" x="583" y="1142.3613">nombreCompleto : String</text><text fill="#000000" font-family="sans-serif" font-size="14" lengthAdjust="spacing" textLength="157" x="583" y="1159.9707">nombreCompleto : String</text><text fill="#000000" font-family="sans-serif" font-size="14" lengthAdjust="spacing" textLength="153" x="583" y="1177.5801">fechaNacimiento : String</text><text fill="#000000" font-family="sans-serif" font-size="14" lengthAdjust="spacing" textLength="78" x="583" y="1195.1895">sexo : String</text><text fill="#000000" font-family="sans-serif" font-size="14" lengthAdjust="spacing" textLength="101" x="583" y="1212.7988">fechaAlta : Date</text><text fill="#000000" font-family="sans-serif" font-size="14" lengthAdjust="spacing" textLength="102" x="583" y="1230.4082">direccion: String</text><text fill="#000000" font-family="sans-serif" font-size="14" lengthAdjust="spacing" textLength="100" x="583" y="1248.0176">telefono : String</text><text fill="#000000" font-family="sans-serif" font-size="14" lengthAdjust="spacing" textLength="160" x="583" y="1265.627">correoElectronico : String</text><line style="stroke:#181818;stroke-width:0.5;" x1="578" x2="770" y1="1272.7031" y2="1272.7031"/></g><!--MD5=[36fb0ac81eb7eeb71a5554db4f7e7114]
class Notificación--><g id="elem_Notificación"><rect codeLine="52" fill="#F1F1F1" height="83.2188" id="Notificación" rx="2.5" ry="2.5" style="stroke:#181818;stroke-width:0.5;" width="178" x="23" y="329.6094"/><ellipse cx="71.75" cy="345.6094" fill="#ADD1B2" rx="11" ry="11" style="stroke:#181818;stroke-width:1.0;"/><path d="M74.5156,341.4844 Q74.6719,341.2656 74.8594,341.1563 Q75.0469,341.0469 75.2656,341.0469 Q75.6406,341.0469 75.875,341.3125 Q76.1094,341.5625 76.1094,342.1719 L76.1094,343.625 Q76.1094,344.2344 75.875,344.5 Q75.6406,344.7656 75.2656,344.7656 Q74.9219,344.7656 74.7188,344.5625 Q74.5156,344.375 74.4063,343.8594 Q74.3594,343.5 74.1719,343.3125 Q73.8438,342.9375 73.2344,342.7188 Q72.625,342.5 72,342.5 Q71.2344,342.5 70.5938,342.8281 Q69.9688,343.1563 69.4688,343.9063 Q68.9844,344.6563 68.9844,345.6875 L68.9844,346.7813 Q68.9844,348.0156 69.875,348.8438 Q70.7656,349.6563 72.3594,349.6563 Q73.2969,349.6563 73.9531,349.4063 Q74.3438,349.25 74.7656,348.8125 Q75.0313,348.5469 75.1719,348.4688 Q75.3281,348.3906 75.5313,348.3906 Q75.8594,348.3906 76.1094,348.6563 Q76.375,348.9063 76.375,349.25 Q76.375,349.5938 76.0313,350 Q75.5313,350.5781 74.7344,350.9063 Q73.6563,351.3594 72.3594,351.3594 Q70.8438,351.3594 69.6406,350.7344 Q68.6563,350.2344 67.9688,349.1719 Q67.2813,348.0938 67.2813,346.8125 L67.2813,345.6563 Q67.2813,344.3281 67.8906,343.1875 Q68.5156,342.0313 69.6094,341.4219 Q70.7031,340.7969 71.9375,340.7969 Q72.6719,340.7969 73.3125,340.9688 Q73.9688,341.125 74.5156,341.4844 Z " fill="#000000"/><text fill="#000000" font-family="sans-serif" font-size="14" lengthAdjust="spacing" textLength="72" x="92.25" y="351.3379">Notificación</text><line style="stroke:#181818;stroke-width:0.5;" x1="24" x2="200" y1="361.6094" y2="361.6094"/><text fill="#000000" font-family="sans-serif" font-size="14" lengthAdjust="spacing" textLength="145" x="29" y="380.1426">PK FK idAviso : Integer</text><text fill="#000000" font-family="sans-serif" font-size="14" lengthAdjust="spacing" textLength="166" x="29" y="397.752">mensajeGenerado : String</text><line style="stroke:#181818;stroke-width:0.5;" x1="24" x2="200" y1="404.8281" y2="404.8281"/></g><!--MD5=[4668456ee0d5bf931cf805ae22408c96]
class Oferta--><g id="elem_Oferta"><rect codeLine="57" fill="#F1F1F1" height="171.2656" id="Oferta" rx="2.5" ry="2.5" style="stroke:#181818;stroke-width:0.5;" width="157" x="307.5" y="499.1094"/><ellipse cx="361.75" cy="515.1094" fill="#ADD1B2" rx="11" ry="11" style="stroke:#181818;stroke-width:1.0;"/><path d="M364.5156,510.9844 Q364.6719,510.7656 364.8594,510.6563 Q365.0469,510.5469 365.2656,510.5469 Q365.6406,510.5469 365.875,510.8125 Q366.1094,511.0625 366.1094,511.6719 L366.1094,513.125 Q366.1094,513.7344 365.875,514 Q365.6406,514.2656 365.2656,514.2656 Q364.9219,514.2656 364.7188,514.0625 Q364.5156,513.875 364.4063,513.3594 Q364.3594,513 364.1719,512.8125 Q363.8438,512.4375 363.2344,512.2188 Q362.625,512 362,512 Q361.2344,512 360.5938,512.3281 Q359.9688,512.6563 359.4688,513.4063 Q358.9844,514.1563 358.9844,515.1875 L358.9844,516.2813 Q358.9844,517.5156 359.875,518.3438 Q360.7656,519.1563 362.3594,519.1563 Q363.2969,519.1563 363.9531,518.9063 Q364.3438,518.75 364.7656,518.3125 Q365.0313,518.0469 365.1719,517.9688 Q365.3281,517.8906 365.5313,517.8906 Q365.8594,517.8906 366.1094,518.1563 Q366.375,518.4063 366.375,518.75 Q366.375,519.0938 366.0313,519.5 Q365.5313,520.0781 364.7344,520.4063 Q363.6563,520.8594 362.3594,520.8594 Q360.8438,520.8594 359.6406,520.2344 Q358.6563,519.7344 357.9688,518.6719 Q357.2813,517.5938 357.2813,516.3125 L357.2813,515.1563 Q357.2813,513.8281 357.8906,512.6875 Q358.5156,511.5313 359.6094,510.9219 Q360.7031,510.2969 361.9375,510.2969 Q362.6719,510.2969 363.3125,510.4688 Q363.9688,510.625 364.5156,510.9844 Z " fill="#000000"/><text fill="#000000" font-family="sans-serif" font-size="14" lengthAdjust="spacing" textLength="40" x="382.25" y="520.8379">Oferta</text><line style="stroke:#181818;stroke-width:0.5;" x1="308.5" x2="463.5" y1="531.1094" y2="531.1094"/><text fill="#000000" font-family="sans-serif" font-size="14" lengthAdjust="spacing" textLength="133" x="313.5" y="549.6426">PK idOgerta : Integer</text><text fill="#000000" font-family="sans-serif" font-size="14" lengthAdjust="spacing" textLength="145" x="313.5" y="567.252">precioOriginal : Double</text><text fill="#000000" font-family="sans-serif" font-size="14" lengthAdjust="spacing" textLength="136" x="313.5" y="584.8613">precioNuevo : Double</text><text fill="#000000" font-family="sans-serif" font-size="14" lengthAdjust="spacing" textLength="116" x="313.5" y="602.4707">fechaInicio : String</text><text fill="#000000" font-family="sans-serif" font-size="14" lengthAdjust="spacing" textLength="104" x="313.5" y="620.0801">fechaFin : String</text><text fill="#000000" font-family="sans-serif" font-size="14" lengthAdjust="spacing" textLength="110" x="313.5" y="637.6895">vigente : Boolean</text><text fill="#000000" font-family="sans-serif" font-size="14" lengthAdjust="spacing" textLength="138" x="313.5" y="655.2988">FK idProducto Integer</text><line style="stroke:#181818;stroke-width:0.5;" x1="308.5" x2="463.5" y1="662.375" y2="662.375"/></g><!--MD5=[9884e166d189446fe4825863c8acf943]
class Producto--><g id="elem_Producto"><rect codeLine="67" fill="#F1F1F1" height="118.4375" id="Producto" rx="2.5" ry="2.5" style="stroke:#181818;stroke-width:0.5;" width="180" x="362" y="817.6094"/><ellipse cx="419.25" cy="833.6094" fill="#ADD1B2" rx="11" ry="11" style="stroke:#181818;stroke-width:1.0;"/><path d="M422.0156,829.4844 Q422.1719,829.2656 422.3594,829.1563 Q422.5469,829.0469 422.7656,829.0469 Q423.1406,829.0469 423.375,829.3125 Q423.6094,829.5625 423.6094,830.1719 L423.6094,831.625 Q423.6094,832.2344 423.375,832.5 Q423.1406,832.7656 422.7656,832.7656 Q422.4219,832.7656 422.2188,832.5625 Q422.0156,832.375 421.9063,831.8594 Q421.8594,831.5 421.6719,831.3125 Q421.3438,830.9375 420.7344,830.7188 Q420.125,830.5 419.5,830.5 Q418.7344,830.5 418.0938,830.8281 Q417.4688,831.1563 416.9688,831.9063 Q416.4844,832.6563 416.4844,833.6875 L416.4844,834.7813 Q416.4844,836.0156 417.375,836.8438 Q418.2656,837.6563 419.8594,837.6563 Q420.7969,837.6563 421.4531,837.4063 Q421.8438,837.25 422.2656,836.8125 Q422.5313,836.5469 422.6719,836.4688 Q422.8281,836.3906 423.0313,836.3906 Q423.3594,836.3906 423.6094,836.6563 Q423.875,836.9063 423.875,837.25 Q423.875,837.5938 423.5313,838 Q423.0313,838.5781 422.2344,838.9063 Q421.1563,839.3594 419.8594,839.3594 Q418.3438,839.3594 417.1406,838.7344 Q416.1563,838.2344 415.4688,837.1719 Q414.7813,836.0938 414.7813,834.8125 L414.7813,833.6563 Q414.7813,832.3281 415.3906,831.1875 Q416.0156,830.0313 417.1094,829.4219 Q418.2031,828.7969 419.4375,828.7969 Q420.1719,828.7969 420.8125,828.9688 Q421.4688,829.125 422.0156,829.4844 Z " fill="#000000"/><text fill="#000000" font-family="sans-serif" font-size="14" lengthAdjust="spacing" textLength="57" x="439.75" y="839.3379">Producto</text><line style="stroke:#181818;stroke-width:0.5;" x1="363" x2="541" y1="849.6094" y2="849.6094"/><text fill="#000000" font-family="sans-serif" font-size="14" lengthAdjust="spacing" textLength="168" x="368" y="868.1426">PK FK idProducto : Integer</text><text fill="#000000" font-family="sans-serif" font-size="14" lengthAdjust="spacing" textLength="96" x="368" y="885.752">precio : Double</text><text fill="#000000" font-family="sans-serif" font-size="14" lengthAdjust="spacing" textLength="131" x="368" y="903.3613">bloqueado : Boolean</text><text fill="#000000" font-family="sans-serif" font-size="14" lengthAdjust="spacing" textLength="128" x="368" y="920.9707">disponible : Boolean</text><line style="stroke:#181818;stroke-width:0.5;" x1="363" x2="541" y1="928.0469" y2="928.0469"/></g><!--MD5=[4aa7a682b98f74952b64472b1e37b6e5]
class ProductoEnCarrito--><g id="elem_ProductoEnCarrito"><rect codeLine="74" fill="#F1F1F1" height="83.2188" id="ProductoEnCarrito" rx="2.5" ry="2.5" style="stroke:#181818;stroke-width:0.5;" width="180" x="362" y="1127.1094"/><ellipse cx="390.95" cy="1143.1094" fill="#ADD1B2" rx="11" ry="11" style="stroke:#181818;stroke-width:1.0;"/><path d="M393.7156,1138.9844 Q393.8719,1138.7656 394.0594,1138.6563 Q394.2469,1138.5469 394.4656,1138.5469 Q394.8406,1138.5469 395.075,1138.8125 Q395.3094,1139.0625 395.3094,1139.6719 L395.3094,1141.125 Q395.3094,1141.7344 395.075,1142 Q394.8406,1142.2656 394.4656,1142.2656 Q394.1219,1142.2656 393.9188,1142.0625 Q393.7156,1141.875 393.6063,1141.3594 Q393.5594,1141 393.3719,1140.8125 Q393.0438,1140.4375 392.4344,1140.2188 Q391.825,1140 391.2,1140 Q390.4344,1140 389.7938,1140.3281 Q389.1688,1140.6563 388.6688,1141.4063 Q388.1844,1142.1563 388.1844,1143.1875 L388.1844,1144.2813 Q388.1844,1145.5156 389.075,1146.3438 Q389.9656,1147.1563 391.5594,1147.1563 Q392.4969,1147.1563 393.1531,1146.9063 Q393.5438,1146.75 393.9656,1146.3125 Q394.2313,1146.0469 394.3719,1145.9688 Q394.5281,1145.8906 394.7313,1145.8906 Q395.0594,1145.8906 395.3094,1146.1563 Q395.575,1146.4063 395.575,1146.75 Q395.575,1147.0938 395.2313,1147.5 Q394.7313,1148.0781 393.9344,1148.4063 Q392.8563,1148.8594 391.5594,1148.8594 Q390.0438,1148.8594 388.8406,1148.2344 Q387.8563,1147.7344 387.1688,1146.6719 Q386.4813,1145.5938 386.4813,1144.3125 L386.4813,1143.1563 Q386.4813,1141.8281 387.0906,1140.6875 Q387.7156,1139.5313 388.8094,1138.9219 Q389.9031,1138.2969 391.1375,1138.2969 Q391.8719,1138.2969 392.5125,1138.4688 Q393.1688,1138.625 393.7156,1138.9844 Z " fill="#000000"/><text fill="#000000" font-family="sans-serif" font-size="14" lengthAdjust="spacing" textLength="117" x="408.05" y="1148.8379">ProductoEnCarrito</text><line style="stroke:#181818;stroke-width:0.5;" x1="363" x2="541" y1="1159.1094" y2="1159.1094"/><text fill="#000000" font-family="sans-serif" font-size="14" lengthAdjust="spacing" textLength="168" x="368" y="1177.6426">PK FK idProducto : Integer</text><text fill="#000000" font-family="sans-serif" font-size="14" lengthAdjust="spacing" textLength="154" x="368" y="1195.252">PK FK idCarrito : Integer</text><line style="stroke:#181818;stroke-width:0.5;" x1="363" x2="541" y1="1202.3281" y2="1202.3281"/></g><!--MD5=[21174dace72aba80a8f72654e0d803f1]
class Proveedor--><g id="elem_Proveedor"><rect codeLine="79" fill="#F1F1F1" height="224.0938" id="Proveedor" rx="2.5" ry="2.5" style="stroke:#181818;stroke-width:0.5;" width="189" x="571.5" y="472.6094"/><ellipse cx="628.75" cy="488.6094" fill="#ADD1B2" rx="11" ry="11" style="stroke:#181818;stroke-width:1.0;"/><path d="M631.5156,484.4844 Q631.6719,484.2656 631.8594,484.1563 Q632.0469,484.0469 632.2656,484.0469 Q632.6406,484.0469 632.875,484.3125 Q633.1094,484.5625 633.1094,485.1719 L633.1094,486.625 Q633.1094,487.2344 632.875,487.5 Q632.6406,487.7656 632.2656,487.7656 Q631.9219,487.7656 631.7188,487.5625 Q631.5156,487.375 631.4063,486.8594 Q631.3594,486.5 631.1719,486.3125 Q630.8438,485.9375 630.2344,485.7188 Q629.625,485.5 629,485.5 Q628.2344,485.5 627.5938,485.8281 Q626.9688,486.1563 626.4688,486.9063 Q625.9844,487.6563 625.9844,488.6875 L625.9844,489.7813 Q625.9844,491.0156 626.875,491.8438 Q627.7656,492.6563 629.3594,492.6563 Q630.2969,492.6563 630.9531,492.4063 Q631.3438,492.25 631.7656,491.8125 Q632.0313,491.5469 632.1719,491.4688 Q632.3281,491.3906 632.5313,491.3906 Q632.8594,491.3906 633.1094,491.6563 Q633.375,491.9063 633.375,492.25 Q633.375,492.5938 633.0313,493 Q632.5313,493.5781 631.7344,493.9063 Q630.6563,494.3594 629.3594,494.3594 Q627.8438,494.3594 626.6406,493.7344 Q625.6563,493.2344 624.9688,492.1719 Q624.2813,491.0938 624.2813,489.8125 L624.2813,488.6563 Q624.2813,487.3281 624.8906,486.1875 Q625.5156,485.0313 626.6094,484.4219 Q627.7031,483.7969 628.9375,483.7969 Q629.6719,483.7969 630.3125,483.9688 Q630.9688,484.125 631.5156,484.4844 Z " fill="#000000"/><text fill="#000000" font-family="sans-serif" font-size="14" lengthAdjust="spacing" textLength="66" x="649.25" y="494.3379">Proveedor</text><line style="stroke:#181818;stroke-width:0.5;" x1="572.5" x2="759.5" y1="504.6094" y2="504.6094"/><text fill="#000000" font-family="sans-serif" font-size="14" lengthAdjust="spacing" textLength="177" x="577.5" y="523.1426">PK FK idProveedor : Integer</text><text fill="#000000" font-family="sans-serif" font-size="14" lengthAdjust="spacing" textLength="71" x="577.5" y="540.752">DNI : String</text><text fill="#000000" font-family="sans-serif" font-size="14" lengthAdjust="spacing" textLength="157" x="577.5" y="558.3613">nombreCompleto : String</text><text fill="#000000" font-family="sans-serif" font-size="14" lengthAdjust="spacing" textLength="157" x="577.5" y="575.9707">nombreCompleto : String</text><text fill="#000000" font-family="sans-serif" font-size="14" lengthAdjust="spacing" textLength="153" x="577.5" y="593.5801">fechaNacimiento : String</text><text fill="#000000" font-family="sans-serif" font-size="14" lengthAdjust="spacing" textLength="78" x="577.5" y="611.1895">sexo : String</text><text fill="#000000" font-family="sans-serif" font-size="14" lengthAdjust="spacing" textLength="101" x="577.5" y="628.7988">fechaAlta : Date</text><text fill="#000000" font-family="sans-serif" font-size="14" lengthAdjust="spacing" textLength="102" x="577.5" y="646.4082">direccion: String</text><text fill="#000000" font-family="sans-serif" font-size="14" lengthAdjust="spacing" textLength="100" x="577.5" y="664.0176">telefono : String</text><text fill="#000000" font-family="sans-serif" font-size="14" lengthAdjust="spacing" textLength="160" x="577.5" y="681.627">correoElectronico : String</text><line style="stroke:#181818;stroke-width:0.5;" x1="572.5" x2="759.5" y1="688.7031" y2="688.7031"/></g><!--MD5=[e363550a3c76349e2d25d63e24111731]
class Vendedor--><g id="elem_Vendedor"><rect codeLine="92" fill="#F1F1F1" height="224.0938" id="Vendedor" rx="2.5" ry="2.5" style="stroke:#181818;stroke-width:0.5;" width="185" x="141.5" y="1056.6094"/><ellipse cx="198.75" cy="1072.6094" fill="#ADD1B2" rx="11" ry="11" style="stroke:#181818;stroke-width:1.0;"/><path d="M201.5156,1068.4844 Q201.6719,1068.2656 201.8594,1068.1563 Q202.0469,1068.0469 202.2656,1068.0469 Q202.6406,1068.0469 202.875,1068.3125 Q203.1094,1068.5625 203.1094,1069.1719 L203.1094,1070.625 Q203.1094,1071.2344 202.875,1071.5 Q202.6406,1071.7656 202.2656,1071.7656 Q201.9219,1071.7656 201.7188,1071.5625 Q201.5156,1071.375 201.4063,1070.8594 Q201.3594,1070.5 201.1719,1070.3125 Q200.8438,1069.9375 200.2344,1069.7188 Q199.625,1069.5 199,1069.5 Q198.2344,1069.5 197.5938,1069.8281 Q196.9688,1070.1563 196.4688,1070.9063 Q195.9844,1071.6563 195.9844,1072.6875 L195.9844,1073.7813 Q195.9844,1075.0156 196.875,1075.8438 Q197.7656,1076.6563 199.3594,1076.6563 Q200.2969,1076.6563 200.9531,1076.4063 Q201.3438,1076.25 201.7656,1075.8125 Q202.0313,1075.5469 202.1719,1075.4688 Q202.3281,1075.3906 202.5313,1075.3906 Q202.8594,1075.3906 203.1094,1075.6563 Q203.375,1075.9063 203.375,1076.25 Q203.375,1076.5938 203.0313,1077 Q202.5313,1077.5781 201.7344,1077.9063 Q200.6563,1078.3594 199.3594,1078.3594 Q197.8438,1078.3594 196.6406,1077.7344 Q195.6563,1077.2344 194.9688,1076.1719 Q194.2813,1075.0938 194.2813,1073.8125 L194.2813,1072.6563 Q194.2813,1071.3281 194.8906,1070.1875 Q195.5156,1069.0313 196.6094,1068.4219 Q197.7031,1067.7969 198.9375,1067.7969 Q199.6719,1067.7969 200.3125,1067.9688 Q200.9688,1068.125 201.5156,1068.4844 Z " fill="#000000"/><text fill="#000000" font-family="sans-serif" font-size="14" lengthAdjust="spacing" textLength="62" x="219.25" y="1078.3379">Vendedor</text><line style="stroke:#181818;stroke-width:0.5;" x1="142.5" x2="325.5" y1="1088.6094" y2="1088.6094"/><text fill="#000000" font-family="sans-serif" font-size="14" lengthAdjust="spacing" textLength="173" x="147.5" y="1107.1426">PK FK idVendedor : Integer</text><text fill="#000000" font-family="sans-serif" font-size="14" lengthAdjust="spacing" textLength="71" x="147.5" y="1124.752">DNI : String</text><text fill="#000000" font-family="sans-serif" font-size="14" lengthAdjust="spacing" textLength="157" x="147.5" y="1142.3613">nombreCompleto : String</text><text fill="#000000" font-family="sans-serif" font-size="14" lengthAdjust="spacing" textLength="157" x="147.5" y="1159.9707">nombreCompleto : String</text><text fill="#000000" font-family="sans-serif" font-size="14" lengthAdjust="spacing" textLength="153" x="147.5" y="1177.5801">fechaNacimiento : String</text><text fill="#000000" font-family="sans-serif" font-size="14" lengthAdjust="spacing" textLength="78" x="147.5" y="1195.1895">sexo : String</text><text fill="#000000" font-family="sans-serif" font-size="14" lengthAdjust="spacing" textLength="101" x="147.5" y="1212.7988">fechaAlta : Date</text><text fill="#000000" font-family="sans-serif" font-size="14" lengthAdjust="spacing" textLength="102" x="147.5" y="1230.4082">direccion: String</text><text fill="#000000" font-family="sans-serif" font-size="14" lengthAdjust="spacing" textLength="100" x="147.5" y="1248.0176">telefono : String</text><text fill="#000000" font-family="sans-serif" font-size="14" lengthAdjust="spacing" textLength="160" x="147.5" y="1265.627">correoElectronico : String</text><line style="stroke:#181818;stroke-width:0.5;" x1="142.5" x2="325.5" y1="1272.7031" y2="1272.7031"/></g><!--MD5=[fe4478d9c9a369b28097141e000aa656]
class Venta--><g id="elem_Venta"><rect codeLine="105" fill="#F1F1F1" height="136.0469" id="Venta" rx="2.5" ry="2.5" style="stroke:#181818;stroke-width:0.5;" width="185" x="389.5" y="1401.6094"/><ellipse cx="459.25" cy="1417.6094" fill="#ADD1B2" rx="11" ry="11" style="stroke:#181818;stroke-width:1.0;"/><path d="M462.0156,1413.4844 Q462.1719,1413.2656 462.3594,1413.1563 Q462.5469,1413.0469 462.7656,1413.0469 Q463.1406,1413.0469 463.375,1413.3125 Q463.6094,1413.5625 463.6094,1414.1719 L463.6094,1415.625 Q463.6094,1416.2344 463.375,1416.5 Q463.1406,1416.7656 462.7656,1416.7656 Q462.4219,1416.7656 462.2188,1416.5625 Q462.0156,1416.375 461.9063,1415.8594 Q461.8594,1415.5 461.6719,1415.3125 Q461.3438,1414.9375 460.7344,1414.7188 Q460.125,1414.5 459.5,1414.5 Q458.7344,1414.5 458.0938,1414.8281 Q457.4688,1415.1563 456.9688,1415.9063 Q456.4844,1416.6563 456.4844,1417.6875 L456.4844,1418.7813 Q456.4844,1420.0156 457.375,1420.8438 Q458.2656,1421.6563 459.8594,1421.6563 Q460.7969,1421.6563 461.4531,1421.4063 Q461.8438,1421.25 462.2656,1420.8125 Q462.5313,1420.5469 462.6719,1420.4688 Q462.8281,1420.3906 463.0313,1420.3906 Q463.3594,1420.3906 463.6094,1420.6563 Q463.875,1420.9063 463.875,1421.25 Q463.875,1421.5938 463.5313,1422 Q463.0313,1422.5781 462.2344,1422.9063 Q461.1563,1423.3594 459.8594,1423.3594 Q458.3438,1423.3594 457.1406,1422.7344 Q456.1563,1422.2344 455.4688,1421.1719 Q454.7813,1420.0938 454.7813,1418.8125 L454.7813,1417.6563 Q454.7813,1416.3281 455.3906,1415.1875 Q456.0156,1414.0313 457.1094,1413.4219 Q458.2031,1412.7969 459.4375,1412.7969 Q460.1719,1412.7969 460.8125,1412.9688 Q461.4688,1413.125 462.0156,1413.4844 Z " fill="#000000"/><text fill="#000000" font-family="sans-serif" font-size="14" lengthAdjust="spacing" textLength="37" x="479.75" y="1423.3379">Venta</text><line style="stroke:#181818;stroke-width:0.5;" x1="390.5" x2="573.5" y1="1433.6094" y2="1433.6094"/><text fill="#000000" font-family="sans-serif" font-size="14" lengthAdjust="spacing" textLength="173" x="395.5" y="1452.1426">PK FK idVendedor : Integer</text><text fill="#000000" font-family="sans-serif" font-size="14" lengthAdjust="spacing" textLength="157" x="395.5" y="1469.752">precioAcordado : Double</text><text fill="#000000" font-family="sans-serif" font-size="14" lengthAdjust="spacing" textLength="160" x="395.5" y="1487.3613">FK idComprador : Integer</text><text fill="#000000" font-family="sans-serif" font-size="14" lengthAdjust="spacing" textLength="151" x="395.5" y="1504.9707">FK idVendedor : Integer</text><text fill="#000000" font-family="sans-serif" font-size="14" lengthAdjust="spacing" textLength="146" x="395.5" y="1522.5801">FK idProducto : Integer</text><line style="stroke:#181818;stroke-width:0.5;" x1="390.5" x2="573.5" y1="1529.6563" y2="1529.6563"/></g><!--MD5=[d331226d1317b3fc678f52fa8b08f650]
class Notificacion--><g id="elem_Notificacion"><rect fill="#F1F1F1" height="48" id="Notificacion" rx="2.5" ry="2.5" style="stroke:#181818;stroke-width:0.5;" width="104" x="796" y="560.6094"/><ellipse cx="811" cy="576.6094" fill="#ADD1B2" rx="11" ry="11" style="stroke:#181818;stroke-width:1.0;"/><path d="M813.7656,572.4844 Q813.9219,572.2656 814.1094,572.1563 Q814.2969,572.0469 814.5156,572.0469 Q814.8906,572.0469 815.125,572.3125 Q815.3594,572.5625 815.3594,573.1719 L815.3594,574.625 Q815.3594,575.2344 815.125,575.5 Q814.8906,575.7656 814.5156,575.7656 Q814.1719,575.7656 813.9688,575.5625 Q813.7656,575.375 813.6563,574.8594 Q813.6094,574.5 813.4219,574.3125 Q813.0938,573.9375 812.4844,573.7188 Q811.875,573.5 811.25,573.5 Q810.4844,573.5 809.8438,573.8281 Q809.2188,574.1563 808.7188,574.9063 Q808.2344,575.6563 808.2344,576.6875 L808.2344,577.7813 Q808.2344,579.0156 809.125,579.8438 Q810.0156,580.6563 811.6094,580.6563 Q812.5469,580.6563 813.2031,580.4063 Q813.5938,580.25 814.0156,579.8125 Q814.2813,579.5469 814.4219,579.4688 Q814.5781,579.3906 814.7813,579.3906 Q815.1094,579.3906 815.3594,579.6563 Q815.625,579.9063 815.625,580.25 Q815.625,580.5938 815.2813,581 Q814.7813,581.5781 813.9844,581.9063 Q812.9063,582.3594 811.6094,582.3594 Q810.0938,582.3594 808.8906,581.7344 Q807.9063,581.2344 807.2188,580.1719 Q806.5313,579.0938 806.5313,577.8125 L806.5313,576.6563 Q806.5313,575.3281 807.1406,574.1875 Q807.7656,573.0313 808.8594,572.4219 Q809.9531,571.7969 811.1875,571.7969 Q811.9219,571.7969 812.5625,571.9688 Q813.2188,572.125 813.7656,572.4844 Z " fill="#000000"/><text fill="#000000" font-family="sans-serif" font-size="14" lengthAdjust="spacing" textLength="72" x="825" y="582.3379">Notificacion</text><line style="stroke:#181818;stroke-width:0.5;" x1="797" x2="899" y1="592.6094" y2="592.6094"/><line style="stroke:#181818;stroke-width:0.5;" x1="797" x2="899" y1="600.6094" y2="600.6094"/></g><!--MD5=[57c2e996059519ec12a1a51bd5c8dbcd]
class Compra--><g id="elem_Compra"><rect fill="#F1F1F1" height="48" id="Compra" rx="2.5" ry="2.5" style="stroke:#181818;stroke-width:0.5;" width="82" x="745" y="1445.6094"/><ellipse cx="760" cy="1461.6094" fill="#ADD1B2" rx="11" ry="11" style="stroke:#181818;stroke-width:1.0;"/><path d="M762.7656,1457.4844 Q762.9219,1457.2656 763.1094,1457.1563 Q763.2969,1457.0469 763.5156,1457.0469 Q763.8906,1457.0469 764.125,1457.3125 Q764.3594,1457.5625 764.3594,1458.1719 L764.3594,1459.625 Q764.3594,1460.2344 764.125,1460.5 Q763.8906,1460.7656 763.5156,1460.7656 Q763.1719,1460.7656 762.9688,1460.5625 Q762.7656,1460.375 762.6563,1459.8594 Q762.6094,1459.5 762.4219,1459.3125 Q762.0938,1458.9375 761.4844,1458.7188 Q760.875,1458.5 760.25,1458.5 Q759.4844,1458.5 758.8438,1458.8281 Q758.2188,1459.1563 757.7188,1459.9063 Q757.2344,1460.6563 757.2344,1461.6875 L757.2344,1462.7813 Q757.2344,1464.0156 758.125,1464.8438 Q759.0156,1465.6563 760.6094,1465.6563 Q761.5469,1465.6563 762.2031,1465.4063 Q762.5938,1465.25 763.0156,1464.8125 Q763.2813,1464.5469 763.4219,1464.4688 Q763.5781,1464.3906 763.7813,1464.3906 Q764.1094,1464.3906 764.3594,1464.6563 Q764.625,1464.9063 764.625,1465.25 Q764.625,1465.5938 764.2813,1466 Q763.7813,1466.5781 762.9844,1466.9063 Q761.9063,1467.3594 760.6094,1467.3594 Q759.0938,1467.3594 757.8906,1466.7344 Q756.9063,1466.2344 756.2188,1465.1719 Q755.5313,1464.0938 755.5313,1462.8125 L755.5313,1461.6563 Q755.5313,1460.3281 756.1406,1459.1875 Q756.7656,1458.0313 757.8594,1457.4219 Q758.9531,1456.7969 760.1875,1456.7969 Q760.9219,1456.7969 761.5625,1456.9688 Q762.2188,1457.125 762.7656,1457.4844 Z " fill="#000000"/><text fill="#000000" font-family="sans-serif" font-size="14" lengthAdjust="spacing" textLength="50" x="774" y="1467.3379">Compra</text><line style="stroke:#181818;stroke-width:0.5;" x1="746" x2="826" y1="1477.6094" y2="1477.6094"/><line style="stroke:#181818;stroke-width:0.5;" x1="746" x2="826" y1="1485.6094" y2="1485.6094"/></g><!--MD5=[1a2a3cfea883701f79c29dec8798ace6]
link Aviso to Oferta--><g id="link_Aviso_Oferta"><path codeLine="113" d="M539.35,243.4894 C523.36,270.5894 506.26,300.9794 492,329.6094 C464.51,384.7794 437.81,448.8494 418.08,498.8294 " fill="none" id="Aviso-Oferta" style="stroke:#181818;stroke-width:1.0;"/><text fill="#000000" font-family="sans-serif" font-size="13" lengthAdjust="spacing" textLength="22" x="512.079" y="264.7625">0..1</text><text fill="#000000" font-family="sans-serif" font-size="13" lengthAdjust="spacing" textLength="7" x="413.5361" y="488.269">1</text></g><!--MD5=[668d216d703c3eae62fd2394075d879e]
link Aviso to Producto--><g id="link_Aviso_Producto"><path codeLine="114" d="M575.46,243.3194 C546.66,390.8094 488.03,691.0694 463.35,817.4694 " fill="none" id="Aviso-Producto" style="stroke:#181818;stroke-width:1.0;"/><text fill="#000000" font-family="sans-serif" font-size="13" lengthAdjust="spacing" textLength="22" x="551.0933" y="264.8714">0..1</text><text fill="#000000" font-family="sans-serif" font-size="13" lengthAdjust="spacing" textLength="7" x="457.3067" y="806.7766">1</text></g><!--MD5=[a4c214c787b96a615362ada98ba5a205]
link Aviso to Notificacion--><g id="link_Aviso_Notificacion"><path codeLine="115" d="M643.04,243.3394 C702.84,342.6194 798.3,501.0994 833.96,560.2994 " fill="none" id="Aviso-Notificacion" style="stroke:#181818;stroke-width:1.0;"/><text fill="#000000" font-family="sans-serif" font-size="13" lengthAdjust="spacing" textLength="7" x="640.1255" y="264.8931">1</text><text fill="#000000" font-family="sans-serif" font-size="13" lengthAdjust="spacing" textLength="7" x="822.4654" y="549.5601">1</text></g><!--MD5=[71d8b3a4b3c5f919eea76e23db13b6f3]
link Aviso to Proveedor--><g id="link_Aviso_Proveedor"><path codeLine="116" d="M606.75,243.3394 C618.2,309.0794 634.17,400.7794 646.64,472.4294 " fill="none" id="Aviso-Proveedor" style="stroke:#181818;stroke-width:1.0;"/><text fill="#000000" font-family="sans-serif" font-size="13" lengthAdjust="spacing" textLength="7" x="600.7168" y="264.8931">1</text><text fill="#000000" font-family="sans-serif" font-size="13" lengthAdjust="spacing" textLength="7" x="638.1041" y="461.8586">1</text></g><!--MD5=[762f087b94477fb3e9e5e3c4ccdf7dd8]
link Carrito to Comprador--><g id="link_Carrito_Comprador"><path codeLine="117" d="M674,918.2394 C674,954.0094 674,1007.8194 674,1056.3094 " fill="none" id="Carrito-Comprador" style="stroke:#181818;stroke-width:1.0;"/><text fill="#000000" font-family="sans-serif" font-size="13" lengthAdjust="spacing" textLength="7" x="666.4203" y="939.9655">1</text><text fill="#000000" font-family="sans-serif" font-size="13" lengthAdjust="spacing" textLength="7" x="666.7648" y="1045.7305">1</text></g><!--MD5=[5280d35de2174fc35abc961461d0d826]
link Carrito to Compra--><g id="link_Carrito_Compra"><path codeLine="118" d="M709.91,918.2994 C737.57,952.5294 773.6,1004.1594 789,1056.6094 C830.81,1199.0194 802.87,1381.2494 790.78,1445.1794 " fill="none" id="Carrito-Compra" style="stroke:#181818;stroke-width:1.0;"/><text fill="#000000" font-family="sans-serif" font-size="13" lengthAdjust="spacing" textLength="7" x="708.0753" y="939.7244">1</text><text fill="#000000" font-family="sans-serif" font-size="13" lengthAdjust="spacing" textLength="22" x="767.2639" y="1434.8125">0..1</text></g><!--MD5=[2df5cd729f27b78dff7393785c116466]
link Carrito to ProductoEnCarrito--><g id="link_Carrito_ProductoEnCarrito"><path codeLine="119" d="M642.9,918.2394 C600.65,973.4194 525.57,1071.5094 483.25,1126.7894 " fill="none" id="Carrito-ProductoEnCarrito" style="stroke:#181818;stroke-width:1.0;"/><text fill="#000000" font-family="sans-serif" font-size="13" lengthAdjust="spacing" textLength="7" x="630.1694" y="939.9655">1</text><text fill="#000000" font-family="sans-serif" font-size="13" lengthAdjust="spacing" textLength="26" x="460.1586" y="1116.355">1..m</text></g><!--MD5=[071204a98f50ffab3958f14338bba25f]
link Comprador to Venta--><g id="link_Comprador_Venta"><path codeLine="120" d="M602.51,1280.9494 C576.49,1321.4594 547.9,1365.9794 525.1,1401.4894 " fill="none" id="Comprador-Venta" style="stroke:#181818;stroke-width:1.0;"/><text fill="#000000" font-family="sans-serif" font-size="13" lengthAdjust="spacing" textLength="7" x="590.706" y="1302.162">1</text><text fill="#000000" font-family="sans-serif" font-size="13" lengthAdjust="spacing" textLength="26" x="502.3922" y="1390.6755">0..m</text></g><!--MD5=[f81895526283859cee681d4e57d21da7]
link Comprador to Compra--><g id="link_Comprador_Compra"><path codeLine="121" d="M715.7,1280.9494 C738.28,1341.2194 764.18,1410.3594 777.34,1445.4894 " fill="none" id="Comprador-Compra" style="stroke:#181818;stroke-width:1.0;"/><text fill="#000000" font-family="sans-serif" font-size="13" lengthAdjust="spacing" textLength="7" x="711.1472" y="1302.162">1</text><text fill="#000000" font-family="sans-serif" font-size="13" lengthAdjust="spacing" textLength="26" x="745.7896" y="1434.7988">1..m</text></g><!--MD5=[80f811fe70a69a8ac0ead5390a504c9f]
link Oferta to Producto--><g id="link_Oferta_Producto"><path codeLine="122" d="M405.27,670.2694 C416.04,717.5794 429.18,775.3294 438.78,817.5194 " fill="none" id="Oferta-Producto" style="stroke:#181818;stroke-width:1.0;"/><text fill="#000000" font-family="sans-serif" font-size="13" lengthAdjust="spacing" textLength="22" x="383.9807" y="691.8171">0..1</text><text fill="#000000" font-family="sans-serif" font-size="13" lengthAdjust="spacing" textLength="7" x="429.7422" y="806.8327">1</text></g><!--MD5=[a9447ee5a57b3e4a45eac9c8eecd6d22]
link Producto to ProductoEnCarrito--><g id="link_Producto_ProductoEnCarrito"><path codeLine="123" d="M452,935.9494 C452,992.6794 452,1077.3694 452,1127.0994 " fill="none" id="Producto-ProductoEnCarrito" style="stroke:#181818;stroke-width:1.0;"/><text fill="#000000" font-family="sans-serif" font-size="13" lengthAdjust="spacing" textLength="7" x="444.5734" y="957.6463">1</text><text fill="#000000" font-family="sans-serif" font-size="13" lengthAdjust="spacing" textLength="26" x="423.8469" y="1116.4054">0..m</text></g><!--MD5=[4617592da90f18e5dc67f1acd97eb387]
link Vendedor to Venta--><g id="link_Vendedor_Venta"><path codeLine="124" d="M326.35,1280.9494 C359.95,1321.4594 396.87,1365.9794 426.32,1401.4894 " fill="none" id="Vendedor-Venta" style="stroke:#181818;stroke-width:1.0;"/><text fill="#000000" font-family="sans-serif" font-size="13" lengthAdjust="spacing" textLength="7" x="325.042" y="1302.162">1</text><text fill="#000000" font-family="sans-serif" font-size="13" lengthAdjust="spacing" textLength="26" x="392.8081" y="1390.6755">0..m</text></g><!--MD5=[2947a75c40441c7401142297a6af3313]
@startuml IRs_sistema_de_compras

title Requisitos Información: Sistema de Compras

Class Administrador {
    PK FK idAdministrador : Integer
    DNI : String
    nombreCompleto : String
    nombreCompleto : String
    fechaNacimiento : String
    sexo : String
    fechaAlta : Date
    direccion: String
    telefono : String
    correoElectronico : String
}

Class Aviso {
    PK FK idAviso : Integer
    tipo : ENUM('nuevoProducto','finOferta')
    motivo : String
    cuerpo : String
    FK idProducto : Integer
    FK idOferta : Integer  
    FK idProveedor : Integer
}

Class Carrito {
    PK FK idCarrito : Integer
    FK idComprador : Integer
}

Class compra {
    PK FK idCompra : Integer
    fecha : Date
    FK idComprador : Integer
    FK  idCarrito : Integer
}

Class Comprador {
    PK FK idComprador : Integer
    DNI : String
    nombreCompleto : String
    nombreCompleto : String
    fechaNacimiento : String
    sexo : String
    fechaAlta : Date
    direccion: String
    telefono : String
    correoElectronico : String
}

Class Notificación {
    PK FK idAviso : Integer
    mensajeGenerado : String  
}

Class Oferta {
    PK idOgerta : Integer
    precioOriginal : Double
    precioNuevo : Double
    fechaInicio : String
    fechaFin : String
    vigente : Boolean
    FK idProducto Integer 
}

Class Producto {
    PK FK idProducto : Integer
    precio : Double
    bloqueado : Boolean
    disponible : Boolean   
}

Class ProductoEnCarrito {
    PK FK idProducto : Integer
    PK FK idCarrito : Integer
}

Class Proveedor {
    PK FK idProveedor : Integer
    DNI : String
    nombreCompleto : String
    nombreCompleto : String
    fechaNacimiento : String
    sexo : String
    fechaAlta : Date
    direccion: String
    telefono : String
    correoElectronico : String 
}

Class Vendedor {
    PK FK idVendedor : Integer
    DNI : String
    nombreCompleto : String
    nombreCompleto : String
    fechaNacimiento : String
    sexo : String
    fechaAlta : Date
    direccion: String
    telefono : String
    correoElectronico : String   
}

Class Venta {
    PK FK idVendedor : Integer
    precioAcordado : Double
    FK idComprador : Integer
    FK idVendedor : Integer
    FK idProducto : Integer
}

Aviso "0..1" - - - "1" Oferta
Aviso "0..1" - - - "1" Producto
Aviso "1" - - - "1" Notificacion
Aviso "1" - - - "1" Proveedor
Carrito "1" - - - "1" Comprador
Carrito "1" - - - "0..1" Compra
Carrito "1" - - - "1..m" ProductoEnCarrito
Comprador "1" - - - "0..m" Venta
Comprador "1" - - - "1..m" Compra
Oferta "0..1" - - - "1" Producto
Producto "1" - - - "0..m" ProductoEnCarrito
Vendedor "1" - - - "0..m" Venta

@enduml

PlantUML version 1.2022.7(Mon Aug 22 19:01:30 CEST 2022)
(GPL source distribution)
Java Runtime: OpenJDK Runtime Environment
JVM: OpenJDK 64-Bit Server VM
Default Encoding: Cp1252
Language: es
Country: ES
--></g></svg>