<?xml version="1.0" encoding="UTF-8" standalone="no"?><svg xmlns="http://www.w3.org/2000/svg" xmlns:xlink="http://www.w3.org/1999/xlink" contentStyleType="text/css" height="1647px" preserveAspectRatio="none" style="width:977px;height:1647px;background:#FFFFFF;" version="1.1" viewBox="0 0 977 1647" width="977px" zoomAndPan="magnify"><defs/><g><rect fill="none" height="27.6094" id="_title" style="stroke:none;stroke-width:1.0;" width="323" x="320" y="5"/><text fill="#000000" font-family="sans-serif" font-size="14" font-weight="bold" lengthAdjust="spacing" textLength="313" x="325" y="24.5332">Requisitos Información: Sistema de Compras</text><!--MD5=[fdcda49d453d44c676d62f3f6af62207]
class Administrador--><g id="elem_Administrador"><rect codeLine="4" fill="#F1F1F1" height="206.4844" id="Administrador" rx="2.5" ry="2.5" style="stroke:#181818;stroke-width:0.5;" width="188" x="27" y="45.6094"/><ellipse cx="73.25" cy="61.6094" fill="#ADD1B2" rx="11" ry="11" style="stroke:#181818;stroke-width:1.0;"/><path d="M76.0156,57.4844 Q76.1719,57.2656 76.3594,57.1563 Q76.5469,57.0469 76.7656,57.0469 Q77.1406,57.0469 77.375,57.3125 Q77.6094,57.5625 77.6094,58.1719 L77.6094,59.625 Q77.6094,60.2344 77.375,60.5 Q77.1406,60.7656 76.7656,60.7656 Q76.4219,60.7656 76.2188,60.5625 Q76.0156,60.375 75.9063,59.8594 Q75.8594,59.5 75.6719,59.3125 Q75.3438,58.9375 74.7344,58.7188 Q74.125,58.5 73.5,58.5 Q72.7344,58.5 72.0938,58.8281 Q71.4688,59.1563 70.9688,59.9063 Q70.4844,60.6563 70.4844,61.6875 L70.4844,62.7813 Q70.4844,64.0156 71.375,64.8438 Q72.2656,65.6563 73.8594,65.6563 Q74.7969,65.6563 75.4531,65.4063 Q75.8438,65.25 76.2656,64.8125 Q76.5313,64.5469 76.6719,64.4688 Q76.8281,64.3906 77.0313,64.3906 Q77.3594,64.3906 77.6094,64.6563 Q77.875,64.9063 77.875,65.25 Q77.875,65.5938 77.5313,66 Q77.0313,66.5781 76.2344,66.9063 Q75.1563,67.3594 73.8594,67.3594 Q72.3438,67.3594 71.1406,66.7344 Q70.1563,66.2344 69.4688,65.1719 Q68.7813,64.0938 68.7813,62.8125 L68.7813,61.6563 Q68.7813,60.3281 69.3906,59.1875 Q70.0156,58.0313 71.1094,57.4219 Q72.2031,56.7969 73.4375,56.7969 Q74.1719,56.7969 74.8125,56.9688 Q75.4688,57.125 76.0156,57.4844 Z " fill="#000000"/><text fill="#000000" font-family="sans-serif" font-size="14" lengthAdjust="spacing" textLength="87" x="93.75" y="67.3379">Administrador</text><line style="stroke:#181818;stroke-width:0.5;" x1="28" x2="214" y1="77.6094" y2="77.6094"/><text fill="#000000" font-family="sans-serif" font-size="14" lengthAdjust="spacing" textLength="176" x="33" y="96.1426">PK idAdministrador : Integer</text><text fill="#000000" font-family="sans-serif" font-size="14" lengthAdjust="spacing" textLength="71" x="33" y="113.752">DNI : String</text><text fill="#000000" font-family="sans-serif" font-size="14" lengthAdjust="spacing" textLength="157" x="33" y="131.3613">nombreCompleto : String</text><text fill="#000000" font-family="sans-serif" font-size="14" lengthAdjust="spacing" textLength="146" x="33" y="148.9707">fechaNacimiento : Date</text><text fill="#000000" font-family="sans-serif" font-size="14" lengthAdjust="spacing" textLength="78" x="33" y="166.5801">sexo : String</text><text fill="#000000" font-family="sans-serif" font-size="14" lengthAdjust="spacing" textLength="101" x="33" y="184.1895">fechaAlta : Date</text><text fill="#000000" font-family="sans-serif" font-size="14" lengthAdjust="spacing" textLength="102" x="33" y="201.7988">direccion: String</text><text fill="#000000" font-family="sans-serif" font-size="14" lengthAdjust="spacing" textLength="100" x="33" y="219.4082">telefono : String</text><text fill="#000000" font-family="sans-serif" font-size="14" lengthAdjust="spacing" textLength="160" x="33" y="237.0176">correoElectronico : String</text><line style="stroke:#181818;stroke-width:0.5;" x1="28" x2="214" y1="244.0938" y2="244.0938"/></g><!--MD5=[b757b6e529b763f8ad1e01e238f23ef8]
class Aviso--><g id="elem_Aviso"><rect codeLine="16" fill="#F1F1F1" height="171.2656" id="Aviso" rx="2.5" ry="2.5" style="stroke:#181818;stroke-width:0.5;" width="260" x="250" y="63.1094"/><ellipse cx="358.75" cy="79.1094" fill="#ADD1B2" rx="11" ry="11" style="stroke:#181818;stroke-width:1.0;"/><path d="M361.5156,74.9844 Q361.6719,74.7656 361.8594,74.6563 Q362.0469,74.5469 362.2656,74.5469 Q362.6406,74.5469 362.875,74.8125 Q363.1094,75.0625 363.1094,75.6719 L363.1094,77.125 Q363.1094,77.7344 362.875,78 Q362.6406,78.2656 362.2656,78.2656 Q361.9219,78.2656 361.7188,78.0625 Q361.5156,77.875 361.4063,77.3594 Q361.3594,77 361.1719,76.8125 Q360.8438,76.4375 360.2344,76.2188 Q359.625,76 359,76 Q358.2344,76 357.5938,76.3281 Q356.9688,76.6563 356.4688,77.4063 Q355.9844,78.1563 355.9844,79.1875 L355.9844,80.2813 Q355.9844,81.5156 356.875,82.3438 Q357.7656,83.1563 359.3594,83.1563 Q360.2969,83.1563 360.9531,82.9063 Q361.3438,82.75 361.7656,82.3125 Q362.0313,82.0469 362.1719,81.9688 Q362.3281,81.8906 362.5313,81.8906 Q362.8594,81.8906 363.1094,82.1563 Q363.375,82.4063 363.375,82.75 Q363.375,83.0938 363.0313,83.5 Q362.5313,84.0781 361.7344,84.4063 Q360.6563,84.8594 359.3594,84.8594 Q357.8438,84.8594 356.6406,84.2344 Q355.6563,83.7344 354.9688,82.6719 Q354.2813,81.5938 354.2813,80.3125 L354.2813,79.1563 Q354.2813,77.8281 354.8906,76.6875 Q355.5156,75.5313 356.6094,74.9219 Q357.7031,74.2969 358.9375,74.2969 Q359.6719,74.2969 360.3125,74.4688 Q360.9688,74.625 361.5156,74.9844 Z " fill="#000000"/><text fill="#000000" font-family="sans-serif" font-size="14" lengthAdjust="spacing" textLength="34" x="379.25" y="84.8379">Aviso</text><line style="stroke:#181818;stroke-width:0.5;" x1="251" x2="509" y1="95.1094" y2="95.1094"/><text fill="#000000" font-family="sans-serif" font-size="14" lengthAdjust="spacing" textLength="123" x="256" y="113.6426">PK idAviso : Integer</text><text fill="#000000" font-family="sans-serif" font-size="14" lengthAdjust="spacing" textLength="155" x="256" y="131.252">FK idProveedor : Integer</text><text fill="#000000" font-family="sans-serif" font-size="14" lengthAdjust="spacing" textLength="146" x="256" y="148.8613">FK idProducto : Integer</text><text fill="#000000" font-family="sans-serif" font-size="14" lengthAdjust="spacing" textLength="129" x="256" y="166.4707">FK idOferta : Integer</text><text fill="#000000" font-family="sans-serif" font-size="14" lengthAdjust="spacing" textLength="90" x="256" y="184.0801">motivo : String</text><text fill="#000000" font-family="sans-serif" font-size="14" lengthAdjust="spacing" textLength="93" x="256" y="201.6895">cuerpo : String</text><line style="stroke:#181818;stroke-width:0.5;" x1="251" x2="509" y1="208.7656" y2="208.7656"/><text fill="#000000" font-family="sans-serif" font-size="14" lengthAdjust="spacing" textLength="248" x="256" y="227.2988">tipo : Enum('nuevoProducto','finOferta')</text></g><!--MD5=[397824e8babee918cdd33b0c25bcd5bc]
class Carrito--><g id="elem_Carrito"><rect codeLine="26" fill="#F1F1F1" height="83.2188" id="Carrito" rx="2.5" ry="2.5" style="stroke:#181818;stroke-width:0.5;" width="172" x="505" y="717.1094"/><ellipse cx="565.25" cy="733.1094" fill="#ADD1B2" rx="11" ry="11" style="stroke:#181818;stroke-width:1.0;"/><path d="M568.0156,728.9844 Q568.1719,728.7656 568.3594,728.6563 Q568.5469,728.5469 568.7656,728.5469 Q569.1406,728.5469 569.375,728.8125 Q569.6094,729.0625 569.6094,729.6719 L569.6094,731.125 Q569.6094,731.7344 569.375,732 Q569.1406,732.2656 568.7656,732.2656 Q568.4219,732.2656 568.2188,732.0625 Q568.0156,731.875 567.9063,731.3594 Q567.8594,731 567.6719,730.8125 Q567.3438,730.4375 566.7344,730.2188 Q566.125,730 565.5,730 Q564.7344,730 564.0938,730.3281 Q563.4688,730.6563 562.9688,731.4063 Q562.4844,732.1563 562.4844,733.1875 L562.4844,734.2813 Q562.4844,735.5156 563.375,736.3438 Q564.2656,737.1563 565.8594,737.1563 Q566.7969,737.1563 567.4531,736.9063 Q567.8438,736.75 568.2656,736.3125 Q568.5313,736.0469 568.6719,735.9688 Q568.8281,735.8906 569.0313,735.8906 Q569.3594,735.8906 569.6094,736.1563 Q569.875,736.4063 569.875,736.75 Q569.875,737.0938 569.5313,737.5 Q569.0313,738.0781 568.2344,738.4063 Q567.1563,738.8594 565.8594,738.8594 Q564.3438,738.8594 563.1406,738.2344 Q562.1563,737.7344 561.4688,736.6719 Q560.7813,735.5938 560.7813,734.3125 L560.7813,733.1563 Q560.7813,731.8281 561.3906,730.6875 Q562.0156,729.5313 563.1094,728.9219 Q564.2031,728.2969 565.4375,728.2969 Q566.1719,728.2969 566.8125,728.4688 Q567.4688,728.625 568.0156,728.9844 Z " fill="#000000"/><text fill="#000000" font-family="sans-serif" font-size="14" lengthAdjust="spacing" textLength="43" x="585.75" y="738.8379">Carrito</text><line style="stroke:#181818;stroke-width:0.5;" x1="506" x2="676" y1="749.1094" y2="749.1094"/><text fill="#000000" font-family="sans-serif" font-size="14" lengthAdjust="spacing" textLength="132" x="511" y="767.6426">PK idCarrito : Integer</text><text fill="#000000" font-family="sans-serif" font-size="14" lengthAdjust="spacing" textLength="160" x="511" y="785.252">FK idComprador : Integer</text><line style="stroke:#181818;stroke-width:0.5;" x1="506" x2="676" y1="792.3281" y2="792.3281"/></g><!--MD5=[57c2e996059519ec12a1a51bd5c8dbcd]
class Compra--><g id="elem_Compra"><rect codeLine="31" fill="#F1F1F1" height="118.4375" id="Compra" rx="2.5" ry="2.5" style="stroke:#181818;stroke-width:0.5;" width="172" x="505" y="938.6094"/><ellipse cx="561.75" cy="954.6094" fill="#ADD1B2" rx="11" ry="11" style="stroke:#181818;stroke-width:1.0;"/><path d="M564.5156,950.4844 Q564.6719,950.2656 564.8594,950.1563 Q565.0469,950.0469 565.2656,950.0469 Q565.6406,950.0469 565.875,950.3125 Q566.1094,950.5625 566.1094,951.1719 L566.1094,952.625 Q566.1094,953.2344 565.875,953.5 Q565.6406,953.7656 565.2656,953.7656 Q564.9219,953.7656 564.7188,953.5625 Q564.5156,953.375 564.4063,952.8594 Q564.3594,952.5 564.1719,952.3125 Q563.8438,951.9375 563.2344,951.7188 Q562.625,951.5 562,951.5 Q561.2344,951.5 560.5938,951.8281 Q559.9688,952.1563 559.4688,952.9063 Q558.9844,953.6563 558.9844,954.6875 L558.9844,955.7813 Q558.9844,957.0156 559.875,957.8438 Q560.7656,958.6563 562.3594,958.6563 Q563.2969,958.6563 563.9531,958.4063 Q564.3438,958.25 564.7656,957.8125 Q565.0313,957.5469 565.1719,957.4688 Q565.3281,957.3906 565.5313,957.3906 Q565.8594,957.3906 566.1094,957.6563 Q566.375,957.9063 566.375,958.25 Q566.375,958.5938 566.0313,959 Q565.5313,959.5781 564.7344,959.9063 Q563.6563,960.3594 562.3594,960.3594 Q560.8438,960.3594 559.6406,959.7344 Q558.6563,959.2344 557.9688,958.1719 Q557.2813,957.0938 557.2813,955.8125 L557.2813,954.6563 Q557.2813,953.3281 557.8906,952.1875 Q558.5156,951.0313 559.6094,950.4219 Q560.7031,949.7969 561.9375,949.7969 Q562.6719,949.7969 563.3125,949.9688 Q563.9688,950.125 564.5156,950.4844 Z " fill="#000000"/><text fill="#000000" font-family="sans-serif" font-size="14" lengthAdjust="spacing" textLength="50" x="582.25" y="960.3379">Compra</text><line style="stroke:#181818;stroke-width:0.5;" x1="506" x2="676" y1="970.6094" y2="970.6094"/><text fill="#000000" font-family="sans-serif" font-size="14" lengthAdjust="spacing" textLength="139" x="511" y="989.1426">PK idCompra : Integer</text><text fill="#000000" font-family="sans-serif" font-size="14" lengthAdjust="spacing" textLength="160" x="511" y="1006.752">FK idComprador : Integer</text><text fill="#000000" font-family="sans-serif" font-size="14" lengthAdjust="spacing" textLength="132" x="511" y="1024.3613">FK idCarrito : Integer</text><text fill="#000000" font-family="sans-serif" font-size="14" lengthAdjust="spacing" textLength="77" x="511" y="1041.9707">fecha : Date</text><line style="stroke:#181818;stroke-width:0.5;" x1="506" x2="676" y1="1049.0469" y2="1049.0469"/></g><!--MD5=[42ab3172323ec0cd54427087d08fabe5]
class Comprador--><g id="elem_Comprador"><rect codeLine="38" fill="#F1F1F1" height="206.4844" id="Comprador" rx="2.5" ry="2.5" style="stroke:#181818;stroke-width:0.5;" width="172" x="591" y="1177.6094"/><ellipse cx="637.25" cy="1193.6094" fill="#ADD1B2" rx="11" ry="11" style="stroke:#181818;stroke-width:1.0;"/><path d="M640.0156,1189.4844 Q640.1719,1189.2656 640.3594,1189.1563 Q640.5469,1189.0469 640.7656,1189.0469 Q641.1406,1189.0469 641.375,1189.3125 Q641.6094,1189.5625 641.6094,1190.1719 L641.6094,1191.625 Q641.6094,1192.2344 641.375,1192.5 Q641.1406,1192.7656 640.7656,1192.7656 Q640.4219,1192.7656 640.2188,1192.5625 Q640.0156,1192.375 639.9063,1191.8594 Q639.8594,1191.5 639.6719,1191.3125 Q639.3438,1190.9375 638.7344,1190.7188 Q638.125,1190.5 637.5,1190.5 Q636.7344,1190.5 636.0938,1190.8281 Q635.4688,1191.1563 634.9688,1191.9063 Q634.4844,1192.6563 634.4844,1193.6875 L634.4844,1194.7813 Q634.4844,1196.0156 635.375,1196.8438 Q636.2656,1197.6563 637.8594,1197.6563 Q638.7969,1197.6563 639.4531,1197.4063 Q639.8438,1197.25 640.2656,1196.8125 Q640.5313,1196.5469 640.6719,1196.4688 Q640.8281,1196.3906 641.0313,1196.3906 Q641.3594,1196.3906 641.6094,1196.6563 Q641.875,1196.9063 641.875,1197.25 Q641.875,1197.5938 641.5313,1198 Q641.0313,1198.5781 640.2344,1198.9063 Q639.1563,1199.3594 637.8594,1199.3594 Q636.3438,1199.3594 635.1406,1198.7344 Q634.1563,1198.2344 633.4688,1197.1719 Q632.7813,1196.0938 632.7813,1194.8125 L632.7813,1193.6563 Q632.7813,1192.3281 633.3906,1191.1875 Q634.0156,1190.0313 635.1094,1189.4219 Q636.2031,1188.7969 637.4375,1188.7969 Q638.1719,1188.7969 638.8125,1188.9688 Q639.4688,1189.125 640.0156,1189.4844 Z " fill="#000000"/><text fill="#000000" font-family="sans-serif" font-size="14" lengthAdjust="spacing" textLength="71" x="657.75" y="1199.3379">Comprador</text><line style="stroke:#181818;stroke-width:0.5;" x1="592" x2="762" y1="1209.6094" y2="1209.6094"/><text fill="#000000" font-family="sans-serif" font-size="14" lengthAdjust="spacing" textLength="160" x="597" y="1228.1426">PK idComprador : Integer</text><text fill="#000000" font-family="sans-serif" font-size="14" lengthAdjust="spacing" textLength="71" x="597" y="1245.752">DNI : String</text><text fill="#000000" font-family="sans-serif" font-size="14" lengthAdjust="spacing" textLength="157" x="597" y="1263.3613">nombreCompleto : String</text><text fill="#000000" font-family="sans-serif" font-size="14" lengthAdjust="spacing" textLength="146" x="597" y="1280.9707">fechaNacimiento : Date</text><text fill="#000000" font-family="sans-serif" font-size="14" lengthAdjust="spacing" textLength="78" x="597" y="1298.5801">sexo : String</text><text fill="#000000" font-family="sans-serif" font-size="14" lengthAdjust="spacing" textLength="101" x="597" y="1316.1895">fechaAlta : Date</text><text fill="#000000" font-family="sans-serif" font-size="14" lengthAdjust="spacing" textLength="102" x="597" y="1333.7988">direccion: String</text><text fill="#000000" font-family="sans-serif" font-size="14" lengthAdjust="spacing" textLength="100" x="597" y="1351.4082">telefono : String</text><text fill="#000000" font-family="sans-serif" font-size="14" lengthAdjust="spacing" textLength="160" x="597" y="1369.0176">correoElectronico : String</text><line style="stroke:#181818;stroke-width:0.5;" x1="592" x2="762" y1="1376.0938" y2="1376.0938"/></g><!--MD5=[d331226d1317b3fc678f52fa8b08f650]
class Notificacion--><g id="elem_Notificacion"><rect codeLine="50" fill="#F1F1F1" height="83.2188" id="Notificacion" rx="2.5" ry="2.5" style="stroke:#181818;stroke-width:0.5;" width="178" x="7" y="434.1094"/><ellipse cx="55.75" cy="450.1094" fill="#ADD1B2" rx="11" ry="11" style="stroke:#181818;stroke-width:1.0;"/><path d="M58.5156,445.9844 Q58.6719,445.7656 58.8594,445.6563 Q59.0469,445.5469 59.2656,445.5469 Q59.6406,445.5469 59.875,445.8125 Q60.1094,446.0625 60.1094,446.6719 L60.1094,448.125 Q60.1094,448.7344 59.875,449 Q59.6406,449.2656 59.2656,449.2656 Q58.9219,449.2656 58.7188,449.0625 Q58.5156,448.875 58.4063,448.3594 Q58.3594,448 58.1719,447.8125 Q57.8438,447.4375 57.2344,447.2188 Q56.625,447 56,447 Q55.2344,447 54.5938,447.3281 Q53.9688,447.6563 53.4688,448.4063 Q52.9844,449.1563 52.9844,450.1875 L52.9844,451.2813 Q52.9844,452.5156 53.875,453.3438 Q54.7656,454.1563 56.3594,454.1563 Q57.2969,454.1563 57.9531,453.9063 Q58.3438,453.75 58.7656,453.3125 Q59.0313,453.0469 59.1719,452.9688 Q59.3281,452.8906 59.5313,452.8906 Q59.8594,452.8906 60.1094,453.1563 Q60.375,453.4063 60.375,453.75 Q60.375,454.0938 60.0313,454.5 Q59.5313,455.0781 58.7344,455.4063 Q57.6563,455.8594 56.3594,455.8594 Q54.8438,455.8594 53.6406,455.2344 Q52.6563,454.7344 51.9688,453.6719 Q51.2813,452.5938 51.2813,451.3125 L51.2813,450.1563 Q51.2813,448.8281 51.8906,447.6875 Q52.5156,446.5313 53.6094,445.9219 Q54.7031,445.2969 55.9375,445.2969 Q56.6719,445.2969 57.3125,445.4688 Q57.9688,445.625 58.5156,445.9844 Z " fill="#000000"/><text fill="#000000" font-family="sans-serif" font-size="14" lengthAdjust="spacing" textLength="72" x="76.25" y="455.8379">Notificacion</text><line style="stroke:#181818;stroke-width:0.5;" x1="8" x2="184" y1="466.1094" y2="466.1094"/><text fill="#000000" font-family="sans-serif" font-size="14" lengthAdjust="spacing" textLength="145" x="13" y="484.6426">PK FK idAviso : Integer</text><text fill="#000000" font-family="sans-serif" font-size="14" lengthAdjust="spacing" textLength="166" x="13" y="502.252">mensajeGenerado : String</text><line style="stroke:#181818;stroke-width:0.5;" x1="8" x2="184" y1="509.3281" y2="509.3281"/></g><!--MD5=[4668456ee0d5bf931cf805ae22408c96]
class Oferta--><g id="elem_Oferta"><rect codeLine="55" fill="#F1F1F1" height="171.2656" id="Oferta" rx="2.5" ry="2.5" style="stroke:#181818;stroke-width:0.5;" width="158" x="220" y="390.1094"/><ellipse cx="274.75" cy="406.1094" fill="#ADD1B2" rx="11" ry="11" style="stroke:#181818;stroke-width:1.0;"/><path d="M277.5156,401.9844 Q277.6719,401.7656 277.8594,401.6563 Q278.0469,401.5469 278.2656,401.5469 Q278.6406,401.5469 278.875,401.8125 Q279.1094,402.0625 279.1094,402.6719 L279.1094,404.125 Q279.1094,404.7344 278.875,405 Q278.6406,405.2656 278.2656,405.2656 Q277.9219,405.2656 277.7188,405.0625 Q277.5156,404.875 277.4063,404.3594 Q277.3594,404 277.1719,403.8125 Q276.8438,403.4375 276.2344,403.2188 Q275.625,403 275,403 Q274.2344,403 273.5938,403.3281 Q272.9688,403.6563 272.4688,404.4063 Q271.9844,405.1563 271.9844,406.1875 L271.9844,407.2813 Q271.9844,408.5156 272.875,409.3438 Q273.7656,410.1563 275.3594,410.1563 Q276.2969,410.1563 276.9531,409.9063 Q277.3438,409.75 277.7656,409.3125 Q278.0313,409.0469 278.1719,408.9688 Q278.3281,408.8906 278.5313,408.8906 Q278.8594,408.8906 279.1094,409.1563 Q279.375,409.4063 279.375,409.75 Q279.375,410.0938 279.0313,410.5 Q278.5313,411.0781 277.7344,411.4063 Q276.6563,411.8594 275.3594,411.8594 Q273.8438,411.8594 272.6406,411.2344 Q271.6563,410.7344 270.9688,409.6719 Q270.2813,408.5938 270.2813,407.3125 L270.2813,406.1563 Q270.2813,404.8281 270.8906,403.6875 Q271.5156,402.5313 272.6094,401.9219 Q273.7031,401.2969 274.9375,401.2969 Q275.6719,401.2969 276.3125,401.4688 Q276.9688,401.625 277.5156,401.9844 Z " fill="#000000"/><text fill="#000000" font-family="sans-serif" font-size="14" lengthAdjust="spacing" textLength="40" x="295.25" y="411.8379">Oferta</text><line style="stroke:#181818;stroke-width:0.5;" x1="221" x2="377" y1="422.1094" y2="422.1094"/><text fill="#000000" font-family="sans-serif" font-size="14" lengthAdjust="spacing" textLength="129" x="226" y="440.6426">PK idOferta : Integer</text><text fill="#000000" font-family="sans-serif" font-size="14" lengthAdjust="spacing" textLength="146" x="226" y="458.252">FK idProducto : Integer</text><text fill="#000000" font-family="sans-serif" font-size="14" lengthAdjust="spacing" textLength="145" x="226" y="475.8613">precioOriginal : Double</text><text fill="#000000" font-family="sans-serif" font-size="14" lengthAdjust="spacing" textLength="136" x="226" y="493.4707">precioNuevo : Double</text><text fill="#000000" font-family="sans-serif" font-size="14" lengthAdjust="spacing" textLength="109" x="226" y="511.0801">fechaInicio : Date</text><text fill="#000000" font-family="sans-serif" font-size="14" lengthAdjust="spacing" textLength="97" x="226" y="528.6895">fechaFin : Date</text><text fill="#000000" font-family="sans-serif" font-size="14" lengthAdjust="spacing" textLength="110" x="226" y="546.2988">vigente : Boolean</text><line style="stroke:#181818;stroke-width:0.5;" x1="221" x2="377" y1="553.375" y2="553.375"/></g><!--MD5=[9884e166d189446fe4825863c8acf943]
class Producto--><g id="elem_Producto"><rect codeLine="65" fill="#F1F1F1" height="118.4375" id="Producto" rx="2.5" ry="2.5" style="stroke:#181818;stroke-width:0.5;" width="158" x="301" y="699.6094"/><ellipse cx="347.25" cy="715.6094" fill="#ADD1B2" rx="11" ry="11" style="stroke:#181818;stroke-width:1.0;"/><path d="M350.0156,711.4844 Q350.1719,711.2656 350.3594,711.1563 Q350.5469,711.0469 350.7656,711.0469 Q351.1406,711.0469 351.375,711.3125 Q351.6094,711.5625 351.6094,712.1719 L351.6094,713.625 Q351.6094,714.2344 351.375,714.5 Q351.1406,714.7656 350.7656,714.7656 Q350.4219,714.7656 350.2188,714.5625 Q350.0156,714.375 349.9063,713.8594 Q349.8594,713.5 349.6719,713.3125 Q349.3438,712.9375 348.7344,712.7188 Q348.125,712.5 347.5,712.5 Q346.7344,712.5 346.0938,712.8281 Q345.4688,713.1563 344.9688,713.9063 Q344.4844,714.6563 344.4844,715.6875 L344.4844,716.7813 Q344.4844,718.0156 345.375,718.8438 Q346.2656,719.6563 347.8594,719.6563 Q348.7969,719.6563 349.4531,719.4063 Q349.8438,719.25 350.2656,718.8125 Q350.5313,718.5469 350.6719,718.4688 Q350.8281,718.3906 351.0313,718.3906 Q351.3594,718.3906 351.6094,718.6563 Q351.875,718.9063 351.875,719.25 Q351.875,719.5938 351.5313,720 Q351.0313,720.5781 350.2344,720.9063 Q349.1563,721.3594 347.8594,721.3594 Q346.3438,721.3594 345.1406,720.7344 Q344.1563,720.2344 343.4688,719.1719 Q342.7813,718.0938 342.7813,716.8125 L342.7813,715.6563 Q342.7813,714.3281 343.3906,713.1875 Q344.0156,712.0313 345.1094,711.4219 Q346.2031,710.7969 347.4375,710.7969 Q348.1719,710.7969 348.8125,710.9688 Q349.4688,711.125 350.0156,711.4844 Z " fill="#000000"/><text fill="#000000" font-family="sans-serif" font-size="14" lengthAdjust="spacing" textLength="57" x="367.75" y="721.3379">Producto</text><line style="stroke:#181818;stroke-width:0.5;" x1="302" x2="458" y1="731.6094" y2="731.6094"/><text fill="#000000" font-family="sans-serif" font-size="14" lengthAdjust="spacing" textLength="146" x="307" y="750.1426">PK idProducto : Integer</text><text fill="#000000" font-family="sans-serif" font-size="14" lengthAdjust="spacing" textLength="96" x="307" y="767.752">precio : Double</text><text fill="#000000" font-family="sans-serif" font-size="14" lengthAdjust="spacing" textLength="131" x="307" y="785.3613">bloqueado : Boolean</text><text fill="#000000" font-family="sans-serif" font-size="14" lengthAdjust="spacing" textLength="128" x="307" y="802.9707">disponible : Boolean</text><line style="stroke:#181818;stroke-width:0.5;" x1="302" x2="458" y1="810.0469" y2="810.0469"/></g><!--MD5=[4aa7a682b98f74952b64472b1e37b6e5]
class ProductoEnCarrito--><g id="elem_ProductoEnCarrito"><rect codeLine="72" fill="#F1F1F1" height="83.2188" id="ProductoEnCarrito" rx="2.5" ry="2.5" style="stroke:#181818;stroke-width:0.5;" width="180" x="290" y="956.1094"/><ellipse cx="318.95" cy="972.1094" fill="#ADD1B2" rx="11" ry="11" style="stroke:#181818;stroke-width:1.0;"/><path d="M321.7156,967.9844 Q321.8719,967.7656 322.0594,967.6563 Q322.2469,967.5469 322.4656,967.5469 Q322.8406,967.5469 323.075,967.8125 Q323.3094,968.0625 323.3094,968.6719 L323.3094,970.125 Q323.3094,970.7344 323.075,971 Q322.8406,971.2656 322.4656,971.2656 Q322.1219,971.2656 321.9188,971.0625 Q321.7156,970.875 321.6063,970.3594 Q321.5594,970 321.3719,969.8125 Q321.0438,969.4375 320.4344,969.2188 Q319.825,969 319.2,969 Q318.4344,969 317.7938,969.3281 Q317.1688,969.6563 316.6688,970.4063 Q316.1844,971.1563 316.1844,972.1875 L316.1844,973.2813 Q316.1844,974.5156 317.075,975.3438 Q317.9656,976.1563 319.5594,976.1563 Q320.4969,976.1563 321.1531,975.9063 Q321.5438,975.75 321.9656,975.3125 Q322.2313,975.0469 322.3719,974.9688 Q322.5281,974.8906 322.7313,974.8906 Q323.0594,974.8906 323.3094,975.1563 Q323.575,975.4063 323.575,975.75 Q323.575,976.0938 323.2313,976.5 Q322.7313,977.0781 321.9344,977.4063 Q320.8563,977.8594 319.5594,977.8594 Q318.0438,977.8594 316.8406,977.2344 Q315.8563,976.7344 315.1688,975.6719 Q314.4813,974.5938 314.4813,973.3125 L314.4813,972.1563 Q314.4813,970.8281 315.0906,969.6875 Q315.7156,968.5313 316.8094,967.9219 Q317.9031,967.2969 319.1375,967.2969 Q319.8719,967.2969 320.5125,967.4688 Q321.1688,967.625 321.7156,967.9844 Z " fill="#000000"/><text fill="#000000" font-family="sans-serif" font-size="14" lengthAdjust="spacing" textLength="117" x="336.05" y="977.8379">ProductoEnCarrito</text><line style="stroke:#181818;stroke-width:0.5;" x1="291" x2="469" y1="988.1094" y2="988.1094"/><text fill="#000000" font-family="sans-serif" font-size="14" lengthAdjust="spacing" textLength="168" x="296" y="1006.6426">PK FK idProducto : Integer</text><text fill="#000000" font-family="sans-serif" font-size="14" lengthAdjust="spacing" textLength="154" x="296" y="1024.252">PK FK idCarrito : Integer</text><line style="stroke:#181818;stroke-width:0.5;" x1="291" x2="469" y1="1031.3281" y2="1031.3281"/></g><!--MD5=[21174dace72aba80a8f72654e0d803f1]
class Proveedor--><g id="elem_Proveedor"><rect codeLine="77" fill="#F1F1F1" height="206.4844" id="Proveedor" rx="2.5" ry="2.5" style="stroke:#181818;stroke-width:0.5;" width="172" x="484" y="372.6094"/><ellipse cx="532.75" cy="388.6094" fill="#ADD1B2" rx="11" ry="11" style="stroke:#181818;stroke-width:1.0;"/><path d="M535.5156,384.4844 Q535.6719,384.2656 535.8594,384.1563 Q536.0469,384.0469 536.2656,384.0469 Q536.6406,384.0469 536.875,384.3125 Q537.1094,384.5625 537.1094,385.1719 L537.1094,386.625 Q537.1094,387.2344 536.875,387.5 Q536.6406,387.7656 536.2656,387.7656 Q535.9219,387.7656 535.7188,387.5625 Q535.5156,387.375 535.4063,386.8594 Q535.3594,386.5 535.1719,386.3125 Q534.8438,385.9375 534.2344,385.7188 Q533.625,385.5 533,385.5 Q532.2344,385.5 531.5938,385.8281 Q530.9688,386.1563 530.4688,386.9063 Q529.9844,387.6563 529.9844,388.6875 L529.9844,389.7813 Q529.9844,391.0156 530.875,391.8438 Q531.7656,392.6563 533.3594,392.6563 Q534.2969,392.6563 534.9531,392.4063 Q535.3438,392.25 535.7656,391.8125 Q536.0313,391.5469 536.1719,391.4688 Q536.3281,391.3906 536.5313,391.3906 Q536.8594,391.3906 537.1094,391.6563 Q537.375,391.9063 537.375,392.25 Q537.375,392.5938 537.0313,393 Q536.5313,393.5781 535.7344,393.9063 Q534.6563,394.3594 533.3594,394.3594 Q531.8438,394.3594 530.6406,393.7344 Q529.6563,393.2344 528.9688,392.1719 Q528.2813,391.0938 528.2813,389.8125 L528.2813,388.6563 Q528.2813,387.3281 528.8906,386.1875 Q529.5156,385.0313 530.6094,384.4219 Q531.7031,383.7969 532.9375,383.7969 Q533.6719,383.7969 534.3125,383.9688 Q534.9688,384.125 535.5156,384.4844 Z " fill="#000000"/><text fill="#000000" font-family="sans-serif" font-size="14" lengthAdjust="spacing" textLength="66" x="553.25" y="394.3379">Proveedor</text><line style="stroke:#181818;stroke-width:0.5;" x1="485" x2="655" y1="404.6094" y2="404.6094"/><text fill="#000000" font-family="sans-serif" font-size="14" lengthAdjust="spacing" textLength="155" x="490" y="423.1426">PK idProveedor : Integer</text><text fill="#000000" font-family="sans-serif" font-size="14" lengthAdjust="spacing" textLength="71" x="490" y="440.752">DNI : String</text><text fill="#000000" font-family="sans-serif" font-size="14" lengthAdjust="spacing" textLength="157" x="490" y="458.3613">nombreCompleto : String</text><text fill="#000000" font-family="sans-serif" font-size="14" lengthAdjust="spacing" textLength="146" x="490" y="475.9707">fechaNacimiento : Date</text><text fill="#000000" font-family="sans-serif" font-size="14" lengthAdjust="spacing" textLength="78" x="490" y="493.5801">sexo : String</text><text fill="#000000" font-family="sans-serif" font-size="14" lengthAdjust="spacing" textLength="101" x="490" y="511.1895">fechaAlta : Date</text><text fill="#000000" font-family="sans-serif" font-size="14" lengthAdjust="spacing" textLength="102" x="490" y="528.7988">direccion: String</text><text fill="#000000" font-family="sans-serif" font-size="14" lengthAdjust="spacing" textLength="100" x="490" y="546.4082">telefono : String</text><text fill="#000000" font-family="sans-serif" font-size="14" lengthAdjust="spacing" textLength="160" x="490" y="564.0176">correoElectronico : String</text><line style="stroke:#181818;stroke-width:0.5;" x1="485" x2="655" y1="571.0938" y2="571.0938"/></g><!--MD5=[e363550a3c76349e2d25d63e24111731]
class Vendedor--><g id="elem_Vendedor"><rect codeLine="89" fill="#F1F1F1" height="206.4844" id="Vendedor" rx="2.5" ry="2.5" style="stroke:#181818;stroke-width:0.5;" width="172" x="798" y="1177.6094"/><ellipse cx="848.75" cy="1193.6094" fill="#ADD1B2" rx="11" ry="11" style="stroke:#181818;stroke-width:1.0;"/><path d="M851.5156,1189.4844 Q851.6719,1189.2656 851.8594,1189.1563 Q852.0469,1189.0469 852.2656,1189.0469 Q852.6406,1189.0469 852.875,1189.3125 Q853.1094,1189.5625 853.1094,1190.1719 L853.1094,1191.625 Q853.1094,1192.2344 852.875,1192.5 Q852.6406,1192.7656 852.2656,1192.7656 Q851.9219,1192.7656 851.7188,1192.5625 Q851.5156,1192.375 851.4063,1191.8594 Q851.3594,1191.5 851.1719,1191.3125 Q850.8438,1190.9375 850.2344,1190.7188 Q849.625,1190.5 849,1190.5 Q848.2344,1190.5 847.5938,1190.8281 Q846.9688,1191.1563 846.4688,1191.9063 Q845.9844,1192.6563 845.9844,1193.6875 L845.9844,1194.7813 Q845.9844,1196.0156 846.875,1196.8438 Q847.7656,1197.6563 849.3594,1197.6563 Q850.2969,1197.6563 850.9531,1197.4063 Q851.3438,1197.25 851.7656,1196.8125 Q852.0313,1196.5469 852.1719,1196.4688 Q852.3281,1196.3906 852.5313,1196.3906 Q852.8594,1196.3906 853.1094,1196.6563 Q853.375,1196.9063 853.375,1197.25 Q853.375,1197.5938 853.0313,1198 Q852.5313,1198.5781 851.7344,1198.9063 Q850.6563,1199.3594 849.3594,1199.3594 Q847.8438,1199.3594 846.6406,1198.7344 Q845.6563,1198.2344 844.9688,1197.1719 Q844.2813,1196.0938 844.2813,1194.8125 L844.2813,1193.6563 Q844.2813,1192.3281 844.8906,1191.1875 Q845.5156,1190.0313 846.6094,1189.4219 Q847.7031,1188.7969 848.9375,1188.7969 Q849.6719,1188.7969 850.3125,1188.9688 Q850.9688,1189.125 851.5156,1189.4844 Z " fill="#000000"/><text fill="#000000" font-family="sans-serif" font-size="14" lengthAdjust="spacing" textLength="62" x="869.25" y="1199.3379">Vendedor</text><line style="stroke:#181818;stroke-width:0.5;" x1="799" x2="969" y1="1209.6094" y2="1209.6094"/><text fill="#000000" font-family="sans-serif" font-size="14" lengthAdjust="spacing" textLength="151" x="804" y="1228.1426">PK idVendedor : Integer</text><text fill="#000000" font-family="sans-serif" font-size="14" lengthAdjust="spacing" textLength="71" x="804" y="1245.752">DNI : String</text><text fill="#000000" font-family="sans-serif" font-size="14" lengthAdjust="spacing" textLength="157" x="804" y="1263.3613">nombreCompleto : String</text><text fill="#000000" font-family="sans-serif" font-size="14" lengthAdjust="spacing" textLength="146" x="804" y="1280.9707">fechaNacimiento : Date</text><text fill="#000000" font-family="sans-serif" font-size="14" lengthAdjust="spacing" textLength="78" x="804" y="1298.5801">sexo : String</text><text fill="#000000" font-family="sans-serif" font-size="14" lengthAdjust="spacing" textLength="101" x="804" y="1316.1895">fechaAlta : Date</text><text fill="#000000" font-family="sans-serif" font-size="14" lengthAdjust="spacing" textLength="102" x="804" y="1333.7988">direccion: String</text><text fill="#000000" font-family="sans-serif" font-size="14" lengthAdjust="spacing" textLength="100" x="804" y="1351.4082">telefono : String</text><text fill="#000000" font-family="sans-serif" font-size="14" lengthAdjust="spacing" textLength="160" x="804" y="1369.0176">correoElectronico : String</text><line style="stroke:#181818;stroke-width:0.5;" x1="799" x2="969" y1="1376.0938" y2="1376.0938"/></g><!--MD5=[fe4478d9c9a369b28097141e000aa656]
class Venta--><g id="elem_Venta"><rect codeLine="101" fill="#F1F1F1" height="136.0469" id="Venta" rx="2.5" ry="2.5" style="stroke:#181818;stroke-width:0.5;" width="172" x="694" y="1504.6094"/><ellipse cx="757.25" cy="1520.6094" fill="#ADD1B2" rx="11" ry="11" style="stroke:#181818;stroke-width:1.0;"/><path d="M760.0156,1516.4844 Q760.1719,1516.2656 760.3594,1516.1563 Q760.5469,1516.0469 760.7656,1516.0469 Q761.1406,1516.0469 761.375,1516.3125 Q761.6094,1516.5625 761.6094,1517.1719 L761.6094,1518.625 Q761.6094,1519.2344 761.375,1519.5 Q761.1406,1519.7656 760.7656,1519.7656 Q760.4219,1519.7656 760.2188,1519.5625 Q760.0156,1519.375 759.9063,1518.8594 Q759.8594,1518.5 759.6719,1518.3125 Q759.3438,1517.9375 758.7344,1517.7188 Q758.125,1517.5 757.5,1517.5 Q756.7344,1517.5 756.0938,1517.8281 Q755.4688,1518.1563 754.9688,1518.9063 Q754.4844,1519.6563 754.4844,1520.6875 L754.4844,1521.7813 Q754.4844,1523.0156 755.375,1523.8438 Q756.2656,1524.6563 757.8594,1524.6563 Q758.7969,1524.6563 759.4531,1524.4063 Q759.8438,1524.25 760.2656,1523.8125 Q760.5313,1523.5469 760.6719,1523.4688 Q760.8281,1523.3906 761.0313,1523.3906 Q761.3594,1523.3906 761.6094,1523.6563 Q761.875,1523.9063 761.875,1524.25 Q761.875,1524.5938 761.5313,1525 Q761.0313,1525.5781 760.2344,1525.9063 Q759.1563,1526.3594 757.8594,1526.3594 Q756.3438,1526.3594 755.1406,1525.7344 Q754.1563,1525.2344 753.4688,1524.1719 Q752.7813,1523.0938 752.7813,1521.8125 L752.7813,1520.6563 Q752.7813,1519.3281 753.3906,1518.1875 Q754.0156,1517.0313 755.1094,1516.4219 Q756.2031,1515.7969 757.4375,1515.7969 Q758.1719,1515.7969 758.8125,1515.9688 Q759.4688,1516.125 760.0156,1516.4844 Z " fill="#000000"/><text fill="#000000" font-family="sans-serif" font-size="14" lengthAdjust="spacing" textLength="37" x="777.75" y="1526.3379">Venta</text><line style="stroke:#181818;stroke-width:0.5;" x1="695" x2="865" y1="1536.6094" y2="1536.6094"/><text fill="#000000" font-family="sans-serif" font-size="14" lengthAdjust="spacing" textLength="126" x="700" y="1555.1426">PK idVenta : Integer</text><text fill="#000000" font-family="sans-serif" font-size="14" lengthAdjust="spacing" textLength="160" x="700" y="1572.752">FK idComprador : Integer</text><text fill="#000000" font-family="sans-serif" font-size="14" lengthAdjust="spacing" textLength="151" x="700" y="1590.3613">FK idVendedor : Integer</text><text fill="#000000" font-family="sans-serif" font-size="14" lengthAdjust="spacing" textLength="146" x="700" y="1607.9707">FK idProducto : Integer</text><text fill="#000000" font-family="sans-serif" font-size="14" lengthAdjust="spacing" textLength="157" x="700" y="1625.5801">precioAcordado : Double</text><line style="stroke:#181818;stroke-width:0.5;" x1="695" x2="865" y1="1632.6563" y2="1632.6563"/></g><!--MD5=[a4c214c787b96a615362ada98ba5a205]
link Aviso to Notificacion--><g id="link_Aviso_Notificacion"><path codeLine="109" d="M306.12,234.1494 C249.92,298.4694 175.04,384.1494 131.52,433.9594 " fill="none" id="Aviso-Notificacion" style="stroke:#181818;stroke-width:1.0;"/><text fill="#000000" font-family="sans-serif" font-size="13" lengthAdjust="spacing" textLength="7" x="292.2283" y="255.9792">1</text><text fill="#000000" font-family="sans-serif" font-size="13" lengthAdjust="spacing" textLength="7" x="129.8233" y="423.2422">1</text></g><!--MD5=[1a2a3cfea883701f79c29dec8798ace6]
link Aviso to Oferta--><g id="link_Aviso_Oferta"><path codeLine="110" d="M358.93,234.1494 C346.98,282.1094 332.06,341.9394 320.11,389.9294 " fill="none" id="Aviso-Oferta" style="stroke:#181818;stroke-width:1.0;stroke-dasharray:7.0,7.0;"/><text fill="#000000" font-family="sans-serif" font-size="13" lengthAdjust="spacing" textLength="22" x="334.0738" y="255.9792">0..1</text><text fill="#000000" font-family="sans-serif" font-size="13" lengthAdjust="spacing" textLength="7" x="314.6234" y="379.3776">1</text></g><!--MD5=[668d216d703c3eae62fd2394075d879e]
link Aviso to Producto--><g id="link_Aviso_Producto"><path codeLine="111" d="M387.04,234.2594 C390.16,275.8894 393.46,326.8494 395,372.6094 C398.07,464.1094 398.83,487.1294 395,578.6094 C393.31,618.9594 389.49,664.2894 386.13,699.2394 " fill="none" id="Aviso-Producto" style="stroke:#181818;stroke-width:1.0;stroke-dasharray:7.0,7.0;"/><text fill="#000000" font-family="sans-serif" font-size="13" lengthAdjust="spacing" textLength="22" x="364.6997" y="255.8062">0..1</text><text fill="#000000" font-family="sans-serif" font-size="13" lengthAdjust="spacing" textLength="7" x="379.4341" y="688.9399">1</text></g><!--MD5=[71d8b3a4b3c5f919eea76e23db13b6f3]
link Aviso to Proveedor--><g id="link_Aviso_Proveedor"><path codeLine="112" d="M429.42,234.1494 C454.16,276.4694 484.31,328.0294 510.33,372.5394 " fill="none" id="Aviso-Proveedor" style="stroke:#181818;stroke-width:1.0;stroke-dasharray:7.0,7.0;"/><text fill="#000000" font-family="sans-serif" font-size="13" lengthAdjust="spacing" textLength="26" x="406.6637" y="255.9792">0..m</text><text fill="#000000" font-family="sans-serif" font-size="13" lengthAdjust="spacing" textLength="7" x="498.691" y="361.8729">1</text></g><!--MD5=[5280d35de2174fc35abc961461d0d826]
link Carrito to Compra--><g id="link_Carrito_Compra"><path codeLine="113" d="M591,800.3494 C591,838.3394 591,895.3994 591,938.2194 " fill="none" id="Carrito-Compra" style="stroke:#181818;stroke-width:1.0;stroke-dasharray:7.0,7.0;"/><text fill="#000000" font-family="sans-serif" font-size="13" lengthAdjust="spacing" textLength="7" x="583.4422" y="821.7824">1</text><text fill="#000000" font-family="sans-serif" font-size="13" lengthAdjust="spacing" textLength="22" x="567.7281" y="927.9176">0..1</text></g><!--MD5=[762f087b94477fb3e9e5e3c4ccdf7dd8]
link Carrito to Comprador--><g id="link_Carrito_Comprador"><path codeLine="114" d="M623.02,800.1794 C648.12,834.7494 681.07,886.8994 695,938.6094 C716.09,1016.8894 709.51,1108.8394 698.81,1177.5194 " fill="none" id="Carrito-Comprador" style="stroke:#181818;stroke-width:1.0;stroke-dasharray:7.0,7.0;"/><text fill="#000000" font-family="sans-serif" font-size="13" lengthAdjust="spacing" textLength="7" x="620.7436" y="821.8955">1</text><text fill="#000000" font-family="sans-serif" font-size="13" lengthAdjust="spacing" textLength="7" x="693.1546" y="1166.8514">1</text></g><!--MD5=[2df5cd729f27b78dff7393785c116466]
link Carrito to ProductoEnCarrito--><g id="link_Carrito_ProductoEnCarrito"><path codeLine="115" d="M554.73,800.3494 C515.96,843.8894 454.87,912.5094 416.15,955.9994 " fill="none" id="Carrito-ProductoEnCarrito" style="stroke:#181818;stroke-width:1.0;"/><text fill="#000000" font-family="sans-serif" font-size="13" lengthAdjust="spacing" textLength="7" x="541.3917" y="821.7824">1</text><text fill="#000000" font-family="sans-serif" font-size="13" lengthAdjust="spacing" textLength="26" x="393.9842" y="945.2888">0..m</text></g><!--MD5=[9225d3bec87ba18a1e74bfc00ae186dd]
link Compra to Comprador--><g id="link_Compra_Comprador"><path codeLine="116" d="M608.82,1056.8294 C619.47,1091.6394 633.31,1136.8394 645.73,1177.4294 " fill="none" id="Compra-Comprador" style="stroke:#181818;stroke-width:1.0;stroke-dasharray:7.0,7.0;"/><text fill="#000000" font-family="sans-serif" font-size="13" lengthAdjust="spacing" textLength="26" x="583.4074" y="1078.5117">0..m</text><text fill="#000000" font-family="sans-serif" font-size="13" lengthAdjust="spacing" textLength="7" x="636.1766" y="1166.7548">1</text></g><!--MD5=[071204a98f50ffab3958f14338bba25f]
link Comprador to Venta--><g id="link_Comprador_Venta"><path codeLine="117" d="M713.31,1383.8494 C727.5,1423.8094 743.38,1468.5094 756.09,1504.2794 " fill="none" id="Comprador-Venta" style="stroke:#181818;stroke-width:1.0;stroke-dasharray:7.0,7.0;"/><text fill="#000000" font-family="sans-serif" font-size="13" lengthAdjust="spacing" textLength="7" x="708.7195" y="1405.5088">1</text><text fill="#000000" font-family="sans-serif" font-size="13" lengthAdjust="spacing" textLength="26" x="726.2837" y="1493.9187">0..m</text></g><!--MD5=[80f811fe70a69a8ac0ead5390a504c9f]
link Oferta to Producto--><g id="link_Oferta_Producto"><path codeLine="118" d="M323.41,561.2994 C336.27,605.8994 351.71,659.4594 363.21,699.3594 " fill="none" id="Oferta-Producto" style="stroke:#181818;stroke-width:1.0;stroke-dasharray:7.0,7.0;"/><text fill="#000000" font-family="sans-serif" font-size="13" lengthAdjust="spacing" textLength="22" x="302.5624" y="582.8497">0..1</text><text fill="#000000" font-family="sans-serif" font-size="13" lengthAdjust="spacing" textLength="7" x="353.7372" y="688.6532">1</text></g><!--MD5=[a9447ee5a57b3e4a45eac9c8eecd6d22]
link Producto to ProductoEnCarrito--><g id="link_Producto_ProductoEnCarrito"><path codeLine="119" d="M380,817.8894 C380,860.7894 380,918.0294 380,956.0394 " fill="none" id="Producto-ProductoEnCarrito" style="stroke:#181818;stroke-width:1.0;"/><text fill="#000000" font-family="sans-serif" font-size="13" lengthAdjust="spacing" textLength="7" x="372.5734" y="839.579">1</text><text fill="#000000" font-family="sans-serif" font-size="13" lengthAdjust="spacing" textLength="26" x="351.8469" y="945.3355">0..m</text></g><!--MD5=[4617592da90f18e5dc67f1acd97eb387]
link Vendedor to Venta--><g id="link_Vendedor_Venta"><path codeLine="120" d="M847.33,1383.8494 C833.01,1423.8094 816.97,1468.5094 804.15,1504.2794 " fill="none" id="Vendedor-Venta" style="stroke:#181818;stroke-width:1.0;stroke-dasharray:7.0,7.0;"/><text fill="#000000" font-family="sans-serif" font-size="13" lengthAdjust="spacing" textLength="7" x="837.38" y="1405.5088">1</text><text fill="#000000" font-family="sans-serif" font-size="13" lengthAdjust="spacing" textLength="26" x="779.2998" y="1493.9187">0..m</text></g><!--MD5=[d31e2492775afd1b9a57e37cbfc7fb5f]
@startuml IRs_sistema_de_compras

title Requisitos Información: Sistema de Compras

Class Administrador {
    PK idAdministrador : Integer
    DNI : String
    nombreCompleto : String
    fechaNacimiento : Date
    sexo : String
    fechaAlta : Date
    direccion: String
    telefono : String
    correoElectronico : String
}

Class Aviso {
    PK idAviso : Integer
    FK idProveedor : Integer
    FK idProducto : Integer
    FK idOferta : Integer
    tipo : Enum('nuevoProducto','finOferta')
    motivo : String
    cuerpo : String
}

Class Carrito {
    PK idCarrito : Integer
    FK idComprador : Integer
}

Class Compra {
    PK idCompra : Integer
    FK idComprador : Integer
    FK idCarrito : Integer
    fecha : Date
}

Class Comprador {
    PK idComprador : Integer
    DNI : String
    nombreCompleto : String
    fechaNacimiento : Date
    sexo : String
    fechaAlta : Date
    direccion: String
    telefono : String
    correoElectronico : String
}

Class Notificacion {
    PK FK idAviso : Integer
    mensajeGenerado : String
}

Class Oferta {
    PK idOferta : Integer
    FK idProducto : Integer
    precioOriginal : Double
    precioNuevo : Double
    fechaInicio : Date
    fechaFin : Date
    vigente : Boolean
}

Class Producto {
    PK idProducto : Integer
    precio : Double
    bloqueado : Boolean
    disponible : Boolean   
}

Class ProductoEnCarrito {
    PK FK idProducto : Integer
    PK FK idCarrito : Integer
}

Class Proveedor {
    PK idProveedor : Integer
    DNI : String
    nombreCompleto : String
    fechaNacimiento : Date
    sexo : String
    fechaAlta : Date
    direccion: String
    telefono : String
    correoElectronico : String
}

Class Vendedor {
    PK idVendedor : Integer
    DNI : String
    nombreCompleto : String
    fechaNacimiento : Date
    sexo : String
    fechaAlta : Date
    direccion: String
    telefono : String
    correoElectronico : String  
}

Class Venta {
    PK idVenta : Integer
    FK idComprador : Integer
    FK idVendedor : Integer
    FK idProducto : Integer
    precioAcordado : Double
}

Aviso "1" - - - "1" Notificacion
Aviso "0..1" ... "1" Oferta
Aviso "0..1" ... "1" Producto
Aviso "0..m" ... "1" Proveedor
Carrito "1" ... "0..1" Compra
Carrito "1" ... "1" Comprador
Carrito "1" - - - "0..m" ProductoEnCarrito
Compra "0..m" ... "1" Comprador
Comprador "1" ... "0..m" Venta
Oferta "0..1" ... "1" Producto
Producto "1" - - - "0..m" ProductoEnCarrito
Vendedor "1" ... "0..m" Venta

@enduml

PlantUML version 1.2022.7(Mon Aug 22 19:01:30 CEST 2022)
(GPL source distribution)
Java Runtime: OpenJDK Runtime Environment
JVM: OpenJDK 64-Bit Server VM
Default Encoding: Cp1252
Language: es
Country: ES
--></g></svg>