<?xml version="1.0" encoding="UTF-8" standalone="no"?><svg xmlns="http://www.w3.org/2000/svg" xmlns:xlink="http://www.w3.org/1999/xlink" contentStyleType="text/css" height="880px" preserveAspectRatio="none" style="width:1827px;height:880px;background:#FFFFFF;" version="1.1" viewBox="0 0 1827 880" width="1827px" zoomAndPan="magnify"><defs/><g><rect fill="none" height="27.6094" id="_title" style="stroke:none;stroke-width:1.0;" width="107" x="853.035" y="5"/><text fill="#000000" font-family="sans-serif" font-size="14" font-weight="bold" lengthAdjust="spacing" textLength="97" x="858.035" y="24.5332">Aplicación GD</text><!--MD5=[23bc7945312e1f0a2e37cebfe503a03b]
entity A1--><g id="elem_A1"><ellipse cx="922.5" cy="52.6094" fill="#F1F1F1" rx="8" ry="8" style="stroke:#181818;stroke-width:0.5;"/><path d="M922.5,60.6094 L922.5,87.6094 M909.5,68.6094 L935.5,68.6094 M922.5,87.6094 L909.5,102.6094 M922.5,87.6094 L935.5,102.6094 " fill="none" style="stroke:#181818;stroke-width:0.5;"/><text fill="#000000" font-family="sans-serif" font-size="14" lengthAdjust="spacing" textLength="87" x="879" y="118.6426">Administrador</text></g><!--MD5=[406a5e0ae180932da9bcb21c819a1904]
entity A2--><g id="elem_A2"><ellipse cx="645.5" cy="375.6094" fill="#F1F1F1" rx="8" ry="8" style="stroke:#181818;stroke-width:0.5;"/><path d="M645.5,383.6094 L645.5,410.6094 M632.5,391.6094 L658.5,391.6094 M645.5,410.6094 L632.5,425.6094 M645.5,410.6094 L658.5,425.6094 " fill="none" style="stroke:#181818;stroke-width:0.5;"/><text fill="#000000" font-family="sans-serif" font-size="14" lengthAdjust="spacing" textLength="71" x="610" y="441.6426">Entrenador</text></g><!--MD5=[305b0bf20d1e87c4314d270a9e4e4ae4]
entity A3--><g id="elem_A3"><ellipse cx="784.5" cy="191.6094" fill="#F1F1F1" rx="8" ry="8" style="stroke:#181818;stroke-width:0.5;"/><path d="M784.5,199.6094 L784.5,226.6094 M771.5,207.6094 L797.5,207.6094 M784.5,226.6094 L771.5,241.6094 M784.5,226.6094 L797.5,241.6094 " fill="none" style="stroke:#181818;stroke-width:0.5;"/><text fill="#000000" font-family="sans-serif" font-size="14" lengthAdjust="spacing" textLength="48" x="760.5" y="257.6426">Usuario</text></g><g id="elem_UC1"><ellipse cx="487.3193" cy="713.0732" fill="#F1F1F1" rx="87.8193" ry="19.9639" style="stroke:#181818;stroke-width:0.5;"/><text fill="#000000" font-family="sans-serif" font-size="14" lengthAdjust="spacing" textLength="133" x="420.8193" y="716.8017">Activar nuevo evento</text></g><g id="elem_UC2"><ellipse cx="304.6163" cy="406.2326" fill="#F1F1F1" rx="86.1163" ry="19.6233" style="stroke:#181818;stroke-width:0.5;"/><text fill="#000000" font-family="sans-serif" font-size="14" lengthAdjust="spacing" textLength="129" x="240.1163" y="409.9611">Agregar estadísticas</text></g><g id="elem_UC3"><ellipse cx="137.6531" cy="713.04" fill="#F1F1F1" rx="70.1531" ry="16.4306" style="stroke:#181818;stroke-width:0.5;"/><text fill="#000000" font-family="sans-serif" font-size="14" lengthAdjust="spacing" textLength="88" x="90.6531" y="717.5566">Anular evento</text></g><g id="elem_UC4"><ellipse cx="1521.7315" cy="847.0128" fill="#F1F1F1" rx="85.7315" ry="27.9034" style="stroke:#181818;stroke-width:0.5;"/><text fill="#000000" font-family="sans-serif" font-size="14" lengthAdjust="spacing" textLength="101" x="1469.2315" y="841.9366">Asignar deporte</text><text fill="#000000" font-family="sans-serif" font-size="14" lengthAdjust="spacing" textLength="66" x="1490.7315" y="859.546">practicado</text></g><g id="elem_UC5"><ellipse cx="1261.376" cy="222.1846" fill="#F1F1F1" rx="73.376" ry="17.0752" style="stroke:#181818;stroke-width:0.5;"/><text fill="#000000" font-family="sans-serif" font-size="14" lengthAdjust="spacing" textLength="97" x="1209.876" y="226.7012">Cambiar avatar</text></g><g id="elem_UC6"><ellipse cx="1317.4031" cy="847.0128" fill="#F1F1F1" rx="82.9031" ry="27.9034" style="stroke:#181818;stroke-width:0.5;"/><text fill="#000000" font-family="sans-serif" font-size="14" lengthAdjust="spacing" textLength="97" x="1266.9031" y="841.9366">Cambiar avatar</text><text fill="#000000" font-family="sans-serif" font-size="14" lengthAdjust="spacing" textLength="66" x="1286.4031" y="859.546">del equipo</text></g><g id="elem_UC7"><ellipse cx="900.6163" cy="847.2326" fill="#F1F1F1" rx="86.1163" ry="19.6233" style="stroke:#181818;stroke-width:0.5;"/><text fill="#000000" font-family="sans-serif" font-size="14" lengthAdjust="spacing" textLength="129" x="836.1163" y="850.9611">Cambiar descripción</text></g><g id="elem_UC8"><ellipse cx="1110.5599" cy="847.0128" fill="#F1F1F1" rx="88.5599" ry="27.9034" style="stroke:#181818;stroke-width:0.5;"/><text fill="#000000" font-family="sans-serif" font-size="14" lengthAdjust="spacing" textLength="105" x="1056.0599" y="841.9366">Cambiar nombre</text><text fill="#000000" font-family="sans-serif" font-size="14" lengthAdjust="spacing" textLength="66" x="1079.5599" y="859.546">del equipo</text></g><g id="elem_UC9"><ellipse cx="1159.2516" cy="713.0597" fill="#F1F1F1" rx="82.7516" ry="18.9503" style="stroke:#181818;stroke-width:0.5;"/><text fill="#000000" font-family="sans-serif" font-size="14" lengthAdjust="spacing" textLength="121" x="1098.7516" y="716.7882">Dar de baja equipo</text></g><g id="elem_UC10"><ellipse cx="549.6396" cy="847.0128" fill="#F1F1F1" rx="66.6396" ry="27.9034" style="stroke:#181818;stroke-width:0.5;"/><text fill="#000000" font-family="sans-serif" font-size="14" lengthAdjust="spacing" textLength="74" x="510.6396" y="841.9366">Dar de baja</text><text fill="#000000" font-family="sans-serif" font-size="14" lengthAdjust="spacing" textLength="64" x="519.6396" y="859.546">integrante</text></g><g id="elem_UC11"><ellipse cx="1664.4267" cy="405.8947" fill="#F1F1F1" rx="84.4267" ry="19.2853" style="stroke:#181818;stroke-width:0.5;"/><text fill="#000000" font-family="sans-serif" font-size="14" lengthAdjust="spacing" textLength="125" x="1601.9267" y="409.6232">Dar de baja usuario</text></g><g id="elem_UC12"><ellipse cx="1521.597" cy="713.2288" fill="#F1F1F1" rx="81.097" ry="18.6194" style="stroke:#181818;stroke-width:0.5;"/><text fill="#000000" font-family="sans-serif" font-size="14" lengthAdjust="spacing" textLength="117" x="1462.5843" y="717.1075">Dar de alta equipo</text></g><g id="elem_UC13"><ellipse cx="715.3112" cy="847.0128" fill="#F1F1F1" rx="63.8112" ry="27.9034" style="stroke:#181818;stroke-width:0.5;"/><text fill="#000000" font-family="sans-serif" font-size="14" lengthAdjust="spacing" textLength="70" x="678.3112" y="841.9366">Dar de alta</text><text fill="#000000" font-family="sans-serif" font-size="14" lengthAdjust="spacing" textLength="64" x="685.3112" y="859.546">integrante</text></g><g id="elem_UC14"><ellipse cx="1461.2516" cy="406.0597" fill="#F1F1F1" rx="82.7516" ry="18.9503" style="stroke:#181818;stroke-width:0.5;"/><text fill="#000000" font-family="sans-serif" font-size="14" lengthAdjust="spacing" textLength="121" x="1400.7516" y="409.7882">Dar de alta usuario</text></g><g id="elem_UC15"><ellipse cx="1731.535" cy="846.9164" fill="#F1F1F1" rx="89.535" ry="20.307" style="stroke:#181818;stroke-width:0.5;"/><text fill="#000000" font-family="sans-serif" font-size="14" lengthAdjust="spacing" textLength="137" x="1663.035" y="850.6449">Dar nombre al equipo</text></g><g id="elem_UC16"><ellipse cx="958.396" cy="579.0886" fill="#F1F1F1" rx="77.896" ry="17.9792" style="stroke:#181818;stroke-width:0.5;"/><text fill="#000000" font-family="sans-serif" font-size="14" lengthAdjust="spacing" textLength="109" x="901.9355" y="583.356">Gestionar equipo</text></g><g id="elem_UC17"><ellipse cx="402.3297" cy="222.1753" fill="#F1F1F1" rx="90.8297" ry="20.5659" style="stroke:#181818;stroke-width:0.5;"/><text fill="#000000" font-family="sans-serif" font-size="14" lengthAdjust="spacing" textLength="140" x="332.3297" y="225.9038">Gestionar estadísticas</text></g><g id="elem_UC18"><ellipse cx="374.396" cy="579.0886" fill="#F1F1F1" rx="77.896" ry="17.9792" style="stroke:#181818;stroke-width:0.5;"/><text fill="#000000" font-family="sans-serif" font-size="14" lengthAdjust="spacing" textLength="109" x="317.9355" y="583.356">Gestionar evento</text></g><g id="elem_UC19"><ellipse cx="722.582" cy="713.1036" fill="#F1F1F1" rx="111.582" ry="27.9943" style="stroke:#181818;stroke-width:0.5;"/><text fill="#000000" font-family="sans-serif" font-size="14" lengthAdjust="spacing" textLength="137" x="649.082" y="708.8155">Gestionar integrantes</text><text fill="#000000" font-family="sans-serif" font-size="14" lengthAdjust="spacing" textLength="66" x="688.582" y="726.4249">del equipo</text></g><g id="elem_UC20"><ellipse cx="1165.3639" cy="406.0498" fill="#F1F1F1" rx="98.8639" ry="66.9405" style="stroke:#181818;stroke-width:0.5;"/><text fill="#000000" font-family="sans-serif" font-size="14" lengthAdjust="spacing" textLength="97" x="1109.8476" y="369.5438">Gestionar perfil</text><text fill="#000000" font-family="sans-serif" font-size="14" lengthAdjust="spacing" textLength="4" x="1156.3476" y="387.1532"> </text><line style="stroke:#181818;stroke-width:1.0;" x1="1070.3007" x2="1260.4271" y1="390.2293" y2="390.2293"/><text fill="#000000" font-family="sans-serif" font-size="14" font-weight="bold" lengthAdjust="spacing" textLength="118" x="1099.3476" y="408.7625">extension points</text><text fill="#000000" font-family="sans-serif" font-size="14" lengthAdjust="spacing" textLength="97" x="1109.8476" y="426.3719">Cambiar avatar</text><text fill="#000000" font-family="sans-serif" font-size="14" lengthAdjust="spacing" textLength="132" x="1092.3476" y="443.9813">Modificar contraseña</text></g><g id="elem_UC21"><ellipse cx="958.4031" cy="713.0128" fill="#F1F1F1" rx="82.9031" ry="27.9034" style="stroke:#181818;stroke-width:0.5;"/><text fill="#000000" font-family="sans-serif" font-size="14" lengthAdjust="spacing" textLength="97" x="907.9031" y="707.9366">Gestionar perfil</text><text fill="#000000" font-family="sans-serif" font-size="14" lengthAdjust="spacing" textLength="66" x="927.4031" y="725.546">del equipo</text></g><g id="elem_UC22"><ellipse cx="1469.292" cy="222.0453" fill="#F1F1F1" rx="99.292" ry="27.9359" style="stroke:#181818;stroke-width:0.5;"/><text fill="#000000" font-family="sans-serif" font-size="14" lengthAdjust="spacing" textLength="120" x="1404.292" y="217.7572">Gestionar usuarios</text><text fill="#000000" font-family="sans-serif" font-size="14" lengthAdjust="spacing" textLength="102" x="1417.292" y="235.3666">de la plataforma</text></g><g id="elem_UC23"><ellipse cx="784.5887" cy="406.1271" fill="#F1F1F1" rx="68.0887" ry="16.0177" style="stroke:#181818;stroke-width:0.5;"/><text fill="#000000" font-family="sans-serif" font-size="14" lengthAdjust="spacing" textLength="82" x="740.5887" y="410.6437">Iniciar sesión</text></g><g id="elem_UC24"><ellipse cx="1065.3923" cy="221.9878" fill="#F1F1F1" rx="87.3923" ry="19.8785" style="stroke:#181818;stroke-width:0.5;"/><text fill="#000000" font-family="sans-serif" font-size="14" lengthAdjust="spacing" textLength="132" x="999.3923" y="225.7164">Modificar contraseña</text></g><g id="elem_UC25"><ellipse cx="1165.696" cy="579.0128" fill="#F1F1F1" rx="82.196" ry="27.9034" style="stroke:#181818;stroke-width:0.5;"/><text fill="#000000" font-family="sans-serif" font-size="14" lengthAdjust="spacing" textLength="96" x="1115.696" y="573.9366">Modificar datos</text><text fill="#000000" font-family="sans-serif" font-size="14" lengthAdjust="spacing" textLength="54" x="1140.696" y="591.546">del perfil</text></g><g id="elem_UC26"><ellipse cx="94.6756" cy="406.2445" fill="#F1F1F1" rx="88.6756" ry="20.1351" style="stroke:#181818;stroke-width:0.5;"/><text fill="#000000" font-family="sans-serif" font-size="14" lengthAdjust="spacing" textLength="135" x="27.1756" y="409.973">Modificar estadísticas</text></g><g id="elem_UC27"><ellipse cx="959.5677" cy="406.3229" fill="#F1F1F1" rx="71.5677" ry="16.7135" style="stroke:#181818;stroke-width:0.5;"/><text fill="#000000" font-family="sans-serif" font-size="14" lengthAdjust="spacing" textLength="92" x="910.5677" y="410.8395">Ver calendario</text></g><g id="elem_UC28"><ellipse cx="500.481" cy="405.9056" fill="#F1F1F1" rx="74.481" ry="17.2962" style="stroke:#181818;stroke-width:0.5;"/><text fill="#000000" font-family="sans-serif" font-size="14" lengthAdjust="spacing" textLength="100" x="447.481" y="410.4222">Ver estadísticas</text></g><g id="elem_UC29"><ellipse cx="303.4074" cy="713.1984" fill="#F1F1F1" rx="60.9074" ry="15.5891" style="stroke:#181818;stroke-width:0.5;"/><text fill="#000000" font-family="sans-serif" font-size="14" lengthAdjust="spacing" textLength="69" x="265.9074" y="717.715">Ver evento</text></g><!--MD5=[aaacb78863ea99637d6e5764920aadcc]
link A1 to UC17--><g id="link_A1_UC17"><path d="M878.61,95.6694 C786.18,120.0294 571.22,176.6594 464.66,204.7294 " fill="none" id="A1-to-UC17" style="stroke:#181818;stroke-width:1.0;"/><polygon fill="#181818" points="459.67,206.0494,469.3907,207.6329,464.5061,204.7797,467.3593,199.8951,459.67,206.0494" style="stroke:#181818;stroke-width:1.0;"/></g><!--MD5=[4adbdd6750405e7d30ecd79fcdd6d8e3]
link A1 to UC22--><g id="link_A1_UC22"><path d="M966.15,92.8394 C1044.2,108.7294 1212.6,144.3694 1352.5,183.1094 C1368.91,187.6594 1386.46,193.0594 1402.83,198.3394 " fill="none" id="A1-to-UC22" style="stroke:#181818;stroke-width:1.0;"/><polygon fill="#181818" points="1407.87,199.9694,1400.543,193.3879,1403.1139,198.4269,1398.075,200.9977,1407.87,199.9694" style="stroke:#181818;stroke-width:1.0;"/></g><!--MD5=[6ad183ace13b58a03a91f331de8e6341]
link A2 to UC16--><g id="link_A2_UC16"><path d="M670.61,445.1094 C678.61,455.1894 688.12,465.3994 698.5,473.1094 C760.71,519.3294 846.09,548.6694 901.77,564.2494 " fill="none" id="A2-to-UC16" style="stroke:#181818;stroke-width:1.0;"/><polygon fill="#181818" points="906.73,565.6194,899.1356,559.3484,901.9138,564.276,896.9862,567.0542,906.73,565.6194" style="stroke:#181818;stroke-width:1.0;"/></g><!--MD5=[82eb7d1a8160081ac154c17c0ae348ef]
link A2 to UC18--><g id="link_A2_UC18"><path d="M619.51,445.3694 C611.62,455.2194 602.39,465.2494 592.5,473.1094 C540.2,514.6794 468.74,545.1194 422.12,562.2194 " fill="none" id="A2-to-UC18" style="stroke:#181818;stroke-width:1.0;"/><polygon fill="#181818" points="417.41,563.9394,427.2339,564.6397,422.1119,562.2387,424.5128,557.1166,417.41,563.9394" style="stroke:#181818;stroke-width:1.0;"/></g><!--MD5=[103cdce1fe4581daff14f350a5611b42]
link A3 to UC20--><g id="link_A3_UC20"><path d="M808.53,232.7294 C855.37,251.6794 961.86,295.7694 1048.5,339.1094 C1060.95,345.3394 1073.95,352.2394 1086.57,359.1794 " fill="none" id="A3-to-UC20" style="stroke:#181818;stroke-width:1.0;"/><polygon fill="#181818" points="1091.2,361.7394,1085.2555,353.8868,1086.8232,359.3221,1081.3879,360.8898,1091.2,361.7394" style="stroke:#181818;stroke-width:1.0;"/></g><!--MD5=[998060701bd3134accdd190e2a26e76e]
link A3 to UC23--><g id="link_A3_UC23"><path d="M784.5,261.2594 C784.5,298.7494 784.5,354.5394 784.5,384.4294 " fill="none" id="A3-to-UC23" style="stroke:#181818;stroke-width:1.0;"/><polygon fill="#181818" points="784.5,389.6994,788.5,380.6994,784.5,384.6994,780.5,380.6994,784.5,389.6994" style="stroke:#181818;stroke-width:1.0;"/></g><!--MD5=[7a9537d9740406a0a1509dffc69f8bdc]
link A3 to UC27--><g id="link_A3_UC27"><path d="M808.83,248.4194 C844.21,285.2094 909.09,352.6794 940.9,385.7694 " fill="none" id="A3-to-UC27" style="stroke:#181818;stroke-width:1.0;"/><polygon fill="#181818" points="944.62,389.6294,941.2522,380.3742,941.1493,386.0302,935.4934,385.9273,944.62,389.6294" style="stroke:#181818;stroke-width:1.0;"/></g><!--MD5=[95d55a595b6da7c93440aaf00a878813]
link A3 to UC28--><g id="link_A3_UC28"><path d="M760.48,236.7994 C723.75,257.9194 651.68,300.0994 592.5,339.1094 C569.46,354.2994 544.02,372.6794 525.75,386.1794 " fill="none" id="A3-to-UC28" style="stroke:#181818;stroke-width:1.0;"/><polygon fill="#181818" points="521.73,389.1494,531.3473,387.0262,525.7538,386.1814,526.5986,380.588,521.73,389.1494" style="stroke:#181818;stroke-width:1.0;"/></g><!--MD5=[19f4da9d4d3ffdef7c1b5ef510e80f78]
reverse link A3 to A2--><g id="link_A3_A2"><path d="M747.98,270.9194 C725.12,300.8494 696.07,338.8994 674.73,366.8294 " fill="none" id="A3-backto-A2" style="stroke:#181818;stroke-width:1.0;"/><polygon fill="none" points="742.59,266.4594,760.29,254.8094,753.71,274.9594,742.59,266.4594" style="stroke:#181818;stroke-width:1.0;"/></g><!--MD5=[23f849f0b8ed3146df21555be77ceecd]
reverse link UC5 to UC6--><g id="link_UC5_UC6"><path d="M1278.69,257.2294 C1295.15,293.1094 1317.5,351.6494 1317.5,405.1094 C1317.5,405.1094 1317.5,405.1094 1317.5,714.1094 C1317.5,750.4294 1317.5,792.3794 1317.5,819.0594 " fill="none" id="UC5-backto-UC6" style="stroke:#181818;stroke-width:1.0;"/><polygon fill="none" points="1272.36,260.2194,1270.01,239.1594,1284.98,254.1494,1272.36,260.2194" style="stroke:#181818;stroke-width:1.0;"/></g><!--MD5=[5b415c470086fa8b665bb89adea2485d]
link UC5 to UC20--><g id="link_UC5_UC20"><path d="M1252.98,239.2594 C1241.34,261.3194 1219.77,302.2194 1200.96,337.8794 " fill="none" id="UC5-to-UC20" style="stroke:#181818;stroke-width:1.0;stroke-dasharray:7.0,7.0;"/><polygon fill="#181818" points="1198.44,342.6494,1206.1843,336.5645,1200.7781,338.2297,1199.1129,332.8235,1198.44,342.6494" style="stroke:#181818;stroke-width:1.0;"/><text fill="#000000" font-family="sans-serif" font-size="13" lengthAdjust="spacing" textLength="55" x="1226.5" y="305.6045">«Extend»</text></g><!--MD5=[b1ce530753ab3fe34f0c54c6064c3ac8]
link UC24 to UC20--><g id="link_UC24_UC20"><path d="M1076.01,242.2394 C1088.49,264.9494 1109.98,304.0594 1128.77,338.2594 " fill="none" id="UC24-to-UC20" style="stroke:#181818;stroke-width:1.0;stroke-dasharray:7.0,7.0;"/><polygon fill="#181818" points="1131.28,342.8294,1130.4685,333.014,1128.8797,338.4432,1123.4506,336.8544,1131.28,342.8294" style="stroke:#181818;stroke-width:1.0;"/><text fill="#000000" font-family="sans-serif" font-size="13" lengthAdjust="spacing" textLength="55" x="1114.5" y="305.6045">«Extend»</text></g><!--MD5=[bf29171b4ac92c095e042832333f29c7]
link UC12 to UC4--><g id="link_UC12_UC4"><path d="M1521.5,731.6394 C1521.5,752.5494 1521.5,787.9194 1521.5,813.8194 " fill="none" id="UC12-to-UC4" style="stroke:#181818;stroke-width:1.0;stroke-dasharray:7.0,7.0;"/><polygon fill="#181818" points="1521.5,818.8694,1525.5,809.8694,1521.5,813.8694,1517.5,809.8694,1521.5,818.8694" style="stroke:#181818;stroke-width:1.0;"/><text fill="#000000" font-family="sans-serif" font-size="13" lengthAdjust="spacing" textLength="55" x="1522.5" y="785.6045">«Include»</text></g><!--MD5=[2e353fe8ee160fd894f63a3ba9996df1]
link UC12 to UC15--><g id="link_UC12_UC15"><path d="M1548.1,730.8294 C1586.11,754.7194 1655.99,798.6394 1697.65,824.8294 " fill="none" id="UC12-to-UC15" style="stroke:#181818;stroke-width:1.0;stroke-dasharray:7.0,7.0;"/><polygon fill="#181818" points="1702.08,827.6194,1696.5878,819.444,1697.8464,824.9591,1692.3314,826.2177,1702.08,827.6194" style="stroke:#181818;stroke-width:1.0;"/><text fill="#000000" font-family="sans-serif" font-size="13" lengthAdjust="spacing" textLength="55" x="1639.5" y="785.6045">«Include»</text></g><!--MD5=[94a010bbefe340c61ceb783bc333c831]
link UC16 to UC9--><g id="link_UC16_UC9"><path d="M983.15,596.2994 C1019.96,620.4694 1089.25,665.9794 1129.14,692.1694 " fill="none" id="UC16-to-UC9" style="stroke:#181818;stroke-width:1.0;stroke-dasharray:7.0,7.0;"/><polygon fill="#181818" points="1133.38,694.9494,1128.0576,686.6625,1129.2022,692.2023,1123.6624,693.3469,1133.38,694.9494" style="stroke:#181818;stroke-width:1.0;"/><text fill="#000000" font-family="sans-serif" font-size="13" lengthAdjust="spacing" textLength="55" x="1072.5" y="651.6045">«Include»</text></g><!--MD5=[4bc888f638128db0a1906c01f7a7247d]
link UC16 to UC12--><g id="link_UC16_UC12"><path d="M1008.53,592.9594 C1026.47,597.5094 1046.88,602.6194 1065.5,607.1094 C1206.62,641.1594 1372.9,678.8294 1460.47,698.4794 " fill="none" id="UC16-to-UC12" style="stroke:#181818;stroke-width:1.0;stroke-dasharray:7.0,7.0;"/><polygon fill="#181818" points="1465.61,699.6294,1457.7084,693.7502,1460.7321,698.5311,1455.9512,701.5549,1465.61,699.6294" style="stroke:#181818;stroke-width:1.0;"/><text fill="#000000" font-family="sans-serif" font-size="13" lengthAdjust="spacing" textLength="55" x="1266.5" y="651.6045">«Include»</text></g><!--MD5=[958cc0d552a1e30e8453e7c378028fdd]
link UC16 to UC19--><g id="link_UC16_UC19"><path d="M930.03,596.0294 C890.72,618.0194 819.25,657.9994 771.32,684.7994 " fill="none" id="UC16-to-UC19" style="stroke:#181818;stroke-width:1.0;stroke-dasharray:7.0,7.0;"/><polygon fill="#181818" points="766.76,687.3594,776.5688,686.4716,771.1274,684.9251,772.6739,679.4837,766.76,687.3594" style="stroke:#181818;stroke-width:1.0;"/><text fill="#000000" font-family="sans-serif" font-size="13" lengthAdjust="spacing" textLength="55" x="856.5" y="651.6045">«Include»</text></g><!--MD5=[faa3222dfb465389a663b0f2ff9b3eb3]
link UC16 to UC21--><g id="link_UC16_UC21"><path d="M958.5,597.3694 C958.5,618.1994 958.5,653.6794 958.5,679.6794 " fill="none" id="UC16-to-UC21" style="stroke:#181818;stroke-width:1.0;stroke-dasharray:7.0,7.0;"/><polygon fill="#181818" points="958.5,684.7394,962.5,675.7394,958.5,679.7394,954.5,675.7394,958.5,684.7394" style="stroke:#181818;stroke-width:1.0;"/><text fill="#000000" font-family="sans-serif" font-size="13" lengthAdjust="spacing" textLength="55" x="959.5" y="651.6045">«Include»</text></g><!--MD5=[1ca297cbb0f954c58e5a847960b303bc]
link UC17 to UC2--><g id="link_UC17_UC2"><path d="M387.73,242.4194 C377.93,255.7094 365.14,273.9794 355.5,291.1094 C338.52,321.2694 322.88,358.1494 313.52,381.6394 " fill="none" id="UC17-to-UC2" style="stroke:#181818;stroke-width:1.0;stroke-dasharray:7.0,7.0;"/><polygon fill="#181818" points="311.62,386.4394,318.6509,379.5425,313.4597,381.7901,311.2121,376.599,311.62,386.4394" style="stroke:#181818;stroke-width:1.0;"/><text fill="#000000" font-family="sans-serif" font-size="13" lengthAdjust="spacing" textLength="55" x="356.5" y="305.6045">«Include»</text></g><!--MD5=[94306affebdd3883b42caa8e974ff3b2]
link UC17 to UC26--><g id="link_UC17_UC26"><path d="M369.71,241.3594 C329.53,263.8494 259.52,303.4694 200.5,339.1094 C175.9,353.9694 148.35,371.1294 127.51,384.2394 " fill="none" id="UC17-to-UC26" style="stroke:#181818;stroke-width:1.0;stroke-dasharray:7.0,7.0;"/><polygon fill="#181818" points="123.16,386.9694,132.9052,385.5442,127.3871,384.2989,128.6324,378.7808,123.16,386.9694" style="stroke:#181818;stroke-width:1.0;"/><text fill="#000000" font-family="sans-serif" font-size="13" lengthAdjust="spacing" textLength="55" x="279.5" y="305.6045">«Include»</text></g><!--MD5=[2a5f80120d217f117f67f351a4abcfab]
link UC17 to UC28--><g id="link_UC17_UC28"><path d="M412.99,242.5894 C431.56,277.0794 470.07,348.5994 489.2,384.1294 " fill="none" id="UC17-to-UC28" style="stroke:#181818;stroke-width:1.0;stroke-dasharray:7.0,7.0;"/><polygon fill="#181818" points="491.66,388.6894,490.9112,378.869,489.2878,384.2879,483.8689,382.6646,491.66,388.6894" style="stroke:#181818;stroke-width:1.0;"/><text fill="#000000" font-family="sans-serif" font-size="13" lengthAdjust="spacing" textLength="55" x="450.5" y="305.6045">«Include»</text></g><!--MD5=[d6dba4eb2e67e698ef8c0e1495223e36]
link UC18 to UC1--><g id="link_UC18_UC1"><path d="M388.81,596.8294 C408.88,620.2694 445.45,662.9894 467.99,689.3194 " fill="none" id="UC18-to-UC1" style="stroke:#181818;stroke-width:1.0;stroke-dasharray:7.0,7.0;"/><polygon fill="#181818" points="471.49,693.3994,468.6904,683.9568,468.2443,689.596,462.6051,689.1499,471.49,693.3994" style="stroke:#181818;stroke-width:1.0;"/><text fill="#000000" font-family="sans-serif" font-size="13" lengthAdjust="spacing" textLength="55" x="439.5" y="651.6045">«Include»</text></g><!--MD5=[494fc08c078ac8110fd002045cd84117]
link UC18 to UC3--><g id="link_UC18_UC3"><path d="M345.31,595.9894 C324.44,607.3694 295.69,623.0994 270.5,637.1094 C235.02,656.8394 194.39,679.7994 167.48,695.0694 " fill="none" id="UC18-to-UC3" style="stroke:#181818;stroke-width:1.0;stroke-dasharray:7.0,7.0;"/><polygon fill="#181818" points="162.95,697.6394,172.7505,696.6645,167.2956,695.1664,168.7937,689.7115,162.95,697.6394" style="stroke:#181818;stroke-width:1.0;"/><text fill="#000000" font-family="sans-serif" font-size="13" lengthAdjust="spacing" textLength="55" x="271.5" y="651.6045">«Include»</text></g><!--MD5=[a7d4d67f9b6f5c9a4d1663e02ec5dc97]
link UC18 to UC29--><g id="link_UC18_UC29"><path d="M365.36,597.0994 C352.11,621.7394 327.61,667.2794 313.75,693.0494 " fill="none" id="UC18-to-UC29" style="stroke:#181818;stroke-width:1.0;stroke-dasharray:7.0,7.0;"/><polygon fill="#181818" points="311.29,697.6194,319.0659,691.5749,313.6511,693.212,312.0141,687.7972,311.29,697.6194" style="stroke:#181818;stroke-width:1.0;"/><text fill="#000000" font-family="sans-serif" font-size="13" lengthAdjust="spacing" textLength="55" x="344.5" y="651.6045">«Include»</text></g><!--MD5=[b1a3ca60c8f3205e5195ddc3e82d0f8c]
link UC19 to UC10--><g id="link_UC19_UC10"><path d="M688.73,739.8694 C658.81,762.7094 615.26,795.9294 584.87,819.1294 " fill="none" id="UC19-to-UC10" style="stroke:#181818;stroke-width:1.0;stroke-dasharray:7.0,7.0;"/><polygon fill="#181818" points="580.85,822.1894,590.436,819.9291,584.8311,819.1643,585.5959,813.5594,580.85,822.1894" style="stroke:#181818;stroke-width:1.0;"/><text fill="#000000" font-family="sans-serif" font-size="13" lengthAdjust="spacing" textLength="55" x="647.5" y="785.6045">«Include»</text></g><!--MD5=[7089098771a188e4f78c65cfe3a404f1]
link UC19 to UC13--><g id="link_UC19_UC13"><path d="M721.07,741.1394 C719.95,762.2294 718.39,791.5894 717.21,813.8894 " fill="none" id="UC19-to-UC13" style="stroke:#181818;stroke-width:1.0;stroke-dasharray:7.0,7.0;"/><polygon fill="#181818" points="716.93,819.1194,721.4133,810.3501,717.2018,814.1268,713.4252,809.9152,716.93,819.1194" style="stroke:#181818;stroke-width:1.0;"/><text fill="#000000" font-family="sans-serif" font-size="13" lengthAdjust="spacing" textLength="55" x="720.5" y="785.6045">«Include»</text></g><!--MD5=[1e8eed110844f7ec3c7b415dfc1846b6]
link UC20 to UC25--><g id="link_UC20_UC25"><path d="M1165.5,473.2194 C1165.5,498.1794 1165.5,525.4494 1165.5,545.9394 " fill="none" id="UC20-to-UC25" style="stroke:#181818;stroke-width:1.0;stroke-dasharray:7.0,7.0;"/><polygon fill="#181818" points="1165.5,550.9894,1169.5,541.9894,1165.5,545.9894,1161.5,541.9894,1165.5,550.9894" style="stroke:#181818;stroke-width:1.0;"/><text fill="#000000" font-family="sans-serif" font-size="13" lengthAdjust="spacing" textLength="55" x="1166.5" y="517.6045">«Include»</text></g><!--MD5=[4a23f32438d038f06a7158ca4d572b95]
link UC21 to UC6--><g id="link_UC21_UC6"><path d="M1013.42,734.2994 C1079.4,758.5594 1189.71,799.1194 1257.76,824.1494 " fill="none" id="UC21-to-UC6" style="stroke:#181818;stroke-width:1.0;stroke-dasharray:7.0,7.0;"/><polygon fill="#181818" points="1262.59,825.9194,1255.5239,819.0586,1257.8973,824.1935,1252.7625,826.5669,1262.59,825.9194" style="stroke:#181818;stroke-width:1.0;"/><text fill="#000000" font-family="sans-serif" font-size="13" lengthAdjust="spacing" textLength="55" x="1160.5" y="785.6045">«Include»</text></g><!--MD5=[024b8925682e526714067e49f957ab51]
link UC21 to UC7--><g id="link_UC21_UC7"><path d="M946.62,741.1394 C936.04,765.2194 920.72,800.0894 910.69,822.9294 " fill="none" id="UC21-to-UC7" style="stroke:#181818;stroke-width:1.0;stroke-dasharray:7.0,7.0;"/><polygon fill="#181818" points="908.63,827.6094,915.9194,820.9863,910.6461,823.0339,908.5985,817.7606,908.63,827.6094" style="stroke:#181818;stroke-width:1.0;"/><text fill="#000000" font-family="sans-serif" font-size="13" lengthAdjust="spacing" textLength="55" x="934.5" y="785.6045">«Include»</text></g><!--MD5=[5b1dfa107a3ceaf1aecac8229570b0ab]
link UC21 to UC8--><g id="link_UC21_UC8"><path d="M987.81,739.5594 C1013.38,761.7694 1050.47,793.9694 1077.16,817.1594 " fill="none" id="UC21-to-UC8" style="stroke:#181818;stroke-width:1.0;stroke-dasharray:7.0,7.0;"/><polygon fill="#181818" points="1081.02,820.5094,1076.8449,811.5892,1077.2439,817.232,1071.6011,817.631,1081.02,820.5094" style="stroke:#181818;stroke-width:1.0;"/><text fill="#000000" font-family="sans-serif" font-size="13" lengthAdjust="spacing" textLength="55" x="1045.5" y="785.6045">«Include»</text></g><!--MD5=[d83378d15fda0244536641de2e8a5c79]
link UC22 to UC11--><g id="link_UC22_UC11"><path d="M1497.44,249.1894 C1536.15,285.3194 1605.39,349.9394 1641.37,383.5194 " fill="none" id="UC22-to-UC11" style="stroke:#181818;stroke-width:1.0;stroke-dasharray:7.0,7.0;"/><polygon fill="#181818" points="1645.17,387.0694,1641.321,378.0038,1641.5152,383.6573,1635.8617,383.8514,1645.17,387.0694" style="stroke:#181818;stroke-width:1.0;"/><text fill="#000000" font-family="sans-serif" font-size="13" lengthAdjust="spacing" textLength="55" x="1561.5" y="305.6045">«Include»</text></g><!--MD5=[24207622534c75633efff61c5133339b]
link UC22 to UC14--><g id="link_UC22_UC14"><path d="M1468.3,250.3594 C1466.73,286.1294 1464,348.2994 1462.52,381.9294 " fill="none" id="UC22-to-UC14" style="stroke:#181818;stroke-width:1.0;stroke-dasharray:7.0,7.0;"/><polygon fill="#181818" points="1462.29,387.0694,1466.6717,378.2489,1462.5041,382.074,1458.679,377.9064,1462.29,387.0694" style="stroke:#181818;stroke-width:1.0;"/><text fill="#000000" font-family="sans-serif" font-size="13" lengthAdjust="spacing" textLength="55" x="1467.5" y="305.6045">«Include»</text></g><!--MD5=[a1ff3b63cff40e09208f5f37b24b1d43]
@startuml aplicacion_gd
title Aplicación GD

:Administrador: as A1
:Entrenador: as A2
:Usuario: as A3

(Activar nuevo evento) as UC1
(Agregar estadísticas) as UC2
(Anular evento) as UC3
(Asignar deporte \n practicado) as UC4
(Cambiar avatar) as UC5
(Cambiar avatar \n del equipo) as UC6
(Cambiar descripción) as UC7
(Cambiar nombre \n del equipo) as UC8
(Dar de baja equipo) as UC9
(Dar de baja \n integrante) as UC10
(Dar de baja usuario)  as UC11
(Dar de alta equipo) as UC12
(Dar de alta \n integrante) as UC13
(Dar de alta usuario) as UC14
(Dar nombre al equipo) as UC15
(Gestionar equipo) as UC16
(Gestionar estadísticas) as UC17
(Gestionar evento) as UC18
(Gestionar integrantes \n del equipo) as UC19
usecase UC20 as "Gestionar perfil

- -
**extension points**
Cambiar avatar
Modificar contraseña"
(Gestionar perfil \n del equipo) as UC21
(Gestionar usuarios \n de la plataforma) as UC22
(Iniciar sesión) as UC23
(Modificar contraseña) as UC24
(Modificar datos \n del perfil) as UC25
(Modificar estadísticas) as UC26
(Ver calendario) as UC27
(Ver estadísticas) as UC28
(Ver evento) as UC29

A1 - -> UC17
A1 - -> UC22
A2 - -> UC16
A2 - -> UC18
A3 - -> UC20
A3 - -> UC23
A3 - -> UC27
A3 - -> UC28

A3 <|- - A2
UC5 <|- - UC6

UC5 ..> UC20 : <<Extend>>
UC24 ..> UC20 : <<Extend>>

UC12 ..> UC4 : <<Include>>
UC12 ..> UC15 : <<Include>>
UC16 ..> UC9 : <<Include>>
UC16 ..> UC12 : <<Include>>
UC16 ..> UC19 : <<Include>>
UC16 ..> UC21 : <<Include>>
UC17 ..> UC2 : <<Include>>
UC17 ..> UC26 : <<Include>>
UC17 ..> UC28 : <<Include>>
UC18 ..> UC1 : <<Include>>
UC18 ..> UC3 : <<Include>>
UC18 ..> UC29 : <<Include>>
UC19 ..> UC10 : <<Include>>
UC19 ..> UC13 : <<Include>>
UC20 ..> UC25 : <<Include>>
UC21 ..> UC6 : <<Include>>
UC21 ..> UC7 : <<Include>>
UC21 ..> UC8 : <<Include>>
UC22 ..> UC11 : <<Include>>
UC22 ..> UC14 : <<Include>>

@enduml

PlantUML version 1.2022.7(Mon Aug 22 19:01:30 CEST 2022)
(GPL source distribution)
Java Runtime: OpenJDK Runtime Environment
JVM: OpenJDK 64-Bit Server VM
Default Encoding: Cp1252
Language: es
Country: ES
--></g></svg>