<?xml version="1.0" encoding="UTF-8" standalone="no"?><svg xmlns="http://www.w3.org/2000/svg" xmlns:xlink="http://www.w3.org/1999/xlink" contentStyleType="text/css" height="928px" preserveAspectRatio="none" style="width:1827px;height:928px;background:#FFFFFF;" version="1.1" viewBox="0 0 1827 928" width="1827px" zoomAndPan="magnify"><defs/><g><rect fill="none" height="27.6094" id="_title" style="stroke:none;stroke-width:1.0;" width="107" x="853.035" y="5"/><text fill="#000000" font-family="sans-serif" font-size="14" font-weight="bold" lengthAdjust="spacing" textLength="97" x="858.035" y="24.5332">Aplicación GD</text><!--MD5=[23bc7945312e1f0a2e37cebfe503a03b]
entity A1--><g id="elem_A1"><ellipse cx="924.5" cy="52.6094" fill="#F1F1F1" rx="8" ry="8" style="stroke:#181818;stroke-width:0.5;"/><path d="M924.5,60.6094 L924.5,87.6094 M911.5,68.6094 L937.5,68.6094 M924.5,87.6094 L911.5,102.6094 M924.5,87.6094 L937.5,102.6094 " fill="none" style="stroke:#181818;stroke-width:0.5;"/><text fill="#000000" font-family="sans-serif" font-size="14" lengthAdjust="spacing" textLength="87" x="881" y="118.6426">Administrador</text></g><!--MD5=[406a5e0ae180932da9bcb21c819a1904]
entity A2--><g id="elem_A2"><ellipse cx="645.5" cy="391.6094" fill="#F1F1F1" rx="8" ry="8" style="stroke:#181818;stroke-width:0.5;"/><path d="M645.5,399.6094 L645.5,426.6094 M632.5,407.6094 L658.5,407.6094 M645.5,426.6094 L632.5,441.6094 M645.5,426.6094 L658.5,441.6094 " fill="none" style="stroke:#181818;stroke-width:0.5;"/><text fill="#000000" font-family="sans-serif" font-size="14" lengthAdjust="spacing" textLength="71" x="610" y="457.6426">Entrenador</text></g><!--MD5=[305b0bf20d1e87c4314d270a9e4e4ae4]
entity A3--><g id="elem_A3"><ellipse cx="784.5" cy="191.6094" fill="#F1F1F1" rx="8" ry="8" style="stroke:#181818;stroke-width:0.5;"/><path d="M784.5,199.6094 L784.5,226.6094 M771.5,207.6094 L797.5,207.6094 M784.5,226.6094 L771.5,241.6094 M784.5,226.6094 L797.5,241.6094 " fill="none" style="stroke:#181818;stroke-width:0.5;"/><text fill="#000000" font-family="sans-serif" font-size="14" lengthAdjust="spacing" textLength="48" x="760.5" y="257.6426">Usuario</text></g><g id="elem_UC1"><ellipse cx="487.3193" cy="745.0732" fill="#F1F1F1" rx="87.8193" ry="19.9639" style="stroke:#181818;stroke-width:0.5;"/><text fill="#000000" font-family="sans-serif" font-size="14" lengthAdjust="spacing" textLength="133" x="420.8193" y="748.8017">Activar nuevo evento</text></g><g id="elem_UC2"><ellipse cx="304.6163" cy="422.2326" fill="#F1F1F1" rx="86.1163" ry="19.6233" style="stroke:#181818;stroke-width:0.5;"/><text fill="#000000" font-family="sans-serif" font-size="14" lengthAdjust="spacing" textLength="129" x="240.1163" y="425.9611">Agregar estadísticas</text></g><g id="elem_UC3"><ellipse cx="137.6531" cy="745.04" fill="#F1F1F1" rx="70.1531" ry="16.4306" style="stroke:#181818;stroke-width:0.5;"/><text fill="#000000" font-family="sans-serif" font-size="14" lengthAdjust="spacing" textLength="88" x="90.6531" y="749.5566">Anular evento</text></g><g id="elem_UC4"><ellipse cx="1521.7315" cy="895.0128" fill="#F1F1F1" rx="85.7315" ry="27.9034" style="stroke:#181818;stroke-width:0.5;"/><text fill="#000000" font-family="sans-serif" font-size="14" lengthAdjust="spacing" textLength="101" x="1469.2315" y="889.9366">Asignar deporte</text><text fill="#000000" font-family="sans-serif" font-size="14" lengthAdjust="spacing" textLength="66" x="1490.7315" y="907.546">practicado</text></g><g id="elem_UC5"><ellipse cx="1261.376" cy="222.1846" fill="#F1F1F1" rx="73.376" ry="17.0752" style="stroke:#181818;stroke-width:0.5;"/><text fill="#000000" font-family="sans-serif" font-size="14" lengthAdjust="spacing" textLength="97" x="1209.876" y="226.7012">Cambiar avatar</text></g><g id="elem_UC6"><ellipse cx="1317.4031" cy="895.0128" fill="#F1F1F1" rx="82.9031" ry="27.9034" style="stroke:#181818;stroke-width:0.5;"/><text fill="#000000" font-family="sans-serif" font-size="14" lengthAdjust="spacing" textLength="97" x="1266.9031" y="889.9366">Cambiar avatar</text><text fill="#000000" font-family="sans-serif" font-size="14" lengthAdjust="spacing" textLength="66" x="1286.4031" y="907.546">del equipo</text></g><g id="elem_UC7"><ellipse cx="900.6163" cy="895.2326" fill="#F1F1F1" rx="86.1163" ry="19.6233" style="stroke:#181818;stroke-width:0.5;"/><text fill="#000000" font-family="sans-serif" font-size="14" lengthAdjust="spacing" textLength="129" x="836.1163" y="898.9611">Cambiar descripción</text></g><g id="elem_UC8"><ellipse cx="1110.5599" cy="895.0128" fill="#F1F1F1" rx="88.5599" ry="27.9034" style="stroke:#181818;stroke-width:0.5;"/><text fill="#000000" font-family="sans-serif" font-size="14" lengthAdjust="spacing" textLength="105" x="1056.0599" y="889.9366">Cambiar nombre</text><text fill="#000000" font-family="sans-serif" font-size="14" lengthAdjust="spacing" textLength="66" x="1079.5599" y="907.546">del equipo</text></g><g id="elem_UC9"><ellipse cx="1159.2516" cy="745.0597" fill="#F1F1F1" rx="82.7516" ry="18.9503" style="stroke:#181818;stroke-width:0.5;"/><text fill="#000000" font-family="sans-serif" font-size="14" lengthAdjust="spacing" textLength="121" x="1098.7516" y="748.7882">Dar de baja equipo</text></g><g id="elem_UC10"><ellipse cx="549.6396" cy="895.0128" fill="#F1F1F1" rx="66.6396" ry="27.9034" style="stroke:#181818;stroke-width:0.5;"/><text fill="#000000" font-family="sans-serif" font-size="14" lengthAdjust="spacing" textLength="74" x="510.6396" y="889.9366">Dar de baja</text><text fill="#000000" font-family="sans-serif" font-size="14" lengthAdjust="spacing" textLength="64" x="519.6396" y="907.546">integrante</text></g><g id="elem_UC11"><ellipse cx="1664.4267" cy="421.8947" fill="#F1F1F1" rx="84.4267" ry="19.2853" style="stroke:#181818;stroke-width:0.5;"/><text fill="#000000" font-family="sans-serif" font-size="14" lengthAdjust="spacing" textLength="125" x="1601.9267" y="425.6232">Dar de baja usuario</text></g><g id="elem_UC12"><ellipse cx="1521.597" cy="745.2288" fill="#F1F1F1" rx="81.097" ry="18.6194" style="stroke:#181818;stroke-width:0.5;"/><text fill="#000000" font-family="sans-serif" font-size="14" lengthAdjust="spacing" textLength="117" x="1462.5843" y="749.1075">Dar de alta equipo</text></g><g id="elem_UC13"><ellipse cx="715.3112" cy="895.0128" fill="#F1F1F1" rx="63.8112" ry="27.9034" style="stroke:#181818;stroke-width:0.5;"/><text fill="#000000" font-family="sans-serif" font-size="14" lengthAdjust="spacing" textLength="70" x="678.3112" y="889.9366">Dar de alta</text><text fill="#000000" font-family="sans-serif" font-size="14" lengthAdjust="spacing" textLength="64" x="685.3112" y="907.546">integrante</text></g><g id="elem_UC14"><ellipse cx="1461.2516" cy="422.0597" fill="#F1F1F1" rx="82.7516" ry="18.9503" style="stroke:#181818;stroke-width:0.5;"/><text fill="#000000" font-family="sans-serif" font-size="14" lengthAdjust="spacing" textLength="121" x="1400.7516" y="425.7882">Dar de alta usuario</text></g><g id="elem_UC15"><ellipse cx="1731.535" cy="894.9164" fill="#F1F1F1" rx="89.535" ry="20.307" style="stroke:#181818;stroke-width:0.5;"/><text fill="#000000" font-family="sans-serif" font-size="14" lengthAdjust="spacing" textLength="137" x="1663.035" y="898.6449">Dar nombre al equipo</text></g><g id="elem_UC16"><ellipse cx="958.396" cy="595.0886" fill="#F1F1F1" rx="77.896" ry="17.9792" style="stroke:#181818;stroke-width:0.5;"/><text fill="#000000" font-family="sans-serif" font-size="14" lengthAdjust="spacing" textLength="109" x="901.9355" y="599.356">Gestionar equipo</text></g><g id="elem_UC17"><ellipse cx="402.3297" cy="222.1753" fill="#F1F1F1" rx="90.8297" ry="20.5659" style="stroke:#181818;stroke-width:0.5;"/><text fill="#000000" font-family="sans-serif" font-size="14" lengthAdjust="spacing" textLength="140" x="332.3297" y="225.9038">Gestionar estadísticas</text></g><g id="elem_UC18"><ellipse cx="374.396" cy="595.0886" fill="#F1F1F1" rx="77.896" ry="17.9792" style="stroke:#181818;stroke-width:0.5;"/><text fill="#000000" font-family="sans-serif" font-size="14" lengthAdjust="spacing" textLength="109" x="317.9355" y="599.356">Gestionar evento</text></g><g id="elem_UC19"><ellipse cx="722.582" cy="745.1036" fill="#F1F1F1" rx="111.582" ry="27.9943" style="stroke:#181818;stroke-width:0.5;"/><text fill="#000000" font-family="sans-serif" font-size="14" lengthAdjust="spacing" textLength="137" x="649.082" y="740.8155">Gestionar integrantes</text><text fill="#000000" font-family="sans-serif" font-size="14" lengthAdjust="spacing" textLength="66" x="688.582" y="758.4249">del equipo</text></g><g id="elem_UC20"><ellipse cx="1165.3639" cy="422.0498" fill="#F1F1F1" rx="98.8639" ry="66.9405" style="stroke:#181818;stroke-width:0.5;"/><text fill="#000000" font-family="sans-serif" font-size="14" lengthAdjust="spacing" textLength="97" x="1109.8476" y="385.5438">Gestionar perfil</text><text fill="#000000" font-family="sans-serif" font-size="14" lengthAdjust="spacing" textLength="4" x="1156.3476" y="403.1532"> </text><line style="stroke:#181818;stroke-width:1.0;" x1="1070.3007" x2="1260.4271" y1="406.2293" y2="406.2293"/><text fill="#000000" font-family="sans-serif" font-size="14" font-weight="bold" lengthAdjust="spacing" textLength="118" x="1099.3476" y="424.7625">extension points</text><text fill="#000000" font-family="sans-serif" font-size="14" lengthAdjust="spacing" textLength="97" x="1109.8476" y="442.3719">Cambiar avatar</text><text fill="#000000" font-family="sans-serif" font-size="14" lengthAdjust="spacing" textLength="132" x="1092.3476" y="459.9813">Modificar contraseña</text></g><g id="elem_UC21"><ellipse cx="958.4031" cy="745.0128" fill="#F1F1F1" rx="82.9031" ry="27.9034" style="stroke:#181818;stroke-width:0.5;"/><text fill="#000000" font-family="sans-serif" font-size="14" lengthAdjust="spacing" textLength="97" x="907.9031" y="739.9366">Gestionar perfil</text><text fill="#000000" font-family="sans-serif" font-size="14" lengthAdjust="spacing" textLength="66" x="927.4031" y="757.546">del equipo</text></g><g id="elem_UC22"><ellipse cx="1469.292" cy="222.0453" fill="#F1F1F1" rx="99.292" ry="27.9359" style="stroke:#181818;stroke-width:0.5;"/><text fill="#000000" font-family="sans-serif" font-size="14" lengthAdjust="spacing" textLength="120" x="1404.292" y="217.7572">Gestionar usuarios</text><text fill="#000000" font-family="sans-serif" font-size="14" lengthAdjust="spacing" textLength="102" x="1417.292" y="235.3666">de la plataforma</text></g><g id="elem_UC23"><ellipse cx="784.5887" cy="422.1271" fill="#F1F1F1" rx="68.0887" ry="16.0177" style="stroke:#181818;stroke-width:0.5;"/><text fill="#000000" font-family="sans-serif" font-size="14" lengthAdjust="spacing" textLength="82" x="740.5887" y="426.6437">Iniciar sesión</text></g><g id="elem_UC24"><ellipse cx="1065.3923" cy="221.9878" fill="#F1F1F1" rx="87.3923" ry="19.8785" style="stroke:#181818;stroke-width:0.5;"/><text fill="#000000" font-family="sans-serif" font-size="14" lengthAdjust="spacing" textLength="132" x="999.3923" y="225.7164">Modificar contraseña</text></g><g id="elem_UC25"><ellipse cx="1165.696" cy="595.0128" fill="#F1F1F1" rx="82.196" ry="27.9034" style="stroke:#181818;stroke-width:0.5;"/><text fill="#000000" font-family="sans-serif" font-size="14" lengthAdjust="spacing" textLength="96" x="1115.696" y="589.9366">Modificar datos</text><text fill="#000000" font-family="sans-serif" font-size="14" lengthAdjust="spacing" textLength="54" x="1140.696" y="607.546">del perfil</text></g><g id="elem_UC26"><ellipse cx="94.6756" cy="422.2445" fill="#F1F1F1" rx="88.6756" ry="20.1351" style="stroke:#181818;stroke-width:0.5;"/><text fill="#000000" font-family="sans-serif" font-size="14" lengthAdjust="spacing" textLength="135" x="27.1756" y="425.973">Modificar estadísticas</text></g><g id="elem_UC27"><ellipse cx="959.5677" cy="422.3229" fill="#F1F1F1" rx="71.5677" ry="16.7135" style="stroke:#181818;stroke-width:0.5;"/><text fill="#000000" font-family="sans-serif" font-size="14" lengthAdjust="spacing" textLength="92" x="910.5677" y="426.8395">Ver calendario</text></g><g id="elem_UC28"><ellipse cx="500.481" cy="421.9056" fill="#F1F1F1" rx="74.481" ry="17.2962" style="stroke:#181818;stroke-width:0.5;"/><text fill="#000000" font-family="sans-serif" font-size="14" lengthAdjust="spacing" textLength="100" x="447.481" y="426.4222">Ver estadísticas</text></g><g id="elem_UC29"><ellipse cx="303.4074" cy="745.1984" fill="#F1F1F1" rx="60.9074" ry="15.5891" style="stroke:#181818;stroke-width:0.5;"/><text fill="#000000" font-family="sans-serif" font-size="14" lengthAdjust="spacing" textLength="69" x="265.9074" y="749.715">Ver evento</text></g><!--MD5=[aaacb78863ea99637d6e5764920aadcc]
link A1 to UC17--><g id="link_A1_UC17"><path d="M880.89,95.5494 C788.27,119.8594 571.66,176.7094 464.62,204.8094 " fill="none" id="A1-to-UC17" style="stroke:#181818;stroke-width:1.0;"/><polygon fill="#181818" points="459.61,206.1194,469.3307,207.7029,464.4461,204.8497,467.2993,199.9651,459.61,206.1194" style="stroke:#181818;stroke-width:1.0;"/></g><!--MD5=[4adbdd6750405e7d30ecd79fcdd6d8e3]
link A1 to UC22--><g id="link_A1_UC22"><path d="M968.25,92.9194 C1046.07,108.8794 1213.42,144.5194 1352.5,183.1094 C1368.91,187.6594 1386.45,193.0694 1402.83,198.3494 " fill="none" id="A1-to-UC22" style="stroke:#181818;stroke-width:1.0;"/><polygon fill="#181818" points="1407.87,199.9894,1400.543,193.4079,1403.1139,198.4469,1398.075,201.0177,1407.87,199.9894" style="stroke:#181818;stroke-width:1.0;"/></g><!--MD5=[6ad183ace13b58a03a91f331de8e6341]
link A2 to UC16--><g id="link_A2_UC16"><path d="M670.61,461.1094 C678.61,471.1894 688.12,481.3994 698.5,489.1094 C760.71,535.3294 846.09,564.6694 901.77,580.2494 " fill="none" id="A2-to-UC16" style="stroke:#181818;stroke-width:1.0;"/><polygon fill="#181818" points="906.73,581.6194,899.1356,575.3484,901.9138,580.276,896.9862,583.0542,906.73,581.6194" style="stroke:#181818;stroke-width:1.0;"/></g><!--MD5=[82eb7d1a8160081ac154c17c0ae348ef]
link A2 to UC18--><g id="link_A2_UC18"><path d="M619.51,461.3694 C611.62,471.2194 602.39,481.2494 592.5,489.1094 C540.2,530.6794 468.74,561.1194 422.12,578.2194 " fill="none" id="A2-to-UC18" style="stroke:#181818;stroke-width:1.0;"/><polygon fill="#181818" points="417.41,579.9394,427.2339,580.6397,422.1119,578.2387,424.5128,573.1166,417.41,579.9394" style="stroke:#181818;stroke-width:1.0;"/></g><!--MD5=[103cdce1fe4581daff14f350a5611b42]
link A3 to UC20--><g id="link_A3_UC20"><path d="M808.73,234.7194 C855.47,257.2294 961.17,308.6894 1048.5,355.1094 C1060.7,361.5894 1073.51,368.6094 1086.01,375.5694 " fill="none" id="A3-to-UC20" style="stroke:#181818;stroke-width:1.0;"/><polygon fill="#181818" points="1090.59,378.1194,1084.6848,370.2372,1086.2253,375.6803,1080.7822,377.2208,1090.59,378.1194" style="stroke:#181818;stroke-width:1.0;"/></g><!--MD5=[998060701bd3134accdd190e2a26e76e]
link A3 to UC23--><g id="link_A3_UC23"><path d="M784.5,261.2894 C784.5,302.7194 784.5,367.3494 784.5,400.2894 " fill="none" id="A3-to-UC23" style="stroke:#181818;stroke-width:1.0;"/><polygon fill="#181818" points="784.5,405.6794,788.5,396.6794,784.5,400.6794,780.5,396.6794,784.5,405.6794" style="stroke:#181818;stroke-width:1.0;"/></g><!--MD5=[7a9537d9740406a0a1509dffc69f8bdc]
link A3 to UC27--><g id="link_A3_UC27"><path d="M808.83,250.6394 C844.75,291.2794 911.08,366.3194 942.34,401.6994 " fill="none" id="A3-to-UC27" style="stroke:#181818;stroke-width:1.0;"/><polygon fill="#181818" points="945.98,405.8094,943.0259,396.414,942.6724,402.0598,937.0266,401.7062,945.98,405.8094" style="stroke:#181818;stroke-width:1.0;"/></g><!--MD5=[95d55a595b6da7c93440aaf00a878813]
link A3 to UC28--><g id="link_A3_UC28"><path d="M760.45,239.4194 C723.98,264.1994 652.58,312.9094 592.5,355.1094 C570.26,370.7294 545.2,388.7394 526.86,401.9894 " fill="none" id="A3-to-UC28" style="stroke:#181818;stroke-width:1.0;"/><polygon fill="#181818" points="522.35,405.2494,531.9886,403.2252,526.4041,402.323,527.3063,396.7385,522.35,405.2494" style="stroke:#181818;stroke-width:1.0;"/></g><!--MD5=[19f4da9d4d3ffdef7c1b5ef510e80f78]
reverse link A3 to A2--><g id="link_A3_A2"><path d="M748.54,274.3294 C724.71,308.2694 693.96,352.0694 672.28,382.9594 " fill="none" id="A3-backto-A2" style="stroke:#181818;stroke-width:1.0;"/><polygon fill="none" points="743.07,269.9494,760.29,257.5994,754.53,277.9894,743.07,269.9494" style="stroke:#181818;stroke-width:1.0;"/></g><!--MD5=[23f849f0b8ed3146df21555be77ceecd]
reverse link UC5 to UC6--><g id="link_UC5_UC6"><path d="M1279.55,257.0194 C1284.66,267.6994 1289.83,279.6894 1293.5,291.1094 C1311.49,347.0394 1317.5,362.3594 1317.5,421.1094 C1317.5,421.1094 1317.5,421.1094 1317.5,746.1094 C1317.5,788.3794 1317.5,837.4294 1317.5,867.0994 " fill="none" id="UC5-backto-UC6" style="stroke:#181818;stroke-width:1.0;"/><polygon fill="none" points="1273.28,260.1194,1270.48,239.1194,1285.76,253.7894,1273.28,260.1194" style="stroke:#181818;stroke-width:1.0;"/></g><!--MD5=[5b415c470086fa8b665bb89adea2485d]
link UC5 to UC20--><g id="link_UC5_UC20"><path d="M1253.64,239.3094 C1241.68,263.9894 1218.21,312.3994 1198.49,353.0694 " fill="none" id="UC5-to-UC20" style="stroke:#181818;stroke-width:1.0;stroke-dasharray:7.0,7.0;"/><polygon fill="#181818" points="1196.1,357.9894,1203.6138,351.6221,1198.2729,353.4862,1196.4088,348.1454,1196.1,357.9894" style="stroke:#181818;stroke-width:1.0;"/><text fill="#000000" font-family="sans-serif" font-size="13" lengthAdjust="spacing" textLength="55" x="1229.5" y="313.6045">«Extend»</text></g><!--MD5=[b1ce530753ab3fe34f0c54c6064c3ac8]
link UC24 to UC20--><g id="link_UC24_UC20"><path d="M1075.09,242.0994 C1087.96,267.5794 1111.5,314.1994 1131.34,353.4694 " fill="none" id="UC24-to-UC20" style="stroke:#181818;stroke-width:1.0;stroke-dasharray:7.0,7.0;"/><polygon fill="#181818" points="1133.74,358.2194,1133.2425,348.3831,1131.4811,353.7587,1126.1054,351.9974,1133.74,358.2194" style="stroke:#181818;stroke-width:1.0;"/><text fill="#000000" font-family="sans-serif" font-size="13" lengthAdjust="spacing" textLength="55" x="1116.5" y="313.6045">«Extend»</text></g><!--MD5=[bf29171b4ac92c095e042832333f29c7]
link UC12 to UC4--><g id="link_UC12_UC4"><path d="M1521.5,763.6694 C1521.5,787.8394 1521.5,831.8094 1521.5,861.9594 " fill="none" id="UC12-to-UC4" style="stroke:#181818;stroke-width:1.0;stroke-dasharray:7.0,7.0;"/><polygon fill="#181818" points="1521.5,867.0494,1525.5,858.0494,1521.5,862.0494,1517.5,858.0494,1521.5,867.0494" style="stroke:#181818;stroke-width:1.0;"/><text fill="#000000" font-family="sans-serif" font-size="13" lengthAdjust="spacing" textLength="55" x="1522.5" y="825.6045">«Include»</text></g><!--MD5=[2e353fe8ee160fd894f63a3ba9996df1]
link UC12 to UC15--><g id="link_UC12_UC15"><path d="M1545.59,763.0894 C1583.92,790.0994 1658.75,842.8394 1700.84,872.5094 " fill="none" id="UC12-to-UC15" style="stroke:#181818;stroke-width:1.0;stroke-dasharray:7.0,7.0;"/><polygon fill="#181818" points="1705.06,875.4794,1699.9966,867.0318,1700.9692,872.6044,1695.3966,873.577,1705.06,875.4794" style="stroke:#181818;stroke-width:1.0;"/><text fill="#000000" font-family="sans-serif" font-size="13" lengthAdjust="spacing" textLength="55" x="1645.5" y="825.6045">«Include»</text></g><!--MD5=[94a010bbefe340c61ceb783bc333c831]
link UC16 to UC9--><g id="link_UC16_UC9"><path d="M980.78,612.5094 C1017.66,639.6694 1091.33,693.9194 1131.61,723.5794 " fill="none" id="UC16-to-UC9" style="stroke:#181818;stroke-width:1.0;stroke-dasharray:7.0,7.0;"/><polygon fill="#181818" points="1135.88,726.7194,1130.9918,718.1692,1131.8493,723.7607,1126.2579,724.6183,1135.88,726.7194" style="stroke:#181818;stroke-width:1.0;"/><text fill="#000000" font-family="sans-serif" font-size="13" lengthAdjust="spacing" textLength="11" x="1100.5" y="667.6045">or</text><text fill="#000000" font-family="sans-serif" font-size="13" lengthAdjust="spacing" textLength="55" x="1082.5" y="683.9561">«Include»</text></g><!--MD5=[4bc888f638128db0a1906c01f7a7247d]
link UC16 to UC12--><g id="link_UC16_UC12"><path d="M1007.97,609.1094 C1112.43,636.5794 1354.95,700.3294 1465.17,729.2994 " fill="none" id="UC16-to-UC12" style="stroke:#181818;stroke-width:1.0;stroke-dasharray:7.0,7.0;"/><polygon fill="#181818" points="1470.32,730.6594,1462.6307,724.5051,1465.4839,729.3897,1460.5993,732.2429,1470.32,730.6594" style="stroke:#181818;stroke-width:1.0;"/><text fill="#000000" font-family="sans-serif" font-size="13" lengthAdjust="spacing" textLength="11" x="1313.5" y="667.6045">or</text><text fill="#000000" font-family="sans-serif" font-size="13" lengthAdjust="spacing" textLength="55" x="1295.5" y="683.9561">«Include»</text></g><!--MD5=[958cc0d552a1e30e8453e7c378028fdd]
link UC16 to UC19--><g id="link_UC16_UC19"><path d="M932.79,612.2294 C893.02,637.1694 816.04,685.4494 767.07,716.1594 " fill="none" id="UC16-to-UC19" style="stroke:#181818;stroke-width:1.0;stroke-dasharray:7.0,7.0;"/><polygon fill="#181818" points="762.72,718.8894,772.4707,717.5025,766.9576,716.2355,768.2246,710.7224,762.72,718.8894" style="stroke:#181818;stroke-width:1.0;"/><text fill="#000000" font-family="sans-serif" font-size="13" lengthAdjust="spacing" textLength="11" x="885.5" y="667.6045">or</text><text fill="#000000" font-family="sans-serif" font-size="13" lengthAdjust="spacing" textLength="55" x="867.5" y="683.9561">«Include»</text></g><!--MD5=[faa3222dfb465389a663b0f2ff9b3eb3]
link UC16 to UC21--><g id="link_UC16_UC21"><path d="M958.5,613.3794 C958.5,637.4494 958.5,681.5494 958.5,711.8194 " fill="none" id="UC16-to-UC21" style="stroke:#181818;stroke-width:1.0;stroke-dasharray:7.0,7.0;"/><polygon fill="#181818" points="958.5,716.9294,962.5,707.9294,958.5,711.9294,954.5,707.9294,958.5,716.9294" style="stroke:#181818;stroke-width:1.0;"/><text fill="#000000" font-family="sans-serif" font-size="13" lengthAdjust="spacing" textLength="11" x="981.5" y="667.6045">or</text><text fill="#000000" font-family="sans-serif" font-size="13" lengthAdjust="spacing" textLength="55" x="963.5" y="683.9561">«Include»</text></g><!--MD5=[1ca297cbb0f954c58e5a847960b303bc]
link UC17 to UC2--><g id="link_UC17_UC2"><path d="M385.67,242.2894 C374.83,255.3594 361.04,273.4494 351.5,291.1094 C332.58,326.1494 318.44,370.3794 310.83,397.1694 " fill="none" id="UC17-to-UC2" style="stroke:#181818;stroke-width:1.0;stroke-dasharray:7.0,7.0;"/><polygon fill="#181818" points="309.4,402.2894,315.6919,394.7123,310.7566,397.4769,307.992,392.5417,309.4,402.2894" style="stroke:#181818;stroke-width:1.0;"/><text fill="#000000" font-family="sans-serif" font-size="13" lengthAdjust="spacing" textLength="11" x="374.5" y="305.6045">or</text><text fill="#000000" font-family="sans-serif" font-size="13" lengthAdjust="spacing" textLength="55" x="356.5" y="321.9561">«Include»</text></g><!--MD5=[94306affebdd3883b42caa8e974ff3b2]
link UC17 to UC26--><g id="link_UC17_UC26"><path d="M363.42,240.7494 C336.16,253.5794 299.31,271.9794 268.5,291.1094 C213.4,325.3194 153.79,372.2494 120.61,399.3594 " fill="none" id="UC17-to-UC26" style="stroke:#181818;stroke-width:1.0;stroke-dasharray:7.0,7.0;"/><polygon fill="#181818" points="116.69,402.5694,126.187,399.9603,120.5579,399.4009,121.1174,393.7717,116.69,402.5694" style="stroke:#181818;stroke-width:1.0;"/><text fill="#000000" font-family="sans-serif" font-size="13" lengthAdjust="spacing" textLength="11" x="291.5" y="305.6045">or</text><text fill="#000000" font-family="sans-serif" font-size="13" lengthAdjust="spacing" textLength="55" x="273.5" y="321.9561">«Include»</text></g><!--MD5=[2a5f80120d217f117f67f351a4abcfab]
link UC17 to UC28--><g id="link_UC17_UC28"><path d="M412.25,242.8194 C430.74,280.1694 470.74,360.9794 489.88,399.6494 " fill="none" id="UC17-to-UC28" style="stroke:#181818;stroke-width:1.0;stroke-dasharray:7.0,7.0;"/><polygon fill="#181818" points="492.32,404.5894,491.9231,394.7485,490.1068,400.1059,484.7495,398.2896,492.32,404.5894" style="stroke:#181818;stroke-width:1.0;"/><text fill="#000000" font-family="sans-serif" font-size="13" lengthAdjust="spacing" textLength="11" x="474.5" y="305.6045">or</text><text fill="#000000" font-family="sans-serif" font-size="13" lengthAdjust="spacing" textLength="55" x="456.5" y="321.9561">«Include»</text></g><!--MD5=[d6dba4eb2e67e698ef8c0e1495223e36]
link UC18 to UC1--><g id="link_UC18_UC1"><path d="M387.46,613.0894 C407.69,639.5694 446.79,690.7894 469.66,720.7394 " fill="none" id="UC18-to-UC1" style="stroke:#181818;stroke-width:1.0;stroke-dasharray:7.0,7.0;"/><polygon fill="#181818" points="472.91,724.9994,470.6332,715.4173,469.8781,721.0235,464.2718,720.2684,472.91,724.9994" style="stroke:#181818;stroke-width:1.0;"/><text fill="#000000" font-family="sans-serif" font-size="13" lengthAdjust="spacing" textLength="11" x="464.5" y="667.6045">or</text><text fill="#000000" font-family="sans-serif" font-size="13" lengthAdjust="spacing" textLength="55" x="446.5" y="683.9561">«Include»</text></g><!--MD5=[494fc08c078ac8110fd002045cd84117]
link UC18 to UC3--><g id="link_UC18_UC3"><path d="M341.58,611.6294 C319.36,622.4694 289.62,637.7094 264.5,653.1094 C226.9,676.1594 185.83,706.6394 160.87,725.8094 " fill="none" id="UC18-to-UC3" style="stroke:#181818;stroke-width:1.0;stroke-dasharray:7.0,7.0;"/><polygon fill="#181818" points="156.7,729.0194,166.2717,726.6991,160.6621,725.9694,161.3918,720.3599,156.7,729.0194" style="stroke:#181818;stroke-width:1.0;"/><text fill="#000000" font-family="sans-serif" font-size="13" lengthAdjust="spacing" textLength="11" x="287.5" y="667.6045">or</text><text fill="#000000" font-family="sans-serif" font-size="13" lengthAdjust="spacing" textLength="55" x="269.5" y="683.9561">«Include»</text></g><!--MD5=[a7d4d67f9b6f5c9a4d1663e02ec5dc97]
link UC18 to UC29--><g id="link_UC18_UC29"><path d="M366.36,613.0894 C353.06,640.7894 326.79,695.5594 312.79,724.7394 " fill="none" id="UC18-to-UC29" style="stroke:#181818;stroke-width:1.0;stroke-dasharray:7.0,7.0;"/><polygon fill="#181818" points="310.49,729.5394,317.9874,723.1527,312.6513,725.0306,310.7734,719.6946,310.49,729.5394" style="stroke:#181818;stroke-width:1.0;"/><text fill="#000000" font-family="sans-serif" font-size="13" lengthAdjust="spacing" textLength="11" x="368.5" y="667.6045">or</text><text fill="#000000" font-family="sans-serif" font-size="13" lengthAdjust="spacing" textLength="55" x="350.5" y="683.9561">«Include»</text></g><!--MD5=[b1a3ca60c8f3205e5195ddc3e82d0f8c]
link UC19 to UC10--><g id="link_UC19_UC10"><path d="M688.28,771.9794 C675.9,781.5594 661.91,792.6394 649.5,803.1094 C625.44,823.3994 599.16,847.3894 579.58,865.6494 " fill="none" id="UC19-to-UC10" style="stroke:#181818;stroke-width:1.0;stroke-dasharray:7.0,7.0;"/><polygon fill="#181818" points="575.75,869.2194,585.0583,866.0014,579.4048,865.8073,579.599,860.1538,575.75,869.2194" style="stroke:#181818;stroke-width:1.0;"/><text fill="#000000" font-family="sans-serif" font-size="13" lengthAdjust="spacing" textLength="11" x="672.5" y="817.6045">or</text><text fill="#000000" font-family="sans-serif" font-size="13" lengthAdjust="spacing" textLength="55" x="654.5" y="833.9561">«Include»</text></g><!--MD5=[7089098771a188e4f78c65cfe3a404f1]
link UC19 to UC13--><g id="link_UC19_UC13"><path d="M721.22,773.2594 C720.04,798.2094 718.28,835.2494 717.03,861.7394 " fill="none" id="UC19-to-UC13" style="stroke:#181818;stroke-width:1.0;stroke-dasharray:7.0,7.0;"/><polygon fill="#181818" points="716.79,866.8894,721.198,858.082,717.019,861.8946,713.2064,857.7156,716.79,866.8894" style="stroke:#181818;stroke-width:1.0;"/><text fill="#000000" font-family="sans-serif" font-size="13" lengthAdjust="spacing" textLength="11" x="743.5" y="817.6045">or</text><text fill="#000000" font-family="sans-serif" font-size="13" lengthAdjust="spacing" textLength="55" x="725.5" y="833.9561">«Include»</text></g><!--MD5=[1e8eed110844f7ec3c7b415dfc1846b6]
link UC20 to UC25--><g id="link_UC20_UC25"><path d="M1165.5,489.2194 C1165.5,514.1794 1165.5,541.4494 1165.5,561.9394 " fill="none" id="UC20-to-UC25" style="stroke:#181818;stroke-width:1.0;stroke-dasharray:7.0,7.0;"/><polygon fill="#181818" points="1165.5,566.9894,1169.5,557.9894,1165.5,561.9894,1161.5,557.9894,1165.5,566.9894" style="stroke:#181818;stroke-width:1.0;"/><text fill="#000000" font-family="sans-serif" font-size="13" lengthAdjust="spacing" textLength="55" x="1166.5" y="533.6045">«Include»</text></g><!--MD5=[4a23f32438d038f06a7158ca4d572b95]
link UC21 to UC6--><g id="link_UC21_UC6"><path d="M1015.97,765.4194 C1046.38,775.9694 1084.22,789.5994 1117.5,803.1094 C1168.79,823.9294 1226.19,850.3794 1266.3,869.3994 " fill="none" id="UC21-to-UC6" style="stroke:#181818;stroke-width:1.0;stroke-dasharray:7.0,7.0;"/><polygon fill="#181818" points="1271.1,871.6794,1264.6848,864.2064,1266.5831,869.5353,1261.2542,871.4335,1271.1,871.6794" style="stroke:#181818;stroke-width:1.0;"/><text fill="#000000" font-family="sans-serif" font-size="13" lengthAdjust="spacing" textLength="11" x="1218.5" y="817.6045">or</text><text fill="#000000" font-family="sans-serif" font-size="13" lengthAdjust="spacing" textLength="55" x="1200.5" y="833.9561">«Include»</text></g><!--MD5=[024b8925682e526714067e49f957ab51]
link UC21 to UC7--><g id="link_UC21_UC7"><path d="M948,772.9094 C937.06,800.8294 920.09,844.1294 909.67,870.7094 " fill="none" id="UC21-to-UC7" style="stroke:#181818;stroke-width:1.0;stroke-dasharray:7.0,7.0;"/><polygon fill="#181818" points="907.8,875.4694,914.7941,868.5353,909.615,870.8104,907.3398,865.6313,907.8,875.4694" style="stroke:#181818;stroke-width:1.0;"/><text fill="#000000" font-family="sans-serif" font-size="13" lengthAdjust="spacing" textLength="11" x="958.5" y="817.6045">or</text><text fill="#000000" font-family="sans-serif" font-size="13" lengthAdjust="spacing" textLength="55" x="940.5" y="833.9561">«Include»</text></g><!--MD5=[5b1dfa107a3ceaf1aecac8229570b0ab]
link UC21 to UC8--><g id="link_UC21_UC8"><path d="M984.98,771.8894 C1011.59,797.8094 1052.57,837.6994 1080.41,864.8094 " fill="none" id="UC21-to-UC8" style="stroke:#181818;stroke-width:1.0;stroke-dasharray:7.0,7.0;"/><polygon fill="#181818" points="1084.07,868.3794,1080.4231,859.2306,1080.4918,864.887,1074.8354,864.9557,1084.07,868.3794" style="stroke:#181818;stroke-width:1.0;"/><text fill="#000000" font-family="sans-serif" font-size="13" lengthAdjust="spacing" textLength="11" x="1071.5" y="817.6045">or</text><text fill="#000000" font-family="sans-serif" font-size="13" lengthAdjust="spacing" textLength="55" x="1053.5" y="833.9561">«Include»</text></g><!--MD5=[d83378d15fda0244536641de2e8a5c79]
link UC22 to UC11--><g id="link_UC22_UC11"><path d="M1495.39,249.3994 C1534.18,288.7794 1606.65,362.3694 1642.82,399.0894 " fill="none" id="UC22-to-UC11" style="stroke:#181818;stroke-width:1.0;stroke-dasharray:7.0,7.0;"/><polygon fill="#181818" points="1646.62,402.9594,1643.159,393.7387,1643.1132,399.3953,1637.4565,399.3495,1646.62,402.9594" style="stroke:#181818;stroke-width:1.0;"/><text fill="#000000" font-family="sans-serif" font-size="13" lengthAdjust="spacing" textLength="11" x="1589.5" y="305.6045">or</text><text fill="#000000" font-family="sans-serif" font-size="13" lengthAdjust="spacing" textLength="55" x="1571.5" y="321.9561">«Include»</text></g><!--MD5=[24207622534c75633efff61c5133339b]
link UC22 to UC14--><g id="link_UC22_UC14"><path d="M1468.4,250.2294 C1466.83,289.2894 1463.94,360.7594 1462.45,397.6694 " fill="none" id="UC22-to-UC14" style="stroke:#181818;stroke-width:1.0;stroke-dasharray:7.0,7.0;"/><polygon fill="#181818" points="1462.24,402.8594,1466.5965,394.0264,1462.4398,397.8634,1458.6029,393.7067,1462.24,402.8594" style="stroke:#181818;stroke-width:1.0;"/><text fill="#000000" font-family="sans-serif" font-size="13" lengthAdjust="spacing" textLength="11" x="1490.5" y="305.6045">or</text><text fill="#000000" font-family="sans-serif" font-size="13" lengthAdjust="spacing" textLength="55" x="1472.5" y="321.9561">«Include»</text></g><!--MD5=[3d01dd0e9714f957906c5bfbc7c16627]
@startuml aplicacion_gd

title Aplicación GD

:Administrador: as A1
:Entrenador: as A2
:Usuario: as A3

(Activar nuevo evento) as UC1
(Agregar estadísticas) as UC2
(Anular evento) as UC3
(Asignar deporte \n practicado) as UC4
(Cambiar avatar) as UC5
(Cambiar avatar \n del equipo) as UC6
(Cambiar descripción) as UC7
(Cambiar nombre \n del equipo) as UC8
(Dar de baja equipo) as UC9
(Dar de baja \n integrante) as UC10
(Dar de baja usuario)  as UC11
(Dar de alta equipo) as UC12
(Dar de alta \n integrante) as UC13
(Dar de alta usuario) as UC14
(Dar nombre al equipo) as UC15
(Gestionar equipo) as UC16
(Gestionar estadísticas) as UC17
(Gestionar evento) as UC18
(Gestionar integrantes \n del equipo) as UC19
usecase UC20 as "Gestionar perfil

- -
**extension points**
Cambiar avatar
Modificar contraseña"
(Gestionar perfil \n del equipo) as UC21
(Gestionar usuarios \n de la plataforma) as UC22
(Iniciar sesión) as UC23
(Modificar contraseña) as UC24
(Modificar datos \n del perfil) as UC25
(Modificar estadísticas) as UC26
(Ver calendario) as UC27
(Ver estadísticas) as UC28
(Ver evento) as UC29

A1 - -> UC17
A1 - -> UC22
A2 - -> UC16
A2 - -> UC18
A3 - -> UC20
A3 - -> UC23
A3 - -> UC27
A3 - -> UC28

A3 <|- - A2
UC5 <|- - UC6

UC5 ..> UC20 : <<Extend>>
UC24 ..> UC20 : <<Extend>>

UC12 ..> UC4 : <<Include>>
UC12 ..> UC15 : <<Include>>
UC16 ..> UC9 : or \n <<Include>>
UC16 ..> UC12 : or \n <<Include>>
UC16 ..> UC19 : or \n <<Include>>
UC16 ..> UC21 : or \n <<Include>>
UC17 ..> UC2 : or \n <<Include>>
UC17 ..> UC26 : or \n <<Include>>
UC17 ..> UC28 : or \n <<Include>>
UC18 ..> UC1 : or \n <<Include>>
UC18 ..> UC3 : or \n <<Include>>
UC18 ..> UC29 : or \n <<Include>>
UC19 ..> UC10 : or \n <<Include>>
UC19 ..> UC13 : or \n <<Include>>
UC20 ..> UC25 : <<Include>>
UC21 ..> UC6 : or \n <<Include>>
UC21 ..> UC7 : or \n <<Include>>
UC21 ..> UC8 : or \n <<Include>>
UC22 ..> UC11 : or \n <<Include>>
UC22 ..> UC14 : or \n <<Include>>

@enduml

PlantUML version 1.2022.7(Mon Aug 22 19:01:30 CEST 2022)
(GPL source distribution)
Java Runtime: OpenJDK Runtime Environment
JVM: OpenJDK 64-Bit Server VM
Default Encoding: Cp1252
Language: es
Country: ES
--></g></svg>