<?xml version="1.0" encoding="UTF-8" standalone="no"?><svg xmlns="http://www.w3.org/2000/svg" xmlns:xlink="http://www.w3.org/1999/xlink" contentStyleType="text/css" height="1166px" preserveAspectRatio="none" style="width:1001px;height:1166px;background:#FFFFFF;" version="1.1" viewBox="0 0 1001 1166" width="1001px" zoomAndPan="magnify"><defs/><g><rect fill="none" height="27.6094" id="_title" style="stroke:none;stroke-width:1.0;" width="283" x="352.25" y="5"/><text fill="#000000" font-family="sans-serif" font-size="14" font-weight="bold" lengthAdjust="spacing" textLength="273" x="357.25" y="24.5332">Diagrama de clases: Gestión Biblioteca</text><!--MD5=[7b7d686d3dc2c644927357cb508758fd]
class Autor--><g id="elem_Autor"><rect codeLine="4" fill="#F1F1F1" height="83.2188" id="Autor" rx="2.5" ry="2.5" style="stroke:#181818;stroke-width:0.5;" width="135" x="18" y="45.6094"/><ellipse cx="64.25" cy="61.6094" fill="#ADD1B2" rx="11" ry="11" style="stroke:#181818;stroke-width:1.0;"/><path d="M67.0156,57.4844 Q67.1719,57.2656 67.3594,57.1563 Q67.5469,57.0469 67.7656,57.0469 Q68.1406,57.0469 68.375,57.3125 Q68.6094,57.5625 68.6094,58.1719 L68.6094,59.625 Q68.6094,60.2344 68.375,60.5 Q68.1406,60.7656 67.7656,60.7656 Q67.4219,60.7656 67.2188,60.5625 Q67.0156,60.375 66.9063,59.8594 Q66.8594,59.5 66.6719,59.3125 Q66.3438,58.9375 65.7344,58.7188 Q65.125,58.5 64.5,58.5 Q63.7344,58.5 63.0938,58.8281 Q62.4688,59.1563 61.9688,59.9063 Q61.4844,60.6563 61.4844,61.6875 L61.4844,62.7813 Q61.4844,64.0156 62.375,64.8438 Q63.2656,65.6563 64.8594,65.6563 Q65.7969,65.6563 66.4531,65.4063 Q66.8438,65.25 67.2656,64.8125 Q67.5313,64.5469 67.6719,64.4688 Q67.8281,64.3906 68.0313,64.3906 Q68.3594,64.3906 68.6094,64.6563 Q68.875,64.9063 68.875,65.25 Q68.875,65.5938 68.5313,66 Q68.0313,66.5781 67.2344,66.9063 Q66.1563,67.3594 64.8594,67.3594 Q63.3438,67.3594 62.1406,66.7344 Q61.1563,66.2344 60.4688,65.1719 Q59.7813,64.0938 59.7813,62.8125 L59.7813,61.6563 Q59.7813,60.3281 60.3906,59.1875 Q61.0156,58.0313 62.1094,57.4219 Q63.2031,56.7969 64.4375,56.7969 Q65.1719,56.7969 65.8125,56.9688 Q66.4688,57.125 67.0156,57.4844 Z " fill="#000000"/><text fill="#000000" font-family="sans-serif" font-size="14" lengthAdjust="spacing" textLength="34" x="84.75" y="67.3379">Autor</text><line style="stroke:#181818;stroke-width:0.5;" x1="19" x2="152" y1="77.6094" y2="77.6094"/><text fill="#000000" font-family="sans-serif" font-size="14" lengthAdjust="spacing" textLength="123" x="24" y="96.1426">PK idAutor : Integer</text><text fill="#000000" font-family="sans-serif" font-size="14" lengthAdjust="spacing" textLength="97" x="24" y="113.752">nombre : String</text><line style="stroke:#181818;stroke-width:0.5;" x1="19" x2="152" y1="120.8281" y2="120.8281"/></g><!--MD5=[f00b6c42b10351a516604b3f60238f93]
class AutorLibro--><g id="elem_AutorLibro"><rect codeLine="10" fill="#F1F1F1" height="83.2188" id="AutorLibro" rx="2.5" ry="2.5" style="stroke:#181818;stroke-width:0.5;" width="157" x="7" y="215.1094"/><ellipse cx="48.55" cy="231.1094" fill="#ADD1B2" rx="11" ry="11" style="stroke:#181818;stroke-width:1.0;"/><path d="M51.3156,226.9844 Q51.4719,226.7656 51.6594,226.6563 Q51.8469,226.5469 52.0656,226.5469 Q52.4406,226.5469 52.675,226.8125 Q52.9094,227.0625 52.9094,227.6719 L52.9094,229.125 Q52.9094,229.7344 52.675,230 Q52.4406,230.2656 52.0656,230.2656 Q51.7219,230.2656 51.5188,230.0625 Q51.3156,229.875 51.2063,229.3594 Q51.1594,229 50.9719,228.8125 Q50.6438,228.4375 50.0344,228.2188 Q49.425,228 48.8,228 Q48.0344,228 47.3938,228.3281 Q46.7688,228.6563 46.2688,229.4063 Q45.7844,230.1563 45.7844,231.1875 L45.7844,232.2813 Q45.7844,233.5156 46.675,234.3438 Q47.5656,235.1563 49.1594,235.1563 Q50.0969,235.1563 50.7531,234.9063 Q51.1438,234.75 51.5656,234.3125 Q51.8313,234.0469 51.9719,233.9688 Q52.1281,233.8906 52.3313,233.8906 Q52.6594,233.8906 52.9094,234.1563 Q53.175,234.4063 53.175,234.75 Q53.175,235.0938 52.8313,235.5 Q52.3313,236.0781 51.5344,236.4063 Q50.4563,236.8594 49.1594,236.8594 Q47.6438,236.8594 46.4406,236.2344 Q45.4563,235.7344 44.7688,234.6719 Q44.0813,233.5938 44.0813,232.3125 L44.0813,231.1563 Q44.0813,229.8281 44.6906,228.6875 Q45.3156,227.5313 46.4094,226.9219 Q47.5031,226.2969 48.7375,226.2969 Q49.4719,226.2969 50.1125,226.4688 Q50.7688,226.625 51.3156,226.9844 Z " fill="#000000"/><text fill="#000000" font-family="sans-serif" font-size="14" lengthAdjust="spacing" textLength="66" x="68.45" y="236.8379">AutorLibro</text><line style="stroke:#181818;stroke-width:0.5;" x1="8" x2="163" y1="247.1094" y2="247.1094"/><text fill="#000000" font-family="sans-serif" font-size="14" lengthAdjust="spacing" textLength="145" x="13" y="265.6426">PK FK idAutor : Integer</text><text fill="#000000" font-family="sans-serif" font-size="14" lengthAdjust="spacing" textLength="123" x="13" y="283.252">PK FK ISBN : String</text><line style="stroke:#181818;stroke-width:0.5;" x1="8" x2="163" y1="290.3281" y2="290.3281"/></g><!--MD5=[1e386a12b057c317c649c65d263c59e8]
class Bibliotecario--><g id="elem_Bibliotecario"><rect codeLine="16" fill="#F1F1F1" height="206.4844" id="Bibliotecario" rx="2.5" ry="2.5" style="stroke:#181818;stroke-width:0.5;" width="178" x="816.5" y="411.1094"/><ellipse cx="862.75" cy="427.1094" fill="#ADD1B2" rx="11" ry="11" style="stroke:#181818;stroke-width:1.0;"/><path d="M865.5156,422.9844 Q865.6719,422.7656 865.8594,422.6563 Q866.0469,422.5469 866.2656,422.5469 Q866.6406,422.5469 866.875,422.8125 Q867.1094,423.0625 867.1094,423.6719 L867.1094,425.125 Q867.1094,425.7344 866.875,426 Q866.6406,426.2656 866.2656,426.2656 Q865.9219,426.2656 865.7188,426.0625 Q865.5156,425.875 865.4063,425.3594 Q865.3594,425 865.1719,424.8125 Q864.8438,424.4375 864.2344,424.2188 Q863.625,424 863,424 Q862.2344,424 861.5938,424.3281 Q860.9688,424.6563 860.4688,425.4063 Q859.9844,426.1563 859.9844,427.1875 L859.9844,428.2813 Q859.9844,429.5156 860.875,430.3438 Q861.7656,431.1563 863.3594,431.1563 Q864.2969,431.1563 864.9531,430.9063 Q865.3438,430.75 865.7656,430.3125 Q866.0313,430.0469 866.1719,429.9688 Q866.3281,429.8906 866.5313,429.8906 Q866.8594,429.8906 867.1094,430.1563 Q867.375,430.4063 867.375,430.75 Q867.375,431.0938 867.0313,431.5 Q866.5313,432.0781 865.7344,432.4063 Q864.6563,432.8594 863.3594,432.8594 Q861.8438,432.8594 860.6406,432.2344 Q859.6563,431.7344 858.9688,430.6719 Q858.2813,429.5938 858.2813,428.3125 L858.2813,427.1563 Q858.2813,425.8281 858.8906,424.6875 Q859.5156,423.5313 860.6094,422.9219 Q861.7031,422.2969 862.9375,422.2969 Q863.6719,422.2969 864.3125,422.4688 Q864.9688,422.625 865.5156,422.9844 Z " fill="#000000"/><text fill="#000000" font-family="sans-serif" font-size="14" lengthAdjust="spacing" textLength="77" x="883.25" y="432.8379">Bibliotecario</text><line style="stroke:#181818;stroke-width:0.5;" x1="817.5" x2="993.5" y1="443.1094" y2="443.1094"/><text fill="#000000" font-family="sans-serif" font-size="14" lengthAdjust="spacing" textLength="166" x="822.5" y="461.6426">PK idBibliotecario : Integer</text><text fill="#000000" font-family="sans-serif" font-size="14" lengthAdjust="spacing" textLength="71" x="822.5" y="479.252">DNI : String</text><text fill="#000000" font-family="sans-serif" font-size="14" lengthAdjust="spacing" textLength="157" x="822.5" y="496.8613">nombreCompleto : String</text><text fill="#000000" font-family="sans-serif" font-size="14" lengthAdjust="spacing" textLength="146" x="822.5" y="514.4707">fechaNacimiento : Date</text><text fill="#000000" font-family="sans-serif" font-size="14" lengthAdjust="spacing" textLength="78" x="822.5" y="532.0801">sexo : String</text><text fill="#000000" font-family="sans-serif" font-size="14" lengthAdjust="spacing" textLength="101" x="822.5" y="549.6895">fechaAlta : Date</text><text fill="#000000" font-family="sans-serif" font-size="14" lengthAdjust="spacing" textLength="106" x="822.5" y="567.2988">direccion : String</text><text fill="#000000" font-family="sans-serif" font-size="14" lengthAdjust="spacing" textLength="100" x="822.5" y="584.9082">telefono : String</text><text fill="#000000" font-family="sans-serif" font-size="14" lengthAdjust="spacing" textLength="160" x="822.5" y="602.5176">correoElectronico : String</text><line style="stroke:#181818;stroke-width:0.5;" x1="817.5" x2="993.5" y1="609.5938" y2="609.5938"/></g><!--MD5=[aca765d11dba0ab2015f343c6c3150c7]
class Editorial--><g id="elem_Editorial"><rect codeLine="28" fill="#F1F1F1" height="83.2188" id="Editorial" rx="2.5" ry="2.5" style="stroke:#181818;stroke-width:0.5;" width="152" x="199.5" y="215.1094"/><ellipse cx="245.75" cy="231.1094" fill="#ADD1B2" rx="11" ry="11" style="stroke:#181818;stroke-width:1.0;"/><path d="M248.5156,226.9844 Q248.6719,226.7656 248.8594,226.6563 Q249.0469,226.5469 249.2656,226.5469 Q249.6406,226.5469 249.875,226.8125 Q250.1094,227.0625 250.1094,227.6719 L250.1094,229.125 Q250.1094,229.7344 249.875,230 Q249.6406,230.2656 249.2656,230.2656 Q248.9219,230.2656 248.7188,230.0625 Q248.5156,229.875 248.4063,229.3594 Q248.3594,229 248.1719,228.8125 Q247.8438,228.4375 247.2344,228.2188 Q246.625,228 246,228 Q245.2344,228 244.5938,228.3281 Q243.9688,228.6563 243.4688,229.4063 Q242.9844,230.1563 242.9844,231.1875 L242.9844,232.2813 Q242.9844,233.5156 243.875,234.3438 Q244.7656,235.1563 246.3594,235.1563 Q247.2969,235.1563 247.9531,234.9063 Q248.3438,234.75 248.7656,234.3125 Q249.0313,234.0469 249.1719,233.9688 Q249.3281,233.8906 249.5313,233.8906 Q249.8594,233.8906 250.1094,234.1563 Q250.375,234.4063 250.375,234.75 Q250.375,235.0938 250.0313,235.5 Q249.5313,236.0781 248.7344,236.4063 Q247.6563,236.8594 246.3594,236.8594 Q244.8438,236.8594 243.6406,236.2344 Q242.6563,235.7344 241.9688,234.6719 Q241.2813,233.5938 241.2813,232.3125 L241.2813,231.1563 Q241.2813,229.8281 241.8906,228.6875 Q242.5156,227.5313 243.6094,226.9219 Q244.7031,226.2969 245.9375,226.2969 Q246.6719,226.2969 247.3125,226.4688 Q247.9688,226.625 248.5156,226.9844 Z " fill="#000000"/><text fill="#000000" font-family="sans-serif" font-size="14" lengthAdjust="spacing" textLength="51" x="266.25" y="236.8379">Editorial</text><line style="stroke:#181818;stroke-width:0.5;" x1="200.5" x2="350.5" y1="247.1094" y2="247.1094"/><text fill="#000000" font-family="sans-serif" font-size="14" lengthAdjust="spacing" textLength="140" x="205.5" y="265.6426">PK idEditorial : Integer</text><text fill="#000000" font-family="sans-serif" font-size="14" lengthAdjust="spacing" textLength="97" x="205.5" y="283.252">nombre : String</text><line style="stroke:#181818;stroke-width:0.5;" x1="200.5" x2="350.5" y1="290.3281" y2="290.3281"/></g><!--MD5=[ab0fb6cae97cb00cf31871661635cac7]
class Ejemplar--><g id="elem_Ejemplar"><rect codeLine="33" fill="#F1F1F1" height="136.0469" id="Ejemplar" rx="2.5" ry="2.5" style="stroke:#181818;stroke-width:0.5;" width="502" x="416.5" y="188.6094"/><ellipse cx="635.75" cy="204.6094" fill="#ADD1B2" rx="11" ry="11" style="stroke:#181818;stroke-width:1.0;"/><path d="M638.5156,200.4844 Q638.6719,200.2656 638.8594,200.1563 Q639.0469,200.0469 639.2656,200.0469 Q639.6406,200.0469 639.875,200.3125 Q640.1094,200.5625 640.1094,201.1719 L640.1094,202.625 Q640.1094,203.2344 639.875,203.5 Q639.6406,203.7656 639.2656,203.7656 Q638.9219,203.7656 638.7188,203.5625 Q638.5156,203.375 638.4063,202.8594 Q638.3594,202.5 638.1719,202.3125 Q637.8438,201.9375 637.2344,201.7188 Q636.625,201.5 636,201.5 Q635.2344,201.5 634.5938,201.8281 Q633.9688,202.1563 633.4688,202.9063 Q632.9844,203.6563 632.9844,204.6875 L632.9844,205.7813 Q632.9844,207.0156 633.875,207.8438 Q634.7656,208.6563 636.3594,208.6563 Q637.2969,208.6563 637.9531,208.4063 Q638.3438,208.25 638.7656,207.8125 Q639.0313,207.5469 639.1719,207.4688 Q639.3281,207.3906 639.5313,207.3906 Q639.8594,207.3906 640.1094,207.6563 Q640.375,207.9063 640.375,208.25 Q640.375,208.5938 640.0313,209 Q639.5313,209.5781 638.7344,209.9063 Q637.6563,210.3594 636.3594,210.3594 Q634.8438,210.3594 633.6406,209.7344 Q632.6563,209.2344 631.9688,208.1719 Q631.2813,207.0938 631.2813,205.8125 L631.2813,204.6563 Q631.2813,203.3281 631.8906,202.1875 Q632.5156,201.0313 633.6094,200.4219 Q634.7031,199.7969 635.9375,199.7969 Q636.6719,199.7969 637.3125,199.9688 Q637.9688,200.125 638.5156,200.4844 Z " fill="#000000"/><text fill="#000000" font-family="sans-serif" font-size="14" lengthAdjust="spacing" textLength="55" x="656.25" y="210.3379">Ejemplar</text><line style="stroke:#181818;stroke-width:0.5;" x1="417.5" x2="917.5" y1="220.6094" y2="220.6094"/><text fill="#000000" font-family="sans-serif" font-size="14" lengthAdjust="spacing" textLength="144" x="422.5" y="239.1426">PK idEjemplar : Integer</text><text fill="#000000" font-family="sans-serif" font-size="14" lengthAdjust="spacing" textLength="101" x="422.5" y="256.752">FK ISBN : String</text><text fill="#000000" font-family="sans-serif" font-size="14" lengthAdjust="spacing" textLength="490" x="422.5" y="274.3613">estadoConservacion : Enum {'muyMalo', 'malo', 'normal', 'bueno', 'muyBueno'}</text><text fill="#000000" font-family="sans-serif" font-size="14" lengthAdjust="spacing" textLength="210" x="422.5" y="291.9707">disponibleParaReserva : boolean</text><text fill="#000000" font-family="sans-serif" font-size="14" lengthAdjust="spacing" textLength="114" x="422.5" y="309.5801">enStock : boolean</text><line style="stroke:#181818;stroke-width:0.5;" x1="417.5" x2="917.5" y1="316.6563" y2="316.6563"/></g><!--MD5=[a48731e35e4efcfa96e52c126b9a7dad]
class Libro--><g id="elem_Libro"><rect codeLine="41" fill="#F1F1F1" height="259.3125" id="Libro" rx="2.5" ry="2.5" style="stroke:#181818;stroke-width:0.5;" width="327" x="108" y="384.6094"/><ellipse cx="251.25" cy="400.6094" fill="#ADD1B2" rx="11" ry="11" style="stroke:#181818;stroke-width:1.0;"/><path d="M254.0156,396.4844 Q254.1719,396.2656 254.3594,396.1563 Q254.5469,396.0469 254.7656,396.0469 Q255.1406,396.0469 255.375,396.3125 Q255.6094,396.5625 255.6094,397.1719 L255.6094,398.625 Q255.6094,399.2344 255.375,399.5 Q255.1406,399.7656 254.7656,399.7656 Q254.4219,399.7656 254.2188,399.5625 Q254.0156,399.375 253.9063,398.8594 Q253.8594,398.5 253.6719,398.3125 Q253.3438,397.9375 252.7344,397.7188 Q252.125,397.5 251.5,397.5 Q250.7344,397.5 250.0938,397.8281 Q249.4688,398.1563 248.9688,398.9063 Q248.4844,399.6563 248.4844,400.6875 L248.4844,401.7813 Q248.4844,403.0156 249.375,403.8438 Q250.2656,404.6563 251.8594,404.6563 Q252.7969,404.6563 253.4531,404.4063 Q253.8438,404.25 254.2656,403.8125 Q254.5313,403.5469 254.6719,403.4688 Q254.8281,403.3906 255.0313,403.3906 Q255.3594,403.3906 255.6094,403.6563 Q255.875,403.9063 255.875,404.25 Q255.875,404.5938 255.5313,405 Q255.0313,405.5781 254.2344,405.9063 Q253.1563,406.3594 251.8594,406.3594 Q250.3438,406.3594 249.1406,405.7344 Q248.1563,405.2344 247.4688,404.1719 Q246.7813,403.0938 246.7813,401.8125 L246.7813,400.6563 Q246.7813,399.3281 247.3906,398.1875 Q248.0156,397.0313 249.1094,396.4219 Q250.2031,395.7969 251.4375,395.7969 Q252.1719,395.7969 252.8125,395.9688 Q253.4688,396.125 254.0156,396.4844 Z " fill="#000000"/><text fill="#000000" font-family="sans-serif" font-size="14" lengthAdjust="spacing" textLength="32" x="271.75" y="406.3379">Libro</text><line style="stroke:#181818;stroke-width:0.5;" x1="109" x2="434" y1="416.6094" y2="416.6094"/><text fill="#000000" font-family="sans-serif" font-size="14" lengthAdjust="spacing" textLength="101" x="114" y="435.1426">PK ISBN : String</text><text fill="#000000" font-family="sans-serif" font-size="14" lengthAdjust="spacing" textLength="140" x="114" y="452.752">FK idEditorial : Integer</text><text fill="#000000" font-family="sans-serif" font-size="14" lengthAdjust="spacing" textLength="79" x="114" y="470.3613">titulo : String</text><text fill="#000000" font-family="sans-serif" font-size="14" lengthAdjust="spacing" textLength="121" x="114" y="487.9707">descripcion : String</text><text fill="#000000" font-family="sans-serif" font-size="14" lengthAdjust="spacing" textLength="90" x="114" y="505.5801">idioma : String</text><text fill="#000000" font-family="sans-serif" font-size="14" lengthAdjust="spacing" textLength="122" x="114" y="523.1895">anioEdicion : String</text><text fill="#000000" font-family="sans-serif" font-size="14" lengthAdjust="spacing" textLength="149" x="114" y="540.7988">fechaPublicacion : Date</text><text fill="#000000" font-family="sans-serif" font-size="14" lengthAdjust="spacing" textLength="315" x="114" y="558.4082">encuadernacion : Enum {'tapaBlanda', 'tapaDura'}</text><text fill="#000000" font-family="sans-serif" font-size="14" lengthAdjust="spacing" textLength="134" x="114" y="576.0176">numPaginas : Integer</text><text fill="#000000" font-family="sans-serif" font-size="14" lengthAdjust="spacing" textLength="102" x="114" y="593.627">genero1 : String</text><text fill="#000000" font-family="sans-serif" font-size="14" lengthAdjust="spacing" textLength="102" x="114" y="611.2363">genero2 : String</text><text fill="#000000" font-family="sans-serif" font-size="14" lengthAdjust="spacing" textLength="114" x="114" y="628.8457">enStock : boolean</text><line style="stroke:#181818;stroke-width:0.5;" x1="109" x2="434" y1="635.9219" y2="635.9219"/></g><!--MD5=[99902813f7e5ab27d9f5f5589b313333]
class PeticionLibro--><g id="elem_PeticionLibro"><rect codeLine="56" fill="#F1F1F1" height="118.4375" id="PeticionLibro" rx="2.5" ry="2.5" style="stroke:#181818;stroke-width:0.5;" width="183" x="165" y="739.1094"/><ellipse cx="211.25" cy="755.1094" fill="#ADD1B2" rx="11" ry="11" style="stroke:#181818;stroke-width:1.0;"/><path d="M214.0156,750.9844 Q214.1719,750.7656 214.3594,750.6563 Q214.5469,750.5469 214.7656,750.5469 Q215.1406,750.5469 215.375,750.8125 Q215.6094,751.0625 215.6094,751.6719 L215.6094,753.125 Q215.6094,753.7344 215.375,754 Q215.1406,754.2656 214.7656,754.2656 Q214.4219,754.2656 214.2188,754.0625 Q214.0156,753.875 213.9063,753.3594 Q213.8594,753 213.6719,752.8125 Q213.3438,752.4375 212.7344,752.2188 Q212.125,752 211.5,752 Q210.7344,752 210.0938,752.3281 Q209.4688,752.6563 208.9688,753.4063 Q208.4844,754.1563 208.4844,755.1875 L208.4844,756.2813 Q208.4844,757.5156 209.375,758.3438 Q210.2656,759.1563 211.8594,759.1563 Q212.7969,759.1563 213.4531,758.9063 Q213.8438,758.75 214.2656,758.3125 Q214.5313,758.0469 214.6719,757.9688 Q214.8281,757.8906 215.0313,757.8906 Q215.3594,757.8906 215.6094,758.1563 Q215.875,758.4063 215.875,758.75 Q215.875,759.0938 215.5313,759.5 Q215.0313,760.0781 214.2344,760.4063 Q213.1563,760.8594 211.8594,760.8594 Q210.3438,760.8594 209.1406,760.2344 Q208.1563,759.7344 207.4688,758.6719 Q206.7813,757.5938 206.7813,756.3125 L206.7813,755.1563 Q206.7813,753.8281 207.3906,752.6875 Q208.0156,751.5313 209.1094,750.9219 Q210.2031,750.2969 211.4375,750.2969 Q212.1719,750.2969 212.8125,750.4688 Q213.4688,750.625 214.0156,750.9844 Z " fill="#000000"/><text fill="#000000" font-family="sans-serif" font-size="14" lengthAdjust="spacing" textLength="82" x="231.75" y="760.8379">PeticionLibro</text><line style="stroke:#181818;stroke-width:0.5;" x1="166" x2="347" y1="771.1094" y2="771.1094"/><text fill="#000000" font-family="sans-serif" font-size="14" lengthAdjust="spacing" textLength="171" x="171" y="789.6426">PK idPeticionLibro : Integer</text><text fill="#000000" font-family="sans-serif" font-size="14" lengthAdjust="spacing" textLength="137" x="171" y="807.252">FK idUsuario : Integer</text><text fill="#000000" font-family="sans-serif" font-size="14" lengthAdjust="spacing" textLength="101" x="171" y="824.8613">FK ISBN : String</text><text fill="#000000" font-family="sans-serif" font-size="14" lengthAdjust="spacing" textLength="155" x="171" y="842.4707">ISBNLibroPedido : String</text><line style="stroke:#181818;stroke-width:0.5;" x1="166" x2="347" y1="849.5469" y2="849.5469"/></g><!--MD5=[6ea9d6598d9760662639554c9857ab6b]
class Reserva--><g id="elem_Reserva"><rect codeLine="64" fill="#F1F1F1" height="188.875" id="Reserva" rx="2.5" ry="2.5" style="stroke:#181818;stroke-width:0.5;" width="204" x="577.5" y="703.6094"/><ellipse cx="648.75" cy="719.6094" fill="#ADD1B2" rx="11" ry="11" style="stroke:#181818;stroke-width:1.0;"/><path d="M651.5156,715.4844 Q651.6719,715.2656 651.8594,715.1563 Q652.0469,715.0469 652.2656,715.0469 Q652.6406,715.0469 652.875,715.3125 Q653.1094,715.5625 653.1094,716.1719 L653.1094,717.625 Q653.1094,718.2344 652.875,718.5 Q652.6406,718.7656 652.2656,718.7656 Q651.9219,718.7656 651.7188,718.5625 Q651.5156,718.375 651.4063,717.8594 Q651.3594,717.5 651.1719,717.3125 Q650.8438,716.9375 650.2344,716.7188 Q649.625,716.5 649,716.5 Q648.2344,716.5 647.5938,716.8281 Q646.9688,717.1563 646.4688,717.9063 Q645.9844,718.6563 645.9844,719.6875 L645.9844,720.7813 Q645.9844,722.0156 646.875,722.8438 Q647.7656,723.6563 649.3594,723.6563 Q650.2969,723.6563 650.9531,723.4063 Q651.3438,723.25 651.7656,722.8125 Q652.0313,722.5469 652.1719,722.4688 Q652.3281,722.3906 652.5313,722.3906 Q652.8594,722.3906 653.1094,722.6563 Q653.375,722.9063 653.375,723.25 Q653.375,723.5938 653.0313,724 Q652.5313,724.5781 651.7344,724.9063 Q650.6563,725.3594 649.3594,725.3594 Q647.8438,725.3594 646.6406,724.7344 Q645.6563,724.2344 644.9688,723.1719 Q644.2813,722.0938 644.2813,720.8125 L644.2813,719.6563 Q644.2813,718.3281 644.8906,717.1875 Q645.5156,716.0313 646.6094,715.4219 Q647.7031,714.7969 648.9375,714.7969 Q649.6719,714.7969 650.3125,714.9688 Q650.9688,715.125 651.5156,715.4844 Z " fill="#000000"/><text fill="#000000" font-family="sans-serif" font-size="14" lengthAdjust="spacing" textLength="53" x="669.25" y="725.3379">Reserva</text><line style="stroke:#181818;stroke-width:0.5;" x1="578.5" x2="780.5" y1="735.6094" y2="735.6094"/><text fill="#000000" font-family="sans-serif" font-size="14" lengthAdjust="spacing" textLength="142" x="583.5" y="754.1426">PK idReserva : Integer</text><text fill="#000000" font-family="sans-serif" font-size="14" lengthAdjust="spacing" textLength="137" x="583.5" y="771.752">FK idUsuario : Integer</text><text fill="#000000" font-family="sans-serif" font-size="14" lengthAdjust="spacing" textLength="144" x="583.5" y="789.3613">FK idEjemplar : Integer</text><text fill="#000000" font-family="sans-serif" font-size="14" lengthAdjust="spacing" textLength="165" x="583.5" y="806.9707">fechaHoraInicio : Datetime</text><text fill="#000000" font-family="sans-serif" font-size="14" lengthAdjust="spacing" textLength="153" x="583.5" y="824.5801">fechaHoraFin : Datetime</text><text fill="#000000" font-family="sans-serif" font-size="14" lengthAdjust="spacing" textLength="173" x="583.5" y="842.1895">fechaDevolucion : Datetime</text><text fill="#000000" font-family="sans-serif" font-size="14" lengthAdjust="spacing" textLength="166" x="583.5" y="859.7988">ejemplarPerdido : boolean</text><text fill="#000000" font-family="sans-serif" font-size="14" lengthAdjust="spacing" textLength="192" x="583.5" y="877.4082">ejemplarDeteriorado : boolean</text><line style="stroke:#181818;stroke-width:0.5;" x1="578.5" x2="780.5" y1="884.4844" y2="884.4844"/></g><!--MD5=[c17f487e025ad92df85d2d418a114f5e]
class Sancion--><g id="elem_Sancion"><rect codeLine="75" fill="#F1F1F1" height="136.0469" id="Sancion" rx="2.5" ry="2.5" style="stroke:#181818;stroke-width:0.5;" width="178" x="816.5" y="730.1094"/><ellipse cx="875.75" cy="746.1094" fill="#ADD1B2" rx="11" ry="11" style="stroke:#181818;stroke-width:1.0;"/><path d="M878.5156,741.9844 Q878.6719,741.7656 878.8594,741.6563 Q879.0469,741.5469 879.2656,741.5469 Q879.6406,741.5469 879.875,741.8125 Q880.1094,742.0625 880.1094,742.6719 L880.1094,744.125 Q880.1094,744.7344 879.875,745 Q879.6406,745.2656 879.2656,745.2656 Q878.9219,745.2656 878.7188,745.0625 Q878.5156,744.875 878.4063,744.3594 Q878.3594,744 878.1719,743.8125 Q877.8438,743.4375 877.2344,743.2188 Q876.625,743 876,743 Q875.2344,743 874.5938,743.3281 Q873.9688,743.6563 873.4688,744.4063 Q872.9844,745.1563 872.9844,746.1875 L872.9844,747.2813 Q872.9844,748.5156 873.875,749.3438 Q874.7656,750.1563 876.3594,750.1563 Q877.2969,750.1563 877.9531,749.9063 Q878.3438,749.75 878.7656,749.3125 Q879.0313,749.0469 879.1719,748.9688 Q879.3281,748.8906 879.5313,748.8906 Q879.8594,748.8906 880.1094,749.1563 Q880.375,749.4063 880.375,749.75 Q880.375,750.0938 880.0313,750.5 Q879.5313,751.0781 878.7344,751.4063 Q877.6563,751.8594 876.3594,751.8594 Q874.8438,751.8594 873.6406,751.2344 Q872.6563,750.7344 871.9688,749.6719 Q871.2813,748.5938 871.2813,747.3125 L871.2813,746.1563 Q871.2813,744.8281 871.8906,743.6875 Q872.5156,742.5313 873.6094,741.9219 Q874.7031,741.2969 875.9375,741.2969 Q876.6719,741.2969 877.3125,741.4688 Q877.9688,741.625 878.5156,741.9844 Z " fill="#000000"/><text fill="#000000" font-family="sans-serif" font-size="14" lengthAdjust="spacing" textLength="51" x="896.25" y="751.8379">Sancion</text><line style="stroke:#181818;stroke-width:0.5;" x1="817.5" x2="993.5" y1="762.1094" y2="762.1094"/><text fill="#000000" font-family="sans-serif" font-size="14" lengthAdjust="spacing" textLength="140" x="822.5" y="780.6426">PK idSancion : Integer</text><text fill="#000000" font-family="sans-serif" font-size="14" lengthAdjust="spacing" textLength="137" x="822.5" y="798.252">FK idUsuario : Integer</text><text fill="#000000" font-family="sans-serif" font-size="14" lengthAdjust="spacing" textLength="166" x="822.5" y="815.8613">FK idBibliotecario : Integer</text><text fill="#000000" font-family="sans-serif" font-size="14" lengthAdjust="spacing" textLength="90" x="822.5" y="833.4707">motivo : String</text><text fill="#000000" font-family="sans-serif" font-size="14" lengthAdjust="spacing" textLength="121" x="822.5" y="851.0801">descripcion : String</text><line style="stroke:#181818;stroke-width:0.5;" x1="817.5" x2="993.5" y1="858.1563" y2="858.1563"/></g><!--MD5=[18ab19124e5135cc6da782070c6ff551]
class Tema--><g id="elem_Tema"><rect codeLine="83" fill="#F1F1F1" height="83.2188" id="Tema" rx="2.5" ry="2.5" style="stroke:#181818;stroke-width:0.5;" width="137" x="470" y="472.6094"/><ellipse cx="516.25" cy="488.6094" fill="#ADD1B2" rx="11" ry="11" style="stroke:#181818;stroke-width:1.0;"/><path d="M519.0156,484.4844 Q519.1719,484.2656 519.3594,484.1563 Q519.5469,484.0469 519.7656,484.0469 Q520.1406,484.0469 520.375,484.3125 Q520.6094,484.5625 520.6094,485.1719 L520.6094,486.625 Q520.6094,487.2344 520.375,487.5 Q520.1406,487.7656 519.7656,487.7656 Q519.4219,487.7656 519.2188,487.5625 Q519.0156,487.375 518.9063,486.8594 Q518.8594,486.5 518.6719,486.3125 Q518.3438,485.9375 517.7344,485.7188 Q517.125,485.5 516.5,485.5 Q515.7344,485.5 515.0938,485.8281 Q514.4688,486.1563 513.9688,486.9063 Q513.4844,487.6563 513.4844,488.6875 L513.4844,489.7813 Q513.4844,491.0156 514.375,491.8438 Q515.2656,492.6563 516.8594,492.6563 Q517.7969,492.6563 518.4531,492.4063 Q518.8438,492.25 519.2656,491.8125 Q519.5313,491.5469 519.6719,491.4688 Q519.8281,491.3906 520.0313,491.3906 Q520.3594,491.3906 520.6094,491.6563 Q520.875,491.9063 520.875,492.25 Q520.875,492.5938 520.5313,493 Q520.0313,493.5781 519.2344,493.9063 Q518.1563,494.3594 516.8594,494.3594 Q515.3438,494.3594 514.1406,493.7344 Q513.1563,493.2344 512.4688,492.1719 Q511.7813,491.0938 511.7813,489.8125 L511.7813,488.6563 Q511.7813,487.3281 512.3906,486.1875 Q513.0156,485.0313 514.1094,484.4219 Q515.2031,483.7969 516.4375,483.7969 Q517.1719,483.7969 517.8125,483.9688 Q518.4688,484.125 519.0156,484.4844 Z " fill="#000000"/><text fill="#000000" font-family="sans-serif" font-size="14" lengthAdjust="spacing" textLength="36" x="536.75" y="494.3379">Tema</text><line style="stroke:#181818;stroke-width:0.5;" x1="471" x2="606" y1="504.6094" y2="504.6094"/><text fill="#000000" font-family="sans-serif" font-size="14" lengthAdjust="spacing" textLength="125" x="476" y="523.1426">PK idTema : Integer</text><text fill="#000000" font-family="sans-serif" font-size="14" lengthAdjust="spacing" textLength="97" x="476" y="540.752">nombre : String</text><line style="stroke:#181818;stroke-width:0.5;" x1="471" x2="606" y1="547.8281" y2="547.8281"/></g><!--MD5=[67042f47e81121a34ac30dab3849e31d]
class TemaLibro--><g id="elem_TemaLibro"><rect codeLine="88" fill="#F1F1F1" height="83.2188" id="TemaLibro" rx="2.5" ry="2.5" style="stroke:#181818;stroke-width:0.5;" width="159" x="383" y="756.6094"/><ellipse cx="424.55" cy="772.6094" fill="#ADD1B2" rx="11" ry="11" style="stroke:#181818;stroke-width:1.0;"/><path d="M427.3156,768.4844 Q427.4719,768.2656 427.6594,768.1563 Q427.8469,768.0469 428.0656,768.0469 Q428.4406,768.0469 428.675,768.3125 Q428.9094,768.5625 428.9094,769.1719 L428.9094,770.625 Q428.9094,771.2344 428.675,771.5 Q428.4406,771.7656 428.0656,771.7656 Q427.7219,771.7656 427.5188,771.5625 Q427.3156,771.375 427.2063,770.8594 Q427.1594,770.5 426.9719,770.3125 Q426.6438,769.9375 426.0344,769.7188 Q425.425,769.5 424.8,769.5 Q424.0344,769.5 423.3938,769.8281 Q422.7688,770.1563 422.2688,770.9063 Q421.7844,771.6563 421.7844,772.6875 L421.7844,773.7813 Q421.7844,775.0156 422.675,775.8438 Q423.5656,776.6563 425.1594,776.6563 Q426.0969,776.6563 426.7531,776.4063 Q427.1438,776.25 427.5656,775.8125 Q427.8313,775.5469 427.9719,775.4688 Q428.1281,775.3906 428.3313,775.3906 Q428.6594,775.3906 428.9094,775.6563 Q429.175,775.9063 429.175,776.25 Q429.175,776.5938 428.8313,777 Q428.3313,777.5781 427.5344,777.9063 Q426.4563,778.3594 425.1594,778.3594 Q423.6438,778.3594 422.4406,777.7344 Q421.4563,777.2344 420.7688,776.1719 Q420.0813,775.0938 420.0813,773.8125 L420.0813,772.6563 Q420.0813,771.3281 420.6906,770.1875 Q421.3156,769.0313 422.4094,768.4219 Q423.5031,767.7969 424.7375,767.7969 Q425.4719,767.7969 426.1125,767.9688 Q426.7688,768.125 427.3156,768.4844 Z " fill="#000000"/><text fill="#000000" font-family="sans-serif" font-size="14" lengthAdjust="spacing" textLength="68" x="444.45" y="778.3379">TemaLibro</text><line style="stroke:#181818;stroke-width:0.5;" x1="384" x2="541" y1="788.6094" y2="788.6094"/><text fill="#000000" font-family="sans-serif" font-size="14" lengthAdjust="spacing" textLength="147" x="389" y="807.1426">PK FK idTema : Integer</text><text fill="#000000" font-family="sans-serif" font-size="14" lengthAdjust="spacing" textLength="123" x="389" y="824.752">PK FK ISBN : String</text><line style="stroke:#181818;stroke-width:0.5;" x1="384" x2="541" y1="831.8281" y2="831.8281"/></g><!--MD5=[35a64b983c79880384a2fd9b61f0c24b]
class Usuario--><g id="elem_Usuario"><rect codeLine="93" fill="#F1F1F1" height="206.4844" id="Usuario" rx="2.5" ry="2.5" style="stroke:#181818;stroke-width:0.5;" width="172" x="593.5" y="952.6094"/><ellipse cx="651.25" cy="968.6094" fill="#ADD1B2" rx="11" ry="11" style="stroke:#181818;stroke-width:1.0;"/><path d="M654.0156,964.4844 Q654.1719,964.2656 654.3594,964.1563 Q654.5469,964.0469 654.7656,964.0469 Q655.1406,964.0469 655.375,964.3125 Q655.6094,964.5625 655.6094,965.1719 L655.6094,966.625 Q655.6094,967.2344 655.375,967.5 Q655.1406,967.7656 654.7656,967.7656 Q654.4219,967.7656 654.2188,967.5625 Q654.0156,967.375 653.9063,966.8594 Q653.8594,966.5 653.6719,966.3125 Q653.3438,965.9375 652.7344,965.7188 Q652.125,965.5 651.5,965.5 Q650.7344,965.5 650.0938,965.8281 Q649.4688,966.1563 648.9688,966.9063 Q648.4844,967.6563 648.4844,968.6875 L648.4844,969.7813 Q648.4844,971.0156 649.375,971.8438 Q650.2656,972.6563 651.8594,972.6563 Q652.7969,972.6563 653.4531,972.4063 Q653.8438,972.25 654.2656,971.8125 Q654.5313,971.5469 654.6719,971.4688 Q654.8281,971.3906 655.0313,971.3906 Q655.3594,971.3906 655.6094,971.6563 Q655.875,971.9063 655.875,972.25 Q655.875,972.5938 655.5313,973 Q655.0313,973.5781 654.2344,973.9063 Q653.1563,974.3594 651.8594,974.3594 Q650.3438,974.3594 649.1406,973.7344 Q648.1563,973.2344 647.4688,972.1719 Q646.7813,971.0938 646.7813,969.8125 L646.7813,968.6563 Q646.7813,967.3281 647.3906,966.1875 Q648.0156,965.0313 649.1094,964.4219 Q650.2031,963.7969 651.4375,963.7969 Q652.1719,963.7969 652.8125,963.9688 Q653.4688,964.125 654.0156,964.4844 Z " fill="#000000"/><text fill="#000000" font-family="sans-serif" font-size="14" lengthAdjust="spacing" textLength="48" x="671.75" y="974.3379">Usuario</text><line style="stroke:#181818;stroke-width:0.5;" x1="594.5" x2="764.5" y1="984.6094" y2="984.6094"/><text fill="#000000" font-family="sans-serif" font-size="14" lengthAdjust="spacing" textLength="137" x="599.5" y="1003.1426">PK idUsuario : Integer</text><text fill="#000000" font-family="sans-serif" font-size="14" lengthAdjust="spacing" textLength="71" x="599.5" y="1020.752">DNI : String</text><text fill="#000000" font-family="sans-serif" font-size="14" lengthAdjust="spacing" textLength="157" x="599.5" y="1038.3613">nombreCompleto : String</text><text fill="#000000" font-family="sans-serif" font-size="14" lengthAdjust="spacing" textLength="146" x="599.5" y="1055.9707">fechaNacimiento : Date</text><text fill="#000000" font-family="sans-serif" font-size="14" lengthAdjust="spacing" textLength="78" x="599.5" y="1073.5801">sexo : String</text><text fill="#000000" font-family="sans-serif" font-size="14" lengthAdjust="spacing" textLength="101" x="599.5" y="1091.1895">fechaAlta : Date</text><text fill="#000000" font-family="sans-serif" font-size="14" lengthAdjust="spacing" textLength="106" x="599.5" y="1108.7988">direccion : String</text><text fill="#000000" font-family="sans-serif" font-size="14" lengthAdjust="spacing" textLength="100" x="599.5" y="1126.4082">telefono : String</text><text fill="#000000" font-family="sans-serif" font-size="14" lengthAdjust="spacing" textLength="160" x="599.5" y="1144.0176">correoElectronico : String</text><line style="stroke:#181818;stroke-width:0.5;" x1="594.5" x2="764.5" y1="1151.0938" y2="1151.0938"/></g><!--MD5=[9e69ed94cf9f5941167f321c872a7916]
link Autor to AutorLibro--><g id="link_Autor_AutorLibro"><path codeLine="105" d="M85.5,128.6594 C85.5,154.7994 85.5,188.6694 85.5,214.8594 " fill="none" id="Autor-AutorLibro" style="stroke:#181818;stroke-width:1.0;"/><text fill="#000000" font-family="sans-serif" font-size="13" lengthAdjust="spacing" textLength="7" x="77.9203" y="150.3722">1</text><text fill="#000000" font-family="sans-serif" font-size="13" lengthAdjust="spacing" textLength="26" x="57.3469" y="204.1256">1..m</text></g><!--MD5=[e75d78a4d94f58d7565693166b489d0c]
link AutorLibro to Libro--><g id="link_AutorLibro_Libro"><path codeLine="106" d="M115.18,298.3794 C132.36,321.9794 155.03,353.1194 177.76,384.3394 " fill="none" id="AutorLibro-Libro" style="stroke:#181818;stroke-width:1.0;"/><text fill="#000000" font-family="sans-serif" font-size="13" lengthAdjust="spacing" textLength="26" x="91.8384" y="319.8172">1..m</text><text fill="#000000" font-family="sans-serif" font-size="13" lengthAdjust="spacing" textLength="7" x="165.1383" y="373.8708">1</text></g><!--MD5=[cfa4d0b9428c616a6f8381e7bffdf7db]
link Bibliotecario to Sancion--><g id="link_Bibliotecario_Sancion"><path codeLine="107" d="M905.5,617.3194 C905.5,654.8294 905.5,696.3194 905.5,729.9794 " fill="none" id="Bibliotecario-Sancion" style="stroke:#181818;stroke-width:1.0;stroke-dasharray:7.0,7.0;"/><text fill="#000000" font-family="sans-serif" font-size="13" lengthAdjust="spacing" textLength="7" x="898.243" y="638.9766">1</text><text fill="#000000" font-family="sans-serif" font-size="13" lengthAdjust="spacing" textLength="26" x="878.0781" y="719.1644">0..m</text></g><!--MD5=[8f81af58aefee17c8de50b3fcd344786]
link Editorial to Libro--><g id="link_Editorial_Libro"><path codeLine="108" d="M274.86,298.3794 C274.49,321.9794 274,353.1194 273.52,384.3394 " fill="none" id="Editorial-Libro" style="stroke:#181818;stroke-width:1.0;stroke-dasharray:7.0,7.0;"/><text fill="#000000" font-family="sans-serif" font-size="13" lengthAdjust="spacing" textLength="7" x="267.2002" y="319.8172">1</text><text fill="#000000" font-family="sans-serif" font-size="13" lengthAdjust="spacing" textLength="26" x="246.8852" y="373.8708">1..m</text></g><!--MD5=[46f5b66345265a7056555d9a39c99ed8]
link Ejemplar to Libro--><g id="link_Ejemplar_Libro"><path codeLine="109" d="M549.81,324.7294 C517.9,343.5694 483.6,364.4394 452.5,384.6094 C446.84,388.2794 441.11,392.0494 435.35,395.8894 " fill="none" id="Ejemplar-Libro" style="stroke:#181818;stroke-width:1.0;stroke-dasharray:7.0,7.0;"/><text fill="#000000" font-family="sans-serif" font-size="13" lengthAdjust="spacing" textLength="26" x="510.3326" y="346.0901">1..m</text><text fill="#000000" font-family="sans-serif" font-size="13" lengthAdjust="spacing" textLength="7" x="442.933" y="387.666">1</text></g><!--MD5=[a5006039154c525aecd6bab670dc1db7]
link Ejemplar to Reserva--><g id="link_Ejemplar_Reserva"><path codeLine="110" d="M669,324.8494 C671.12,420.1794 675.01,595.0394 677.41,703.1494 " fill="none" id="Ejemplar-Reserva" style="stroke:#181818;stroke-width:1.0;stroke-dasharray:7.0,7.0;"/><text fill="#000000" font-family="sans-serif" font-size="13" lengthAdjust="spacing" textLength="7" x="661.7938" y="346.2225">1</text><text fill="#000000" font-family="sans-serif" font-size="13" lengthAdjust="spacing" textLength="26" x="650.2547" y="692.7799">0..m</text></g><!--MD5=[54ec3d54b88bb8c4d8f6b398ea892c92]
link Libro to PeticionLibro--><g id="link_Libro_PeticionLibro"><path codeLine="111" d="M264.66,643.7294 C262.89,676.9994 261.07,711.1894 259.6,738.8194 " fill="none" id="Libro-PeticionLibro" style="stroke:#181818;stroke-width:1.0;stroke-dasharray:7.0,7.0;"/><text fill="#000000" font-family="sans-serif" font-size="13" lengthAdjust="spacing" textLength="22" x="241.5729" y="665.6119">0..1</text><text fill="#000000" font-family="sans-serif" font-size="13" lengthAdjust="spacing" textLength="26" x="232.3934" y="728.1083">0..m</text></g><!--MD5=[1a38a0e266e9eee198935dfbcfcdd148]
link Libro to TemaLibro--><g id="link_Libro_TemaLibro"><path codeLine="112" d="M358.62,643.7294 C386.26,684.5494 414.85,726.7594 435.03,756.5494 " fill="none" id="Libro-TemaLibro" style="stroke:#181818;stroke-width:1.0;"/><text fill="#000000" font-family="sans-serif" font-size="13" lengthAdjust="spacing" textLength="7" x="356.7156" y="665.6119">1</text><text fill="#000000" font-family="sans-serif" font-size="13" lengthAdjust="spacing" textLength="26" x="402.3272" y="745.8471">1..m</text></g><!--MD5=[625dd7085c1a6d9bc249e662e4fa5e83]
link PeticionLibro to Usuario--><g id="link_PeticionLibro_Usuario"><path codeLine="113" d="M319.36,857.3294 C334,869.6494 349.89,882.0994 365.5,892.6094 C438.51,941.7794 528.33,986.7294 593.18,1016.7394 " fill="none" id="PeticionLibro-Usuario" style="stroke:#181818;stroke-width:1.0;stroke-dasharray:7.0,7.0;"/><text fill="#000000" font-family="sans-serif" font-size="13" lengthAdjust="spacing" textLength="26" x="299.4367" y="879.0117">0..m</text><text fill="#000000" font-family="sans-serif" font-size="13" lengthAdjust="spacing" textLength="7" x="578.4611" y="1010.2009">1</text></g><!--MD5=[00d8d260a0b491a5858b872251a356dd]
link Reserva to Usuario--><g id="link_Reserva_Usuario"><path codeLine="114" d="M679.5,892.7994 C679.5,912.1694 679.5,932.6594 679.5,952.3194 " fill="none" id="Reserva-Usuario" style="stroke:#181818;stroke-width:1.0;stroke-dasharray:7.0,7.0;"/><text fill="#000000" font-family="sans-serif" font-size="13" lengthAdjust="spacing" textLength="22" x="656.6922" y="913.8533">0..1</text><text fill="#000000" font-family="sans-serif" font-size="13" lengthAdjust="spacing" textLength="7" x="672.243" y="941.6368">1</text></g><!--MD5=[62d88255548c2cdaf664e61589efb835]
link Sancion to Usuario--><g id="link_Sancion_Usuario"><path codeLine="115" d="M846.12,866.2394 C821.53,894.0394 792.54,926.8194 765.69,957.1694 " fill="none" id="Sancion-Usuario" style="stroke:#181818;stroke-width:1.0;stroke-dasharray:7.0,7.0;"/><text fill="#000000" font-family="sans-serif" font-size="13" lengthAdjust="spacing" textLength="26" x="812.6558" y="887.6011">0..m</text><text fill="#000000" font-family="sans-serif" font-size="13" lengthAdjust="spacing" textLength="7" x="773.3977" y="945.5116">1</text></g><!--MD5=[f7156f391052be2bba2406550371014d]
link Tema to TemaLibro--><g id="link_Tema_TemaLibro"><path codeLine="116" d="M527.53,555.8094 C513.1,609.3494 487.89,702.8894 473.47,756.4194 " fill="none" id="Tema-TemaLibro" style="stroke:#181818;stroke-width:1.0;"/><text fill="#000000" font-family="sans-serif" font-size="13" lengthAdjust="spacing" textLength="7" x="518.2238" y="577.236">1</text><text fill="#000000" font-family="sans-serif" font-size="13" lengthAdjust="spacing" textLength="26" x="447.1338" y="745.6956">1..m</text></g><!--MD5=[bc44e60e7ae7b5e62029f0b97524d774]
@startuml gestion_biblioteca

title Diagrama de clases: Gestión Biblioteca

Class Autor {
    PK idAutor : Integer
    nombre : String
}


Class AutorLibro {
    PK FK idAutor : Integer
    PK FK ISBN : String
}


Class Bibliotecario {
    PK idBibliotecario : Integer
    DNI : String
    nombreCompleto : String
    fechaNacimiento : Date
    sexo : String
    fechaAlta : Date
    direccion : String
    telefono : String
    correoElectronico : String
}

Class Editorial {
    PK idEditorial : Integer
    nombre : String
}

Class Ejemplar {
    PK idEjemplar : Integer
    FK ISBN : String
    estadoConservacion : Enum {'muyMalo', 'malo', 'normal', 'bueno', 'muyBueno'}
    disponibleParaReserva : boolean
    enStock : boolean
}

Class Libro {
    PK ISBN : String
    FK idEditorial : Integer
    titulo : String
    descripcion : String
    idioma : String
    anioEdicion : String
    fechaPublicacion : Date
    encuadernacion : Enum {'tapaBlanda', 'tapaDura'} 
    numPaginas : Integer
    genero1 : String
    genero2 : String
    enStock : boolean     
}

Class PeticionLibro {
    PK idPeticionLibro : Integer
    FK idUsuario : Integer
    FK ISBN : String
    ISBNLibroPedido : String
    
}

Class Reserva {
    PK idReserva : Integer
    FK idUsuario : Integer
    FK idEjemplar : Integer
    fechaHoraInicio : Datetime
    fechaHoraFin : Datetime
    fechaDevolucion : Datetime
    ejemplarPerdido : boolean
    ejemplarDeteriorado : boolean  
}

Class Sancion {
    PK idSancion : Integer
    FK idUsuario : Integer
    FK idBibliotecario : Integer
    motivo : String
    descripcion : String
}

Class Tema {
    PK idTema : Integer
    nombre : String
}

Class TemaLibro {
    PK FK idTema : Integer
    PK FK ISBN : String
}

Class Usuario {
    PK idUsuario : Integer
    DNI : String
    nombreCompleto : String
    fechaNacimiento : Date
    sexo : String
    fechaAlta : Date
    direccion : String
    telefono : String
    correoElectronico : String
}

Autor "1" - - "1..m" AutorLibro
AutorLibro "1..m" - - "1" Libro
Bibliotecario "1" .. "0..m" Sancion
Editorial "1" .. "1..m" Libro
Ejemplar "1..m" .. "1" Libro
Ejemplar "1" .. "0..m" Reserva
Libro "0..1" .. "0..m" PeticionLibro
Libro "1" - - "1..m" TemaLibro
PeticionLibro "0..m" .. "1" Usuario
Reserva "0..1" .. "1" Usuario
Sancion "0..m" .. "1" Usuario
Tema "1" - - "1..m" TemaLibro

@enduml

PlantUML version 1.2022.7(Mon Aug 22 19:01:30 CEST 2022)
(GPL source distribution)
Java Runtime: OpenJDK Runtime Environment
JVM: OpenJDK 64-Bit Server VM
Default Encoding: Cp1252
Language: es
Country: ES
--></g></svg>