<?xml version="1.0" encoding="UTF-8" standalone="no"?><svg xmlns="http://www.w3.org/2000/svg" xmlns:xlink="http://www.w3.org/1999/xlink" contentStyleType="text/css" height="1166px" preserveAspectRatio="none" style="width:998px;height:1166px;background:#FFFFFF;" version="1.1" viewBox="0 0 998 1166" width="998px" zoomAndPan="magnify"><defs/><g><rect fill="none" height="27.6094" id="_title" style="stroke:none;stroke-width:1.0;" width="283" x="350.75" y="5"/><text fill="#000000" font-family="sans-serif" font-size="14" font-weight="bold" lengthAdjust="spacing" textLength="273" x="355.75" y="24.5332">Diagrama de clases: Gestión Biblioteca</text><!--MD5=[7b7d686d3dc2c644927357cb508758fd]
class Autor--><g id="elem_Autor"><rect codeLine="4" fill="#F1F1F1" height="83.2188" id="Autor" rx="2.5" ry="2.5" style="stroke:#181818;stroke-width:0.5;" width="135" x="18" y="45.6094"/><ellipse cx="64.25" cy="61.6094" fill="#ADD1B2" rx="11" ry="11" style="stroke:#181818;stroke-width:1.0;"/><path d="M67.0156,57.4844 Q67.1719,57.2656 67.3594,57.1563 Q67.5469,57.0469 67.7656,57.0469 Q68.1406,57.0469 68.375,57.3125 Q68.6094,57.5625 68.6094,58.1719 L68.6094,59.625 Q68.6094,60.2344 68.375,60.5 Q68.1406,60.7656 67.7656,60.7656 Q67.4219,60.7656 67.2188,60.5625 Q67.0156,60.375 66.9063,59.8594 Q66.8594,59.5 66.6719,59.3125 Q66.3438,58.9375 65.7344,58.7188 Q65.125,58.5 64.5,58.5 Q63.7344,58.5 63.0938,58.8281 Q62.4688,59.1563 61.9688,59.9063 Q61.4844,60.6563 61.4844,61.6875 L61.4844,62.7813 Q61.4844,64.0156 62.375,64.8438 Q63.2656,65.6563 64.8594,65.6563 Q65.7969,65.6563 66.4531,65.4063 Q66.8438,65.25 67.2656,64.8125 Q67.5313,64.5469 67.6719,64.4688 Q67.8281,64.3906 68.0313,64.3906 Q68.3594,64.3906 68.6094,64.6563 Q68.875,64.9063 68.875,65.25 Q68.875,65.5938 68.5313,66 Q68.0313,66.5781 67.2344,66.9063 Q66.1563,67.3594 64.8594,67.3594 Q63.3438,67.3594 62.1406,66.7344 Q61.1563,66.2344 60.4688,65.1719 Q59.7813,64.0938 59.7813,62.8125 L59.7813,61.6563 Q59.7813,60.3281 60.3906,59.1875 Q61.0156,58.0313 62.1094,57.4219 Q63.2031,56.7969 64.4375,56.7969 Q65.1719,56.7969 65.8125,56.9688 Q66.4688,57.125 67.0156,57.4844 Z " fill="#000000"/><text fill="#000000" font-family="sans-serif" font-size="14" lengthAdjust="spacing" textLength="34" x="84.75" y="67.3379">Autor</text><line style="stroke:#181818;stroke-width:0.5;" x1="19" x2="152" y1="77.6094" y2="77.6094"/><text fill="#000000" font-family="sans-serif" font-size="14" lengthAdjust="spacing" textLength="123" x="24" y="96.1426">PK idAutor : Integer</text><text fill="#000000" font-family="sans-serif" font-size="14" lengthAdjust="spacing" textLength="97" x="24" y="113.752">nombre : String</text><line style="stroke:#181818;stroke-width:0.5;" x1="19" x2="152" y1="120.8281" y2="120.8281"/></g><!--MD5=[f00b6c42b10351a516604b3f60238f93]
class AutorLibro--><g id="elem_AutorLibro"><rect codeLine="10" fill="#F1F1F1" height="83.2188" id="AutorLibro" rx="2.5" ry="2.5" style="stroke:#181818;stroke-width:0.5;" width="157" x="7" y="215.1094"/><ellipse cx="48.55" cy="231.1094" fill="#ADD1B2" rx="11" ry="11" style="stroke:#181818;stroke-width:1.0;"/><path d="M51.3156,226.9844 Q51.4719,226.7656 51.6594,226.6563 Q51.8469,226.5469 52.0656,226.5469 Q52.4406,226.5469 52.675,226.8125 Q52.9094,227.0625 52.9094,227.6719 L52.9094,229.125 Q52.9094,229.7344 52.675,230 Q52.4406,230.2656 52.0656,230.2656 Q51.7219,230.2656 51.5188,230.0625 Q51.3156,229.875 51.2063,229.3594 Q51.1594,229 50.9719,228.8125 Q50.6438,228.4375 50.0344,228.2188 Q49.425,228 48.8,228 Q48.0344,228 47.3938,228.3281 Q46.7688,228.6563 46.2688,229.4063 Q45.7844,230.1563 45.7844,231.1875 L45.7844,232.2813 Q45.7844,233.5156 46.675,234.3438 Q47.5656,235.1563 49.1594,235.1563 Q50.0969,235.1563 50.7531,234.9063 Q51.1438,234.75 51.5656,234.3125 Q51.8313,234.0469 51.9719,233.9688 Q52.1281,233.8906 52.3313,233.8906 Q52.6594,233.8906 52.9094,234.1563 Q53.175,234.4063 53.175,234.75 Q53.175,235.0938 52.8313,235.5 Q52.3313,236.0781 51.5344,236.4063 Q50.4563,236.8594 49.1594,236.8594 Q47.6438,236.8594 46.4406,236.2344 Q45.4563,235.7344 44.7688,234.6719 Q44.0813,233.5938 44.0813,232.3125 L44.0813,231.1563 Q44.0813,229.8281 44.6906,228.6875 Q45.3156,227.5313 46.4094,226.9219 Q47.5031,226.2969 48.7375,226.2969 Q49.4719,226.2969 50.1125,226.4688 Q50.7688,226.625 51.3156,226.9844 Z " fill="#000000"/><text fill="#000000" font-family="sans-serif" font-size="14" lengthAdjust="spacing" textLength="66" x="68.45" y="236.8379">AutorLibro</text><line style="stroke:#181818;stroke-width:0.5;" x1="8" x2="163" y1="247.1094" y2="247.1094"/><text fill="#000000" font-family="sans-serif" font-size="14" lengthAdjust="spacing" textLength="145" x="13" y="265.6426">PK FK idAutor : Integer</text><text fill="#000000" font-family="sans-serif" font-size="14" lengthAdjust="spacing" textLength="123" x="13" y="283.252">PK FK ISBN : String</text><line style="stroke:#181818;stroke-width:0.5;" x1="8" x2="163" y1="290.3281" y2="290.3281"/></g><!--MD5=[1e386a12b057c317c649c65d263c59e8]
class Bibliotecario--><g id="elem_Bibliotecario"><rect codeLine="16" fill="#F1F1F1" height="206.4844" id="Bibliotecario" rx="2.5" ry="2.5" style="stroke:#181818;stroke-width:0.5;" width="178" x="813.5" y="411.1094"/><ellipse cx="859.75" cy="427.1094" fill="#ADD1B2" rx="11" ry="11" style="stroke:#181818;stroke-width:1.0;"/><path d="M862.5156,422.9844 Q862.6719,422.7656 862.8594,422.6563 Q863.0469,422.5469 863.2656,422.5469 Q863.6406,422.5469 863.875,422.8125 Q864.1094,423.0625 864.1094,423.6719 L864.1094,425.125 Q864.1094,425.7344 863.875,426 Q863.6406,426.2656 863.2656,426.2656 Q862.9219,426.2656 862.7188,426.0625 Q862.5156,425.875 862.4063,425.3594 Q862.3594,425 862.1719,424.8125 Q861.8438,424.4375 861.2344,424.2188 Q860.625,424 860,424 Q859.2344,424 858.5938,424.3281 Q857.9688,424.6563 857.4688,425.4063 Q856.9844,426.1563 856.9844,427.1875 L856.9844,428.2813 Q856.9844,429.5156 857.875,430.3438 Q858.7656,431.1563 860.3594,431.1563 Q861.2969,431.1563 861.9531,430.9063 Q862.3438,430.75 862.7656,430.3125 Q863.0313,430.0469 863.1719,429.9688 Q863.3281,429.8906 863.5313,429.8906 Q863.8594,429.8906 864.1094,430.1563 Q864.375,430.4063 864.375,430.75 Q864.375,431.0938 864.0313,431.5 Q863.5313,432.0781 862.7344,432.4063 Q861.6563,432.8594 860.3594,432.8594 Q858.8438,432.8594 857.6406,432.2344 Q856.6563,431.7344 855.9688,430.6719 Q855.2813,429.5938 855.2813,428.3125 L855.2813,427.1563 Q855.2813,425.8281 855.8906,424.6875 Q856.5156,423.5313 857.6094,422.9219 Q858.7031,422.2969 859.9375,422.2969 Q860.6719,422.2969 861.3125,422.4688 Q861.9688,422.625 862.5156,422.9844 Z " fill="#000000"/><text fill="#000000" font-family="sans-serif" font-size="14" lengthAdjust="spacing" textLength="77" x="880.25" y="432.8379">Bibliotecario</text><line style="stroke:#181818;stroke-width:0.5;" x1="814.5" x2="990.5" y1="443.1094" y2="443.1094"/><text fill="#000000" font-family="sans-serif" font-size="14" lengthAdjust="spacing" textLength="166" x="819.5" y="461.6426">PK idBibliotecario : Integer</text><text fill="#000000" font-family="sans-serif" font-size="14" lengthAdjust="spacing" textLength="71" x="819.5" y="479.252">DNI : String</text><text fill="#000000" font-family="sans-serif" font-size="14" lengthAdjust="spacing" textLength="157" x="819.5" y="496.8613">nombreCompleto : String</text><text fill="#000000" font-family="sans-serif" font-size="14" lengthAdjust="spacing" textLength="146" x="819.5" y="514.4707">fechaNacimiento : Date</text><text fill="#000000" font-family="sans-serif" font-size="14" lengthAdjust="spacing" textLength="78" x="819.5" y="532.0801">sexo : String</text><text fill="#000000" font-family="sans-serif" font-size="14" lengthAdjust="spacing" textLength="101" x="819.5" y="549.6895">fechaAlta : Date</text><text fill="#000000" font-family="sans-serif" font-size="14" lengthAdjust="spacing" textLength="106" x="819.5" y="567.2988">direccion : String</text><text fill="#000000" font-family="sans-serif" font-size="14" lengthAdjust="spacing" textLength="100" x="819.5" y="584.9082">telefono : String</text><text fill="#000000" font-family="sans-serif" font-size="14" lengthAdjust="spacing" textLength="160" x="819.5" y="602.5176">correoElectronico : String</text><line style="stroke:#181818;stroke-width:0.5;" x1="814.5" x2="990.5" y1="609.5938" y2="609.5938"/></g><!--MD5=[aca765d11dba0ab2015f343c6c3150c7]
class Editorial--><g id="elem_Editorial"><rect codeLine="28" fill="#F1F1F1" height="83.2188" id="Editorial" rx="2.5" ry="2.5" style="stroke:#181818;stroke-width:0.5;" width="152" x="199.5" y="215.1094"/><ellipse cx="245.75" cy="231.1094" fill="#ADD1B2" rx="11" ry="11" style="stroke:#181818;stroke-width:1.0;"/><path d="M248.5156,226.9844 Q248.6719,226.7656 248.8594,226.6563 Q249.0469,226.5469 249.2656,226.5469 Q249.6406,226.5469 249.875,226.8125 Q250.1094,227.0625 250.1094,227.6719 L250.1094,229.125 Q250.1094,229.7344 249.875,230 Q249.6406,230.2656 249.2656,230.2656 Q248.9219,230.2656 248.7188,230.0625 Q248.5156,229.875 248.4063,229.3594 Q248.3594,229 248.1719,228.8125 Q247.8438,228.4375 247.2344,228.2188 Q246.625,228 246,228 Q245.2344,228 244.5938,228.3281 Q243.9688,228.6563 243.4688,229.4063 Q242.9844,230.1563 242.9844,231.1875 L242.9844,232.2813 Q242.9844,233.5156 243.875,234.3438 Q244.7656,235.1563 246.3594,235.1563 Q247.2969,235.1563 247.9531,234.9063 Q248.3438,234.75 248.7656,234.3125 Q249.0313,234.0469 249.1719,233.9688 Q249.3281,233.8906 249.5313,233.8906 Q249.8594,233.8906 250.1094,234.1563 Q250.375,234.4063 250.375,234.75 Q250.375,235.0938 250.0313,235.5 Q249.5313,236.0781 248.7344,236.4063 Q247.6563,236.8594 246.3594,236.8594 Q244.8438,236.8594 243.6406,236.2344 Q242.6563,235.7344 241.9688,234.6719 Q241.2813,233.5938 241.2813,232.3125 L241.2813,231.1563 Q241.2813,229.8281 241.8906,228.6875 Q242.5156,227.5313 243.6094,226.9219 Q244.7031,226.2969 245.9375,226.2969 Q246.6719,226.2969 247.3125,226.4688 Q247.9688,226.625 248.5156,226.9844 Z " fill="#000000"/><text fill="#000000" font-family="sans-serif" font-size="14" lengthAdjust="spacing" textLength="51" x="266.25" y="236.8379">Editorial</text><line style="stroke:#181818;stroke-width:0.5;" x1="200.5" x2="350.5" y1="247.1094" y2="247.1094"/><text fill="#000000" font-family="sans-serif" font-size="14" lengthAdjust="spacing" textLength="140" x="205.5" y="265.6426">PK idEditorial : Integer</text><text fill="#000000" font-family="sans-serif" font-size="14" lengthAdjust="spacing" textLength="97" x="205.5" y="283.252">nombre : String</text><line style="stroke:#181818;stroke-width:0.5;" x1="200.5" x2="350.5" y1="290.3281" y2="290.3281"/></g><!--MD5=[ab0fb6cae97cb00cf31871661635cac7]
class Ejemplar--><g id="elem_Ejemplar"><rect codeLine="33" fill="#F1F1F1" height="136.0469" id="Ejemplar" rx="2.5" ry="2.5" style="stroke:#181818;stroke-width:0.5;" width="486" x="420.5" y="188.6094"/><ellipse cx="631.75" cy="204.6094" fill="#ADD1B2" rx="11" ry="11" style="stroke:#181818;stroke-width:1.0;"/><path d="M634.5156,200.4844 Q634.6719,200.2656 634.8594,200.1563 Q635.0469,200.0469 635.2656,200.0469 Q635.6406,200.0469 635.875,200.3125 Q636.1094,200.5625 636.1094,201.1719 L636.1094,202.625 Q636.1094,203.2344 635.875,203.5 Q635.6406,203.7656 635.2656,203.7656 Q634.9219,203.7656 634.7188,203.5625 Q634.5156,203.375 634.4063,202.8594 Q634.3594,202.5 634.1719,202.3125 Q633.8438,201.9375 633.2344,201.7188 Q632.625,201.5 632,201.5 Q631.2344,201.5 630.5938,201.8281 Q629.9688,202.1563 629.4688,202.9063 Q628.9844,203.6563 628.9844,204.6875 L628.9844,205.7813 Q628.9844,207.0156 629.875,207.8438 Q630.7656,208.6563 632.3594,208.6563 Q633.2969,208.6563 633.9531,208.4063 Q634.3438,208.25 634.7656,207.8125 Q635.0313,207.5469 635.1719,207.4688 Q635.3281,207.3906 635.5313,207.3906 Q635.8594,207.3906 636.1094,207.6563 Q636.375,207.9063 636.375,208.25 Q636.375,208.5938 636.0313,209 Q635.5313,209.5781 634.7344,209.9063 Q633.6563,210.3594 632.3594,210.3594 Q630.8438,210.3594 629.6406,209.7344 Q628.6563,209.2344 627.9688,208.1719 Q627.2813,207.0938 627.2813,205.8125 L627.2813,204.6563 Q627.2813,203.3281 627.8906,202.1875 Q628.5156,201.0313 629.6094,200.4219 Q630.7031,199.7969 631.9375,199.7969 Q632.6719,199.7969 633.3125,199.9688 Q633.9688,200.125 634.5156,200.4844 Z " fill="#000000"/><text fill="#000000" font-family="sans-serif" font-size="14" lengthAdjust="spacing" textLength="55" x="652.25" y="210.3379">Ejemplar</text><line style="stroke:#181818;stroke-width:0.5;" x1="421.5" x2="905.5" y1="220.6094" y2="220.6094"/><text fill="#000000" font-family="sans-serif" font-size="14" lengthAdjust="spacing" textLength="144" x="426.5" y="239.1426">PK idEjemplar : Integer</text><text fill="#000000" font-family="sans-serif" font-size="14" lengthAdjust="spacing" textLength="101" x="426.5" y="256.752">FK ISBN : String</text><text fill="#000000" font-family="sans-serif" font-size="14" lengthAdjust="spacing" textLength="474" x="426.5" y="274.3613">estadoConservacion : Enum {'muyMalo','malo','normal','bueno','muyBueno'}</text><text fill="#000000" font-family="sans-serif" font-size="14" lengthAdjust="spacing" textLength="210" x="426.5" y="291.9707">disponibleParaReserva : boolean</text><text fill="#000000" font-family="sans-serif" font-size="14" lengthAdjust="spacing" textLength="114" x="426.5" y="309.5801">enStock : boolean</text><line style="stroke:#181818;stroke-width:0.5;" x1="421.5" x2="905.5" y1="316.6563" y2="316.6563"/></g><!--MD5=[a48731e35e4efcfa96e52c126b9a7dad]
class Libro--><g id="elem_Libro"><rect codeLine="41" fill="#F1F1F1" height="259.3125" id="Libro" rx="2.5" ry="2.5" style="stroke:#181818;stroke-width:0.5;" width="323" x="109" y="384.6094"/><ellipse cx="250.25" cy="400.6094" fill="#ADD1B2" rx="11" ry="11" style="stroke:#181818;stroke-width:1.0;"/><path d="M253.0156,396.4844 Q253.1719,396.2656 253.3594,396.1563 Q253.5469,396.0469 253.7656,396.0469 Q254.1406,396.0469 254.375,396.3125 Q254.6094,396.5625 254.6094,397.1719 L254.6094,398.625 Q254.6094,399.2344 254.375,399.5 Q254.1406,399.7656 253.7656,399.7656 Q253.4219,399.7656 253.2188,399.5625 Q253.0156,399.375 252.9063,398.8594 Q252.8594,398.5 252.6719,398.3125 Q252.3438,397.9375 251.7344,397.7188 Q251.125,397.5 250.5,397.5 Q249.7344,397.5 249.0938,397.8281 Q248.4688,398.1563 247.9688,398.9063 Q247.4844,399.6563 247.4844,400.6875 L247.4844,401.7813 Q247.4844,403.0156 248.375,403.8438 Q249.2656,404.6563 250.8594,404.6563 Q251.7969,404.6563 252.4531,404.4063 Q252.8438,404.25 253.2656,403.8125 Q253.5313,403.5469 253.6719,403.4688 Q253.8281,403.3906 254.0313,403.3906 Q254.3594,403.3906 254.6094,403.6563 Q254.875,403.9063 254.875,404.25 Q254.875,404.5938 254.5313,405 Q254.0313,405.5781 253.2344,405.9063 Q252.1563,406.3594 250.8594,406.3594 Q249.3438,406.3594 248.1406,405.7344 Q247.1563,405.2344 246.4688,404.1719 Q245.7813,403.0938 245.7813,401.8125 L245.7813,400.6563 Q245.7813,399.3281 246.3906,398.1875 Q247.0156,397.0313 248.1094,396.4219 Q249.2031,395.7969 250.4375,395.7969 Q251.1719,395.7969 251.8125,395.9688 Q252.4688,396.125 253.0156,396.4844 Z " fill="#000000"/><text fill="#000000" font-family="sans-serif" font-size="14" lengthAdjust="spacing" textLength="32" x="270.75" y="406.3379">Libro</text><line style="stroke:#181818;stroke-width:0.5;" x1="110" x2="431" y1="416.6094" y2="416.6094"/><text fill="#000000" font-family="sans-serif" font-size="14" lengthAdjust="spacing" textLength="101" x="115" y="435.1426">PK ISBN : String</text><text fill="#000000" font-family="sans-serif" font-size="14" lengthAdjust="spacing" textLength="140" x="115" y="452.752">FK idEditorial : Integer</text><text fill="#000000" font-family="sans-serif" font-size="14" lengthAdjust="spacing" textLength="79" x="115" y="470.3613">titulo : String</text><text fill="#000000" font-family="sans-serif" font-size="14" lengthAdjust="spacing" textLength="121" x="115" y="487.9707">descripcion : String</text><text fill="#000000" font-family="sans-serif" font-size="14" lengthAdjust="spacing" textLength="90" x="115" y="505.5801">idioma : String</text><text fill="#000000" font-family="sans-serif" font-size="14" lengthAdjust="spacing" textLength="122" x="115" y="523.1895">anioEdicion : String</text><text fill="#000000" font-family="sans-serif" font-size="14" lengthAdjust="spacing" textLength="149" x="115" y="540.7988">fechaPublicacion : Date</text><text fill="#000000" font-family="sans-serif" font-size="14" lengthAdjust="spacing" textLength="311" x="115" y="558.4082">encuadernacion : Enum {'tapaBlanda','tapaDura'}</text><text fill="#000000" font-family="sans-serif" font-size="14" lengthAdjust="spacing" textLength="134" x="115" y="576.0176">numPaginas : Integer</text><text fill="#000000" font-family="sans-serif" font-size="14" lengthAdjust="spacing" textLength="102" x="115" y="593.627">genero1 : String</text><text fill="#000000" font-family="sans-serif" font-size="14" lengthAdjust="spacing" textLength="102" x="115" y="611.2363">genero2 : String</text><text fill="#000000" font-family="sans-serif" font-size="14" lengthAdjust="spacing" textLength="114" x="115" y="628.8457">enStock : boolean</text><line style="stroke:#181818;stroke-width:0.5;" x1="110" x2="431" y1="635.9219" y2="635.9219"/></g><!--MD5=[99902813f7e5ab27d9f5f5589b313333]
class PeticionLibro--><g id="elem_PeticionLibro"><rect codeLine="56" fill="#F1F1F1" height="118.4375" id="PeticionLibro" rx="2.5" ry="2.5" style="stroke:#181818;stroke-width:0.5;" width="183" x="162" y="739.1094"/><ellipse cx="208.25" cy="755.1094" fill="#ADD1B2" rx="11" ry="11" style="stroke:#181818;stroke-width:1.0;"/><path d="M211.0156,750.9844 Q211.1719,750.7656 211.3594,750.6563 Q211.5469,750.5469 211.7656,750.5469 Q212.1406,750.5469 212.375,750.8125 Q212.6094,751.0625 212.6094,751.6719 L212.6094,753.125 Q212.6094,753.7344 212.375,754 Q212.1406,754.2656 211.7656,754.2656 Q211.4219,754.2656 211.2188,754.0625 Q211.0156,753.875 210.9063,753.3594 Q210.8594,753 210.6719,752.8125 Q210.3438,752.4375 209.7344,752.2188 Q209.125,752 208.5,752 Q207.7344,752 207.0938,752.3281 Q206.4688,752.6563 205.9688,753.4063 Q205.4844,754.1563 205.4844,755.1875 L205.4844,756.2813 Q205.4844,757.5156 206.375,758.3438 Q207.2656,759.1563 208.8594,759.1563 Q209.7969,759.1563 210.4531,758.9063 Q210.8438,758.75 211.2656,758.3125 Q211.5313,758.0469 211.6719,757.9688 Q211.8281,757.8906 212.0313,757.8906 Q212.3594,757.8906 212.6094,758.1563 Q212.875,758.4063 212.875,758.75 Q212.875,759.0938 212.5313,759.5 Q212.0313,760.0781 211.2344,760.4063 Q210.1563,760.8594 208.8594,760.8594 Q207.3438,760.8594 206.1406,760.2344 Q205.1563,759.7344 204.4688,758.6719 Q203.7813,757.5938 203.7813,756.3125 L203.7813,755.1563 Q203.7813,753.8281 204.3906,752.6875 Q205.0156,751.5313 206.1094,750.9219 Q207.2031,750.2969 208.4375,750.2969 Q209.1719,750.2969 209.8125,750.4688 Q210.4688,750.625 211.0156,750.9844 Z " fill="#000000"/><text fill="#000000" font-family="sans-serif" font-size="14" lengthAdjust="spacing" textLength="82" x="228.75" y="760.8379">PeticionLibro</text><line style="stroke:#181818;stroke-width:0.5;" x1="163" x2="344" y1="771.1094" y2="771.1094"/><text fill="#000000" font-family="sans-serif" font-size="14" lengthAdjust="spacing" textLength="171" x="168" y="789.6426">PK idPeticionLibro : Integer</text><text fill="#000000" font-family="sans-serif" font-size="14" lengthAdjust="spacing" textLength="137" x="168" y="807.252">FK idUsuario : Integer</text><text fill="#000000" font-family="sans-serif" font-size="14" lengthAdjust="spacing" textLength="101" x="168" y="824.8613">FK ISBN : String</text><text fill="#000000" font-family="sans-serif" font-size="14" lengthAdjust="spacing" textLength="155" x="168" y="842.4707">ISBNLibroPedido : String</text><line style="stroke:#181818;stroke-width:0.5;" x1="163" x2="344" y1="849.5469" y2="849.5469"/></g><!--MD5=[6ea9d6598d9760662639554c9857ab6b]
class Reserva--><g id="elem_Reserva"><rect codeLine="64" fill="#F1F1F1" height="188.875" id="Reserva" rx="2.5" ry="2.5" style="stroke:#181818;stroke-width:0.5;" width="204" x="574.5" y="703.6094"/><ellipse cx="645.75" cy="719.6094" fill="#ADD1B2" rx="11" ry="11" style="stroke:#181818;stroke-width:1.0;"/><path d="M648.5156,715.4844 Q648.6719,715.2656 648.8594,715.1563 Q649.0469,715.0469 649.2656,715.0469 Q649.6406,715.0469 649.875,715.3125 Q650.1094,715.5625 650.1094,716.1719 L650.1094,717.625 Q650.1094,718.2344 649.875,718.5 Q649.6406,718.7656 649.2656,718.7656 Q648.9219,718.7656 648.7188,718.5625 Q648.5156,718.375 648.4063,717.8594 Q648.3594,717.5 648.1719,717.3125 Q647.8438,716.9375 647.2344,716.7188 Q646.625,716.5 646,716.5 Q645.2344,716.5 644.5938,716.8281 Q643.9688,717.1563 643.4688,717.9063 Q642.9844,718.6563 642.9844,719.6875 L642.9844,720.7813 Q642.9844,722.0156 643.875,722.8438 Q644.7656,723.6563 646.3594,723.6563 Q647.2969,723.6563 647.9531,723.4063 Q648.3438,723.25 648.7656,722.8125 Q649.0313,722.5469 649.1719,722.4688 Q649.3281,722.3906 649.5313,722.3906 Q649.8594,722.3906 650.1094,722.6563 Q650.375,722.9063 650.375,723.25 Q650.375,723.5938 650.0313,724 Q649.5313,724.5781 648.7344,724.9063 Q647.6563,725.3594 646.3594,725.3594 Q644.8438,725.3594 643.6406,724.7344 Q642.6563,724.2344 641.9688,723.1719 Q641.2813,722.0938 641.2813,720.8125 L641.2813,719.6563 Q641.2813,718.3281 641.8906,717.1875 Q642.5156,716.0313 643.6094,715.4219 Q644.7031,714.7969 645.9375,714.7969 Q646.6719,714.7969 647.3125,714.9688 Q647.9688,715.125 648.5156,715.4844 Z " fill="#000000"/><text fill="#000000" font-family="sans-serif" font-size="14" lengthAdjust="spacing" textLength="53" x="666.25" y="725.3379">Reserva</text><line style="stroke:#181818;stroke-width:0.5;" x1="575.5" x2="777.5" y1="735.6094" y2="735.6094"/><text fill="#000000" font-family="sans-serif" font-size="14" lengthAdjust="spacing" textLength="142" x="580.5" y="754.1426">PK idReserva : Integer</text><text fill="#000000" font-family="sans-serif" font-size="14" lengthAdjust="spacing" textLength="137" x="580.5" y="771.752">FK idUsuario : Integer</text><text fill="#000000" font-family="sans-serif" font-size="14" lengthAdjust="spacing" textLength="144" x="580.5" y="789.3613">FK idEjemplar : Integer</text><text fill="#000000" font-family="sans-serif" font-size="14" lengthAdjust="spacing" textLength="165" x="580.5" y="806.9707">fechaHoraInicio : Datetime</text><text fill="#000000" font-family="sans-serif" font-size="14" lengthAdjust="spacing" textLength="153" x="580.5" y="824.5801">fechaHoraFin : Datetime</text><text fill="#000000" font-family="sans-serif" font-size="14" lengthAdjust="spacing" textLength="173" x="580.5" y="842.1895">fechaDevolucion : Datetime</text><text fill="#000000" font-family="sans-serif" font-size="14" lengthAdjust="spacing" textLength="166" x="580.5" y="859.7988">ejemplarPerdido : boolean</text><text fill="#000000" font-family="sans-serif" font-size="14" lengthAdjust="spacing" textLength="192" x="580.5" y="877.4082">ejemplarDeteriorado : boolean</text><line style="stroke:#181818;stroke-width:0.5;" x1="575.5" x2="777.5" y1="884.4844" y2="884.4844"/></g><!--MD5=[c17f487e025ad92df85d2d418a114f5e]
class Sancion--><g id="elem_Sancion"><rect codeLine="75" fill="#F1F1F1" height="136.0469" id="Sancion" rx="2.5" ry="2.5" style="stroke:#181818;stroke-width:0.5;" width="178" x="813.5" y="730.1094"/><ellipse cx="872.75" cy="746.1094" fill="#ADD1B2" rx="11" ry="11" style="stroke:#181818;stroke-width:1.0;"/><path d="M875.5156,741.9844 Q875.6719,741.7656 875.8594,741.6563 Q876.0469,741.5469 876.2656,741.5469 Q876.6406,741.5469 876.875,741.8125 Q877.1094,742.0625 877.1094,742.6719 L877.1094,744.125 Q877.1094,744.7344 876.875,745 Q876.6406,745.2656 876.2656,745.2656 Q875.9219,745.2656 875.7188,745.0625 Q875.5156,744.875 875.4063,744.3594 Q875.3594,744 875.1719,743.8125 Q874.8438,743.4375 874.2344,743.2188 Q873.625,743 873,743 Q872.2344,743 871.5938,743.3281 Q870.9688,743.6563 870.4688,744.4063 Q869.9844,745.1563 869.9844,746.1875 L869.9844,747.2813 Q869.9844,748.5156 870.875,749.3438 Q871.7656,750.1563 873.3594,750.1563 Q874.2969,750.1563 874.9531,749.9063 Q875.3438,749.75 875.7656,749.3125 Q876.0313,749.0469 876.1719,748.9688 Q876.3281,748.8906 876.5313,748.8906 Q876.8594,748.8906 877.1094,749.1563 Q877.375,749.4063 877.375,749.75 Q877.375,750.0938 877.0313,750.5 Q876.5313,751.0781 875.7344,751.4063 Q874.6563,751.8594 873.3594,751.8594 Q871.8438,751.8594 870.6406,751.2344 Q869.6563,750.7344 868.9688,749.6719 Q868.2813,748.5938 868.2813,747.3125 L868.2813,746.1563 Q868.2813,744.8281 868.8906,743.6875 Q869.5156,742.5313 870.6094,741.9219 Q871.7031,741.2969 872.9375,741.2969 Q873.6719,741.2969 874.3125,741.4688 Q874.9688,741.625 875.5156,741.9844 Z " fill="#000000"/><text fill="#000000" font-family="sans-serif" font-size="14" lengthAdjust="spacing" textLength="51" x="893.25" y="751.8379">Sancion</text><line style="stroke:#181818;stroke-width:0.5;" x1="814.5" x2="990.5" y1="762.1094" y2="762.1094"/><text fill="#000000" font-family="sans-serif" font-size="14" lengthAdjust="spacing" textLength="140" x="819.5" y="780.6426">PK idSancion : Integer</text><text fill="#000000" font-family="sans-serif" font-size="14" lengthAdjust="spacing" textLength="137" x="819.5" y="798.252">FK idUsuario : Integer</text><text fill="#000000" font-family="sans-serif" font-size="14" lengthAdjust="spacing" textLength="166" x="819.5" y="815.8613">FK idBibliotecario : Integer</text><text fill="#000000" font-family="sans-serif" font-size="14" lengthAdjust="spacing" textLength="90" x="819.5" y="833.4707">motivo : String</text><text fill="#000000" font-family="sans-serif" font-size="14" lengthAdjust="spacing" textLength="121" x="819.5" y="851.0801">descripcion : String</text><line style="stroke:#181818;stroke-width:0.5;" x1="814.5" x2="990.5" y1="858.1563" y2="858.1563"/></g><!--MD5=[18ab19124e5135cc6da782070c6ff551]
class Tema--><g id="elem_Tema"><rect codeLine="83" fill="#F1F1F1" height="83.2188" id="Tema" rx="2.5" ry="2.5" style="stroke:#181818;stroke-width:0.5;" width="137" x="467" y="472.6094"/><ellipse cx="513.25" cy="488.6094" fill="#ADD1B2" rx="11" ry="11" style="stroke:#181818;stroke-width:1.0;"/><path d="M516.0156,484.4844 Q516.1719,484.2656 516.3594,484.1563 Q516.5469,484.0469 516.7656,484.0469 Q517.1406,484.0469 517.375,484.3125 Q517.6094,484.5625 517.6094,485.1719 L517.6094,486.625 Q517.6094,487.2344 517.375,487.5 Q517.1406,487.7656 516.7656,487.7656 Q516.4219,487.7656 516.2188,487.5625 Q516.0156,487.375 515.9063,486.8594 Q515.8594,486.5 515.6719,486.3125 Q515.3438,485.9375 514.7344,485.7188 Q514.125,485.5 513.5,485.5 Q512.7344,485.5 512.0938,485.8281 Q511.4688,486.1563 510.9688,486.9063 Q510.4844,487.6563 510.4844,488.6875 L510.4844,489.7813 Q510.4844,491.0156 511.375,491.8438 Q512.2656,492.6563 513.8594,492.6563 Q514.7969,492.6563 515.4531,492.4063 Q515.8438,492.25 516.2656,491.8125 Q516.5313,491.5469 516.6719,491.4688 Q516.8281,491.3906 517.0313,491.3906 Q517.3594,491.3906 517.6094,491.6563 Q517.875,491.9063 517.875,492.25 Q517.875,492.5938 517.5313,493 Q517.0313,493.5781 516.2344,493.9063 Q515.1563,494.3594 513.8594,494.3594 Q512.3438,494.3594 511.1406,493.7344 Q510.1563,493.2344 509.4688,492.1719 Q508.7813,491.0938 508.7813,489.8125 L508.7813,488.6563 Q508.7813,487.3281 509.3906,486.1875 Q510.0156,485.0313 511.1094,484.4219 Q512.2031,483.7969 513.4375,483.7969 Q514.1719,483.7969 514.8125,483.9688 Q515.4688,484.125 516.0156,484.4844 Z " fill="#000000"/><text fill="#000000" font-family="sans-serif" font-size="14" lengthAdjust="spacing" textLength="36" x="533.75" y="494.3379">Tema</text><line style="stroke:#181818;stroke-width:0.5;" x1="468" x2="603" y1="504.6094" y2="504.6094"/><text fill="#000000" font-family="sans-serif" font-size="14" lengthAdjust="spacing" textLength="125" x="473" y="523.1426">PK idTema : Integer</text><text fill="#000000" font-family="sans-serif" font-size="14" lengthAdjust="spacing" textLength="97" x="473" y="540.752">nombre : String</text><line style="stroke:#181818;stroke-width:0.5;" x1="468" x2="603" y1="547.8281" y2="547.8281"/></g><!--MD5=[67042f47e81121a34ac30dab3849e31d]
class TemaLibro--><g id="elem_TemaLibro"><rect codeLine="88" fill="#F1F1F1" height="83.2188" id="TemaLibro" rx="2.5" ry="2.5" style="stroke:#181818;stroke-width:0.5;" width="159" x="380" y="756.6094"/><ellipse cx="421.55" cy="772.6094" fill="#ADD1B2" rx="11" ry="11" style="stroke:#181818;stroke-width:1.0;"/><path d="M424.3156,768.4844 Q424.4719,768.2656 424.6594,768.1563 Q424.8469,768.0469 425.0656,768.0469 Q425.4406,768.0469 425.675,768.3125 Q425.9094,768.5625 425.9094,769.1719 L425.9094,770.625 Q425.9094,771.2344 425.675,771.5 Q425.4406,771.7656 425.0656,771.7656 Q424.7219,771.7656 424.5188,771.5625 Q424.3156,771.375 424.2063,770.8594 Q424.1594,770.5 423.9719,770.3125 Q423.6438,769.9375 423.0344,769.7188 Q422.425,769.5 421.8,769.5 Q421.0344,769.5 420.3938,769.8281 Q419.7688,770.1563 419.2688,770.9063 Q418.7844,771.6563 418.7844,772.6875 L418.7844,773.7813 Q418.7844,775.0156 419.675,775.8438 Q420.5656,776.6563 422.1594,776.6563 Q423.0969,776.6563 423.7531,776.4063 Q424.1438,776.25 424.5656,775.8125 Q424.8313,775.5469 424.9719,775.4688 Q425.1281,775.3906 425.3313,775.3906 Q425.6594,775.3906 425.9094,775.6563 Q426.175,775.9063 426.175,776.25 Q426.175,776.5938 425.8313,777 Q425.3313,777.5781 424.5344,777.9063 Q423.4563,778.3594 422.1594,778.3594 Q420.6438,778.3594 419.4406,777.7344 Q418.4563,777.2344 417.7688,776.1719 Q417.0813,775.0938 417.0813,773.8125 L417.0813,772.6563 Q417.0813,771.3281 417.6906,770.1875 Q418.3156,769.0313 419.4094,768.4219 Q420.5031,767.7969 421.7375,767.7969 Q422.4719,767.7969 423.1125,767.9688 Q423.7688,768.125 424.3156,768.4844 Z " fill="#000000"/><text fill="#000000" font-family="sans-serif" font-size="14" lengthAdjust="spacing" textLength="68" x="441.45" y="778.3379">TemaLibro</text><line style="stroke:#181818;stroke-width:0.5;" x1="381" x2="538" y1="788.6094" y2="788.6094"/><text fill="#000000" font-family="sans-serif" font-size="14" lengthAdjust="spacing" textLength="147" x="386" y="807.1426">PK FK idTema : Integer</text><text fill="#000000" font-family="sans-serif" font-size="14" lengthAdjust="spacing" textLength="123" x="386" y="824.752">PK FK ISBN : String</text><line style="stroke:#181818;stroke-width:0.5;" x1="381" x2="538" y1="831.8281" y2="831.8281"/></g><!--MD5=[35a64b983c79880384a2fd9b61f0c24b]
class Usuario--><g id="elem_Usuario"><rect codeLine="93" fill="#F1F1F1" height="206.4844" id="Usuario" rx="2.5" ry="2.5" style="stroke:#181818;stroke-width:0.5;" width="172" x="590.5" y="952.6094"/><ellipse cx="648.25" cy="968.6094" fill="#ADD1B2" rx="11" ry="11" style="stroke:#181818;stroke-width:1.0;"/><path d="M651.0156,964.4844 Q651.1719,964.2656 651.3594,964.1563 Q651.5469,964.0469 651.7656,964.0469 Q652.1406,964.0469 652.375,964.3125 Q652.6094,964.5625 652.6094,965.1719 L652.6094,966.625 Q652.6094,967.2344 652.375,967.5 Q652.1406,967.7656 651.7656,967.7656 Q651.4219,967.7656 651.2188,967.5625 Q651.0156,967.375 650.9063,966.8594 Q650.8594,966.5 650.6719,966.3125 Q650.3438,965.9375 649.7344,965.7188 Q649.125,965.5 648.5,965.5 Q647.7344,965.5 647.0938,965.8281 Q646.4688,966.1563 645.9688,966.9063 Q645.4844,967.6563 645.4844,968.6875 L645.4844,969.7813 Q645.4844,971.0156 646.375,971.8438 Q647.2656,972.6563 648.8594,972.6563 Q649.7969,972.6563 650.4531,972.4063 Q650.8438,972.25 651.2656,971.8125 Q651.5313,971.5469 651.6719,971.4688 Q651.8281,971.3906 652.0313,971.3906 Q652.3594,971.3906 652.6094,971.6563 Q652.875,971.9063 652.875,972.25 Q652.875,972.5938 652.5313,973 Q652.0313,973.5781 651.2344,973.9063 Q650.1563,974.3594 648.8594,974.3594 Q647.3438,974.3594 646.1406,973.7344 Q645.1563,973.2344 644.4688,972.1719 Q643.7813,971.0938 643.7813,969.8125 L643.7813,968.6563 Q643.7813,967.3281 644.3906,966.1875 Q645.0156,965.0313 646.1094,964.4219 Q647.2031,963.7969 648.4375,963.7969 Q649.1719,963.7969 649.8125,963.9688 Q650.4688,964.125 651.0156,964.4844 Z " fill="#000000"/><text fill="#000000" font-family="sans-serif" font-size="14" lengthAdjust="spacing" textLength="48" x="668.75" y="974.3379">Usuario</text><line style="stroke:#181818;stroke-width:0.5;" x1="591.5" x2="761.5" y1="984.6094" y2="984.6094"/><text fill="#000000" font-family="sans-serif" font-size="14" lengthAdjust="spacing" textLength="137" x="596.5" y="1003.1426">PK idUsuario : Integer</text><text fill="#000000" font-family="sans-serif" font-size="14" lengthAdjust="spacing" textLength="71" x="596.5" y="1020.752">DNI : String</text><text fill="#000000" font-family="sans-serif" font-size="14" lengthAdjust="spacing" textLength="157" x="596.5" y="1038.3613">nombreCompleto : String</text><text fill="#000000" font-family="sans-serif" font-size="14" lengthAdjust="spacing" textLength="146" x="596.5" y="1055.9707">fechaNacimiento : Date</text><text fill="#000000" font-family="sans-serif" font-size="14" lengthAdjust="spacing" textLength="78" x="596.5" y="1073.5801">sexo : String</text><text fill="#000000" font-family="sans-serif" font-size="14" lengthAdjust="spacing" textLength="101" x="596.5" y="1091.1895">fechaAlta : Date</text><text fill="#000000" font-family="sans-serif" font-size="14" lengthAdjust="spacing" textLength="106" x="596.5" y="1108.7988">direccion : String</text><text fill="#000000" font-family="sans-serif" font-size="14" lengthAdjust="spacing" textLength="100" x="596.5" y="1126.4082">telefono : String</text><text fill="#000000" font-family="sans-serif" font-size="14" lengthAdjust="spacing" textLength="160" x="596.5" y="1144.0176">correoElectronico : String</text><line style="stroke:#181818;stroke-width:0.5;" x1="591.5" x2="761.5" y1="1151.0938" y2="1151.0938"/></g><!--MD5=[9e69ed94cf9f5941167f321c872a7916]
link Autor to AutorLibro--><g id="link_Autor_AutorLibro"><path codeLine="105" d="M85.5,128.6594 C85.5,154.7994 85.5,188.6694 85.5,214.8594 " fill="none" id="Autor-AutorLibro" style="stroke:#181818;stroke-width:1.0;"/><text fill="#000000" font-family="sans-serif" font-size="13" lengthAdjust="spacing" textLength="7" x="77.9203" y="150.3722">1</text><text fill="#000000" font-family="sans-serif" font-size="13" lengthAdjust="spacing" textLength="26" x="57.3469" y="204.1256">1..m</text></g><!--MD5=[e75d78a4d94f58d7565693166b489d0c]
link AutorLibro to Libro--><g id="link_AutorLibro_Libro"><path codeLine="106" d="M115.02,298.3794 C132.11,321.9794 154.65,353.1194 177.26,384.3394 " fill="none" id="AutorLibro-Libro" style="stroke:#181818;stroke-width:1.0;"/><text fill="#000000" font-family="sans-serif" font-size="13" lengthAdjust="spacing" textLength="26" x="91.6529" y="319.8172">1..m</text><text fill="#000000" font-family="sans-serif" font-size="13" lengthAdjust="spacing" textLength="7" x="164.6672" y="373.8708">1</text></g><!--MD5=[cfa4d0b9428c616a6f8381e7bffdf7db]
link Bibliotecario to Sancion--><g id="link_Bibliotecario_Sancion"><path codeLine="107" d="M902.5,617.3194 C902.5,654.8294 902.5,696.3194 902.5,729.9794 " fill="none" id="Bibliotecario-Sancion" style="stroke:#181818;stroke-width:1.0;stroke-dasharray:7.0,7.0;"/><text fill="#000000" font-family="sans-serif" font-size="13" lengthAdjust="spacing" textLength="7" x="895.243" y="638.9766">1</text><text fill="#000000" font-family="sans-serif" font-size="13" lengthAdjust="spacing" textLength="26" x="875.0781" y="719.1644">0..m</text></g><!--MD5=[8f81af58aefee17c8de50b3fcd344786]
link Editorial to Libro--><g id="link_Editorial_Libro"><path codeLine="108" d="M274.7,298.3794 C274.24,321.9794 273.63,353.1194 273.02,384.3394 " fill="none" id="Editorial-Libro" style="stroke:#181818;stroke-width:1.0;stroke-dasharray:7.0,7.0;"/><text fill="#000000" font-family="sans-serif" font-size="13" lengthAdjust="spacing" textLength="7" x="267.0147" y="319.8172">1</text><text fill="#000000" font-family="sans-serif" font-size="13" lengthAdjust="spacing" textLength="26" x="246.4141" y="373.8708">1..m</text></g><!--MD5=[46f5b66345265a7056555d9a39c99ed8]
link Ejemplar to Libro--><g id="link_Ejemplar_Libro"><path codeLine="109" d="M546.31,324.6694 C514.55,343.5194 480.42,364.3894 449.5,384.6094 C443.74,388.3794 437.9,392.2494 432.03,396.1994 " fill="none" id="Ejemplar-Libro" style="stroke:#181818;stroke-width:1.0;stroke-dasharray:7.0,7.0;"/><text fill="#000000" font-family="sans-serif" font-size="13" lengthAdjust="spacing" textLength="26" x="506.8842" y="346.0239">1..m</text><text fill="#000000" font-family="sans-serif" font-size="13" lengthAdjust="spacing" textLength="7" x="440.0236" y="387.5967">1</text></g><!--MD5=[a5006039154c525aecd6bab670dc1db7]
link Ejemplar to Reserva--><g id="link_Ejemplar_Reserva"><path codeLine="110" d="M665.12,324.8494 C667.42,420.1794 671.63,595.0394 674.24,703.1494 " fill="none" id="Ejemplar-Reserva" style="stroke:#181818;stroke-width:1.0;stroke-dasharray:7.0,7.0;"/><text fill="#000000" font-family="sans-serif" font-size="13" lengthAdjust="spacing" textLength="7" x="657.9261" y="346.2225">1</text><text fill="#000000" font-family="sans-serif" font-size="13" lengthAdjust="spacing" textLength="26" x="647.0717" y="692.7799">0..m</text></g><!--MD5=[54ec3d54b88bb8c4d8f6b398ea892c92]
link Libro to PeticionLibro--><g id="link_Libro_PeticionLibro"><path codeLine="111" d="M262.75,643.7294 C260.74,676.9994 258.68,711.1894 257.01,738.8194 " fill="none" id="Libro-PeticionLibro" style="stroke:#181818;stroke-width:1.0;stroke-dasharray:7.0,7.0;"/><text fill="#000000" font-family="sans-serif" font-size="13" lengthAdjust="spacing" textLength="22" x="239.6074" y="665.6119">0..1</text><text fill="#000000" font-family="sans-serif" font-size="13" lengthAdjust="spacing" textLength="26" x="229.8534" y="728.1083">0..m</text></g><!--MD5=[1a38a0e266e9eee198935dfbcfcdd148]
link Libro to TemaLibro--><g id="link_Libro_TemaLibro"><path codeLine="112" d="M356.7,643.7294 C384.06,684.5494 412.35,726.7594 432.31,756.5494 " fill="none" id="Libro-TemaLibro" style="stroke:#181818;stroke-width:1.0;"/><text fill="#000000" font-family="sans-serif" font-size="13" lengthAdjust="spacing" textLength="7" x="354.7395" y="665.6119">1</text><text fill="#000000" font-family="sans-serif" font-size="13" lengthAdjust="spacing" textLength="26" x="399.6535" y="745.8471">1..m</text></g><!--MD5=[625dd7085c1a6d9bc249e662e4fa5e83]
link PeticionLibro to Usuario--><g id="link_PeticionLibro_Usuario"><path codeLine="113" d="M316.36,857.3294 C331,869.6494 346.89,882.0994 362.5,892.6094 C435.51,941.7794 525.33,986.7294 590.18,1016.7394 " fill="none" id="PeticionLibro-Usuario" style="stroke:#181818;stroke-width:1.0;stroke-dasharray:7.0,7.0;"/><text fill="#000000" font-family="sans-serif" font-size="13" lengthAdjust="spacing" textLength="26" x="296.4367" y="879.0117">0..m</text><text fill="#000000" font-family="sans-serif" font-size="13" lengthAdjust="spacing" textLength="7" x="575.4611" y="1010.2009">1</text></g><!--MD5=[00d8d260a0b491a5858b872251a356dd]
link Reserva to Usuario--><g id="link_Reserva_Usuario"><path codeLine="114" d="M676.5,892.7994 C676.5,912.1694 676.5,932.6594 676.5,952.3194 " fill="none" id="Reserva-Usuario" style="stroke:#181818;stroke-width:1.0;stroke-dasharray:7.0,7.0;"/><text fill="#000000" font-family="sans-serif" font-size="13" lengthAdjust="spacing" textLength="22" x="653.6922" y="913.8533">0..1</text><text fill="#000000" font-family="sans-serif" font-size="13" lengthAdjust="spacing" textLength="7" x="669.243" y="941.6368">1</text></g><!--MD5=[62d88255548c2cdaf664e61589efb835]
link Sancion to Usuario--><g id="link_Sancion_Usuario"><path codeLine="115" d="M843.12,866.2394 C818.53,894.0394 789.54,926.8194 762.69,957.1694 " fill="none" id="Sancion-Usuario" style="stroke:#181818;stroke-width:1.0;stroke-dasharray:7.0,7.0;"/><text fill="#000000" font-family="sans-serif" font-size="13" lengthAdjust="spacing" textLength="26" x="809.6558" y="887.6011">0..m</text><text fill="#000000" font-family="sans-serif" font-size="13" lengthAdjust="spacing" textLength="7" x="770.3977" y="945.5116">1</text></g><!--MD5=[f7156f391052be2bba2406550371014d]
link Tema to TemaLibro--><g id="link_Tema_TemaLibro"><path codeLine="116" d="M524.53,555.8094 C510.1,609.3494 484.89,702.8894 470.47,756.4194 " fill="none" id="Tema-TemaLibro" style="stroke:#181818;stroke-width:1.0;"/><text fill="#000000" font-family="sans-serif" font-size="13" lengthAdjust="spacing" textLength="7" x="515.2238" y="577.236">1</text><text fill="#000000" font-family="sans-serif" font-size="13" lengthAdjust="spacing" textLength="26" x="444.1338" y="745.6956">1..m</text></g><!--MD5=[53525997d438d2f8876c43fe2c07b301]
@startuml gestion_biblioteca

title Diagrama de clases: Gestión Biblioteca

Class Autor {
    PK idAutor : Integer
    nombre : String
}


Class AutorLibro {
    PK FK idAutor : Integer
    PK FK ISBN : String
}


Class Bibliotecario {
    PK idBibliotecario : Integer
    DNI : String
    nombreCompleto : String
    fechaNacimiento : Date
    sexo : String
    fechaAlta : Date
    direccion : String
    telefono : String
    correoElectronico : String
}

Class Editorial {
    PK idEditorial : Integer
    nombre : String
}

Class Ejemplar {
    PK idEjemplar : Integer
    FK ISBN : String
    estadoConservacion : Enum {'muyMalo','malo','normal','bueno','muyBueno'}
    disponibleParaReserva : boolean
    enStock : boolean
}

Class Libro {
    PK ISBN : String
    FK idEditorial : Integer
    titulo : String
    descripcion : String
    idioma : String
    anioEdicion : String
    fechaPublicacion : Date
    encuadernacion : Enum {'tapaBlanda','tapaDura'} 
    numPaginas : Integer
    genero1 : String
    genero2 : String
    enStock : boolean     
}

Class PeticionLibro {
    PK idPeticionLibro : Integer
    FK idUsuario : Integer
    FK ISBN : String
    ISBNLibroPedido : String
    
}

Class Reserva {
    PK idReserva : Integer
    FK idUsuario : Integer
    FK idEjemplar : Integer
    fechaHoraInicio : Datetime
    fechaHoraFin : Datetime
    fechaDevolucion : Datetime
    ejemplarPerdido : boolean
    ejemplarDeteriorado : boolean  
}

Class Sancion {
    PK idSancion : Integer
    FK idUsuario : Integer
    FK idBibliotecario : Integer
    motivo : String
    descripcion : String
}

Class Tema {
    PK idTema : Integer
    nombre : String
}

Class TemaLibro {
    PK FK idTema : Integer
    PK FK ISBN : String
}

Class Usuario {
    PK idUsuario : Integer
    DNI : String
    nombreCompleto : String
    fechaNacimiento : Date
    sexo : String
    fechaAlta : Date
    direccion : String
    telefono : String
    correoElectronico : String
}

Autor "1" - - "1..m" AutorLibro
AutorLibro "1..m" - - "1" Libro
Bibliotecario "1" .. "0..m" Sancion
Editorial "1" .. "1..m" Libro
Ejemplar "1..m" .. "1" Libro
Ejemplar "1" .. "0..m" Reserva
Libro "0..1" .. "0..m" PeticionLibro
Libro "1" - - "1..m" TemaLibro
PeticionLibro "0..m" .. "1" Usuario
Reserva "0..1" .. "1" Usuario
Sancion "0..m" .. "1" Usuario
Tema "1" - - "1..m" TemaLibro

@enduml

PlantUML version 1.2022.7(Mon Aug 22 19:01:30 CEST 2022)
(GPL source distribution)
Java Runtime: OpenJDK Runtime Environment
JVM: OpenJDK 64-Bit Server VM
Default Encoding: Cp1252
Language: es
Country: ES
--></g></svg>