<?xml version="1.0" encoding="UTF-8" standalone="no"?><svg xmlns="http://www.w3.org/2000/svg" xmlns:xlink="http://www.w3.org/1999/xlink" contentStyleType="text/css" height="1377px" preserveAspectRatio="none" style="width:1020px;height:1377px;background:#FFFFFF;" version="1.1" viewBox="0 0 1020 1377" width="1020px" zoomAndPan="magnify"><defs/><g><rect fill="none" height="27.6094" id="_title" style="stroke:none;stroke-width:1.0;" width="283" x="361.99" y="5"/><text fill="#000000" font-family="sans-serif" font-size="14" font-weight="bold" lengthAdjust="spacing" textLength="273" x="366.99" y="24.5332">Diagrama de clases: Gestión Biblioteca</text><!--MD5=[a48731e35e4efcfa96e52c126b9a7dad]
class Libro--><g id="elem_Libro"><rect codeLine="4" fill="#F1F1F1" height="259.3125" id="Libro" rx="2.5" ry="2.5" style="stroke:#181818;stroke-width:0.5;" width="323" x="305.5" y="666.6094"/><ellipse cx="446.75" cy="682.6094" fill="#ADD1B2" rx="11" ry="11" style="stroke:#181818;stroke-width:1.0;"/><path d="M449.5156,678.4844 Q449.6719,678.2656 449.8594,678.1563 Q450.0469,678.0469 450.2656,678.0469 Q450.6406,678.0469 450.875,678.3125 Q451.1094,678.5625 451.1094,679.1719 L451.1094,680.625 Q451.1094,681.2344 450.875,681.5 Q450.6406,681.7656 450.2656,681.7656 Q449.9219,681.7656 449.7188,681.5625 Q449.5156,681.375 449.4063,680.8594 Q449.3594,680.5 449.1719,680.3125 Q448.8438,679.9375 448.2344,679.7188 Q447.625,679.5 447,679.5 Q446.2344,679.5 445.5938,679.8281 Q444.9688,680.1563 444.4688,680.9063 Q443.9844,681.6563 443.9844,682.6875 L443.9844,683.7813 Q443.9844,685.0156 444.875,685.8438 Q445.7656,686.6563 447.3594,686.6563 Q448.2969,686.6563 448.9531,686.4063 Q449.3438,686.25 449.7656,685.8125 Q450.0313,685.5469 450.1719,685.4688 Q450.3281,685.3906 450.5313,685.3906 Q450.8594,685.3906 451.1094,685.6563 Q451.375,685.9063 451.375,686.25 Q451.375,686.5938 451.0313,687 Q450.5313,687.5781 449.7344,687.9063 Q448.6563,688.3594 447.3594,688.3594 Q445.8438,688.3594 444.6406,687.7344 Q443.6563,687.2344 442.9688,686.1719 Q442.2813,685.0938 442.2813,683.8125 L442.2813,682.6563 Q442.2813,681.3281 442.8906,680.1875 Q443.5156,679.0313 444.6094,678.4219 Q445.7031,677.7969 446.9375,677.7969 Q447.6719,677.7969 448.3125,677.9688 Q448.9688,678.125 449.5156,678.4844 Z " fill="#000000"/><text fill="#000000" font-family="sans-serif" font-size="14" lengthAdjust="spacing" textLength="32" x="467.25" y="688.3379">Libro</text><line style="stroke:#181818;stroke-width:0.5;" x1="306.5" x2="627.5" y1="698.6094" y2="698.6094"/><text fill="#000000" font-family="sans-serif" font-size="14" lengthAdjust="spacing" textLength="101" x="311.5" y="717.1426">PK ISBN : String</text><text fill="#000000" font-family="sans-serif" font-size="14" lengthAdjust="spacing" textLength="140" x="311.5" y="734.752">FK idEditorial : Integer</text><text fill="#000000" font-family="sans-serif" font-size="14" lengthAdjust="spacing" textLength="79" x="311.5" y="752.3613">titulo : String</text><text fill="#000000" font-family="sans-serif" font-size="14" lengthAdjust="spacing" textLength="121" x="311.5" y="769.9707">descripcion : String</text><text fill="#000000" font-family="sans-serif" font-size="14" lengthAdjust="spacing" textLength="90" x="311.5" y="787.5801">idioma : String</text><text fill="#000000" font-family="sans-serif" font-size="14" lengthAdjust="spacing" textLength="122" x="311.5" y="805.1895">anioEdicion : String</text><text fill="#000000" font-family="sans-serif" font-size="14" lengthAdjust="spacing" textLength="149" x="311.5" y="822.7988">fechaPublicacion : Date</text><text fill="#000000" font-family="sans-serif" font-size="14" lengthAdjust="spacing" textLength="311" x="311.5" y="840.4082">encuadernacion : Enum {'tapaBlanda','tapaDura'}</text><text fill="#000000" font-family="sans-serif" font-size="14" lengthAdjust="spacing" textLength="134" x="311.5" y="858.0176">numPaginas : Integer</text><text fill="#000000" font-family="sans-serif" font-size="14" lengthAdjust="spacing" textLength="102" x="311.5" y="875.627">genero1 : String</text><text fill="#000000" font-family="sans-serif" font-size="14" lengthAdjust="spacing" textLength="102" x="311.5" y="893.2363">genero2 : String</text><text fill="#000000" font-family="sans-serif" font-size="14" lengthAdjust="spacing" textLength="114" x="311.5" y="910.8457">enStock : boolean</text><line style="stroke:#181818;stroke-width:0.5;" x1="306.5" x2="627.5" y1="917.9219" y2="917.9219"/></g><!--MD5=[f00b6c42b10351a516604b3f60238f93]
class AutorLibro--><g id="elem_AutorLibro"><rect codeLine="20" fill="#F1F1F1" height="83.2188" id="AutorLibro" rx="2.5" ry="2.5" style="stroke:#181818;stroke-width:0.5;" width="157" x="7.5" y="1012.1094"/><ellipse cx="49.05" cy="1028.1094" fill="#ADD1B2" rx="11" ry="11" style="stroke:#181818;stroke-width:1.0;"/><path d="M51.8156,1023.9844 Q51.9719,1023.7656 52.1594,1023.6563 Q52.3469,1023.5469 52.5656,1023.5469 Q52.9406,1023.5469 53.175,1023.8125 Q53.4094,1024.0625 53.4094,1024.6719 L53.4094,1026.125 Q53.4094,1026.7344 53.175,1027 Q52.9406,1027.2656 52.5656,1027.2656 Q52.2219,1027.2656 52.0188,1027.0625 Q51.8156,1026.875 51.7063,1026.3594 Q51.6594,1026 51.4719,1025.8125 Q51.1438,1025.4375 50.5344,1025.2188 Q49.925,1025 49.3,1025 Q48.5344,1025 47.8938,1025.3281 Q47.2688,1025.6563 46.7688,1026.4063 Q46.2844,1027.1563 46.2844,1028.1875 L46.2844,1029.2813 Q46.2844,1030.5156 47.175,1031.3438 Q48.0656,1032.1563 49.6594,1032.1563 Q50.5969,1032.1563 51.2531,1031.9063 Q51.6438,1031.75 52.0656,1031.3125 Q52.3313,1031.0469 52.4719,1030.9688 Q52.6281,1030.8906 52.8313,1030.8906 Q53.1594,1030.8906 53.4094,1031.1563 Q53.675,1031.4063 53.675,1031.75 Q53.675,1032.0938 53.3313,1032.5 Q52.8313,1033.0781 52.0344,1033.4063 Q50.9563,1033.8594 49.6594,1033.8594 Q48.1438,1033.8594 46.9406,1033.2344 Q45.9563,1032.7344 45.2688,1031.6719 Q44.5813,1030.5938 44.5813,1029.3125 L44.5813,1028.1563 Q44.5813,1026.8281 45.1906,1025.6875 Q45.8156,1024.5313 46.9094,1023.9219 Q48.0031,1023.2969 49.2375,1023.2969 Q49.9719,1023.2969 50.6125,1023.4688 Q51.2688,1023.625 51.8156,1023.9844 Z " fill="#000000"/><text fill="#000000" font-family="sans-serif" font-size="14" lengthAdjust="spacing" textLength="66" x="68.95" y="1033.8379">AutorLibro</text><line style="stroke:#181818;stroke-width:0.5;" x1="8.5" x2="163.5" y1="1044.1094" y2="1044.1094"/><text fill="#000000" font-family="sans-serif" font-size="14" lengthAdjust="spacing" textLength="145" x="13.5" y="1062.6426">PK FK idAutor : Integer</text><text fill="#000000" font-family="sans-serif" font-size="14" lengthAdjust="spacing" textLength="123" x="13.5" y="1080.252">PK FK ISBN : String</text><line style="stroke:#181818;stroke-width:0.5;" x1="8.5" x2="163.5" y1="1087.3281" y2="1087.3281"/></g><!--MD5=[7b7d686d3dc2c644927357cb508758fd]
class Autor--><g id="elem_Autor"><rect codeLine="25" fill="#F1F1F1" height="136.0469" id="Autor" rx="2.5" ry="2.5" style="stroke:#181818;stroke-width:0.5;" width="158" x="7" y="1208.1094"/><ellipse cx="64.75" cy="1224.1094" fill="#ADD1B2" rx="11" ry="11" style="stroke:#181818;stroke-width:1.0;"/><path d="M67.5156,1219.9844 Q67.6719,1219.7656 67.8594,1219.6563 Q68.0469,1219.5469 68.2656,1219.5469 Q68.6406,1219.5469 68.875,1219.8125 Q69.1094,1220.0625 69.1094,1220.6719 L69.1094,1222.125 Q69.1094,1222.7344 68.875,1223 Q68.6406,1223.2656 68.2656,1223.2656 Q67.9219,1223.2656 67.7188,1223.0625 Q67.5156,1222.875 67.4063,1222.3594 Q67.3594,1222 67.1719,1221.8125 Q66.8438,1221.4375 66.2344,1221.2188 Q65.625,1221 65,1221 Q64.2344,1221 63.5938,1221.3281 Q62.9688,1221.6563 62.4688,1222.4063 Q61.9844,1223.1563 61.9844,1224.1875 L61.9844,1225.2813 Q61.9844,1226.5156 62.875,1227.3438 Q63.7656,1228.1563 65.3594,1228.1563 Q66.2969,1228.1563 66.9531,1227.9063 Q67.3438,1227.75 67.7656,1227.3125 Q68.0313,1227.0469 68.1719,1226.9688 Q68.3281,1226.8906 68.5313,1226.8906 Q68.8594,1226.8906 69.1094,1227.1563 Q69.375,1227.4063 69.375,1227.75 Q69.375,1228.0938 69.0313,1228.5 Q68.5313,1229.0781 67.7344,1229.4063 Q66.6563,1229.8594 65.3594,1229.8594 Q63.8438,1229.8594 62.6406,1229.2344 Q61.6563,1228.7344 60.9688,1227.6719 Q60.2813,1226.5938 60.2813,1225.3125 L60.2813,1224.1563 Q60.2813,1222.8281 60.8906,1221.6875 Q61.5156,1220.5313 62.6094,1219.9219 Q63.7031,1219.2969 64.9375,1219.2969 Q65.6719,1219.2969 66.3125,1219.4688 Q66.9688,1219.625 67.5156,1219.9844 Z " fill="#000000"/><text fill="#000000" font-family="sans-serif" font-size="14" lengthAdjust="spacing" textLength="34" x="85.25" y="1229.8379">Autor</text><line style="stroke:#181818;stroke-width:0.5;" x1="8" x2="164" y1="1240.1094" y2="1240.1094"/><text fill="#000000" font-family="sans-serif" font-size="14" lengthAdjust="spacing" textLength="123" x="13" y="1258.6426">PK idAutor : Integer</text><text fill="#000000" font-family="sans-serif" font-size="14" lengthAdjust="spacing" textLength="97" x="13" y="1276.252">nombre : String</text><text fill="#000000" font-family="sans-serif" font-size="14" lengthAdjust="spacing" textLength="98" x="13" y="1293.8613">apellido : String</text><text fill="#000000" font-family="sans-serif" font-size="14" lengthAdjust="spacing" textLength="146" x="13" y="1311.4707">fechaNacimiento : Date</text><text fill="#000000" font-family="sans-serif" font-size="14" lengthAdjust="spacing" textLength="129" x="13" y="1329.0801">nacionalidad : String</text><line style="stroke:#181818;stroke-width:0.5;" x1="8" x2="164" y1="1336.1563" y2="1336.1563"/></g><!--MD5=[aca765d11dba0ab2015f343c6c3150c7]
class Editorial--><g id="elem_Editorial"><rect codeLine="33" fill="#F1F1F1" height="136.0469" id="Editorial" rx="2.5" ry="2.5" style="stroke:#181818;stroke-width:0.5;" width="152" x="200" y="985.6094"/><ellipse cx="246.25" cy="1001.6094" fill="#ADD1B2" rx="11" ry="11" style="stroke:#181818;stroke-width:1.0;"/><path d="M249.0156,997.4844 Q249.1719,997.2656 249.3594,997.1563 Q249.5469,997.0469 249.7656,997.0469 Q250.1406,997.0469 250.375,997.3125 Q250.6094,997.5625 250.6094,998.1719 L250.6094,999.625 Q250.6094,1000.2344 250.375,1000.5 Q250.1406,1000.7656 249.7656,1000.7656 Q249.4219,1000.7656 249.2188,1000.5625 Q249.0156,1000.375 248.9063,999.8594 Q248.8594,999.5 248.6719,999.3125 Q248.3438,998.9375 247.7344,998.7188 Q247.125,998.5 246.5,998.5 Q245.7344,998.5 245.0938,998.8281 Q244.4688,999.1563 243.9688,999.9063 Q243.4844,1000.6563 243.4844,1001.6875 L243.4844,1002.7813 Q243.4844,1004.0156 244.375,1004.8438 Q245.2656,1005.6563 246.8594,1005.6563 Q247.7969,1005.6563 248.4531,1005.4063 Q248.8438,1005.25 249.2656,1004.8125 Q249.5313,1004.5469 249.6719,1004.4688 Q249.8281,1004.3906 250.0313,1004.3906 Q250.3594,1004.3906 250.6094,1004.6563 Q250.875,1004.9063 250.875,1005.25 Q250.875,1005.5938 250.5313,1006 Q250.0313,1006.5781 249.2344,1006.9063 Q248.1563,1007.3594 246.8594,1007.3594 Q245.3438,1007.3594 244.1406,1006.7344 Q243.1563,1006.2344 242.4688,1005.1719 Q241.7813,1004.0938 241.7813,1002.8125 L241.7813,1001.6563 Q241.7813,1000.3281 242.3906,999.1875 Q243.0156,998.0313 244.1094,997.4219 Q245.2031,996.7969 246.4375,996.7969 Q247.1719,996.7969 247.8125,996.9688 Q248.4688,997.125 249.0156,997.4844 Z " fill="#000000"/><text fill="#000000" font-family="sans-serif" font-size="14" lengthAdjust="spacing" textLength="51" x="266.75" y="1007.3379">Editorial</text><line style="stroke:#181818;stroke-width:0.5;" x1="201" x2="351" y1="1017.6094" y2="1017.6094"/><text fill="#000000" font-family="sans-serif" font-size="14" lengthAdjust="spacing" textLength="140" x="206" y="1036.1426">PK idEditorial : Integer</text><text fill="#000000" font-family="sans-serif" font-size="14" lengthAdjust="spacing" textLength="97" x="206" y="1053.752">nombre : String</text><text fill="#000000" font-family="sans-serif" font-size="14" lengthAdjust="spacing" textLength="106" x="206" y="1071.3613">direccion : String</text><text fill="#000000" font-family="sans-serif" font-size="14" lengthAdjust="spacing" textLength="100" x="206" y="1088.9707">telefono : String</text><text fill="#000000" font-family="sans-serif" font-size="14" lengthAdjust="spacing" textLength="82" x="206" y="1106.5801">email : String</text><line style="stroke:#181818;stroke-width:0.5;" x1="201" x2="351" y1="1113.6563" y2="1113.6563"/></g><!--MD5=[67042f47e81121a34ac30dab3849e31d]
class TemaLibro--><g id="elem_TemaLibro"><rect codeLine="41" fill="#F1F1F1" height="83.2188" id="TemaLibro" rx="2.5" ry="2.5" style="stroke:#181818;stroke-width:0.5;" width="159" x="387.5" y="1012.1094"/><ellipse cx="429.05" cy="1028.1094" fill="#ADD1B2" rx="11" ry="11" style="stroke:#181818;stroke-width:1.0;"/><path d="M431.8156,1023.9844 Q431.9719,1023.7656 432.1594,1023.6563 Q432.3469,1023.5469 432.5656,1023.5469 Q432.9406,1023.5469 433.175,1023.8125 Q433.4094,1024.0625 433.4094,1024.6719 L433.4094,1026.125 Q433.4094,1026.7344 433.175,1027 Q432.9406,1027.2656 432.5656,1027.2656 Q432.2219,1027.2656 432.0188,1027.0625 Q431.8156,1026.875 431.7063,1026.3594 Q431.6594,1026 431.4719,1025.8125 Q431.1438,1025.4375 430.5344,1025.2188 Q429.925,1025 429.3,1025 Q428.5344,1025 427.8938,1025.3281 Q427.2688,1025.6563 426.7688,1026.4063 Q426.2844,1027.1563 426.2844,1028.1875 L426.2844,1029.2813 Q426.2844,1030.5156 427.175,1031.3438 Q428.0656,1032.1563 429.6594,1032.1563 Q430.5969,1032.1563 431.2531,1031.9063 Q431.6438,1031.75 432.0656,1031.3125 Q432.3313,1031.0469 432.4719,1030.9688 Q432.6281,1030.8906 432.8313,1030.8906 Q433.1594,1030.8906 433.4094,1031.1563 Q433.675,1031.4063 433.675,1031.75 Q433.675,1032.0938 433.3313,1032.5 Q432.8313,1033.0781 432.0344,1033.4063 Q430.9563,1033.8594 429.6594,1033.8594 Q428.1438,1033.8594 426.9406,1033.2344 Q425.9563,1032.7344 425.2688,1031.6719 Q424.5813,1030.5938 424.5813,1029.3125 L424.5813,1028.1563 Q424.5813,1026.8281 425.1906,1025.6875 Q425.8156,1024.5313 426.9094,1023.9219 Q428.0031,1023.2969 429.2375,1023.2969 Q429.9719,1023.2969 430.6125,1023.4688 Q431.2688,1023.625 431.8156,1023.9844 Z " fill="#000000"/><text fill="#000000" font-family="sans-serif" font-size="14" lengthAdjust="spacing" textLength="68" x="448.95" y="1033.8379">TemaLibro</text><line style="stroke:#181818;stroke-width:0.5;" x1="388.5" x2="545.5" y1="1044.1094" y2="1044.1094"/><text fill="#000000" font-family="sans-serif" font-size="14" lengthAdjust="spacing" textLength="147" x="393.5" y="1062.6426">PK FK idTema : Integer</text><text fill="#000000" font-family="sans-serif" font-size="14" lengthAdjust="spacing" textLength="123" x="393.5" y="1080.252">PK FK ISBN : String</text><line style="stroke:#181818;stroke-width:0.5;" x1="388.5" x2="545.5" y1="1087.3281" y2="1087.3281"/></g><!--MD5=[18ab19124e5135cc6da782070c6ff551]
class Tema--><g id="elem_Tema"><rect codeLine="46" fill="#F1F1F1" height="83.2188" id="Tema" rx="2.5" ry="2.5" style="stroke:#181818;stroke-width:0.5;" width="137" x="398.5" y="1234.6094"/><ellipse cx="444.75" cy="1250.6094" fill="#ADD1B2" rx="11" ry="11" style="stroke:#181818;stroke-width:1.0;"/><path d="M447.5156,1246.4844 Q447.6719,1246.2656 447.8594,1246.1563 Q448.0469,1246.0469 448.2656,1246.0469 Q448.6406,1246.0469 448.875,1246.3125 Q449.1094,1246.5625 449.1094,1247.1719 L449.1094,1248.625 Q449.1094,1249.2344 448.875,1249.5 Q448.6406,1249.7656 448.2656,1249.7656 Q447.9219,1249.7656 447.7188,1249.5625 Q447.5156,1249.375 447.4063,1248.8594 Q447.3594,1248.5 447.1719,1248.3125 Q446.8438,1247.9375 446.2344,1247.7188 Q445.625,1247.5 445,1247.5 Q444.2344,1247.5 443.5938,1247.8281 Q442.9688,1248.1563 442.4688,1248.9063 Q441.9844,1249.6563 441.9844,1250.6875 L441.9844,1251.7813 Q441.9844,1253.0156 442.875,1253.8438 Q443.7656,1254.6563 445.3594,1254.6563 Q446.2969,1254.6563 446.9531,1254.4063 Q447.3438,1254.25 447.7656,1253.8125 Q448.0313,1253.5469 448.1719,1253.4688 Q448.3281,1253.3906 448.5313,1253.3906 Q448.8594,1253.3906 449.1094,1253.6563 Q449.375,1253.9063 449.375,1254.25 Q449.375,1254.5938 449.0313,1255 Q448.5313,1255.5781 447.7344,1255.9063 Q446.6563,1256.3594 445.3594,1256.3594 Q443.8438,1256.3594 442.6406,1255.7344 Q441.6563,1255.2344 440.9688,1254.1719 Q440.2813,1253.0938 440.2813,1251.8125 L440.2813,1250.6563 Q440.2813,1249.3281 440.8906,1248.1875 Q441.5156,1247.0313 442.6094,1246.4219 Q443.7031,1245.7969 444.9375,1245.7969 Q445.6719,1245.7969 446.3125,1245.9688 Q446.9688,1246.125 447.5156,1246.4844 Z " fill="#000000"/><text fill="#000000" font-family="sans-serif" font-size="14" lengthAdjust="spacing" textLength="36" x="465.25" y="1256.3379">Tema</text><line style="stroke:#181818;stroke-width:0.5;" x1="399.5" x2="534.5" y1="1266.6094" y2="1266.6094"/><text fill="#000000" font-family="sans-serif" font-size="14" lengthAdjust="spacing" textLength="125" x="404.5" y="1285.1426">PK idTema : Integer</text><text fill="#000000" font-family="sans-serif" font-size="14" lengthAdjust="spacing" textLength="97" x="404.5" y="1302.752">nombre : String</text><line style="stroke:#181818;stroke-width:0.5;" x1="399.5" x2="534.5" y1="1309.8281" y2="1309.8281"/></g><!--MD5=[1e386a12b057c317c649c65d263c59e8]
class Bibliotecario--><g id="elem_Bibliotecario"><rect codeLine="51" fill="#F1F1F1" height="259.3125" id="Bibliotecario" rx="2.5" ry="2.5" style="stroke:#181818;stroke-width:0.5;" width="178" x="262" y="81.1094"/><ellipse cx="308.25" cy="97.1094" fill="#ADD1B2" rx="11" ry="11" style="stroke:#181818;stroke-width:1.0;"/><path d="M311.0156,92.9844 Q311.1719,92.7656 311.3594,92.6563 Q311.5469,92.5469 311.7656,92.5469 Q312.1406,92.5469 312.375,92.8125 Q312.6094,93.0625 312.6094,93.6719 L312.6094,95.125 Q312.6094,95.7344 312.375,96 Q312.1406,96.2656 311.7656,96.2656 Q311.4219,96.2656 311.2188,96.0625 Q311.0156,95.875 310.9063,95.3594 Q310.8594,95 310.6719,94.8125 Q310.3438,94.4375 309.7344,94.2188 Q309.125,94 308.5,94 Q307.7344,94 307.0938,94.3281 Q306.4688,94.6563 305.9688,95.4063 Q305.4844,96.1563 305.4844,97.1875 L305.4844,98.2813 Q305.4844,99.5156 306.375,100.3438 Q307.2656,101.1563 308.8594,101.1563 Q309.7969,101.1563 310.4531,100.9063 Q310.8438,100.75 311.2656,100.3125 Q311.5313,100.0469 311.6719,99.9688 Q311.8281,99.8906 312.0313,99.8906 Q312.3594,99.8906 312.6094,100.1563 Q312.875,100.4063 312.875,100.75 Q312.875,101.0938 312.5313,101.5 Q312.0313,102.0781 311.2344,102.4063 Q310.1563,102.8594 308.8594,102.8594 Q307.3438,102.8594 306.1406,102.2344 Q305.1563,101.7344 304.4688,100.6719 Q303.7813,99.5938 303.7813,98.3125 L303.7813,97.1563 Q303.7813,95.8281 304.3906,94.6875 Q305.0156,93.5313 306.1094,92.9219 Q307.2031,92.2969 308.4375,92.2969 Q309.1719,92.2969 309.8125,92.4688 Q310.4688,92.625 311.0156,92.9844 Z " fill="#000000"/><text fill="#000000" font-family="sans-serif" font-size="14" lengthAdjust="spacing" textLength="77" x="328.75" y="102.8379">Bibliotecario</text><line style="stroke:#181818;stroke-width:0.5;" x1="263" x2="439" y1="113.1094" y2="113.1094"/><text fill="#000000" font-family="sans-serif" font-size="14" lengthAdjust="spacing" textLength="166" x="268" y="131.6426">PK idBibliotecario : Integer</text><text fill="#000000" font-family="sans-serif" font-size="14" lengthAdjust="spacing" textLength="97" x="268" y="149.252">nombre : String</text><text fill="#000000" font-family="sans-serif" font-size="14" lengthAdjust="spacing" textLength="98" x="268" y="166.8613">apellido : String</text><text fill="#000000" font-family="sans-serif" font-size="14" lengthAdjust="spacing" textLength="146" x="268" y="184.4707">fechaNacimiento : Date</text><text fill="#000000" font-family="sans-serif" font-size="14" lengthAdjust="spacing" textLength="129" x="268" y="202.0801">nacionalidad : String</text><text fill="#000000" font-family="sans-serif" font-size="14" lengthAdjust="spacing" textLength="71" x="268" y="219.6895">DNI : String</text><text fill="#000000" font-family="sans-serif" font-size="14" lengthAdjust="spacing" textLength="78" x="268" y="237.2988">sexo : String</text><text fill="#000000" font-family="sans-serif" font-size="14" lengthAdjust="spacing" textLength="106" x="268" y="254.9082">direccion : String</text><text fill="#000000" font-family="sans-serif" font-size="14" lengthAdjust="spacing" textLength="100" x="268" y="272.5176">telefono : String</text><text fill="#000000" font-family="sans-serif" font-size="14" lengthAdjust="spacing" textLength="82" x="268" y="290.127">email : String</text><text fill="#000000" font-family="sans-serif" font-size="14" lengthAdjust="spacing" textLength="124" x="268" y="307.7363">fechaIngreso : Date</text><text fill="#000000" font-family="sans-serif" font-size="14" lengthAdjust="spacing" textLength="116" x="268" y="325.3457">fechaSalida : Date</text><line style="stroke:#181818;stroke-width:0.5;" x1="263" x2="439" y1="332.4219" y2="332.4219"/></g><!--MD5=[c17f487e025ad92df85d2d418a114f5e]
class Sancion--><g id="elem_Sancion"><rect codeLine="66" fill="#F1F1F1" height="171.2656" id="Sancion" rx="2.5" ry="2.5" style="stroke:#181818;stroke-width:0.5;" width="178" x="262" y="435.6094"/><ellipse cx="321.25" cy="451.6094" fill="#ADD1B2" rx="11" ry="11" style="stroke:#181818;stroke-width:1.0;"/><path d="M324.0156,447.4844 Q324.1719,447.2656 324.3594,447.1563 Q324.5469,447.0469 324.7656,447.0469 Q325.1406,447.0469 325.375,447.3125 Q325.6094,447.5625 325.6094,448.1719 L325.6094,449.625 Q325.6094,450.2344 325.375,450.5 Q325.1406,450.7656 324.7656,450.7656 Q324.4219,450.7656 324.2188,450.5625 Q324.0156,450.375 323.9063,449.8594 Q323.8594,449.5 323.6719,449.3125 Q323.3438,448.9375 322.7344,448.7188 Q322.125,448.5 321.5,448.5 Q320.7344,448.5 320.0938,448.8281 Q319.4688,449.1563 318.9688,449.9063 Q318.4844,450.6563 318.4844,451.6875 L318.4844,452.7813 Q318.4844,454.0156 319.375,454.8438 Q320.2656,455.6563 321.8594,455.6563 Q322.7969,455.6563 323.4531,455.4063 Q323.8438,455.25 324.2656,454.8125 Q324.5313,454.5469 324.6719,454.4688 Q324.8281,454.3906 325.0313,454.3906 Q325.3594,454.3906 325.6094,454.6563 Q325.875,454.9063 325.875,455.25 Q325.875,455.5938 325.5313,456 Q325.0313,456.5781 324.2344,456.9063 Q323.1563,457.3594 321.8594,457.3594 Q320.3438,457.3594 319.1406,456.7344 Q318.1563,456.2344 317.4688,455.1719 Q316.7813,454.0938 316.7813,452.8125 L316.7813,451.6563 Q316.7813,450.3281 317.3906,449.1875 Q318.0156,448.0313 319.1094,447.4219 Q320.2031,446.7969 321.4375,446.7969 Q322.1719,446.7969 322.8125,446.9688 Q323.4688,447.125 324.0156,447.4844 Z " fill="#000000"/><text fill="#000000" font-family="sans-serif" font-size="14" lengthAdjust="spacing" textLength="51" x="341.75" y="457.3379">Sancion</text><line style="stroke:#181818;stroke-width:0.5;" x1="263" x2="439" y1="467.6094" y2="467.6094"/><text fill="#000000" font-family="sans-serif" font-size="14" lengthAdjust="spacing" textLength="140" x="268" y="486.1426">PK idSancion : Integer</text><text fill="#000000" font-family="sans-serif" font-size="14" lengthAdjust="spacing" textLength="166" x="268" y="503.752">FK idBibliotecario : Integer</text><text fill="#000000" font-family="sans-serif" font-size="14" lengthAdjust="spacing" textLength="137" x="268" y="521.3613">FK idUsuario : Integer</text><text fill="#000000" font-family="sans-serif" font-size="14" lengthAdjust="spacing" textLength="109" x="268" y="538.9707">fechaInicio : Date</text><text fill="#000000" font-family="sans-serif" font-size="14" lengthAdjust="spacing" textLength="97" x="268" y="556.5801">fechaFin : Date</text><text fill="#000000" font-family="sans-serif" font-size="14" lengthAdjust="spacing" textLength="90" x="268" y="574.1895">motivo : String</text><text fill="#000000" font-family="sans-serif" font-size="14" lengthAdjust="spacing" textLength="121" x="268" y="591.7988">descripcion : String</text><line style="stroke:#181818;stroke-width:0.5;" x1="263" x2="439" y1="598.875" y2="598.875"/></g><!--MD5=[99902813f7e5ab27d9f5f5589b313333]
class PeticionLibro--><g id="elem_PeticionLibro"><rect codeLine="76" fill="#F1F1F1" height="171.2656" id="PeticionLibro" rx="2.5" ry="2.5" style="stroke:#181818;stroke-width:0.5;" width="331" x="475.5" y="435.6094"/><ellipse cx="595.75" cy="451.6094" fill="#ADD1B2" rx="11" ry="11" style="stroke:#181818;stroke-width:1.0;"/><path d="M598.5156,447.4844 Q598.6719,447.2656 598.8594,447.1563 Q599.0469,447.0469 599.2656,447.0469 Q599.6406,447.0469 599.875,447.3125 Q600.1094,447.5625 600.1094,448.1719 L600.1094,449.625 Q600.1094,450.2344 599.875,450.5 Q599.6406,450.7656 599.2656,450.7656 Q598.9219,450.7656 598.7188,450.5625 Q598.5156,450.375 598.4063,449.8594 Q598.3594,449.5 598.1719,449.3125 Q597.8438,448.9375 597.2344,448.7188 Q596.625,448.5 596,448.5 Q595.2344,448.5 594.5938,448.8281 Q593.9688,449.1563 593.4688,449.9063 Q592.9844,450.6563 592.9844,451.6875 L592.9844,452.7813 Q592.9844,454.0156 593.875,454.8438 Q594.7656,455.6563 596.3594,455.6563 Q597.2969,455.6563 597.9531,455.4063 Q598.3438,455.25 598.7656,454.8125 Q599.0313,454.5469 599.1719,454.4688 Q599.3281,454.3906 599.5313,454.3906 Q599.8594,454.3906 600.1094,454.6563 Q600.375,454.9063 600.375,455.25 Q600.375,455.5938 600.0313,456 Q599.5313,456.5781 598.7344,456.9063 Q597.6563,457.3594 596.3594,457.3594 Q594.8438,457.3594 593.6406,456.7344 Q592.6563,456.2344 591.9688,455.1719 Q591.2813,454.0938 591.2813,452.8125 L591.2813,451.6563 Q591.2813,450.3281 591.8906,449.1875 Q592.5156,448.0313 593.6094,447.4219 Q594.7031,446.7969 595.9375,446.7969 Q596.6719,446.7969 597.3125,446.9688 Q597.9688,447.125 598.5156,447.4844 Z " fill="#000000"/><text fill="#000000" font-family="sans-serif" font-size="14" lengthAdjust="spacing" textLength="82" x="616.25" y="457.3379">PeticionLibro</text><line style="stroke:#181818;stroke-width:0.5;" x1="476.5" x2="805.5" y1="467.6094" y2="467.6094"/><text fill="#000000" font-family="sans-serif" font-size="14" lengthAdjust="spacing" textLength="171" x="481.5" y="486.1426">PK idPeticionLibro : Integer</text><text fill="#000000" font-family="sans-serif" font-size="14" lengthAdjust="spacing" textLength="137" x="481.5" y="503.752">FK idUsuario : Integer</text><text fill="#000000" font-family="sans-serif" font-size="14" lengthAdjust="spacing" textLength="101" x="481.5" y="521.3613">FK ISBN : String</text><text fill="#000000" font-family="sans-serif" font-size="14" lengthAdjust="spacing" textLength="155" x="481.5" y="538.9707">ISBNLibroPedido : String</text><text fill="#000000" font-family="sans-serif" font-size="14" lengthAdjust="spacing" textLength="127" x="481.5" y="556.5801">fechaPeticion : Date</text><text fill="#000000" font-family="sans-serif" font-size="14" lengthAdjust="spacing" textLength="127" x="481.5" y="574.1895">fechaEntrega : Date</text><text fill="#000000" font-family="sans-serif" font-size="14" lengthAdjust="spacing" textLength="319" x="481.5" y="591.7988">estado : Enum {'pendiente','aceptada','rechazada'}</text><line style="stroke:#181818;stroke-width:0.5;" x1="476.5" x2="805.5" y1="598.875" y2="598.875"/></g><!--MD5=[35a64b983c79880384a2fd9b61f0c24b]
class Usuario--><g id="elem_Usuario"><rect codeLine="87" fill="#F1F1F1" height="329.75" id="Usuario" rx="2.5" ry="2.5" style="stroke:#181818;stroke-width:0.5;" width="162" x="560" y="45.6094"/><ellipse cx="612.75" cy="61.6094" fill="#ADD1B2" rx="11" ry="11" style="stroke:#181818;stroke-width:1.0;"/><path d="M615.5156,57.4844 Q615.6719,57.2656 615.8594,57.1563 Q616.0469,57.0469 616.2656,57.0469 Q616.6406,57.0469 616.875,57.3125 Q617.1094,57.5625 617.1094,58.1719 L617.1094,59.625 Q617.1094,60.2344 616.875,60.5 Q616.6406,60.7656 616.2656,60.7656 Q615.9219,60.7656 615.7188,60.5625 Q615.5156,60.375 615.4063,59.8594 Q615.3594,59.5 615.1719,59.3125 Q614.8438,58.9375 614.2344,58.7188 Q613.625,58.5 613,58.5 Q612.2344,58.5 611.5938,58.8281 Q610.9688,59.1563 610.4688,59.9063 Q609.9844,60.6563 609.9844,61.6875 L609.9844,62.7813 Q609.9844,64.0156 610.875,64.8438 Q611.7656,65.6563 613.3594,65.6563 Q614.2969,65.6563 614.9531,65.4063 Q615.3438,65.25 615.7656,64.8125 Q616.0313,64.5469 616.1719,64.4688 Q616.3281,64.3906 616.5313,64.3906 Q616.8594,64.3906 617.1094,64.6563 Q617.375,64.9063 617.375,65.25 Q617.375,65.5938 617.0313,66 Q616.5313,66.5781 615.7344,66.9063 Q614.6563,67.3594 613.3594,67.3594 Q611.8438,67.3594 610.6406,66.7344 Q609.6563,66.2344 608.9688,65.1719 Q608.2813,64.0938 608.2813,62.8125 L608.2813,61.6563 Q608.2813,60.3281 608.8906,59.1875 Q609.5156,58.0313 610.6094,57.4219 Q611.7031,56.7969 612.9375,56.7969 Q613.6719,56.7969 614.3125,56.9688 Q614.9688,57.125 615.5156,57.4844 Z " fill="#000000"/><text fill="#000000" font-family="sans-serif" font-size="14" lengthAdjust="spacing" textLength="48" x="633.25" y="67.3379">Usuario</text><line style="stroke:#181818;stroke-width:0.5;" x1="561" x2="721" y1="77.6094" y2="77.6094"/><text fill="#000000" font-family="sans-serif" font-size="14" lengthAdjust="spacing" textLength="137" x="566" y="96.1426">PK idUsuario : Integer</text><text fill="#000000" font-family="sans-serif" font-size="14" lengthAdjust="spacing" textLength="97" x="566" y="113.752">nombre : String</text><text fill="#000000" font-family="sans-serif" font-size="14" lengthAdjust="spacing" textLength="98" x="566" y="131.3613">apellido : String</text><text fill="#000000" font-family="sans-serif" font-size="14" lengthAdjust="spacing" textLength="146" x="566" y="148.9707">fechaNacimiento : Date</text><text fill="#000000" font-family="sans-serif" font-size="14" lengthAdjust="spacing" textLength="129" x="566" y="166.5801">nacionalidad : String</text><text fill="#000000" font-family="sans-serif" font-size="14" lengthAdjust="spacing" textLength="71" x="566" y="184.1895">DNI : String</text><text fill="#000000" font-family="sans-serif" font-size="14" lengthAdjust="spacing" textLength="78" x="566" y="201.7988">sexo : String</text><text fill="#000000" font-family="sans-serif" font-size="14" lengthAdjust="spacing" textLength="106" x="566" y="219.4082">direccion : String</text><text fill="#000000" font-family="sans-serif" font-size="14" lengthAdjust="spacing" textLength="100" x="566" y="237.0176">telefono : String</text><text fill="#000000" font-family="sans-serif" font-size="14" lengthAdjust="spacing" textLength="82" x="566" y="254.627">email : String</text><text fill="#000000" font-family="sans-serif" font-size="14" lengthAdjust="spacing" textLength="124" x="566" y="272.2363">fechaIngreso : Date</text><text fill="#000000" font-family="sans-serif" font-size="14" lengthAdjust="spacing" textLength="116" x="566" y="289.8457">fechaSalida : Date</text><text fill="#000000" font-family="sans-serif" font-size="14" lengthAdjust="spacing" textLength="150" x="566" y="307.4551">numPrestamos : Integer</text><text fill="#000000" font-family="sans-serif" font-size="14" lengthAdjust="spacing" textLength="148" x="566" y="325.0645">numPeticiones : Integer</text><text fill="#000000" font-family="sans-serif" font-size="14" lengthAdjust="spacing" textLength="149" x="566" y="342.6738">numSanciones : Integer</text><text fill="#000000" font-family="sans-serif" font-size="14" lengthAdjust="spacing" textLength="143" x="566" y="360.2832">numReservas : Integer</text><line style="stroke:#181818;stroke-width:0.5;" x1="561" x2="721" y1="367.3594" y2="367.3594"/></g><!--MD5=[ab0fb6cae97cb00cf31871661635cac7]
class Ejemplar--><g id="elem_Ejemplar"><rect codeLine="106" fill="#F1F1F1" height="136.0469" id="Ejemplar" rx="2.5" ry="2.5" style="stroke:#181818;stroke-width:0.5;" width="399" x="581.5" y="985.6094"/><ellipse cx="749.25" cy="1001.6094" fill="#ADD1B2" rx="11" ry="11" style="stroke:#181818;stroke-width:1.0;"/><path d="M752.0156,997.4844 Q752.1719,997.2656 752.3594,997.1563 Q752.5469,997.0469 752.7656,997.0469 Q753.1406,997.0469 753.375,997.3125 Q753.6094,997.5625 753.6094,998.1719 L753.6094,999.625 Q753.6094,1000.2344 753.375,1000.5 Q753.1406,1000.7656 752.7656,1000.7656 Q752.4219,1000.7656 752.2188,1000.5625 Q752.0156,1000.375 751.9063,999.8594 Q751.8594,999.5 751.6719,999.3125 Q751.3438,998.9375 750.7344,998.7188 Q750.125,998.5 749.5,998.5 Q748.7344,998.5 748.0938,998.8281 Q747.4688,999.1563 746.9688,999.9063 Q746.4844,1000.6563 746.4844,1001.6875 L746.4844,1002.7813 Q746.4844,1004.0156 747.375,1004.8438 Q748.2656,1005.6563 749.8594,1005.6563 Q750.7969,1005.6563 751.4531,1005.4063 Q751.8438,1005.25 752.2656,1004.8125 Q752.5313,1004.5469 752.6719,1004.4688 Q752.8281,1004.3906 753.0313,1004.3906 Q753.3594,1004.3906 753.6094,1004.6563 Q753.875,1004.9063 753.875,1005.25 Q753.875,1005.5938 753.5313,1006 Q753.0313,1006.5781 752.2344,1006.9063 Q751.1563,1007.3594 749.8594,1007.3594 Q748.3438,1007.3594 747.1406,1006.7344 Q746.1563,1006.2344 745.4688,1005.1719 Q744.7813,1004.0938 744.7813,1002.8125 L744.7813,1001.6563 Q744.7813,1000.3281 745.3906,999.1875 Q746.0156,998.0313 747.1094,997.4219 Q748.2031,996.7969 749.4375,996.7969 Q750.1719,996.7969 750.8125,996.9688 Q751.4688,997.125 752.0156,997.4844 Z " fill="#000000"/><text fill="#000000" font-family="sans-serif" font-size="14" lengthAdjust="spacing" textLength="55" x="769.75" y="1007.3379">Ejemplar</text><line style="stroke:#181818;stroke-width:0.5;" x1="582.5" x2="979.5" y1="1017.6094" y2="1017.6094"/><text fill="#000000" font-family="sans-serif" font-size="14" lengthAdjust="spacing" textLength="144" x="587.5" y="1036.1426">PK idEjemplar : Integer</text><text fill="#000000" font-family="sans-serif" font-size="14" lengthAdjust="spacing" textLength="101" x="587.5" y="1053.752">FK ISBN : String</text><text fill="#000000" font-family="sans-serif" font-size="14" lengthAdjust="spacing" textLength="387" x="587.5" y="1071.3613">estado : Enum {'muyMalo','malo','normal','bueno','muyBueno'}</text><text fill="#000000" font-family="sans-serif" font-size="14" lengthAdjust="spacing" textLength="114" x="587.5" y="1088.9707">enStock : boolean</text><text fill="#000000" font-family="sans-serif" font-size="14" lengthAdjust="spacing" textLength="210" x="587.5" y="1106.5801">disponibleParaReserva : boolean</text><line style="stroke:#181818;stroke-width:0.5;" x1="582.5" x2="979.5" y1="1113.6563" y2="1113.6563"/></g><!--MD5=[6ea9d6598d9760662639554c9857ab6b]
class Reserva--><g id="elem_Reserva"><rect codeLine="114" fill="#F1F1F1" height="188.875" id="Reserva" rx="2.5" ry="2.5" style="stroke:#181818;stroke-width:0.5;" width="204" x="805" y="1181.6094"/><ellipse cx="876.25" cy="1197.6094" fill="#ADD1B2" rx="11" ry="11" style="stroke:#181818;stroke-width:1.0;"/><path d="M879.0156,1193.4844 Q879.1719,1193.2656 879.3594,1193.1563 Q879.5469,1193.0469 879.7656,1193.0469 Q880.1406,1193.0469 880.375,1193.3125 Q880.6094,1193.5625 880.6094,1194.1719 L880.6094,1195.625 Q880.6094,1196.2344 880.375,1196.5 Q880.1406,1196.7656 879.7656,1196.7656 Q879.4219,1196.7656 879.2188,1196.5625 Q879.0156,1196.375 878.9063,1195.8594 Q878.8594,1195.5 878.6719,1195.3125 Q878.3438,1194.9375 877.7344,1194.7188 Q877.125,1194.5 876.5,1194.5 Q875.7344,1194.5 875.0938,1194.8281 Q874.4688,1195.1563 873.9688,1195.9063 Q873.4844,1196.6563 873.4844,1197.6875 L873.4844,1198.7813 Q873.4844,1200.0156 874.375,1200.8438 Q875.2656,1201.6563 876.8594,1201.6563 Q877.7969,1201.6563 878.4531,1201.4063 Q878.8438,1201.25 879.2656,1200.8125 Q879.5313,1200.5469 879.6719,1200.4688 Q879.8281,1200.3906 880.0313,1200.3906 Q880.3594,1200.3906 880.6094,1200.6563 Q880.875,1200.9063 880.875,1201.25 Q880.875,1201.5938 880.5313,1202 Q880.0313,1202.5781 879.2344,1202.9063 Q878.1563,1203.3594 876.8594,1203.3594 Q875.3438,1203.3594 874.1406,1202.7344 Q873.1563,1202.2344 872.4688,1201.1719 Q871.7813,1200.0938 871.7813,1198.8125 L871.7813,1197.6563 Q871.7813,1196.3281 872.3906,1195.1875 Q873.0156,1194.0313 874.1094,1193.4219 Q875.2031,1192.7969 876.4375,1192.7969 Q877.1719,1192.7969 877.8125,1192.9688 Q878.4688,1193.125 879.0156,1193.4844 Z " fill="#000000"/><text fill="#000000" font-family="sans-serif" font-size="14" lengthAdjust="spacing" textLength="53" x="896.75" y="1203.3379">Reserva</text><line style="stroke:#181818;stroke-width:0.5;" x1="806" x2="1008" y1="1213.6094" y2="1213.6094"/><text fill="#000000" font-family="sans-serif" font-size="14" lengthAdjust="spacing" textLength="142" x="811" y="1232.1426">PK idReserva : Integer</text><text fill="#000000" font-family="sans-serif" font-size="14" lengthAdjust="spacing" textLength="137" x="811" y="1249.752">FK idUsuario : Integer</text><text fill="#000000" font-family="sans-serif" font-size="14" lengthAdjust="spacing" textLength="144" x="811" y="1267.3613">FK idEjemplar : Integer</text><text fill="#000000" font-family="sans-serif" font-size="14" lengthAdjust="spacing" textLength="165" x="811" y="1284.9707">fechaHoraInicio : Datetime</text><text fill="#000000" font-family="sans-serif" font-size="14" lengthAdjust="spacing" textLength="153" x="811" y="1302.5801">fechaHoraFin : Datetime</text><text fill="#000000" font-family="sans-serif" font-size="14" lengthAdjust="spacing" textLength="173" x="811" y="1320.1895">fechaDevolucion : Datetime</text><text fill="#000000" font-family="sans-serif" font-size="14" lengthAdjust="spacing" textLength="166" x="811" y="1337.7988">ejemplarPerdido : boolean</text><text fill="#000000" font-family="sans-serif" font-size="14" lengthAdjust="spacing" textLength="192" x="811" y="1355.4082">ejemplarDeteriorado : boolean</text><line style="stroke:#181818;stroke-width:0.5;" x1="806" x2="1008" y1="1362.4844" y2="1362.4844"/></g><!--MD5=[8fcb2c944945e70879d41cbc6bb765e9]
link Libro to AutorLibro--><g id="link_Libro_AutorLibro"><path codeLine="126" d="M305.2,903.7594 C265.17,930.3494 222.45,958.8994 183,985.6094 C170.46,994.0994 157.06,1003.2794 144.35,1012.0394 " fill="none" id="Libro-AutorLibro" style="stroke:#181818;stroke-width:1.0;"/><text fill="#000000" font-family="sans-serif" font-size="13" lengthAdjust="spacing" textLength="7" x="290.7098" y="905.7708">1</text><text fill="#000000" font-family="sans-serif" font-size="13" lengthAdjust="spacing" textLength="26" x="125.8611" y="1001.3355">1..m</text></g><!--MD5=[1a38a0e266e9eee198935dfbcfcdd148]
link Libro to TemaLibro--><g id="link_Libro_TemaLibro"><path codeLine="127" d="M467,925.9794 C467,957.2394 467,988.3994 467,1011.9894 " fill="none" id="Libro-TemaLibro" style="stroke:#181818;stroke-width:1.0;"/><text fill="#000000" font-family="sans-serif" font-size="13" lengthAdjust="spacing" textLength="7" x="459.7977" y="947.4462">1</text><text fill="#000000" font-family="sans-serif" font-size="13" lengthAdjust="spacing" textLength="26" x="438.8469" y="1001.2772">1..m</text></g><!--MD5=[39f8ebe90651351cbaf1b83d386e1abe]
link Libro to Ejemplar--><g id="link_Libro_Ejemplar"><path codeLine="128" d="M625.38,925.9794 C650.68,946.5694 675.93,967.1194 698.51,985.4894 " fill="none" id="Libro-Ejemplar" style="stroke:#181818;stroke-width:1.0;stroke-dasharray:7.0,7.0;"/><text fill="#000000" font-family="sans-serif" font-size="13" lengthAdjust="spacing" textLength="7" x="627.334" y="947.4462">1</text><text fill="#000000" font-family="sans-serif" font-size="13" lengthAdjust="spacing" textLength="26" x="662.0658" y="974.6755">1..m</text></g><!--MD5=[58d7962a749f8ce6e750f8a5ba9226c8]
link Libro to Editorial--><g id="link_Libro_Editorial"><path codeLine="129" d="M370.66,925.9794 C355.27,946.5694 339.91,967.1194 326.18,985.4894 " fill="none" id="Libro-Editorial" style="stroke:#181818;stroke-width:1.0;stroke-dasharray:7.0,7.0;"/><text fill="#000000" font-family="sans-serif" font-size="13" lengthAdjust="spacing" textLength="26" x="338.3388" y="947.4462">1..m</text><text fill="#000000" font-family="sans-serif" font-size="13" lengthAdjust="spacing" textLength="7" x="324.2856" y="974.6755">1</text></g><!--MD5=[581cec64bba9a7493b4d4f3b44a82482]
link AutorLibro to Autor--><g id="link_AutorLibro_Autor"><path codeLine="130" d="M86,1095.3094 C86,1126.7894 86,1171.0594 86,1207.7994 " fill="none" id="AutorLibro-Autor" style="stroke:#181818;stroke-width:1.0;"/><text fill="#000000" font-family="sans-serif" font-size="13" lengthAdjust="spacing" textLength="26" x="57.9281" y="1116.736">1..m</text><text fill="#000000" font-family="sans-serif" font-size="13" lengthAdjust="spacing" textLength="7" x="78.6391" y="1197.4407">1</text></g><!--MD5=[d58fe2366180ac9f3b374dc72461dd14]
link TemaLibro to Tema--><g id="link_TemaLibro_Tema"><path codeLine="131" d="M467,1095.3094 C467,1134.8794 467,1194.6594 467,1234.2694 " fill="none" id="TemaLibro-Tema" style="stroke:#181818;stroke-width:1.0;"/><text fill="#000000" font-family="sans-serif" font-size="13" lengthAdjust="spacing" textLength="26" x="438.9281" y="1116.736">1..m</text><text fill="#000000" font-family="sans-serif" font-size="13" lengthAdjust="spacing" textLength="7" x="459.4422" y="1223.8318">1</text></g><!--MD5=[cfa4d0b9428c616a6f8381e7bffdf7db]
link Bibliotecario to Sancion--><g id="link_Bibliotecario_Sancion"><path codeLine="132" d="M351,340.2094 C351,372.2794 351,405.8794 351,435.2394 " fill="none" id="Bibliotecario-Sancion" style="stroke:#181818;stroke-width:1.0;stroke-dasharray:7.0,7.0;"/><text fill="#000000" font-family="sans-serif" font-size="13" lengthAdjust="spacing" textLength="7" x="343.7867" y="362.0907">1</text><text fill="#000000" font-family="sans-serif" font-size="13" lengthAdjust="spacing" textLength="26" x="323.8828" y="424.6712">0..m</text></g><!--MD5=[b82d93d81f2eed9c71254773813eb2cb]
link PeticionLibro to Libro--><g id="link_PeticionLibro_Libro"><path codeLine="133" d="M587.14,606.6194 C575.06,625.5694 561.98,646.0894 549.05,666.3794 " fill="none" id="PeticionLibro-Libro" style="stroke:#181818;stroke-width:1.0;stroke-dasharray:7.0,7.0;"/><text fill="#000000" font-family="sans-serif" font-size="13" lengthAdjust="spacing" textLength="26" x="555.1853" y="628.4466">0..m</text><text fill="#000000" font-family="sans-serif" font-size="13" lengthAdjust="spacing" textLength="22" x="531.1576" y="655.9131">0..1</text></g><!--MD5=[305224bee745c72ebd7ed52cb75a9b15]
link Usuario to Sancion--><g id="link_Usuario_Sancion"><path codeLine="134" d="M559.83,297.9494 C519.45,340.9094 470.81,392.6494 430.64,435.3894 " fill="none" id="Usuario-Sancion" style="stroke:#181818;stroke-width:1.0;stroke-dasharray:7.0,7.0;"/><text fill="#000000" font-family="sans-serif" font-size="13" lengthAdjust="spacing" textLength="7" x="545.0245" y="302.7864">1</text><text fill="#000000" font-family="sans-serif" font-size="13" lengthAdjust="spacing" textLength="26" x="410.3669" y="424.8341">0..m</text></g><!--MD5=[563ba1f22137343d290c7011f2652958]
link Usuario to PeticionLibro--><g id="link_Usuario_PeticionLibro"><path codeLine="135" d="M641,375.7994 C641,396.3694 641,416.7094 641,435.3394 " fill="none" id="Usuario-PeticionLibro" style="stroke:#181818;stroke-width:1.0;stroke-dasharray:7.0,7.0;"/><text fill="#000000" font-family="sans-serif" font-size="13" lengthAdjust="spacing" textLength="7" x="633.8523" y="396.6136">1</text><text fill="#000000" font-family="sans-serif" font-size="13" lengthAdjust="spacing" textLength="26" x="613.8828" y="424.7798">0..m</text></g><!--MD5=[84627f1a52dfab515852533914759f64]
link Usuario to Reserva--><g id="link_Usuario_Reserva"><path codeLine="136" d="M722.09,295.1694 C757.33,335.1094 796.71,385.1394 824,435.6094 C945.95,661.1394 958.88,732.2294 998,985.6094 C1007.22,1045.3494 1013.98,1063.3194 998,1121.6094 C992.43,1141.9294 983.4,1162.2794 973.14,1181.2194 " fill="none" id="Usuario-Reserva" style="stroke:#181818;stroke-width:1.0;stroke-dasharray:7.0,7.0;"/><text fill="#000000" font-family="sans-serif" font-size="13" lengthAdjust="spacing" textLength="7" x="729.8881" y="299.7501">1</text><text fill="#000000" font-family="sans-serif" font-size="13" lengthAdjust="spacing" textLength="22" x="955.3617" y="1170.8552">0..1</text></g><!--MD5=[a5006039154c525aecd6bab670dc1db7]
link Ejemplar to Reserva--><g id="link_Ejemplar_Reserva"><path codeLine="137" d="M819.32,1121.6694 C830.11,1140.5394 842.04,1161.4294 853.54,1181.5594 " fill="none" id="Ejemplar-Reserva" style="stroke:#181818;stroke-width:1.0;stroke-dasharray:7.0,7.0;"/><text fill="#000000" font-family="sans-serif" font-size="13" lengthAdjust="spacing" textLength="7" x="815.9108" y="1143.0239">1</text><text fill="#000000" font-family="sans-serif" font-size="13" lengthAdjust="spacing" textLength="26" x="822.244" y="1170.9015">0..m</text></g><!--MD5=[b5985d0f8052dff84e0ea808be3311af]
@startuml gestion_biblioteca

title Diagrama de clases: Gestión Biblioteca

Class Libro {
 PK ISBN : String
 FK idEditorial : Integer
 titulo : String
 descripcion : String
 idioma : String
 anioEdicion : String
 fechaPublicacion : Date
 encuadernacion : Enum {'tapaBlanda','tapaDura'} 
 numPaginas : Integer
 genero1 : String
 genero2 : String
 enStock : boolean  
    
}

Class AutorLibro {
    PK FK idAutor : Integer
    PK FK ISBN : String
}

Class Autor {
    PK idAutor : Integer
    nombre : String
    apellido : String
    fechaNacimiento : Date
    nacionalidad : String
}

Class Editorial {
    PK idEditorial : Integer
    nombre : String
    direccion : String
    telefono : String
    email : String
}

Class TemaLibro {
    PK FK idTema : Integer
    PK FK ISBN : String
}

Class Tema {
    PK idTema : Integer
    nombre : String
}

Class Bibliotecario {
    PK idBibliotecario : Integer
    nombre : String
    apellido : String
    fechaNacimiento : Date
    nacionalidad : String
    DNI : String
    sexo : String
    direccion : String
    telefono : String
    email : String
    fechaIngreso : Date
    fechaSalida : Date
}

Class Sancion {
    PK idSancion : Integer
    FK idBibliotecario : Integer
    FK idUsuario : Integer
    fechaInicio : Date
    fechaFin : Date
    motivo : String
    descripcion : String
}

Class PeticionLibro {
    PK idPeticionLibro : Integer
    FK idUsuario : Integer
    FK ISBN : String
    ISBNLibroPedido : String
    fechaPeticion : Date
    fechaEntrega : Date
    estado : Enum {'pendiente','aceptada','rechazada'}
    
}

Class Usuario {
    PK idUsuario : Integer
    nombre : String
    apellido : String
    fechaNacimiento : Date
    nacionalidad : String
    DNI : String
    sexo : String
    direccion : String
    telefono : String
    email : String
    fechaIngreso : Date
    fechaSalida : Date
    numPrestamos : Integer
    numPeticiones : Integer
    numSanciones : Integer
    numReservas : Integer
}

Class Ejemplar {
    PK idEjemplar : Integer
    FK ISBN : String
    estado : Enum {'muyMalo','malo','normal','bueno','muyBueno'}
    enStock : boolean
    disponibleParaReserva : boolean
}

Class Reserva {
    PK idReserva : Integer
    FK idUsuario : Integer
    FK idEjemplar : Integer
    fechaHoraInicio : Datetime
    fechaHoraFin : Datetime
    fechaDevolucion : Datetime
    ejemplarPerdido : boolean
    ejemplarDeteriorado : boolean
    
}

Libro "1" - - "1..m" AutorLibro
Libro "1" - - "1..m" TemaLibro
Libro "1" .. "1..m" Ejemplar
Libro "1..m" .. "1" Editorial
AutorLibro "1..m" - - "1" Autor
TemaLibro "1..m" - - "1" Tema
Bibliotecario "1" .. "0..m" Sancion
PeticionLibro "0..m" .. "0..1" Libro
Usuario "1" .. "0..m" Sancion
Usuario "1" .. "0..m" PeticionLibro
Usuario "1" .. "0..1" Reserva
Ejemplar "1" .. "0..m" Reserva

@enduml

PlantUML version 1.2022.7(Mon Aug 22 19:01:30 CEST 2022)
(GPL source distribution)
Java Runtime: OpenJDK Runtime Environment
JVM: OpenJDK 64-Bit Server VM
Default Encoding: Cp1252
Language: es
Country: ES
--></g></svg>