<?xml version="1.0" encoding="UTF-8" standalone="no"?><svg xmlns="http://www.w3.org/2000/svg" xmlns:xlink="http://www.w3.org/1999/xlink" contentStyleType="text/css" height="633px" preserveAspectRatio="none" style="width:3336px;height:633px;background:#FFFFFF;" version="1.1" viewBox="0 0 3336 633" width="3336px" zoomAndPan="magnify"><defs/><g><rect fill="none" height="27.6094" id="_title" style="stroke:none;stroke-width:1.0;" width="195" x="1563.5" y="5"/><text fill="#000000" font-family="sans-serif" font-size="14" font-weight="bold" lengthAdjust="spacing" textLength="185" x="1568.5" y="24.5332">Diagrama de clases: Portal</text><!--MD5=[1a3dc127efa2a1b41eddeff88fc61b7e]
class AvisoInformativo--><g id="elem_AvisoInformativo"><rect codeLine="4" fill="#F1F1F1" height="153.6563" id="AvisoInformativo" rx="2.5" ry="2.5" style="stroke:#181818;stroke-width:0.5;" width="324" x="14" y="472.6094"/><ellipse cx="120.25" cy="488.6094" fill="#ADD1B2" rx="11" ry="11" style="stroke:#181818;stroke-width:1.0;"/><path d="M123.0156,484.4844 Q123.1719,484.2656 123.3594,484.1563 Q123.5469,484.0469 123.7656,484.0469 Q124.1406,484.0469 124.375,484.3125 Q124.6094,484.5625 124.6094,485.1719 L124.6094,486.625 Q124.6094,487.2344 124.375,487.5 Q124.1406,487.7656 123.7656,487.7656 Q123.4219,487.7656 123.2188,487.5625 Q123.0156,487.375 122.9063,486.8594 Q122.8594,486.5 122.6719,486.3125 Q122.3438,485.9375 121.7344,485.7188 Q121.125,485.5 120.5,485.5 Q119.7344,485.5 119.0938,485.8281 Q118.4688,486.1563 117.9688,486.9063 Q117.4844,487.6563 117.4844,488.6875 L117.4844,489.7813 Q117.4844,491.0156 118.375,491.8438 Q119.2656,492.6563 120.8594,492.6563 Q121.7969,492.6563 122.4531,492.4063 Q122.8438,492.25 123.2656,491.8125 Q123.5313,491.5469 123.6719,491.4688 Q123.8281,491.3906 124.0313,491.3906 Q124.3594,491.3906 124.6094,491.6563 Q124.875,491.9063 124.875,492.25 Q124.875,492.5938 124.5313,493 Q124.0313,493.5781 123.2344,493.9063 Q122.1563,494.3594 120.8594,494.3594 Q119.3438,494.3594 118.1406,493.7344 Q117.1563,493.2344 116.4688,492.1719 Q115.7813,491.0938 115.7813,489.8125 L115.7813,488.6563 Q115.7813,487.3281 116.3906,486.1875 Q117.0156,485.0313 118.1094,484.4219 Q119.2031,483.7969 120.4375,483.7969 Q121.1719,483.7969 121.8125,483.9688 Q122.4688,484.125 123.0156,484.4844 Z " fill="#000000"/><text fill="#000000" font-family="sans-serif" font-size="14" lengthAdjust="spacing" textLength="103" x="140.75" y="494.3379">AvisoInformativo</text><line style="stroke:#181818;stroke-width:0.5;" x1="15" x2="337" y1="504.6094" y2="504.6094"/><text fill="#000000" font-family="sans-serif" font-size="14" lengthAdjust="spacing" textLength="192" x="20" y="523.1426">PK idAvisoInformativo : Integer</text><text fill="#000000" font-family="sans-serif" font-size="14" lengthAdjust="spacing" textLength="312" x="20" y="540.752">PK idioma : Enum {'ESP', 'ING', 'ALE', 'FRA', 'ITA'}</text><text fill="#000000" font-family="sans-serif" font-size="14" lengthAdjust="spacing" textLength="108" x="20" y="558.3613">cabecera : String</text><text fill="#000000" font-family="sans-serif" font-size="14" lengthAdjust="spacing" textLength="93" x="20" y="575.9707">cuerpo : String</text><text fill="#000000" font-family="sans-serif" font-size="14" lengthAdjust="spacing" textLength="144" x="20" y="593.5801">textoAdicional1 : String</text><text fill="#000000" font-family="sans-serif" font-size="14" lengthAdjust="spacing" textLength="144" x="20" y="611.1895">textoAdicional2 : String</text><line style="stroke:#181818;stroke-width:0.5;" x1="15" x2="337" y1="618.2656" y2="618.2656"/></g><!--MD5=[5093c62015235b3026463b234e5945de]
class Gestor--><g id="elem_Gestor"><rect codeLine="13" fill="#F1F1F1" height="206.4844" id="Gestor" rx="2.5" ry="2.5" style="stroke:#181818;stroke-width:0.5;" width="172" x="1777" y="45.6094"/><ellipse cx="1837.25" cy="61.6094" fill="#ADD1B2" rx="11" ry="11" style="stroke:#181818;stroke-width:1.0;"/><path d="M1840.0156,57.4844 Q1840.1719,57.2656 1840.3594,57.1563 Q1840.5469,57.0469 1840.7656,57.0469 Q1841.1406,57.0469 1841.375,57.3125 Q1841.6094,57.5625 1841.6094,58.1719 L1841.6094,59.625 Q1841.6094,60.2344 1841.375,60.5 Q1841.1406,60.7656 1840.7656,60.7656 Q1840.4219,60.7656 1840.2188,60.5625 Q1840.0156,60.375 1839.9063,59.8594 Q1839.8594,59.5 1839.6719,59.3125 Q1839.3438,58.9375 1838.7344,58.7188 Q1838.125,58.5 1837.5,58.5 Q1836.7344,58.5 1836.0938,58.8281 Q1835.4688,59.1563 1834.9688,59.9063 Q1834.4844,60.6563 1834.4844,61.6875 L1834.4844,62.7813 Q1834.4844,64.0156 1835.375,64.8438 Q1836.2656,65.6563 1837.8594,65.6563 Q1838.7969,65.6563 1839.4531,65.4063 Q1839.8438,65.25 1840.2656,64.8125 Q1840.5313,64.5469 1840.6719,64.4688 Q1840.8281,64.3906 1841.0313,64.3906 Q1841.3594,64.3906 1841.6094,64.6563 Q1841.875,64.9063 1841.875,65.25 Q1841.875,65.5938 1841.5313,66 Q1841.0313,66.5781 1840.2344,66.9063 Q1839.1563,67.3594 1837.8594,67.3594 Q1836.3438,67.3594 1835.1406,66.7344 Q1834.1563,66.2344 1833.4688,65.1719 Q1832.7813,64.0938 1832.7813,62.8125 L1832.7813,61.6563 Q1832.7813,60.3281 1833.3906,59.1875 Q1834.0156,58.0313 1835.1094,57.4219 Q1836.2031,56.7969 1837.4375,56.7969 Q1838.1719,56.7969 1838.8125,56.9688 Q1839.4688,57.125 1840.0156,57.4844 Z " fill="#000000"/><text fill="#000000" font-family="sans-serif" font-size="14" lengthAdjust="spacing" textLength="43" x="1857.75" y="67.3379">Gestor</text><line style="stroke:#181818;stroke-width:0.5;" x1="1778" x2="1948" y1="77.6094" y2="77.6094"/><text fill="#000000" font-family="sans-serif" font-size="14" lengthAdjust="spacing" textLength="132" x="1783" y="96.1426">PK idGestor : Integer</text><text fill="#000000" font-family="sans-serif" font-size="14" lengthAdjust="spacing" textLength="71" x="1783" y="113.752">DNI : String</text><text fill="#000000" font-family="sans-serif" font-size="14" lengthAdjust="spacing" textLength="157" x="1783" y="131.3613">nombreCompleto : String</text><text fill="#000000" font-family="sans-serif" font-size="14" lengthAdjust="spacing" textLength="146" x="1783" y="148.9707">fechaNacimiento : Date</text><text fill="#000000" font-family="sans-serif" font-size="14" lengthAdjust="spacing" textLength="78" x="1783" y="166.5801">sexo : String</text><text fill="#000000" font-family="sans-serif" font-size="14" lengthAdjust="spacing" textLength="101" x="1783" y="184.1895">fechaAlta : Date</text><text fill="#000000" font-family="sans-serif" font-size="14" lengthAdjust="spacing" textLength="106" x="1783" y="201.7988">direccion : String</text><text fill="#000000" font-family="sans-serif" font-size="14" lengthAdjust="spacing" textLength="100" x="1783" y="219.4082">telefono : String</text><text fill="#000000" font-family="sans-serif" font-size="14" lengthAdjust="spacing" textLength="160" x="1783" y="237.0176">correoElectronico : String</text><line style="stroke:#181818;stroke-width:0.5;" x1="1778" x2="1948" y1="244.0938" y2="244.0938"/></g><!--MD5=[78bf04863c95d1579bf6ff583f2a043e]
class Imagen--><g id="elem_Imagen"><rect codeLine="25" fill="#F1F1F1" height="100.8281" id="Imagen" rx="2.5" ry="2.5" style="stroke:#181818;stroke-width:0.5;" width="147" x="1594.5" y="98.1094"/><ellipse cx="1640.75" cy="114.1094" fill="#ADD1B2" rx="11" ry="11" style="stroke:#181818;stroke-width:1.0;"/><path d="M1643.5156,109.9844 Q1643.6719,109.7656 1643.8594,109.6563 Q1644.0469,109.5469 1644.2656,109.5469 Q1644.6406,109.5469 1644.875,109.8125 Q1645.1094,110.0625 1645.1094,110.6719 L1645.1094,112.125 Q1645.1094,112.7344 1644.875,113 Q1644.6406,113.2656 1644.2656,113.2656 Q1643.9219,113.2656 1643.7188,113.0625 Q1643.5156,112.875 1643.4063,112.3594 Q1643.3594,112 1643.1719,111.8125 Q1642.8438,111.4375 1642.2344,111.2188 Q1641.625,111 1641,111 Q1640.2344,111 1639.5938,111.3281 Q1638.9688,111.6563 1638.4688,112.4063 Q1637.9844,113.1563 1637.9844,114.1875 L1637.9844,115.2813 Q1637.9844,116.5156 1638.875,117.3438 Q1639.7656,118.1563 1641.3594,118.1563 Q1642.2969,118.1563 1642.9531,117.9063 Q1643.3438,117.75 1643.7656,117.3125 Q1644.0313,117.0469 1644.1719,116.9688 Q1644.3281,116.8906 1644.5313,116.8906 Q1644.8594,116.8906 1645.1094,117.1563 Q1645.375,117.4063 1645.375,117.75 Q1645.375,118.0938 1645.0313,118.5 Q1644.5313,119.0781 1643.7344,119.4063 Q1642.6563,119.8594 1641.3594,119.8594 Q1639.8438,119.8594 1638.6406,119.2344 Q1637.6563,118.7344 1636.9688,117.6719 Q1636.2813,116.5938 1636.2813,115.3125 L1636.2813,114.1563 Q1636.2813,112.8281 1636.8906,111.6875 Q1637.5156,110.5313 1638.6094,109.9219 Q1639.7031,109.2969 1640.9375,109.2969 Q1641.6719,109.2969 1642.3125,109.4688 Q1642.9688,109.625 1643.5156,109.9844 Z " fill="#000000"/><text fill="#000000" font-family="sans-serif" font-size="14" lengthAdjust="spacing" textLength="46" x="1661.25" y="119.8379">Imagen</text><line style="stroke:#181818;stroke-width:0.5;" x1="1595.5" x2="1740.5" y1="130.1094" y2="130.1094"/><text fill="#000000" font-family="sans-serif" font-size="14" lengthAdjust="spacing" textLength="135" x="1600.5" y="148.6426">PK idImagen : Integer</text><text fill="#000000" font-family="sans-serif" font-size="14" lengthAdjust="spacing" textLength="79" x="1600.5" y="166.252">titulo : String</text><text fill="#000000" font-family="sans-serif" font-size="14" lengthAdjust="spacing" textLength="111" x="1600.5" y="183.8613">urlImagen : String</text><line style="stroke:#181818;stroke-width:0.5;" x1="1595.5" x2="1740.5" y1="190.9375" y2="190.9375"/></g><!--MD5=[fdb5f0123aa3c43ce0f17b0d2880c214]
class ImagenAvisoInformativo--><g id="elem_ImagenAvisoInformativo"><rect codeLine="31" fill="#F1F1F1" height="100.8281" id="ImagenAvisoInformativo" rx="2.5" ry="2.5" style="stroke:#181818;stroke-width:0.5;" width="338" x="7" y="311.6094"/><ellipse cx="97.25" cy="327.6094" fill="#ADD1B2" rx="11" ry="11" style="stroke:#181818;stroke-width:1.0;"/><path d="M100.0156,323.4844 Q100.1719,323.2656 100.3594,323.1563 Q100.5469,323.0469 100.7656,323.0469 Q101.1406,323.0469 101.375,323.3125 Q101.6094,323.5625 101.6094,324.1719 L101.6094,325.625 Q101.6094,326.2344 101.375,326.5 Q101.1406,326.7656 100.7656,326.7656 Q100.4219,326.7656 100.2188,326.5625 Q100.0156,326.375 99.9063,325.8594 Q99.8594,325.5 99.6719,325.3125 Q99.3438,324.9375 98.7344,324.7188 Q98.125,324.5 97.5,324.5 Q96.7344,324.5 96.0938,324.8281 Q95.4688,325.1563 94.9688,325.9063 Q94.4844,326.6563 94.4844,327.6875 L94.4844,328.7813 Q94.4844,330.0156 95.375,330.8438 Q96.2656,331.6563 97.8594,331.6563 Q98.7969,331.6563 99.4531,331.4063 Q99.8438,331.25 100.2656,330.8125 Q100.5313,330.5469 100.6719,330.4688 Q100.8281,330.3906 101.0313,330.3906 Q101.3594,330.3906 101.6094,330.6563 Q101.875,330.9063 101.875,331.25 Q101.875,331.5938 101.5313,332 Q101.0313,332.5781 100.2344,332.9063 Q99.1563,333.3594 97.8594,333.3594 Q96.3438,333.3594 95.1406,332.7344 Q94.1563,332.2344 93.4688,331.1719 Q92.7813,330.0938 92.7813,328.8125 L92.7813,327.6563 Q92.7813,326.3281 93.3906,325.1875 Q94.0156,324.0313 95.1094,323.4219 Q96.2031,322.7969 97.4375,322.7969 Q98.1719,322.7969 98.8125,322.9688 Q99.4688,323.125 100.0156,323.4844 Z " fill="#000000"/><text fill="#000000" font-family="sans-serif" font-size="14" lengthAdjust="spacing" textLength="149" x="117.75" y="333.3379">ImagenAvisoInformativo</text><line style="stroke:#181818;stroke-width:0.5;" x1="8" x2="344" y1="343.6094" y2="343.6094"/><text fill="#000000" font-family="sans-serif" font-size="14" lengthAdjust="spacing" textLength="157" x="13" y="362.1426">PK FK idImagen : Integer</text><text fill="#000000" font-family="sans-serif" font-size="14" lengthAdjust="spacing" textLength="192" x="13" y="379.752">PK idAvisoInformativo : Integer</text><text fill="#000000" font-family="sans-serif" font-size="14" lengthAdjust="spacing" textLength="326" x="13" y="397.3613">PK FK idioma Enum {'ESP', 'ING', 'ALE', 'FRA', 'ITA'}</text><line style="stroke:#181818;stroke-width:0.5;" x1="8" x2="344" y1="404.4375" y2="404.4375"/></g><!--MD5=[600808eb20a1eda5a25f652b5adbfc8c]
class ImagenInfoContacto--><g id="elem_ImagenInfoContacto"><rect codeLine="37" fill="#F1F1F1" height="83.2188" id="ImagenInfoContacto" rx="2.5" ry="2.5" style="stroke:#181818;stroke-width:0.5;" width="338" x="380" y="320.6094"/><ellipse cx="481.75" cy="336.6094" fill="#ADD1B2" rx="11" ry="11" style="stroke:#181818;stroke-width:1.0;"/><path d="M484.5156,332.4844 Q484.6719,332.2656 484.8594,332.1563 Q485.0469,332.0469 485.2656,332.0469 Q485.6406,332.0469 485.875,332.3125 Q486.1094,332.5625 486.1094,333.1719 L486.1094,334.625 Q486.1094,335.2344 485.875,335.5 Q485.6406,335.7656 485.2656,335.7656 Q484.9219,335.7656 484.7188,335.5625 Q484.5156,335.375 484.4063,334.8594 Q484.3594,334.5 484.1719,334.3125 Q483.8438,333.9375 483.2344,333.7188 Q482.625,333.5 482,333.5 Q481.2344,333.5 480.5938,333.8281 Q479.9688,334.1563 479.4688,334.9063 Q478.9844,335.6563 478.9844,336.6875 L478.9844,337.7813 Q478.9844,339.0156 479.875,339.8438 Q480.7656,340.6563 482.3594,340.6563 Q483.2969,340.6563 483.9531,340.4063 Q484.3438,340.25 484.7656,339.8125 Q485.0313,339.5469 485.1719,339.4688 Q485.3281,339.3906 485.5313,339.3906 Q485.8594,339.3906 486.1094,339.6563 Q486.375,339.9063 486.375,340.25 Q486.375,340.5938 486.0313,341 Q485.5313,341.5781 484.7344,341.9063 Q483.6563,342.3594 482.3594,342.3594 Q480.8438,342.3594 479.6406,341.7344 Q478.6563,341.2344 477.9688,340.1719 Q477.2813,339.0938 477.2813,337.8125 L477.2813,336.6563 Q477.2813,335.3281 477.8906,334.1875 Q478.5156,333.0313 479.6094,332.4219 Q480.7031,331.7969 481.9375,331.7969 Q482.6719,331.7969 483.3125,331.9688 Q483.9688,332.125 484.5156,332.4844 Z " fill="#000000"/><text fill="#000000" font-family="sans-serif" font-size="14" lengthAdjust="spacing" textLength="126" x="502.25" y="342.3379">ImagenInfoContacto</text><line style="stroke:#181818;stroke-width:0.5;" x1="381" x2="717" y1="352.6094" y2="352.6094"/><text fill="#000000" font-family="sans-serif" font-size="14" lengthAdjust="spacing" textLength="157" x="386" y="371.1426">PK FK idImagen : Integer</text><text fill="#000000" font-family="sans-serif" font-size="14" lengthAdjust="spacing" textLength="326" x="386" y="388.752">PK FK idioma Enum {'ESP', 'ING', 'ALE', 'FRA', 'ITA'}</text><line style="stroke:#181818;stroke-width:0.5;" x1="381" x2="717" y1="395.8281" y2="395.8281"/></g><!--MD5=[7b8bb48ee8785fae8195eda263670a91]
class ImagenInfoCorporativa--><g id="elem_ImagenInfoCorporativa"><rect codeLine="42" fill="#F1F1F1" height="83.2188" id="ImagenInfoCorporativa" rx="2.5" ry="2.5" style="stroke:#181818;stroke-width:0.5;" width="338" x="753" y="320.6094"/><ellipse cx="846.25" cy="336.6094" fill="#ADD1B2" rx="11" ry="11" style="stroke:#181818;stroke-width:1.0;"/><path d="M849.0156,332.4844 Q849.1719,332.2656 849.3594,332.1563 Q849.5469,332.0469 849.7656,332.0469 Q850.1406,332.0469 850.375,332.3125 Q850.6094,332.5625 850.6094,333.1719 L850.6094,334.625 Q850.6094,335.2344 850.375,335.5 Q850.1406,335.7656 849.7656,335.7656 Q849.4219,335.7656 849.2188,335.5625 Q849.0156,335.375 848.9063,334.8594 Q848.8594,334.5 848.6719,334.3125 Q848.3438,333.9375 847.7344,333.7188 Q847.125,333.5 846.5,333.5 Q845.7344,333.5 845.0938,333.8281 Q844.4688,334.1563 843.9688,334.9063 Q843.4844,335.6563 843.4844,336.6875 L843.4844,337.7813 Q843.4844,339.0156 844.375,339.8438 Q845.2656,340.6563 846.8594,340.6563 Q847.7969,340.6563 848.4531,340.4063 Q848.8438,340.25 849.2656,339.8125 Q849.5313,339.5469 849.6719,339.4688 Q849.8281,339.3906 850.0313,339.3906 Q850.3594,339.3906 850.6094,339.6563 Q850.875,339.9063 850.875,340.25 Q850.875,340.5938 850.5313,341 Q850.0313,341.5781 849.2344,341.9063 Q848.1563,342.3594 846.8594,342.3594 Q845.3438,342.3594 844.1406,341.7344 Q843.1563,341.2344 842.4688,340.1719 Q841.7813,339.0938 841.7813,337.8125 L841.7813,336.6563 Q841.7813,335.3281 842.3906,334.1875 Q843.0156,333.0313 844.1094,332.4219 Q845.2031,331.7969 846.4375,331.7969 Q847.1719,331.7969 847.8125,331.9688 Q848.4688,332.125 849.0156,332.4844 Z " fill="#000000"/><text fill="#000000" font-family="sans-serif" font-size="14" lengthAdjust="spacing" textLength="143" x="866.75" y="342.3379">ImagenInfoCorporativa</text><line style="stroke:#181818;stroke-width:0.5;" x1="754" x2="1090" y1="352.6094" y2="352.6094"/><text fill="#000000" font-family="sans-serif" font-size="14" lengthAdjust="spacing" textLength="157" x="759" y="371.1426">PK FK idImagen : Integer</text><text fill="#000000" font-family="sans-serif" font-size="14" lengthAdjust="spacing" textLength="326" x="759" y="388.752">PK FK idioma Enum {'ESP', 'ING', 'ALE', 'FRA', 'ITA'}</text><line style="stroke:#181818;stroke-width:0.5;" x1="754" x2="1090" y1="395.8281" y2="395.8281"/></g><!--MD5=[867f635d87ceb75fd6c9a0df1cd967dd]
class ImagenInfoHorariosServicios--><g id="elem_ImagenInfoHorariosServicios"><rect codeLine="47" fill="#F1F1F1" height="83.2188" id="ImagenInfoHorariosServicios" rx="2.5" ry="2.5" style="stroke:#181818;stroke-width:0.5;" width="338" x="1126" y="320.6094"/><ellipse cx="1201.25" cy="336.6094" fill="#ADD1B2" rx="11" ry="11" style="stroke:#181818;stroke-width:1.0;"/><path d="M1204.0156,332.4844 Q1204.1719,332.2656 1204.3594,332.1563 Q1204.5469,332.0469 1204.7656,332.0469 Q1205.1406,332.0469 1205.375,332.3125 Q1205.6094,332.5625 1205.6094,333.1719 L1205.6094,334.625 Q1205.6094,335.2344 1205.375,335.5 Q1205.1406,335.7656 1204.7656,335.7656 Q1204.4219,335.7656 1204.2188,335.5625 Q1204.0156,335.375 1203.9063,334.8594 Q1203.8594,334.5 1203.6719,334.3125 Q1203.3438,333.9375 1202.7344,333.7188 Q1202.125,333.5 1201.5,333.5 Q1200.7344,333.5 1200.0938,333.8281 Q1199.4688,334.1563 1198.9688,334.9063 Q1198.4844,335.6563 1198.4844,336.6875 L1198.4844,337.7813 Q1198.4844,339.0156 1199.375,339.8438 Q1200.2656,340.6563 1201.8594,340.6563 Q1202.7969,340.6563 1203.4531,340.4063 Q1203.8438,340.25 1204.2656,339.8125 Q1204.5313,339.5469 1204.6719,339.4688 Q1204.8281,339.3906 1205.0313,339.3906 Q1205.3594,339.3906 1205.6094,339.6563 Q1205.875,339.9063 1205.875,340.25 Q1205.875,340.5938 1205.5313,341 Q1205.0313,341.5781 1204.2344,341.9063 Q1203.1563,342.3594 1201.8594,342.3594 Q1200.3438,342.3594 1199.1406,341.7344 Q1198.1563,341.2344 1197.4688,340.1719 Q1196.7813,339.0938 1196.7813,337.8125 L1196.7813,336.6563 Q1196.7813,335.3281 1197.3906,334.1875 Q1198.0156,333.0313 1199.1094,332.4219 Q1200.2031,331.7969 1201.4375,331.7969 Q1202.1719,331.7969 1202.8125,331.9688 Q1203.4688,332.125 1204.0156,332.4844 Z " fill="#000000"/><text fill="#000000" font-family="sans-serif" font-size="14" lengthAdjust="spacing" textLength="179" x="1221.75" y="342.3379">ImagenInfoHorariosServicios</text><line style="stroke:#181818;stroke-width:0.5;" x1="1127" x2="1463" y1="352.6094" y2="352.6094"/><text fill="#000000" font-family="sans-serif" font-size="14" lengthAdjust="spacing" textLength="157" x="1132" y="371.1426">PK FK idImagen : Integer</text><text fill="#000000" font-family="sans-serif" font-size="14" lengthAdjust="spacing" textLength="326" x="1132" y="388.752">PK FK idioma Enum {'ESP', 'ING', 'ALE', 'FRA', 'ITA'}</text><line style="stroke:#181818;stroke-width:0.5;" x1="1127" x2="1463" y1="395.8281" y2="395.8281"/></g><!--MD5=[7360fd47b3a063a4ff69269ca6f79280]
class ImagenInfoItinerariosDestacados--><g id="elem_ImagenInfoItinerariosDestacados"><rect codeLine="52" fill="#F1F1F1" height="83.2188" id="ImagenInfoItinerariosDestacados" rx="2.5" ry="2.5" style="stroke:#181818;stroke-width:0.5;" width="338" x="1499" y="320.6094"/><ellipse cx="1560.75" cy="336.6094" fill="#ADD1B2" rx="11" ry="11" style="stroke:#181818;stroke-width:1.0;"/><path d="M1563.5156,332.4844 Q1563.6719,332.2656 1563.8594,332.1563 Q1564.0469,332.0469 1564.2656,332.0469 Q1564.6406,332.0469 1564.875,332.3125 Q1565.1094,332.5625 1565.1094,333.1719 L1565.1094,334.625 Q1565.1094,335.2344 1564.875,335.5 Q1564.6406,335.7656 1564.2656,335.7656 Q1563.9219,335.7656 1563.7188,335.5625 Q1563.5156,335.375 1563.4063,334.8594 Q1563.3594,334.5 1563.1719,334.3125 Q1562.8438,333.9375 1562.2344,333.7188 Q1561.625,333.5 1561,333.5 Q1560.2344,333.5 1559.5938,333.8281 Q1558.9688,334.1563 1558.4688,334.9063 Q1557.9844,335.6563 1557.9844,336.6875 L1557.9844,337.7813 Q1557.9844,339.0156 1558.875,339.8438 Q1559.7656,340.6563 1561.3594,340.6563 Q1562.2969,340.6563 1562.9531,340.4063 Q1563.3438,340.25 1563.7656,339.8125 Q1564.0313,339.5469 1564.1719,339.4688 Q1564.3281,339.3906 1564.5313,339.3906 Q1564.8594,339.3906 1565.1094,339.6563 Q1565.375,339.9063 1565.375,340.25 Q1565.375,340.5938 1565.0313,341 Q1564.5313,341.5781 1563.7344,341.9063 Q1562.6563,342.3594 1561.3594,342.3594 Q1559.8438,342.3594 1558.6406,341.7344 Q1557.6563,341.2344 1556.9688,340.1719 Q1556.2813,339.0938 1556.2813,337.8125 L1556.2813,336.6563 Q1556.2813,335.3281 1556.8906,334.1875 Q1557.5156,333.0313 1558.6094,332.4219 Q1559.7031,331.7969 1560.9375,331.7969 Q1561.6719,331.7969 1562.3125,331.9688 Q1562.9688,332.125 1563.5156,332.4844 Z " fill="#000000"/><text fill="#000000" font-family="sans-serif" font-size="14" lengthAdjust="spacing" textLength="206" x="1581.25" y="342.3379">ImagenInfoItinerariosDestacados</text><line style="stroke:#181818;stroke-width:0.5;" x1="1500" x2="1836" y1="352.6094" y2="352.6094"/><text fill="#000000" font-family="sans-serif" font-size="14" lengthAdjust="spacing" textLength="157" x="1505" y="371.1426">PK FK idImagen : Integer</text><text fill="#000000" font-family="sans-serif" font-size="14" lengthAdjust="spacing" textLength="326" x="1505" y="388.752">PK FK idioma Enum {'ESP', 'ING', 'ALE', 'FRA', 'ITA'}</text><line style="stroke:#181818;stroke-width:0.5;" x1="1500" x2="1836" y1="395.8281" y2="395.8281"/></g><!--MD5=[e8d37e97217a1ec0261b4163409c2eb5]
class ImagenInfoLugares--><g id="elem_ImagenInfoLugares"><rect codeLine="57" fill="#F1F1F1" height="83.2188" id="ImagenInfoLugares" rx="2.5" ry="2.5" style="stroke:#181818;stroke-width:0.5;" width="338" x="1872" y="320.6094"/><ellipse cx="1976.25" cy="336.6094" fill="#ADD1B2" rx="11" ry="11" style="stroke:#181818;stroke-width:1.0;"/><path d="M1979.0156,332.4844 Q1979.1719,332.2656 1979.3594,332.1563 Q1979.5469,332.0469 1979.7656,332.0469 Q1980.1406,332.0469 1980.375,332.3125 Q1980.6094,332.5625 1980.6094,333.1719 L1980.6094,334.625 Q1980.6094,335.2344 1980.375,335.5 Q1980.1406,335.7656 1979.7656,335.7656 Q1979.4219,335.7656 1979.2188,335.5625 Q1979.0156,335.375 1978.9063,334.8594 Q1978.8594,334.5 1978.6719,334.3125 Q1978.3438,333.9375 1977.7344,333.7188 Q1977.125,333.5 1976.5,333.5 Q1975.7344,333.5 1975.0938,333.8281 Q1974.4688,334.1563 1973.9688,334.9063 Q1973.4844,335.6563 1973.4844,336.6875 L1973.4844,337.7813 Q1973.4844,339.0156 1974.375,339.8438 Q1975.2656,340.6563 1976.8594,340.6563 Q1977.7969,340.6563 1978.4531,340.4063 Q1978.8438,340.25 1979.2656,339.8125 Q1979.5313,339.5469 1979.6719,339.4688 Q1979.8281,339.3906 1980.0313,339.3906 Q1980.3594,339.3906 1980.6094,339.6563 Q1980.875,339.9063 1980.875,340.25 Q1980.875,340.5938 1980.5313,341 Q1980.0313,341.5781 1979.2344,341.9063 Q1978.1563,342.3594 1976.8594,342.3594 Q1975.3438,342.3594 1974.1406,341.7344 Q1973.1563,341.2344 1972.4688,340.1719 Q1971.7813,339.0938 1971.7813,337.8125 L1971.7813,336.6563 Q1971.7813,335.3281 1972.3906,334.1875 Q1973.0156,333.0313 1974.1094,332.4219 Q1975.2031,331.7969 1976.4375,331.7969 Q1977.1719,331.7969 1977.8125,331.9688 Q1978.4688,332.125 1979.0156,332.4844 Z " fill="#000000"/><text fill="#000000" font-family="sans-serif" font-size="14" lengthAdjust="spacing" textLength="121" x="1996.75" y="342.3379">ImagenInfoLugares</text><line style="stroke:#181818;stroke-width:0.5;" x1="1873" x2="2209" y1="352.6094" y2="352.6094"/><text fill="#000000" font-family="sans-serif" font-size="14" lengthAdjust="spacing" textLength="157" x="1878" y="371.1426">PK FK idImagen : Integer</text><text fill="#000000" font-family="sans-serif" font-size="14" lengthAdjust="spacing" textLength="326" x="1878" y="388.752">PK FK idioma Enum {'ESP', 'ING', 'ALE', 'FRA', 'ITA'}</text><line style="stroke:#181818;stroke-width:0.5;" x1="1873" x2="2209" y1="395.8281" y2="395.8281"/></g><!--MD5=[e19e9632e66fd45b16125653ead81c8e]
class ImagenInfoNoticias--><g id="elem_ImagenInfoNoticias"><rect codeLine="62" fill="#F1F1F1" height="83.2188" id="ImagenInfoNoticias" rx="2.5" ry="2.5" style="stroke:#181818;stroke-width:0.5;" width="338" x="2245" y="320.6094"/><ellipse cx="2350.75" cy="336.6094" fill="#ADD1B2" rx="11" ry="11" style="stroke:#181818;stroke-width:1.0;"/><path d="M2353.5156,332.4844 Q2353.6719,332.2656 2353.8594,332.1563 Q2354.0469,332.0469 2354.2656,332.0469 Q2354.6406,332.0469 2354.875,332.3125 Q2355.1094,332.5625 2355.1094,333.1719 L2355.1094,334.625 Q2355.1094,335.2344 2354.875,335.5 Q2354.6406,335.7656 2354.2656,335.7656 Q2353.9219,335.7656 2353.7188,335.5625 Q2353.5156,335.375 2353.4063,334.8594 Q2353.3594,334.5 2353.1719,334.3125 Q2352.8438,333.9375 2352.2344,333.7188 Q2351.625,333.5 2351,333.5 Q2350.2344,333.5 2349.5938,333.8281 Q2348.9688,334.1563 2348.4688,334.9063 Q2347.9844,335.6563 2347.9844,336.6875 L2347.9844,337.7813 Q2347.9844,339.0156 2348.875,339.8438 Q2349.7656,340.6563 2351.3594,340.6563 Q2352.2969,340.6563 2352.9531,340.4063 Q2353.3438,340.25 2353.7656,339.8125 Q2354.0313,339.5469 2354.1719,339.4688 Q2354.3281,339.3906 2354.5313,339.3906 Q2354.8594,339.3906 2355.1094,339.6563 Q2355.375,339.9063 2355.375,340.25 Q2355.375,340.5938 2355.0313,341 Q2354.5313,341.5781 2353.7344,341.9063 Q2352.6563,342.3594 2351.3594,342.3594 Q2349.8438,342.3594 2348.6406,341.7344 Q2347.6563,341.2344 2346.9688,340.1719 Q2346.2813,339.0938 2346.2813,337.8125 L2346.2813,336.6563 Q2346.2813,335.3281 2346.8906,334.1875 Q2347.5156,333.0313 2348.6094,332.4219 Q2349.7031,331.7969 2350.9375,331.7969 Q2351.6719,331.7969 2352.3125,331.9688 Q2352.9688,332.125 2353.5156,332.4844 Z " fill="#000000"/><text fill="#000000" font-family="sans-serif" font-size="14" lengthAdjust="spacing" textLength="118" x="2371.25" y="342.3379">ImagenInfoNoticias</text><line style="stroke:#181818;stroke-width:0.5;" x1="2246" x2="2582" y1="352.6094" y2="352.6094"/><text fill="#000000" font-family="sans-serif" font-size="14" lengthAdjust="spacing" textLength="157" x="2251" y="371.1426">PK FK idImagen : Integer</text><text fill="#000000" font-family="sans-serif" font-size="14" lengthAdjust="spacing" textLength="326" x="2251" y="388.752">PK FK idioma Enum {'ESP', 'ING', 'ALE', 'FRA', 'ITA'}</text><line style="stroke:#181818;stroke-width:0.5;" x1="2246" x2="2582" y1="395.8281" y2="395.8281"/></g><!--MD5=[6cfde334916d2a4c96ab6bd476c77ecf]
class ImagenInfoTitulosTarifas--><g id="elem_ImagenInfoTitulosTarifas"><rect codeLine="67" fill="#F1F1F1" height="83.2188" id="ImagenInfoTitulosTarifas" rx="2.5" ry="2.5" style="stroke:#181818;stroke-width:0.5;" width="338" x="2618" y="320.6094"/><ellipse cx="2705.25" cy="336.6094" fill="#ADD1B2" rx="11" ry="11" style="stroke:#181818;stroke-width:1.0;"/><path d="M2708.0156,332.4844 Q2708.1719,332.2656 2708.3594,332.1563 Q2708.5469,332.0469 2708.7656,332.0469 Q2709.1406,332.0469 2709.375,332.3125 Q2709.6094,332.5625 2709.6094,333.1719 L2709.6094,334.625 Q2709.6094,335.2344 2709.375,335.5 Q2709.1406,335.7656 2708.7656,335.7656 Q2708.4219,335.7656 2708.2188,335.5625 Q2708.0156,335.375 2707.9063,334.8594 Q2707.8594,334.5 2707.6719,334.3125 Q2707.3438,333.9375 2706.7344,333.7188 Q2706.125,333.5 2705.5,333.5 Q2704.7344,333.5 2704.0938,333.8281 Q2703.4688,334.1563 2702.9688,334.9063 Q2702.4844,335.6563 2702.4844,336.6875 L2702.4844,337.7813 Q2702.4844,339.0156 2703.375,339.8438 Q2704.2656,340.6563 2705.8594,340.6563 Q2706.7969,340.6563 2707.4531,340.4063 Q2707.8438,340.25 2708.2656,339.8125 Q2708.5313,339.5469 2708.6719,339.4688 Q2708.8281,339.3906 2709.0313,339.3906 Q2709.3594,339.3906 2709.6094,339.6563 Q2709.875,339.9063 2709.875,340.25 Q2709.875,340.5938 2709.5313,341 Q2709.0313,341.5781 2708.2344,341.9063 Q2707.1563,342.3594 2705.8594,342.3594 Q2704.3438,342.3594 2703.1406,341.7344 Q2702.1563,341.2344 2701.4688,340.1719 Q2700.7813,339.0938 2700.7813,337.8125 L2700.7813,336.6563 Q2700.7813,335.3281 2701.3906,334.1875 Q2702.0156,333.0313 2703.1094,332.4219 Q2704.2031,331.7969 2705.4375,331.7969 Q2706.1719,331.7969 2706.8125,331.9688 Q2707.4688,332.125 2708.0156,332.4844 Z " fill="#000000"/><text fill="#000000" font-family="sans-serif" font-size="14" lengthAdjust="spacing" textLength="155" x="2725.75" y="342.3379">ImagenInfoTitulosTarifas</text><line style="stroke:#181818;stroke-width:0.5;" x1="2619" x2="2955" y1="352.6094" y2="352.6094"/><text fill="#000000" font-family="sans-serif" font-size="14" lengthAdjust="spacing" textLength="157" x="2624" y="371.1426">PK FK idImagen : Integer</text><text fill="#000000" font-family="sans-serif" font-size="14" lengthAdjust="spacing" textLength="326" x="2624" y="388.752">PK FK idioma Enum {'ESP', 'ING', 'ALE', 'FRA', 'ITA'}</text><line style="stroke:#181818;stroke-width:0.5;" x1="2619" x2="2955" y1="395.8281" y2="395.8281"/></g><!--MD5=[4dae0a94197708b1a1f2dabf53437f44]
class ImagenPublicidad--><g id="elem_ImagenPublicidad"><rect codeLine="72" fill="#F1F1F1" height="100.8281" id="ImagenPublicidad" rx="2.5" ry="2.5" style="stroke:#181818;stroke-width:0.5;" width="338" x="2991" y="311.6094"/><ellipse cx="3100.25" cy="327.6094" fill="#ADD1B2" rx="11" ry="11" style="stroke:#181818;stroke-width:1.0;"/><path d="M3103.0156,323.4844 Q3103.1719,323.2656 3103.3594,323.1563 Q3103.5469,323.0469 3103.7656,323.0469 Q3104.1406,323.0469 3104.375,323.3125 Q3104.6094,323.5625 3104.6094,324.1719 L3104.6094,325.625 Q3104.6094,326.2344 3104.375,326.5 Q3104.1406,326.7656 3103.7656,326.7656 Q3103.4219,326.7656 3103.2188,326.5625 Q3103.0156,326.375 3102.9063,325.8594 Q3102.8594,325.5 3102.6719,325.3125 Q3102.3438,324.9375 3101.7344,324.7188 Q3101.125,324.5 3100.5,324.5 Q3099.7344,324.5 3099.0938,324.8281 Q3098.4688,325.1563 3097.9688,325.9063 Q3097.4844,326.6563 3097.4844,327.6875 L3097.4844,328.7813 Q3097.4844,330.0156 3098.375,330.8438 Q3099.2656,331.6563 3100.8594,331.6563 Q3101.7969,331.6563 3102.4531,331.4063 Q3102.8438,331.25 3103.2656,330.8125 Q3103.5313,330.5469 3103.6719,330.4688 Q3103.8281,330.3906 3104.0313,330.3906 Q3104.3594,330.3906 3104.6094,330.6563 Q3104.875,330.9063 3104.875,331.25 Q3104.875,331.5938 3104.5313,332 Q3104.0313,332.5781 3103.2344,332.9063 Q3102.1563,333.3594 3100.8594,333.3594 Q3099.3438,333.3594 3098.1406,332.7344 Q3097.1563,332.2344 3096.4688,331.1719 Q3095.7813,330.0938 3095.7813,328.8125 L3095.7813,327.6563 Q3095.7813,326.3281 3096.3906,325.1875 Q3097.0156,324.0313 3098.1094,323.4219 Q3099.2031,322.7969 3100.4375,322.7969 Q3101.1719,322.7969 3101.8125,322.9688 Q3102.4688,323.125 3103.0156,323.4844 Z " fill="#000000"/><text fill="#000000" font-family="sans-serif" font-size="14" lengthAdjust="spacing" textLength="111" x="3120.75" y="333.3379">ImagenPublicidad</text><line style="stroke:#181818;stroke-width:0.5;" x1="2992" x2="3328" y1="343.6094" y2="343.6094"/><text fill="#000000" font-family="sans-serif" font-size="14" lengthAdjust="spacing" textLength="157" x="2997" y="362.1426">PK FK idImagen : Integer</text><text fill="#000000" font-family="sans-serif" font-size="14" lengthAdjust="spacing" textLength="154" x="2997" y="379.752">PK idPublicidad : Integer</text><text fill="#000000" font-family="sans-serif" font-size="14" lengthAdjust="spacing" textLength="326" x="2997" y="397.3613">PK FK idioma Enum {'ESP', 'ING', 'ALE', 'FRA', 'ITA'}</text><line style="stroke:#181818;stroke-width:0.5;" x1="2992" x2="3328" y1="404.4375" y2="404.4375"/></g><!--MD5=[8abe2679d1f3c809d422ce23d38de866]
class InfoContacto--><g id="elem_InfoContacto"><rect codeLine="78" fill="#F1F1F1" height="136.0469" id="InfoContacto" rx="2.5" ry="2.5" style="stroke:#181818;stroke-width:0.5;" width="324" x="387" y="481.6094"/><ellipse cx="504.75" cy="497.6094" fill="#ADD1B2" rx="11" ry="11" style="stroke:#181818;stroke-width:1.0;"/><path d="M507.5156,493.4844 Q507.6719,493.2656 507.8594,493.1563 Q508.0469,493.0469 508.2656,493.0469 Q508.6406,493.0469 508.875,493.3125 Q509.1094,493.5625 509.1094,494.1719 L509.1094,495.625 Q509.1094,496.2344 508.875,496.5 Q508.6406,496.7656 508.2656,496.7656 Q507.9219,496.7656 507.7188,496.5625 Q507.5156,496.375 507.4063,495.8594 Q507.3594,495.5 507.1719,495.3125 Q506.8438,494.9375 506.2344,494.7188 Q505.625,494.5 505,494.5 Q504.2344,494.5 503.5938,494.8281 Q502.9688,495.1563 502.4688,495.9063 Q501.9844,496.6563 501.9844,497.6875 L501.9844,498.7813 Q501.9844,500.0156 502.875,500.8438 Q503.7656,501.6563 505.3594,501.6563 Q506.2969,501.6563 506.9531,501.4063 Q507.3438,501.25 507.7656,500.8125 Q508.0313,500.5469 508.1719,500.4688 Q508.3281,500.3906 508.5313,500.3906 Q508.8594,500.3906 509.1094,500.6563 Q509.375,500.9063 509.375,501.25 Q509.375,501.5938 509.0313,502 Q508.5313,502.5781 507.7344,502.9063 Q506.6563,503.3594 505.3594,503.3594 Q503.8438,503.3594 502.6406,502.7344 Q501.6563,502.2344 500.9688,501.1719 Q500.2813,500.0938 500.2813,498.8125 L500.2813,497.6563 Q500.2813,496.3281 500.8906,495.1875 Q501.5156,494.0313 502.6094,493.4219 Q503.7031,492.7969 504.9375,492.7969 Q505.6719,492.7969 506.3125,492.9688 Q506.9688,493.125 507.5156,493.4844 Z " fill="#000000"/><text fill="#000000" font-family="sans-serif" font-size="14" lengthAdjust="spacing" textLength="80" x="525.25" y="503.3379">InfoContacto</text><line style="stroke:#181818;stroke-width:0.5;" x1="388" x2="710" y1="513.6094" y2="513.6094"/><text fill="#000000" font-family="sans-serif" font-size="14" lengthAdjust="spacing" textLength="312" x="393" y="532.1426">PK idioma : Enum {'ESP', 'ING', 'ALE', 'FRA', 'ITA'}</text><text fill="#000000" font-family="sans-serif" font-size="14" lengthAdjust="spacing" textLength="93" x="393" y="549.752">cuerpo : String</text><text fill="#000000" font-family="sans-serif" font-size="14" lengthAdjust="spacing" textLength="144" x="393" y="567.3613">textoAdicional1 : String</text><text fill="#000000" font-family="sans-serif" font-size="14" lengthAdjust="spacing" textLength="144" x="393" y="584.9707">textoAdicional2 : String</text><text fill="#000000" font-family="sans-serif" font-size="14" lengthAdjust="spacing" textLength="136" x="393" y="602.5801">numAccesos : Integer</text><line style="stroke:#181818;stroke-width:0.5;" x1="388" x2="710" y1="609.6563" y2="609.6563"/></g><!--MD5=[c6afe85f7e117e694aa66ea1e54c1330]
class InfoCorporativa--><g id="elem_InfoCorporativa"><rect codeLine="86" fill="#F1F1F1" height="136.0469" id="InfoCorporativa" rx="2.5" ry="2.5" style="stroke:#181818;stroke-width:0.5;" width="324" x="760" y="481.6094"/><ellipse cx="869.25" cy="497.6094" fill="#ADD1B2" rx="11" ry="11" style="stroke:#181818;stroke-width:1.0;"/><path d="M872.0156,493.4844 Q872.1719,493.2656 872.3594,493.1563 Q872.5469,493.0469 872.7656,493.0469 Q873.1406,493.0469 873.375,493.3125 Q873.6094,493.5625 873.6094,494.1719 L873.6094,495.625 Q873.6094,496.2344 873.375,496.5 Q873.1406,496.7656 872.7656,496.7656 Q872.4219,496.7656 872.2188,496.5625 Q872.0156,496.375 871.9063,495.8594 Q871.8594,495.5 871.6719,495.3125 Q871.3438,494.9375 870.7344,494.7188 Q870.125,494.5 869.5,494.5 Q868.7344,494.5 868.0938,494.8281 Q867.4688,495.1563 866.9688,495.9063 Q866.4844,496.6563 866.4844,497.6875 L866.4844,498.7813 Q866.4844,500.0156 867.375,500.8438 Q868.2656,501.6563 869.8594,501.6563 Q870.7969,501.6563 871.4531,501.4063 Q871.8438,501.25 872.2656,500.8125 Q872.5313,500.5469 872.6719,500.4688 Q872.8281,500.3906 873.0313,500.3906 Q873.3594,500.3906 873.6094,500.6563 Q873.875,500.9063 873.875,501.25 Q873.875,501.5938 873.5313,502 Q873.0313,502.5781 872.2344,502.9063 Q871.1563,503.3594 869.8594,503.3594 Q868.3438,503.3594 867.1406,502.7344 Q866.1563,502.2344 865.4688,501.1719 Q864.7813,500.0938 864.7813,498.8125 L864.7813,497.6563 Q864.7813,496.3281 865.3906,495.1875 Q866.0156,494.0313 867.1094,493.4219 Q868.2031,492.7969 869.4375,492.7969 Q870.1719,492.7969 870.8125,492.9688 Q871.4688,493.125 872.0156,493.4844 Z " fill="#000000"/><text fill="#000000" font-family="sans-serif" font-size="14" lengthAdjust="spacing" textLength="97" x="889.75" y="503.3379">InfoCorporativa</text><line style="stroke:#181818;stroke-width:0.5;" x1="761" x2="1083" y1="513.6094" y2="513.6094"/><text fill="#000000" font-family="sans-serif" font-size="14" lengthAdjust="spacing" textLength="312" x="766" y="532.1426">PK idioma : Enum {'ESP', 'ING', 'ALE', 'FRA', 'ITA'}</text><text fill="#000000" font-family="sans-serif" font-size="14" lengthAdjust="spacing" textLength="93" x="766" y="549.752">cuerpo : String</text><text fill="#000000" font-family="sans-serif" font-size="14" lengthAdjust="spacing" textLength="144" x="766" y="567.3613">textoAdicional1 : String</text><text fill="#000000" font-family="sans-serif" font-size="14" lengthAdjust="spacing" textLength="144" x="766" y="584.9707">textoAdicional2 : String</text><text fill="#000000" font-family="sans-serif" font-size="14" lengthAdjust="spacing" textLength="136" x="766" y="602.5801">numAccesos : Integer</text><line style="stroke:#181818;stroke-width:0.5;" x1="761" x2="1083" y1="609.6563" y2="609.6563"/></g><!--MD5=[31c2e8b0de0cca1208ae956aef5691a1]
class InfoHorariosServicios--><g id="elem_InfoHorariosServicios"><rect codeLine="94" fill="#F1F1F1" height="136.0469" id="InfoHorariosServicios" rx="2.5" ry="2.5" style="stroke:#181818;stroke-width:0.5;" width="324" x="1133" y="481.6094"/><ellipse cx="1224.25" cy="497.6094" fill="#ADD1B2" rx="11" ry="11" style="stroke:#181818;stroke-width:1.0;"/><path d="M1227.0156,493.4844 Q1227.1719,493.2656 1227.3594,493.1563 Q1227.5469,493.0469 1227.7656,493.0469 Q1228.1406,493.0469 1228.375,493.3125 Q1228.6094,493.5625 1228.6094,494.1719 L1228.6094,495.625 Q1228.6094,496.2344 1228.375,496.5 Q1228.1406,496.7656 1227.7656,496.7656 Q1227.4219,496.7656 1227.2188,496.5625 Q1227.0156,496.375 1226.9063,495.8594 Q1226.8594,495.5 1226.6719,495.3125 Q1226.3438,494.9375 1225.7344,494.7188 Q1225.125,494.5 1224.5,494.5 Q1223.7344,494.5 1223.0938,494.8281 Q1222.4688,495.1563 1221.9688,495.9063 Q1221.4844,496.6563 1221.4844,497.6875 L1221.4844,498.7813 Q1221.4844,500.0156 1222.375,500.8438 Q1223.2656,501.6563 1224.8594,501.6563 Q1225.7969,501.6563 1226.4531,501.4063 Q1226.8438,501.25 1227.2656,500.8125 Q1227.5313,500.5469 1227.6719,500.4688 Q1227.8281,500.3906 1228.0313,500.3906 Q1228.3594,500.3906 1228.6094,500.6563 Q1228.875,500.9063 1228.875,501.25 Q1228.875,501.5938 1228.5313,502 Q1228.0313,502.5781 1227.2344,502.9063 Q1226.1563,503.3594 1224.8594,503.3594 Q1223.3438,503.3594 1222.1406,502.7344 Q1221.1563,502.2344 1220.4688,501.1719 Q1219.7813,500.0938 1219.7813,498.8125 L1219.7813,497.6563 Q1219.7813,496.3281 1220.3906,495.1875 Q1221.0156,494.0313 1222.1094,493.4219 Q1223.2031,492.7969 1224.4375,492.7969 Q1225.1719,492.7969 1225.8125,492.9688 Q1226.4688,493.125 1227.0156,493.4844 Z " fill="#000000"/><text fill="#000000" font-family="sans-serif" font-size="14" lengthAdjust="spacing" textLength="133" x="1244.75" y="503.3379">InfoHorariosServicios</text><line style="stroke:#181818;stroke-width:0.5;" x1="1134" x2="1456" y1="513.6094" y2="513.6094"/><text fill="#000000" font-family="sans-serif" font-size="14" lengthAdjust="spacing" textLength="312" x="1139" y="532.1426">PK idioma : Enum {'ESP', 'ING', 'ALE', 'FRA', 'ITA'}</text><text fill="#000000" font-family="sans-serif" font-size="14" lengthAdjust="spacing" textLength="93" x="1139" y="549.752">cuerpo : String</text><text fill="#000000" font-family="sans-serif" font-size="14" lengthAdjust="spacing" textLength="144" x="1139" y="567.3613">textoAdicional1 : String</text><text fill="#000000" font-family="sans-serif" font-size="14" lengthAdjust="spacing" textLength="144" x="1139" y="584.9707">textoAdicional2 : String</text><text fill="#000000" font-family="sans-serif" font-size="14" lengthAdjust="spacing" textLength="136" x="1139" y="602.5801">numAccesos : Integer</text><line style="stroke:#181818;stroke-width:0.5;" x1="1134" x2="1456" y1="609.6563" y2="609.6563"/></g><!--MD5=[7c9692c2b41b98c65ff515e3443b8ce9]
class InfoItinerariosDestacados--><g id="elem_InfoItinerariosDestacados"><rect codeLine="102" fill="#F1F1F1" height="136.0469" id="InfoItinerariosDestacados" rx="2.5" ry="2.5" style="stroke:#181818;stroke-width:0.5;" width="324" x="1506" y="481.6094"/><ellipse cx="1583.75" cy="497.6094" fill="#ADD1B2" rx="11" ry="11" style="stroke:#181818;stroke-width:1.0;"/><path d="M1586.5156,493.4844 Q1586.6719,493.2656 1586.8594,493.1563 Q1587.0469,493.0469 1587.2656,493.0469 Q1587.6406,493.0469 1587.875,493.3125 Q1588.1094,493.5625 1588.1094,494.1719 L1588.1094,495.625 Q1588.1094,496.2344 1587.875,496.5 Q1587.6406,496.7656 1587.2656,496.7656 Q1586.9219,496.7656 1586.7188,496.5625 Q1586.5156,496.375 1586.4063,495.8594 Q1586.3594,495.5 1586.1719,495.3125 Q1585.8438,494.9375 1585.2344,494.7188 Q1584.625,494.5 1584,494.5 Q1583.2344,494.5 1582.5938,494.8281 Q1581.9688,495.1563 1581.4688,495.9063 Q1580.9844,496.6563 1580.9844,497.6875 L1580.9844,498.7813 Q1580.9844,500.0156 1581.875,500.8438 Q1582.7656,501.6563 1584.3594,501.6563 Q1585.2969,501.6563 1585.9531,501.4063 Q1586.3438,501.25 1586.7656,500.8125 Q1587.0313,500.5469 1587.1719,500.4688 Q1587.3281,500.3906 1587.5313,500.3906 Q1587.8594,500.3906 1588.1094,500.6563 Q1588.375,500.9063 1588.375,501.25 Q1588.375,501.5938 1588.0313,502 Q1587.5313,502.5781 1586.7344,502.9063 Q1585.6563,503.3594 1584.3594,503.3594 Q1582.8438,503.3594 1581.6406,502.7344 Q1580.6563,502.2344 1579.9688,501.1719 Q1579.2813,500.0938 1579.2813,498.8125 L1579.2813,497.6563 Q1579.2813,496.3281 1579.8906,495.1875 Q1580.5156,494.0313 1581.6094,493.4219 Q1582.7031,492.7969 1583.9375,492.7969 Q1584.6719,492.7969 1585.3125,492.9688 Q1585.9688,493.125 1586.5156,493.4844 Z " fill="#000000"/><text fill="#000000" font-family="sans-serif" font-size="14" lengthAdjust="spacing" textLength="160" x="1604.25" y="503.3379">InfoItinerariosDestacados</text><line style="stroke:#181818;stroke-width:0.5;" x1="1507" x2="1829" y1="513.6094" y2="513.6094"/><text fill="#000000" font-family="sans-serif" font-size="14" lengthAdjust="spacing" textLength="312" x="1512" y="532.1426">PK idioma : Enum {'ESP', 'ING', 'ALE', 'FRA', 'ITA'}</text><text fill="#000000" font-family="sans-serif" font-size="14" lengthAdjust="spacing" textLength="93" x="1512" y="549.752">cuerpo : String</text><text fill="#000000" font-family="sans-serif" font-size="14" lengthAdjust="spacing" textLength="144" x="1512" y="567.3613">textoAdicional1 : String</text><text fill="#000000" font-family="sans-serif" font-size="14" lengthAdjust="spacing" textLength="144" x="1512" y="584.9707">textoAdicional2 : String</text><text fill="#000000" font-family="sans-serif" font-size="14" lengthAdjust="spacing" textLength="136" x="1512" y="602.5801">numAccesos : Integer</text><line style="stroke:#181818;stroke-width:0.5;" x1="1507" x2="1829" y1="609.6563" y2="609.6563"/></g><!--MD5=[016d252a004ade029f8da0f6968ee920]
class InfoLugares--><g id="elem_InfoLugares"><rect codeLine="110" fill="#F1F1F1" height="136.0469" id="InfoLugares" rx="2.5" ry="2.5" style="stroke:#181818;stroke-width:0.5;" width="324" x="1879" y="481.6094"/><ellipse cx="1999.25" cy="497.6094" fill="#ADD1B2" rx="11" ry="11" style="stroke:#181818;stroke-width:1.0;"/><path d="M2002.0156,493.4844 Q2002.1719,493.2656 2002.3594,493.1563 Q2002.5469,493.0469 2002.7656,493.0469 Q2003.1406,493.0469 2003.375,493.3125 Q2003.6094,493.5625 2003.6094,494.1719 L2003.6094,495.625 Q2003.6094,496.2344 2003.375,496.5 Q2003.1406,496.7656 2002.7656,496.7656 Q2002.4219,496.7656 2002.2188,496.5625 Q2002.0156,496.375 2001.9063,495.8594 Q2001.8594,495.5 2001.6719,495.3125 Q2001.3438,494.9375 2000.7344,494.7188 Q2000.125,494.5 1999.5,494.5 Q1998.7344,494.5 1998.0938,494.8281 Q1997.4688,495.1563 1996.9688,495.9063 Q1996.4844,496.6563 1996.4844,497.6875 L1996.4844,498.7813 Q1996.4844,500.0156 1997.375,500.8438 Q1998.2656,501.6563 1999.8594,501.6563 Q2000.7969,501.6563 2001.4531,501.4063 Q2001.8438,501.25 2002.2656,500.8125 Q2002.5313,500.5469 2002.6719,500.4688 Q2002.8281,500.3906 2003.0313,500.3906 Q2003.3594,500.3906 2003.6094,500.6563 Q2003.875,500.9063 2003.875,501.25 Q2003.875,501.5938 2003.5313,502 Q2003.0313,502.5781 2002.2344,502.9063 Q2001.1563,503.3594 1999.8594,503.3594 Q1998.3438,503.3594 1997.1406,502.7344 Q1996.1563,502.2344 1995.4688,501.1719 Q1994.7813,500.0938 1994.7813,498.8125 L1994.7813,497.6563 Q1994.7813,496.3281 1995.3906,495.1875 Q1996.0156,494.0313 1997.1094,493.4219 Q1998.2031,492.7969 1999.4375,492.7969 Q2000.1719,492.7969 2000.8125,492.9688 Q2001.4688,493.125 2002.0156,493.4844 Z " fill="#000000"/><text fill="#000000" font-family="sans-serif" font-size="14" lengthAdjust="spacing" textLength="75" x="2019.75" y="503.3379">InfoLugares</text><line style="stroke:#181818;stroke-width:0.5;" x1="1880" x2="2202" y1="513.6094" y2="513.6094"/><text fill="#000000" font-family="sans-serif" font-size="14" lengthAdjust="spacing" textLength="312" x="1885" y="532.1426">PK idioma : Enum {'ESP', 'ING', 'ALE', 'FRA', 'ITA'}</text><text fill="#000000" font-family="sans-serif" font-size="14" lengthAdjust="spacing" textLength="93" x="1885" y="549.752">cuerpo : String</text><text fill="#000000" font-family="sans-serif" font-size="14" lengthAdjust="spacing" textLength="144" x="1885" y="567.3613">textoAdicional1 : String</text><text fill="#000000" font-family="sans-serif" font-size="14" lengthAdjust="spacing" textLength="144" x="1885" y="584.9707">textoAdicional2 : String</text><text fill="#000000" font-family="sans-serif" font-size="14" lengthAdjust="spacing" textLength="136" x="1885" y="602.5801">numAccesos : Integer</text><line style="stroke:#181818;stroke-width:0.5;" x1="1880" x2="2202" y1="609.6563" y2="609.6563"/></g><!--MD5=[25273a2101410fd94efe35eaca0fa724]
class InfoNoticias--><g id="elem_InfoNoticias"><rect codeLine="118" fill="#F1F1F1" height="136.0469" id="InfoNoticias" rx="2.5" ry="2.5" style="stroke:#181818;stroke-width:0.5;" width="324" x="2252" y="481.6094"/><ellipse cx="2373.75" cy="497.6094" fill="#ADD1B2" rx="11" ry="11" style="stroke:#181818;stroke-width:1.0;"/><path d="M2376.5156,493.4844 Q2376.6719,493.2656 2376.8594,493.1563 Q2377.0469,493.0469 2377.2656,493.0469 Q2377.6406,493.0469 2377.875,493.3125 Q2378.1094,493.5625 2378.1094,494.1719 L2378.1094,495.625 Q2378.1094,496.2344 2377.875,496.5 Q2377.6406,496.7656 2377.2656,496.7656 Q2376.9219,496.7656 2376.7188,496.5625 Q2376.5156,496.375 2376.4063,495.8594 Q2376.3594,495.5 2376.1719,495.3125 Q2375.8438,494.9375 2375.2344,494.7188 Q2374.625,494.5 2374,494.5 Q2373.2344,494.5 2372.5938,494.8281 Q2371.9688,495.1563 2371.4688,495.9063 Q2370.9844,496.6563 2370.9844,497.6875 L2370.9844,498.7813 Q2370.9844,500.0156 2371.875,500.8438 Q2372.7656,501.6563 2374.3594,501.6563 Q2375.2969,501.6563 2375.9531,501.4063 Q2376.3438,501.25 2376.7656,500.8125 Q2377.0313,500.5469 2377.1719,500.4688 Q2377.3281,500.3906 2377.5313,500.3906 Q2377.8594,500.3906 2378.1094,500.6563 Q2378.375,500.9063 2378.375,501.25 Q2378.375,501.5938 2378.0313,502 Q2377.5313,502.5781 2376.7344,502.9063 Q2375.6563,503.3594 2374.3594,503.3594 Q2372.8438,503.3594 2371.6406,502.7344 Q2370.6563,502.2344 2369.9688,501.1719 Q2369.2813,500.0938 2369.2813,498.8125 L2369.2813,497.6563 Q2369.2813,496.3281 2369.8906,495.1875 Q2370.5156,494.0313 2371.6094,493.4219 Q2372.7031,492.7969 2373.9375,492.7969 Q2374.6719,492.7969 2375.3125,492.9688 Q2375.9688,493.125 2376.5156,493.4844 Z " fill="#000000"/><text fill="#000000" font-family="sans-serif" font-size="14" lengthAdjust="spacing" textLength="72" x="2394.25" y="503.3379">InfoNoticias</text><line style="stroke:#181818;stroke-width:0.5;" x1="2253" x2="2575" y1="513.6094" y2="513.6094"/><text fill="#000000" font-family="sans-serif" font-size="14" lengthAdjust="spacing" textLength="312" x="2258" y="532.1426">PK idioma : Enum {'ESP', 'ING', 'ALE', 'FRA', 'ITA'}</text><text fill="#000000" font-family="sans-serif" font-size="14" lengthAdjust="spacing" textLength="93" x="2258" y="549.752">cuerpo : String</text><text fill="#000000" font-family="sans-serif" font-size="14" lengthAdjust="spacing" textLength="144" x="2258" y="567.3613">textoAdicional1 : String</text><text fill="#000000" font-family="sans-serif" font-size="14" lengthAdjust="spacing" textLength="144" x="2258" y="584.9707">textoAdicional2 : String</text><text fill="#000000" font-family="sans-serif" font-size="14" lengthAdjust="spacing" textLength="136" x="2258" y="602.5801">numAccesos : Integer</text><line style="stroke:#181818;stroke-width:0.5;" x1="2253" x2="2575" y1="609.6563" y2="609.6563"/></g><!--MD5=[15392006fb81a3684b1dc8946c513ae2]
class InfoTitulosTarifas--><g id="elem_InfoTitulosTarifas"><rect codeLine="126" fill="#F1F1F1" height="136.0469" id="InfoTitulosTarifas" rx="2.5" ry="2.5" style="stroke:#181818;stroke-width:0.5;" width="324" x="2625" y="481.6094"/><ellipse cx="2728.25" cy="497.6094" fill="#ADD1B2" rx="11" ry="11" style="stroke:#181818;stroke-width:1.0;"/><path d="M2731.0156,493.4844 Q2731.1719,493.2656 2731.3594,493.1563 Q2731.5469,493.0469 2731.7656,493.0469 Q2732.1406,493.0469 2732.375,493.3125 Q2732.6094,493.5625 2732.6094,494.1719 L2732.6094,495.625 Q2732.6094,496.2344 2732.375,496.5 Q2732.1406,496.7656 2731.7656,496.7656 Q2731.4219,496.7656 2731.2188,496.5625 Q2731.0156,496.375 2730.9063,495.8594 Q2730.8594,495.5 2730.6719,495.3125 Q2730.3438,494.9375 2729.7344,494.7188 Q2729.125,494.5 2728.5,494.5 Q2727.7344,494.5 2727.0938,494.8281 Q2726.4688,495.1563 2725.9688,495.9063 Q2725.4844,496.6563 2725.4844,497.6875 L2725.4844,498.7813 Q2725.4844,500.0156 2726.375,500.8438 Q2727.2656,501.6563 2728.8594,501.6563 Q2729.7969,501.6563 2730.4531,501.4063 Q2730.8438,501.25 2731.2656,500.8125 Q2731.5313,500.5469 2731.6719,500.4688 Q2731.8281,500.3906 2732.0313,500.3906 Q2732.3594,500.3906 2732.6094,500.6563 Q2732.875,500.9063 2732.875,501.25 Q2732.875,501.5938 2732.5313,502 Q2732.0313,502.5781 2731.2344,502.9063 Q2730.1563,503.3594 2728.8594,503.3594 Q2727.3438,503.3594 2726.1406,502.7344 Q2725.1563,502.2344 2724.4688,501.1719 Q2723.7813,500.0938 2723.7813,498.8125 L2723.7813,497.6563 Q2723.7813,496.3281 2724.3906,495.1875 Q2725.0156,494.0313 2726.1094,493.4219 Q2727.2031,492.7969 2728.4375,492.7969 Q2729.1719,492.7969 2729.8125,492.9688 Q2730.4688,493.125 2731.0156,493.4844 Z " fill="#000000"/><text fill="#000000" font-family="sans-serif" font-size="14" lengthAdjust="spacing" textLength="109" x="2748.75" y="503.3379">InfoTitulosTarifas</text><line style="stroke:#181818;stroke-width:0.5;" x1="2626" x2="2948" y1="513.6094" y2="513.6094"/><text fill="#000000" font-family="sans-serif" font-size="14" lengthAdjust="spacing" textLength="312" x="2631" y="532.1426">PK idioma : Enum {'ESP', 'ING', 'ALE', 'FRA', 'ITA'}</text><text fill="#000000" font-family="sans-serif" font-size="14" lengthAdjust="spacing" textLength="93" x="2631" y="549.752">cuerpo : String</text><text fill="#000000" font-family="sans-serif" font-size="14" lengthAdjust="spacing" textLength="144" x="2631" y="567.3613">textoAdicional1 : String</text><text fill="#000000" font-family="sans-serif" font-size="14" lengthAdjust="spacing" textLength="144" x="2631" y="584.9707">textoAdicional2 : String</text><text fill="#000000" font-family="sans-serif" font-size="14" lengthAdjust="spacing" textLength="136" x="2631" y="602.5801">numAccesos : Integer</text><line style="stroke:#181818;stroke-width:0.5;" x1="2626" x2="2948" y1="609.6563" y2="609.6563"/></g><!--MD5=[7dfdd9c2db79720d0ac8c0fb48d93c9f]
class Publicidad--><g id="elem_Publicidad"><rect codeLine="134" fill="#F1F1F1" height="153.6563" id="Publicidad" rx="2.5" ry="2.5" style="stroke:#181818;stroke-width:0.5;" width="324" x="2998" y="472.6094"/><ellipse cx="3123.25" cy="488.6094" fill="#ADD1B2" rx="11" ry="11" style="stroke:#181818;stroke-width:1.0;"/><path d="M3126.0156,484.4844 Q3126.1719,484.2656 3126.3594,484.1563 Q3126.5469,484.0469 3126.7656,484.0469 Q3127.1406,484.0469 3127.375,484.3125 Q3127.6094,484.5625 3127.6094,485.1719 L3127.6094,486.625 Q3127.6094,487.2344 3127.375,487.5 Q3127.1406,487.7656 3126.7656,487.7656 Q3126.4219,487.7656 3126.2188,487.5625 Q3126.0156,487.375 3125.9063,486.8594 Q3125.8594,486.5 3125.6719,486.3125 Q3125.3438,485.9375 3124.7344,485.7188 Q3124.125,485.5 3123.5,485.5 Q3122.7344,485.5 3122.0938,485.8281 Q3121.4688,486.1563 3120.9688,486.9063 Q3120.4844,487.6563 3120.4844,488.6875 L3120.4844,489.7813 Q3120.4844,491.0156 3121.375,491.8438 Q3122.2656,492.6563 3123.8594,492.6563 Q3124.7969,492.6563 3125.4531,492.4063 Q3125.8438,492.25 3126.2656,491.8125 Q3126.5313,491.5469 3126.6719,491.4688 Q3126.8281,491.3906 3127.0313,491.3906 Q3127.3594,491.3906 3127.6094,491.6563 Q3127.875,491.9063 3127.875,492.25 Q3127.875,492.5938 3127.5313,493 Q3127.0313,493.5781 3126.2344,493.9063 Q3125.1563,494.3594 3123.8594,494.3594 Q3122.3438,494.3594 3121.1406,493.7344 Q3120.1563,493.2344 3119.4688,492.1719 Q3118.7813,491.0938 3118.7813,489.8125 L3118.7813,488.6563 Q3118.7813,487.3281 3119.3906,486.1875 Q3120.0156,485.0313 3121.1094,484.4219 Q3122.2031,483.7969 3123.4375,483.7969 Q3124.1719,483.7969 3124.8125,483.9688 Q3125.4688,484.125 3126.0156,484.4844 Z " fill="#000000"/><text fill="#000000" font-family="sans-serif" font-size="14" lengthAdjust="spacing" textLength="65" x="3143.75" y="494.3379">Publicidad</text><line style="stroke:#181818;stroke-width:0.5;" x1="2999" x2="3321" y1="504.6094" y2="504.6094"/><text fill="#000000" font-family="sans-serif" font-size="14" lengthAdjust="spacing" textLength="154" x="3004" y="523.1426">PK idPublicidad : Integer</text><text fill="#000000" font-family="sans-serif" font-size="14" lengthAdjust="spacing" textLength="312" x="3004" y="540.752">PK idioma : Enum {'ESP', 'ING', 'ALE', 'FRA', 'ITA'}</text><text fill="#000000" font-family="sans-serif" font-size="14" lengthAdjust="spacing" textLength="93" x="3004" y="558.3613">cuerpo : String</text><text fill="#000000" font-family="sans-serif" font-size="14" lengthAdjust="spacing" textLength="144" x="3004" y="575.9707">textoAdicional1 : String</text><text fill="#000000" font-family="sans-serif" font-size="14" lengthAdjust="spacing" textLength="144" x="3004" y="593.5801">textoAdicional2 : String</text><text fill="#000000" font-family="sans-serif" font-size="14" lengthAdjust="spacing" textLength="142" x="3004" y="611.1895">fechaExpiracion : Date</text><line style="stroke:#181818;stroke-width:0.5;" x1="2999" x2="3321" y1="618.2656" y2="618.2656"/></g><!--MD5=[35a64b983c79880384a2fd9b61f0c24b]
class Usuario--><g id="elem_Usuario"><rect codeLine="143" fill="#F1F1F1" height="206.4844" id="Usuario" rx="2.5" ry="2.5" style="stroke:#181818;stroke-width:0.5;" width="172" x="1984" y="45.6094"/><ellipse cx="2041.75" cy="61.6094" fill="#ADD1B2" rx="11" ry="11" style="stroke:#181818;stroke-width:1.0;"/><path d="M2044.5156,57.4844 Q2044.6719,57.2656 2044.8594,57.1563 Q2045.0469,57.0469 2045.2656,57.0469 Q2045.6406,57.0469 2045.875,57.3125 Q2046.1094,57.5625 2046.1094,58.1719 L2046.1094,59.625 Q2046.1094,60.2344 2045.875,60.5 Q2045.6406,60.7656 2045.2656,60.7656 Q2044.9219,60.7656 2044.7188,60.5625 Q2044.5156,60.375 2044.4063,59.8594 Q2044.3594,59.5 2044.1719,59.3125 Q2043.8438,58.9375 2043.2344,58.7188 Q2042.625,58.5 2042,58.5 Q2041.2344,58.5 2040.5938,58.8281 Q2039.9688,59.1563 2039.4688,59.9063 Q2038.9844,60.6563 2038.9844,61.6875 L2038.9844,62.7813 Q2038.9844,64.0156 2039.875,64.8438 Q2040.7656,65.6563 2042.3594,65.6563 Q2043.2969,65.6563 2043.9531,65.4063 Q2044.3438,65.25 2044.7656,64.8125 Q2045.0313,64.5469 2045.1719,64.4688 Q2045.3281,64.3906 2045.5313,64.3906 Q2045.8594,64.3906 2046.1094,64.6563 Q2046.375,64.9063 2046.375,65.25 Q2046.375,65.5938 2046.0313,66 Q2045.5313,66.5781 2044.7344,66.9063 Q2043.6563,67.3594 2042.3594,67.3594 Q2040.8438,67.3594 2039.6406,66.7344 Q2038.6563,66.2344 2037.9688,65.1719 Q2037.2813,64.0938 2037.2813,62.8125 L2037.2813,61.6563 Q2037.2813,60.3281 2037.8906,59.1875 Q2038.5156,58.0313 2039.6094,57.4219 Q2040.7031,56.7969 2041.9375,56.7969 Q2042.6719,56.7969 2043.3125,56.9688 Q2043.9688,57.125 2044.5156,57.4844 Z " fill="#000000"/><text fill="#000000" font-family="sans-serif" font-size="14" lengthAdjust="spacing" textLength="48" x="2062.25" y="67.3379">Usuario</text><line style="stroke:#181818;stroke-width:0.5;" x1="1985" x2="2155" y1="77.6094" y2="77.6094"/><text fill="#000000" font-family="sans-serif" font-size="14" lengthAdjust="spacing" textLength="137" x="1990" y="96.1426">PK idUsuario : Integer</text><text fill="#000000" font-family="sans-serif" font-size="14" lengthAdjust="spacing" textLength="71" x="1990" y="113.752">DNI : String</text><text fill="#000000" font-family="sans-serif" font-size="14" lengthAdjust="spacing" textLength="157" x="1990" y="131.3613">nombreCompleto : String</text><text fill="#000000" font-family="sans-serif" font-size="14" lengthAdjust="spacing" textLength="146" x="1990" y="148.9707">fechaNacimiento : Date</text><text fill="#000000" font-family="sans-serif" font-size="14" lengthAdjust="spacing" textLength="78" x="1990" y="166.5801">sexo : String</text><text fill="#000000" font-family="sans-serif" font-size="14" lengthAdjust="spacing" textLength="101" x="1990" y="184.1895">fechaAlta : Date</text><text fill="#000000" font-family="sans-serif" font-size="14" lengthAdjust="spacing" textLength="106" x="1990" y="201.7988">direccion : String</text><text fill="#000000" font-family="sans-serif" font-size="14" lengthAdjust="spacing" textLength="100" x="1990" y="219.4082">telefono : String</text><text fill="#000000" font-family="sans-serif" font-size="14" lengthAdjust="spacing" textLength="160" x="1990" y="237.0176">correoElectronico : String</text><line style="stroke:#181818;stroke-width:0.5;" x1="1985" x2="2155" y1="244.0938" y2="244.0938"/></g><!--MD5=[3ce8c7d5e648d2478a3eeae9b8fe7acb]
link Imagen to ImagenAvisoInformativo--><g id="link_Imagen_ImagenAvisoInformativo"><path codeLine="155" d="M1594.17,155.2094 C1394.31,171.1294 826.55,221.4194 362,311.6094 C356.42,312.6894 350.77,313.8494 345.07,315.0694 " fill="none" id="Imagen-ImagenAvisoInformativo" style="stroke:#181818;stroke-width:1.0;"/><text fill="#000000" font-family="sans-serif" font-size="13" lengthAdjust="spacing" textLength="7" x="1579.5578" y="152.5924">1</text><text fill="#000000" font-family="sans-serif" font-size="13" lengthAdjust="spacing" textLength="26" x="351.3194" y="309.806">0..m</text></g><!--MD5=[aab25f930920fc60dc64457c34e507c6]
link Imagen to ImagenInfoContacto--><g id="link_Imagen_ImagenInfoContacto"><path codeLine="156" d="M1594.39,160.1294 C1436.23,183.2294 1052.55,241.9294 735,311.6094 C722.43,314.3694 709.44,317.4194 696.43,320.5994 " fill="none" id="Imagen-ImagenInfoContacto" style="stroke:#181818;stroke-width:1.0;"/><text fill="#000000" font-family="sans-serif" font-size="13" lengthAdjust="spacing" textLength="7" x="1579.438" y="175.6645">1</text><text fill="#000000" font-family="sans-serif" font-size="13" lengthAdjust="spacing" textLength="26" x="692.695" y="309.9054">0..m</text></g><!--MD5=[72a5e0cd2484589680b2632b0eb0826d]
link Imagen to ImagenInfoCorporativa--><g id="link_Imagen_ImagenInfoCorporativa"><path codeLine="157" d="M1594.43,170.4694 C1471.75,205.2494 1223.28,275.6894 1065.15,320.5294 " fill="none" id="Imagen-ImagenInfoCorporativa" style="stroke:#181818;stroke-width:1.0;"/><text fill="#000000" font-family="sans-serif" font-size="13" lengthAdjust="spacing" textLength="7" x="1579.4822" y="187.0708">1</text><text fill="#000000" font-family="sans-serif" font-size="13" lengthAdjust="spacing" textLength="26" x="1060.7061" y="309.8238">0..m</text></g><!--MD5=[ad9305b7c927fccdcf5b47ab208b33a1]
link Imagen to ImagenInfoHorariosServicios--><g id="link_Imagen_ImagenInfoHorariosServicios"><path codeLine="158" d="M1594.31,191.3994 C1528.28,228.8394 1432.03,283.4094 1366.64,320.4894 " fill="none" id="Imagen-ImagenInfoHorariosServicios" style="stroke:#181818;stroke-width:1.0;"/><text fill="#000000" font-family="sans-serif" font-size="13" lengthAdjust="spacing" textLength="7" x="1579.3498" y="210.1592">1</text><text fill="#000000" font-family="sans-serif" font-size="13" lengthAdjust="spacing" textLength="26" x="1350.3523" y="309.7772">0..m</text></g><!--MD5=[6a09cba4274b0bca304d42ff66fb7836]
link Imagen to ImagenInfoItinerariosDestacados--><g id="link_Imagen_ImagenInfoItinerariosDestacados"><path codeLine="159" d="M1668,199.1994 C1668,236.0694 1668,285.7794 1668,320.3494 " fill="none" id="Imagen-ImagenInfoItinerariosDestacados" style="stroke:#181818;stroke-width:1.0;"/><text fill="#000000" font-family="sans-serif" font-size="13" lengthAdjust="spacing" textLength="7" x="1660.5297" y="220.6027">1</text><text fill="#000000" font-family="sans-serif" font-size="13" lengthAdjust="spacing" textLength="26" x="1639.8469" y="309.614">0..m</text></g><!--MD5=[2ee5977c1d9f5f731e7157104e0db0bb]
link Imagen to ImagenInfoLugares--><g id="link_Imagen_ImagenInfoLugares"><path codeLine="160" d="M1704.04,199.1294 C1719.36,217.5094 1738.43,237.3394 1759,251.6094 C1800.97,280.7194 1851.75,303.5094 1898.59,320.5894 " fill="none" id="Imagen-ImagenInfoLugares" style="stroke:#181818;stroke-width:1.0;"/><text fill="#000000" font-family="sans-serif" font-size="13" lengthAdjust="spacing" textLength="7" x="1709.3532" y="220.5233">1</text><text fill="#000000" font-family="sans-serif" font-size="13" lengthAdjust="spacing" textLength="26" x="1846.8502" y="309.8937">0..m</text></g><!--MD5=[4fed0f80bd024df11efabb7cd4b162ac]
link Imagen to ImagenInfoNoticias--><g id="link_Imagen_ImagenInfoNoticias"><path codeLine="161" d="M1700.29,199.1594 C1715.67,218.7094 1735.8,239.3894 1759,251.6094 C1944.53,349.3594 2021.2,271.3594 2227,311.6094 C2240.51,314.2494 2254.49,317.3194 2268.45,320.5994 " fill="none" id="Imagen-ImagenInfoNoticias" style="stroke:#181818;stroke-width:1.0;"/><text fill="#000000" font-family="sans-serif" font-size="13" lengthAdjust="spacing" textLength="7" x="1697.1587" y="220.5573">1</text><text fill="#000000" font-family="sans-serif" font-size="13" lengthAdjust="spacing" textLength="26" x="2216.1902" y="309.9054">0..m</text></g><!--MD5=[719bde73941becea747a2c82fdde3b60]
link Imagen to ImagenInfoTitulosTarifas--><g id="link_Imagen_ImagenInfoTitulosTarifas"><path codeLine="162" d="M1699.55,199.2594 C1714.93,219.0894 1735.25,239.9394 1759,251.6094 C1927.16,334.2494 2415.18,280.8394 2600,311.6094 C2614.74,314.0594 2630.01,317.1594 2645.17,320.5994 " fill="none" id="Imagen-ImagenInfoTitulosTarifas" style="stroke:#181818;stroke-width:1.0;"/><text fill="#000000" font-family="sans-serif" font-size="13" lengthAdjust="spacing" textLength="7" x="1704.0408" y="220.3026">1</text><text fill="#000000" font-family="sans-serif" font-size="13" lengthAdjust="spacing" textLength="26" x="2593.5263" y="309.9054">0..m</text></g><!--MD5=[ddb783b8722d1e6ecc37cc6f833c62d8]
link Imagen to ImagenPublicidad--><g id="link_Imagen_ImagenPublicidad"><path codeLine="163" d="M1699.22,199.2394 C1714.6,219.1894 1735.02,240.1494 1759,251.6094 C2002.9,368.1794 2706.9,269.9494 2974,311.6094 C2979.53,312.4694 2985.13,313.4294 2990.78,314.4794 " fill="none" id="Imagen-ImagenPublicidad" style="stroke:#181818;stroke-width:1.0;"/><text fill="#000000" font-family="sans-serif" font-size="13" lengthAdjust="spacing" textLength="7" x="1695.7716" y="220.28">1</text><text fill="#000000" font-family="sans-serif" font-size="13" lengthAdjust="spacing" textLength="26" x="2957.0926" y="309.6386">0..m</text></g><!--MD5=[125bb2bc6d8698bab01fa4938eb26986]
link ImagenAvisoInformativo to AvisoInformativo--><g id="link_ImagenAvisoInformativo_AvisoInformativo"><path codeLine="164" d="M176,412.8194 C176,431.1694 176,452.4094 176,472.5594 " fill="none" id="ImagenAvisoInformativo-AvisoInformativo" style="stroke:#181818;stroke-width:1.0;"/><text fill="#000000" font-family="sans-serif" font-size="13" lengthAdjust="spacing" textLength="26" x="148.3344" y="433.8702">0..m</text><text fill="#000000" font-family="sans-serif" font-size="13" lengthAdjust="spacing" textLength="7" x="168.6555" y="461.7166">1</text></g><!--MD5=[ca71938aaae37ff8bd0d905528e53149]
link ImagenInfoContacto to InfoContacto--><g id="link_ImagenInfoContacto_InfoContacto"><path codeLine="165" d="M549,403.8194 C549,426.5394 549,455.4094 549,481.3894 " fill="none" id="ImagenInfoContacto-InfoContacto" style="stroke:#181818;stroke-width:1.0;"/><text fill="#000000" font-family="sans-serif" font-size="13" lengthAdjust="spacing" textLength="26" x="520.9281" y="425.2476">0..m</text><text fill="#000000" font-family="sans-serif" font-size="13" lengthAdjust="spacing" textLength="7" x="541.6172" y="470.5646">1</text></g><!--MD5=[d49689419e70ca7b79a914530c2aecd6]
link ImagenInfoCorporativa to InfoCorporativa--><g id="link_ImagenInfoCorporativa_InfoCorporativa"><path codeLine="166" d="M922,403.8194 C922,426.5394 922,455.4094 922,481.3894 " fill="none" id="ImagenInfoCorporativa-InfoCorporativa" style="stroke:#181818;stroke-width:1.0;"/><text fill="#000000" font-family="sans-serif" font-size="13" lengthAdjust="spacing" textLength="26" x="893.9281" y="425.2476">0..m</text><text fill="#000000" font-family="sans-serif" font-size="13" lengthAdjust="spacing" textLength="7" x="914.6172" y="470.5646">1</text></g><!--MD5=[8f5407652e24a933ba82c3f5fabda71d]
link ImagenInfoHorariosServicios to InfoHorariosServicios--><g id="link_ImagenInfoHorariosServicios_InfoHorariosServicios"><path codeLine="167" d="M1295,403.8194 C1295,426.5394 1295,455.4094 1295,481.3894 " fill="none" id="ImagenInfoHorariosServicios-InfoHorariosServicios" style="stroke:#181818;stroke-width:1.0;"/><text fill="#000000" font-family="sans-serif" font-size="13" lengthAdjust="spacing" textLength="26" x="1266.9281" y="425.2476">0..m</text><text fill="#000000" font-family="sans-serif" font-size="13" lengthAdjust="spacing" textLength="7" x="1287.6172" y="470.5646">1</text></g><!--MD5=[6640117486f5d6d81849a92581a6d44a]
link ImagenInfoItinerariosDestacados to InfoItinerariosDestacados--><g id="link_ImagenInfoItinerariosDestacados_InfoItinerariosDestacados"><path codeLine="168" d="M1668,403.8194 C1668,426.5394 1668,455.4094 1668,481.3894 " fill="none" id="ImagenInfoItinerariosDestacados-InfoItinerariosDestacados" style="stroke:#181818;stroke-width:1.0;"/><text fill="#000000" font-family="sans-serif" font-size="13" lengthAdjust="spacing" textLength="26" x="1639.9281" y="425.2476">0..m</text><text fill="#000000" font-family="sans-serif" font-size="13" lengthAdjust="spacing" textLength="7" x="1660.6172" y="470.5646">1</text></g><!--MD5=[bca3381f4d8c2f6c2e683b89ca61639d]
link ImagenInfoLugares to InfoLugares--><g id="link_ImagenInfoLugares_InfoLugares"><path codeLine="169" d="M2041,403.8194 C2041,426.5394 2041,455.4094 2041,481.3894 " fill="none" id="ImagenInfoLugares-InfoLugares" style="stroke:#181818;stroke-width:1.0;"/><text fill="#000000" font-family="sans-serif" font-size="13" lengthAdjust="spacing" textLength="26" x="2012.9281" y="425.2476">0..m</text><text fill="#000000" font-family="sans-serif" font-size="13" lengthAdjust="spacing" textLength="7" x="2033.6172" y="470.5646">1</text></g><!--MD5=[6967fb33bd68087236370a0f403f576c]
link ImagenInfoNoticias to InfoNoticias--><g id="link_ImagenInfoNoticias_InfoNoticias"><path codeLine="170" d="M2414,403.8194 C2414,426.5394 2414,455.4094 2414,481.3894 " fill="none" id="ImagenInfoNoticias-InfoNoticias" style="stroke:#181818;stroke-width:1.0;"/><text fill="#000000" font-family="sans-serif" font-size="13" lengthAdjust="spacing" textLength="26" x="2385.9281" y="425.2476">0..m</text><text fill="#000000" font-family="sans-serif" font-size="13" lengthAdjust="spacing" textLength="7" x="2406.6172" y="470.5646">1</text></g><!--MD5=[9bbb5f3b24e738cb1ca7ee5560e8cd9a]
link ImagenInfoTitulosTarifas to InfoTitulosTarifas--><g id="link_ImagenInfoTitulosTarifas_InfoTitulosTarifas"><path codeLine="171" d="M2787,403.8194 C2787,426.5394 2787,455.4094 2787,481.3894 " fill="none" id="ImagenInfoTitulosTarifas-InfoTitulosTarifas" style="stroke:#181818;stroke-width:1.0;"/><text fill="#000000" font-family="sans-serif" font-size="13" lengthAdjust="spacing" textLength="26" x="2758.9281" y="425.2476">0..m</text><text fill="#000000" font-family="sans-serif" font-size="13" lengthAdjust="spacing" textLength="7" x="2779.6172" y="470.5646">1</text></g><!--MD5=[9bbbbe5db2c5388508aa4b4fc02caa98]
link ImagenPublicidad to Publicidad--><g id="link_ImagenPublicidad_Publicidad"><path codeLine="172" d="M3160,412.8194 C3160,431.1694 3160,452.4094 3160,472.5594 " fill="none" id="ImagenPublicidad-Publicidad" style="stroke:#181818;stroke-width:1.0;"/><text fill="#000000" font-family="sans-serif" font-size="13" lengthAdjust="spacing" textLength="26" x="3132.3344" y="433.8702">0..m</text><text fill="#000000" font-family="sans-serif" font-size="13" lengthAdjust="spacing" textLength="7" x="3152.6555" y="461.7166">1</text></g><!--MD5=[f0892b12b0952f235c159fb837bdf9a0]
@startuml DC_P

title Diagrama de clases: Portal

class AvisoInformativo {
    PK idAvisoInformativo : Integer
    PK idioma : Enum {'ESP', 'ING', 'ALE', 'FRA', 'ITA'}
    cabecera : String
    cuerpo : String
    textoAdicional1 : String
    textoAdicional2 : String
}

class Gestor {
    PK idGestor : Integer
    DNI : String
    nombreCompleto : String
    fechaNacimiento : Date
    sexo : String
    fechaAlta : Date
    direccion : String
    telefono : String
    correoElectronico : String
}

class Imagen {
    PK idImagen : Integer
    titulo : String
    urlImagen : String
}

class ImagenAvisoInformativo {
    PK FK idImagen : Integer
    PK idAvisoInformativo : Integer
    PK FK idioma Enum {'ESP', 'ING', 'ALE', 'FRA', 'ITA'}
}

class ImagenInfoContacto {
    PK FK idImagen : Integer
    PK FK idioma Enum {'ESP', 'ING', 'ALE', 'FRA', 'ITA'}
}

class ImagenInfoCorporativa {
    PK FK idImagen : Integer
    PK FK idioma Enum {'ESP', 'ING', 'ALE', 'FRA', 'ITA'}
}

class ImagenInfoHorariosServicios {
    PK FK idImagen : Integer
    PK FK idioma Enum {'ESP', 'ING', 'ALE', 'FRA', 'ITA'}
}

class ImagenInfoItinerariosDestacados {
    PK FK idImagen : Integer
    PK FK idioma Enum {'ESP', 'ING', 'ALE', 'FRA', 'ITA'}
}

class ImagenInfoLugares {
    PK FK idImagen : Integer
    PK FK idioma Enum {'ESP', 'ING', 'ALE', 'FRA', 'ITA'}
}

class ImagenInfoNoticias {
    PK FK idImagen : Integer
    PK FK idioma Enum {'ESP', 'ING', 'ALE', 'FRA', 'ITA'}
}

class ImagenInfoTitulosTarifas {
    PK FK idImagen : Integer
    PK FK idioma Enum {'ESP', 'ING', 'ALE', 'FRA', 'ITA'}
}

class ImagenPublicidad {
    PK FK idImagen : Integer
    PK idPublicidad : Integer
    PK FK idioma Enum {'ESP', 'ING', 'ALE', 'FRA', 'ITA'}
}

class InfoContacto {
    PK idioma : Enum {'ESP', 'ING', 'ALE', 'FRA', 'ITA'}
    cuerpo : String
    textoAdicional1 : String
    textoAdicional2 : String
    numAccesos : Integer
}

class InfoCorporativa {
    PK idioma : Enum {'ESP', 'ING', 'ALE', 'FRA', 'ITA'}
    cuerpo : String
    textoAdicional1 : String
    textoAdicional2 : String
    numAccesos : Integer
}

class InfoHorariosServicios {
    PK idioma : Enum {'ESP', 'ING', 'ALE', 'FRA', 'ITA'}
    cuerpo : String
    textoAdicional1 : String
    textoAdicional2 : String
    numAccesos : Integer
}

class InfoItinerariosDestacados {
    PK idioma : Enum {'ESP', 'ING', 'ALE', 'FRA', 'ITA'}
    cuerpo : String
    textoAdicional1 : String
    textoAdicional2 : String
    numAccesos : Integer
}

class InfoLugares {
    PK idioma : Enum {'ESP', 'ING', 'ALE', 'FRA', 'ITA'}
    cuerpo : String
    textoAdicional1 : String
    textoAdicional2 : String
    numAccesos : Integer
}

class InfoNoticias {
    PK idioma : Enum {'ESP', 'ING', 'ALE', 'FRA', 'ITA'}
    cuerpo : String
    textoAdicional1 : String
    textoAdicional2 : String
    numAccesos : Integer
}

class InfoTitulosTarifas {
    PK idioma : Enum {'ESP', 'ING', 'ALE', 'FRA', 'ITA'}
    cuerpo : String
    textoAdicional1 : String
    textoAdicional2 : String
    numAccesos : Integer
}

class Publicidad {
    PK idPublicidad : Integer
    PK idioma : Enum {'ESP', 'ING', 'ALE', 'FRA', 'ITA'}
    cuerpo : String
    textoAdicional1 : String
    textoAdicional2 : String
    fechaExpiracion : Date
}

class Usuario {
    PK idUsuario : Integer
    DNI : String
    nombreCompleto : String
    fechaNacimiento : Date
    sexo : String
    fechaAlta : Date
    direccion : String
    telefono : String
    correoElectronico : String
}

Imagen "1" - - "0..m" ImagenAvisoInformativo
Imagen "1" - - "0..m" ImagenInfoContacto
Imagen "1" - - "0..m" ImagenInfoCorporativa
Imagen "1" - - "0..m" ImagenInfoHorariosServicios
Imagen "1" - - "0..m" ImagenInfoItinerariosDestacados
Imagen "1" - - "0..m" ImagenInfoLugares
Imagen "1" - - "0..m" ImagenInfoNoticias
Imagen "1" - - "0..m" ImagenInfoTitulosTarifas
Imagen "1" - - "0..m" ImagenPublicidad
ImagenAvisoInformativo "0..m" - - "1" AvisoInformativo
ImagenInfoContacto "0..m" - - "1" InfoContacto
ImagenInfoCorporativa "0..m" - - "1" InfoCorporativa
ImagenInfoHorariosServicios "0..m" - - "1" InfoHorariosServicios 
ImagenInfoItinerariosDestacados "0..m" - - "1" InfoItinerariosDestacados 
ImagenInfoLugares "0..m" - - "1" InfoLugares 
ImagenInfoNoticias "0..m" - - "1" InfoNoticias
ImagenInfoTitulosTarifas "0..m" - - "1" InfoTitulosTarifas 
ImagenPublicidad "0..m" - - "1" Publicidad

@enduml

PlantUML version 1.2022.7(Mon Aug 22 19:01:30 CEST 2022)
(GPL source distribution)
Java Runtime: OpenJDK Runtime Environment
JVM: OpenJDK 64-Bit Server VM
Default Encoding: Cp1252
Language: es
Country: ES
--></g></svg>