<?xml version="1.0" encoding="UTF-8" standalone="no"?><svg xmlns="http://www.w3.org/2000/svg" xmlns:xlink="http://www.w3.org/1999/xlink" contentStyleType="text/css" height="724px" preserveAspectRatio="none" style="width:1821px;height:724px;background:#FFFFFF;" version="1.1" viewBox="0 0 1821 724" width="1821px" zoomAndPan="magnify"><defs/><g><rect fill="none" height="27.6094" id="_title" style="stroke:none;stroke-width:1.0;" width="153" x="827.4821" y="5"/><text fill="#000000" font-family="sans-serif" font-size="14" font-weight="bold" lengthAdjust="spacing" textLength="143" x="832.4821" y="24.5332">Sistema de Compras</text><!--MD5=[23bc7945312e1f0a2e37cebfe503a03b]
entity A1--><g id="elem_A1"><ellipse cx="264.5" cy="191.6094" fill="#F1F1F1" rx="8" ry="8" style="stroke:#181818;stroke-width:0.5;"/><path d="M264.5,199.6094 L264.5,226.6094 M251.5,207.6094 L277.5,207.6094 M264.5,226.6094 L251.5,241.6094 M264.5,226.6094 L277.5,241.6094 " fill="none" style="stroke:#181818;stroke-width:0.5;"/><text fill="#000000" font-family="sans-serif" font-size="14" lengthAdjust="spacing" textLength="87" x="221" y="257.6426">Administrador</text></g><!--MD5=[406a5e0ae180932da9bcb21c819a1904]
entity A2--><g id="elem_A2"><ellipse cx="542.5" cy="191.6094" fill="#F1F1F1" rx="8" ry="8" style="stroke:#181818;stroke-width:0.5;"/><path d="M542.5,199.6094 L542.5,226.6094 M529.5,207.6094 L555.5,207.6094 M542.5,226.6094 L529.5,241.6094 M542.5,226.6094 L555.5,241.6094 " fill="none" style="stroke:#181818;stroke-width:0.5;"/><text fill="#000000" font-family="sans-serif" font-size="14" lengthAdjust="spacing" textLength="71" x="507" y="257.6426">Comprador</text></g><!--MD5=[305b0bf20d1e87c4314d270a9e4e4ae4]
entity A3--><g id="elem_A3"><ellipse cx="1498.5" cy="191.6094" fill="#F1F1F1" rx="8" ry="8" style="stroke:#181818;stroke-width:0.5;"/><path d="M1498.5,199.6094 L1498.5,226.6094 M1485.5,207.6094 L1511.5,207.6094 M1498.5,226.6094 L1485.5,241.6094 M1498.5,226.6094 L1511.5,241.6094 " fill="none" style="stroke:#181818;stroke-width:0.5;"/><text fill="#000000" font-family="sans-serif" font-size="14" lengthAdjust="spacing" textLength="66" x="1465.5" y="257.6426">Proveedor</text></g><!--MD5=[b4296d86aafbbd2074f03a740cb37cff]
entity A4--><g id="elem_A4"><ellipse cx="778.5" cy="52.6094" fill="#F1F1F1" rx="8" ry="8" style="stroke:#181818;stroke-width:0.5;"/><path d="M778.5,60.6094 L778.5,87.6094 M765.5,68.6094 L791.5,68.6094 M778.5,87.6094 L765.5,102.6094 M778.5,87.6094 L791.5,102.6094 " fill="none" style="stroke:#181818;stroke-width:0.5;"/><text fill="#000000" font-family="sans-serif" font-size="14" lengthAdjust="spacing" textLength="48" x="754.5" y="118.6426">Usuario</text></g><!--MD5=[92e12b53097991ea4e702b1584848830]
entity A5--><g id="elem_A5"><ellipse cx="831.5" cy="191.6094" fill="#F1F1F1" rx="8" ry="8" style="stroke:#181818;stroke-width:0.5;"/><path d="M831.5,199.6094 L831.5,226.6094 M818.5,207.6094 L844.5,207.6094 M831.5,226.6094 L818.5,241.6094 M831.5,226.6094 L844.5,241.6094 " fill="none" style="stroke:#181818;stroke-width:0.5;"/><text fill="#000000" font-family="sans-serif" font-size="14" lengthAdjust="spacing" textLength="62" x="800.5" y="257.6426">Vendedor</text></g><g id="elem_UC1"><ellipse cx="966.4259" cy="555.8946" fill="#F1F1F1" rx="71.9259" ry="16.7852" style="stroke:#181818;stroke-width:0.5;"/><text fill="#000000" font-family="sans-serif" font-size="14" lengthAdjust="spacing" textLength="93" x="916.9259" y="560.4112">Acordar precio</text></g><g id="elem_UC2"><ellipse cx="464.6819" cy="394.7458" fill="#F1F1F1" rx="78.6819" ry="18.1364" style="stroke:#181818;stroke-width:0.5;"/><text fill="#000000" font-family="sans-serif" font-size="14" lengthAdjust="spacing" textLength="111" x="407.5947" y="398.9177">Agregar producto</text></g><g id="elem_UC3"><ellipse cx="1391.5624" cy="222.0611" fill="#F1F1F1" rx="39.0624" ry="15.4517" style="stroke:#181818;stroke-width:0.5;"/><text fill="#000000" font-family="sans-serif" font-size="14" lengthAdjust="spacing" textLength="39" x="1372.0624" y="225.7896">Avisar</text></g><g id="elem_UC4"><ellipse cx="1696.7321" cy="394.5057" fill="#F1F1F1" rx="119.2321" ry="55.3963" style="stroke:#181818;stroke-width:0.5;"/><text fill="#000000" font-family="sans-serif" font-size="14" lengthAdjust="spacing" textLength="162" x="1617.0609" y="371.6286">Avisar de nuevo producto</text><text fill="#000000" font-family="sans-serif" font-size="14" lengthAdjust="spacing" textLength="4" x="1696.0609" y="389.238"> </text><line style="stroke:#181818;stroke-width:1.0;" x1="1578.5933" x2="1814.8709" y1="392.3142" y2="392.3142"/><text fill="#000000" font-family="sans-serif" font-size="14" font-weight="bold" lengthAdjust="spacing" textLength="118" x="1639.0609" y="410.8474">extension points</text><text fill="#000000" font-family="sans-serif" font-size="14" lengthAdjust="spacing" textLength="106" x="1645.0609" y="428.4567">Incorporar oferta</text></g><g id="elem_UC5"><ellipse cx="1460.4202" cy="394.3934" fill="#F1F1F1" rx="81.9202" ry="18.784" style="stroke:#181818;stroke-width:0.5;"/><text fill="#000000" font-family="sans-serif" font-size="14" lengthAdjust="spacing" textLength="119" x="1400.7512" y="398.1722">Avisar fin de oferta</text></g><g id="elem_UC6"><ellipse cx="725.4763" cy="394.7046" fill="#F1F1F1" rx="75.9763" ry="17.5953" style="stroke:#181818;stroke-width:0.5;"/><text fill="#000000" font-family="sans-serif" font-size="14" lengthAdjust="spacing" textLength="104" x="670.5467" y="399.2051">Buscar producto</text></g><g id="elem_UC7"><ellipse cx="1180.3461" cy="222.0375" fill="#F1F1F1" rx="97.8461" ry="27.9281" style="stroke:#181818;stroke-width:0.5;"/><text fill="#000000" font-family="sans-serif" font-size="14" lengthAdjust="spacing" textLength="118" x="1116.3636" y="217.7452">Consultar histórico</text><text fill="#000000" font-family="sans-serif" font-size="14" lengthAdjust="spacing" textLength="62" x="1148.3636" y="235.3545">de ventas</text></g><g id="elem_UC8"><ellipse cx="972.7256" cy="222.0545" fill="#F1F1F1" rx="75.2256" ry="17.4451" style="stroke:#181818;stroke-width:0.5;"/><text fill="#000000" font-family="sans-serif" font-size="14" lengthAdjust="spacing" textLength="102" x="918.7256" y="226.5711">Consultar oferta</text></g><g id="elem_UC9"><ellipse cx="689.4763" cy="222.2046" fill="#F1F1F1" rx="75.9763" ry="17.5953" style="stroke:#181818;stroke-width:0.5;"/><text fill="#000000" font-family="sans-serif" font-size="14" lengthAdjust="spacing" textLength="104" x="634.5467" y="226.7051">Consultar precio</text></g><g id="elem_UC10"><ellipse cx="685.2516" cy="556.0597" fill="#F1F1F1" rx="82.7516" ry="18.9503" style="stroke:#181818;stroke-width:0.5;"/><text fill="#000000" font-family="sans-serif" font-size="14" lengthAdjust="spacing" textLength="121" x="624.7516" y="559.7882">Consultar producto</text></g><g id="elem_UC11"><ellipse cx="1460.7113" cy="556.2516" fill="#F1F1F1" rx="71.2113" ry="16.6423" style="stroke:#181818;stroke-width:0.5;"/><text fill="#000000" font-family="sans-serif" font-size="14" lengthAdjust="spacing" textLength="91" x="1412.2113" y="560.7682">Eliminar oferta</text></g><g id="elem_UC12"><ellipse cx="84.2877" cy="394.6669" fill="#F1F1F1" rx="78.2877" ry="18.0575" style="stroke:#181818;stroke-width:0.5;"/><text fill="#000000" font-family="sans-serif" font-size="14" lengthAdjust="spacing" textLength="110" x="27.5149" y="398.8867">Eliminar producto</text></g><g id="elem_UC13"><ellipse cx="1262.2827" cy="394.5659" fill="#F1F1F1" rx="80.2827" ry="18.4565" style="stroke:#181818;stroke-width:0.5;"/><text fill="#000000" font-family="sans-serif" font-size="14" lengthAdjust="spacing" textLength="115" x="1203.9192" y="398.5435">Enviar notificación</text></g><g id="elem_UC14"><ellipse cx="274.4763" cy="394.7046" fill="#F1F1F1" rx="75.9763" ry="17.5953" style="stroke:#181818;stroke-width:0.5;"/><text fill="#000000" font-family="sans-serif" font-size="14" lengthAdjust="spacing" textLength="104" x="219.5467" y="399.2051">Finalizar compra</text></g><g id="elem_UC15"><ellipse cx="1696.7363" cy="222.3566" fill="#F1F1F1" rx="76.7363" ry="17.7473" style="stroke:#181818;stroke-width:0.5;"/><text fill="#000000" font-family="sans-serif" font-size="14" lengthAdjust="spacing" textLength="106" x="1641.2006" y="226.7648">Incorporar oferta</text></g><g id="elem_UC16"><ellipse cx="464.5599" cy="556.0128" fill="#F1F1F1" rx="88.5599" ry="27.9034" style="stroke:#181818;stroke-width:0.5;"/><text fill="#000000" font-family="sans-serif" font-size="14" lengthAdjust="spacing" textLength="104" x="410.5599" y="550.9366">Marcar producto</text><text fill="#000000" font-family="sans-serif" font-size="14" lengthAdjust="spacing" textLength="105" x="414.0599" y="568.546">como bloqueado</text></g><g id="elem_UC17"><ellipse cx="966.692" cy="394.4925" fill="#F1F1F1" rx="130.192" ry="52.8831" style="stroke:#181818;stroke-width:0.5;"/><text fill="#000000" font-family="sans-serif" font-size="14" lengthAdjust="spacing" textLength="90" x="912.7009" y="363.4359">Realizar venta</text><text fill="#000000" font-family="sans-serif" font-size="14" lengthAdjust="spacing" textLength="4" x="955.7009" y="381.0453"> </text><line style="stroke:#181818;stroke-width:1.0;" x1="840.0281" x2="1093.3559" y1="384.1215" y2="384.1215"/><text fill="#000000" font-family="sans-serif" font-size="14" font-weight="bold" lengthAdjust="spacing" textLength="118" x="898.7009" y="402.6547">extension points</text><text fill="#000000" font-family="sans-serif" font-size="14" lengthAdjust="spacing" textLength="188" x="863.7009" y="420.2641">Consultar histórico de precios</text></g><g id="elem_UC18"><ellipse cx="685.6968" cy="690.1184" fill="#F1F1F1" rx="115.1968" ry="28.0091" style="stroke:#181818;stroke-width:0.5;"/><text fill="#000000" font-family="sans-serif" font-size="14" lengthAdjust="spacing" textLength="142" x="609.6968" y="685.8303">Verificar disponibilidad</text><text fill="#000000" font-family="sans-serif" font-size="14" lengthAdjust="spacing" textLength="76" x="646.6968" y="703.4397">de producto</text></g><!--MD5=[10159b74302dd5adf4c61a645b898846]
link A1 to UC12--><g id="link_A1_UC12"><path d="M224.1,261.3694 C187.6,295.9494 135.26,345.5294 106.14,373.1094 " fill="none" id="A1-to-UC12" style="stroke:#181818;stroke-width:1.0;"/><polygon fill="#181818" points="102.37,376.6894,111.652,373.3964,105.9971,373.2479,106.1456,367.593,102.37,376.6894" style="stroke:#181818;stroke-width:1.0;"/></g><!--MD5=[055b0ace703f03074974399e2ede2a69]
link A2 to UC2--><g id="link_A2_UC2"><path d="M525,261.3694 C509.37,295.5294 487.05,344.3194 474.35,372.0894 " fill="none" id="A2-to-UC2" style="stroke:#181818;stroke-width:1.0;"/><polygon fill="#181818" points="472.24,376.6894,479.6304,370.1792,474.3262,372.1454,472.36,366.8412,472.24,376.6894" style="stroke:#181818;stroke-width:1.0;"/></g><!--MD5=[335ee4181e20ba48a1aa3d9c170383b7]
link A2 to UC10--><g id="link_A2_UC10"><path d="M556.15,261.3494 C572.69,306.8694 602.05,384.9194 631.5,450.1094 C644.6,479.1094 661.67,511.5594 673.08,532.5994 " fill="none" id="A2-to-UC10" style="stroke:#181818;stroke-width:1.0;"/><polygon fill="#181818" points="675.57,537.1694,674.7719,527.3529,673.1757,532.7799,667.7487,531.1837,675.57,537.1694" style="stroke:#181818;stroke-width:1.0;"/></g><!--MD5=[65f5e5e40ea15cfbe2aeeda41fba9ccd]
link A2 to UC14--><g id="link_A2_UC14"><path d="M506.91,245.7494 C453.28,279.8694 352.79,343.7994 303.4,375.2194 " fill="none" id="A2-to-UC14" style="stroke:#181818;stroke-width:1.0;"/><polygon fill="#181818" points="299.07,377.9794,308.8095,376.5157,303.2865,375.2922,304.5101,369.7693,299.07,377.9794" style="stroke:#181818;stroke-width:1.0;"/></g><!--MD5=[6821d1e8c340f8369ba3c699ed033d0e]
link A2 to UC17--><g id="link_A2_UC17"><path d="M578.13,249.9594 C583.83,253.8694 589.75,257.7194 595.5,261.1094 C638.31,286.3594 649.68,292.4194 696.5,309.1094 C749.1,327.8594 765.11,322.7694 818.5,339.1094 C834.75,344.0794 851.83,349.8494 868.37,355.7294 " fill="none" id="A2-to-UC17" style="stroke:#181818;stroke-width:1.0;"/><polygon fill="#181818" points="873.48,357.5594,866.3523,350.7626,868.7719,355.8759,863.6587,358.2955,873.48,357.5594" style="stroke:#181818;stroke-width:1.0;"/></g><!--MD5=[50022cb1530fb6bfb70927a85de8a071]
link A3 to UC4--><g id="link_A3_UC4"><path d="M1531.64,251.6494 C1560.1,276.1494 1601.84,312.0994 1636.2,341.6894 " fill="none" id="A3-to-UC4" style="stroke:#181818;stroke-width:1.0;"/><polygon fill="#181818" points="1640.36,345.2594,1636.1299,336.3652,1636.5637,342.0054,1630.9235,342.4393,1640.36,345.2594" style="stroke:#181818;stroke-width:1.0;"/></g><!--MD5=[d36c84840c9d943262c953b992b4a936]
link A3 to UC5--><g id="link_A3_UC5"><path d="M1489.97,261.3694 C1482.51,294.8294 1471.93,342.3394 1465.68,370.3594 " fill="none" id="A3-to-UC5" style="stroke:#181818;stroke-width:1.0;"/><polygon fill="#181818" points="1464.57,375.3594,1470.432,367.4451,1465.6577,370.4791,1462.6236,365.7048,1464.57,375.3594" style="stroke:#181818;stroke-width:1.0;"/></g><!--MD5=[eea72cf21e663a81dcc210105fafd51c]
link A4 to UC8--><g id="link_A4_UC8"><path d="M802.68,101.1794 C839.08,126.8894 907.74,175.3794 945.66,202.1494 " fill="none" id="A4-to-UC8" style="stroke:#181818;stroke-width:1.0;"/><polygon fill="#181818" points="950.12,205.3094,945.0763,196.85,946.036,202.4248,940.4611,203.3844,950.12,205.3094" style="stroke:#181818;stroke-width:1.0;"/></g><!--MD5=[bf52976b87eeed91e37d3e4ffb80963c]
link A4 to UC9--><g id="link_A4_UC9"><path d="M754.42,121.1794 C737.88,146.6294 716.55,179.4694 702.94,200.4194 " fill="none" id="A4-to-UC9" style="stroke:#181818;stroke-width:1.0;"/><polygon fill="#181818" points="700.16,204.6994,708.4257,199.3442,702.8905,200.5108,701.7239,194.9755,700.16,204.6994" style="stroke:#181818;stroke-width:1.0;"/></g><!--MD5=[efb7b989c163c15e208ec355cdbd928a]
link A5 to UC17--><g id="link_A5_UC17"><path d="M861.8,261.3694 C880.1,284.4894 903.7,314.2994 923.87,339.7694 " fill="none" id="A5-to-UC17" style="stroke:#181818;stroke-width:1.0;"/><polygon fill="#181818" points="927.07,343.8094,924.6181,334.2706,923.9658,339.8897,918.3466,339.2374,927.07,343.8094" style="stroke:#181818;stroke-width:1.0;"/></g><!--MD5=[e3dcc9021ddc83ccbc4778239705f4f0]
reverse link A4 to A1--><g id="link_A4_A1"><path d="M734.82,95.7494 C637.74,121.6294 405.01,183.6594 308.05,209.4994 " fill="none" id="A4-backto-A1" style="stroke:#181818;stroke-width:1.0;"/><polygon fill="none" points="733.27,88.9194,754.4,90.5294,736.88,102.4494,733.27,88.9194" style="stroke:#181818;stroke-width:1.0;"/></g><!--MD5=[f04391b4b1281decd3208e17f062a140]
reverse link A4 to A2--><g id="link_A4_A2"><path d="M736.17,105.0894 C698.52,124.1894 642.33,153.8194 595.5,183.1094 C589.74,186.7094 583.77,190.7094 578,194.7294 " fill="none" id="A4-backto-A2" style="stroke:#181818;stroke-width:1.0;"/><polygon fill="none" points="733.25,98.7194,754.27,95.9894,739.54,111.2294,733.25,98.7194" style="stroke:#181818;stroke-width:1.0;"/></g><!--MD5=[70b0344d7a976e995a51ae62e2d2893f]
reverse link A4 to A3--><g id="link_A4_A3"><path d="M822.8,83.3294 C932.96,82.9294 1226.36,91.2694 1447.5,183.1094 C1453.62,185.6494 1459.67,189.0894 1465.35,192.8594 " fill="none" id="A4-backto-A3" style="stroke:#181818;stroke-width:1.0;"/><polygon fill="none" points="822.78,90.3294,802.72,83.5194,822.66,76.3294,822.78,90.3294" style="stroke:#181818;stroke-width:1.0;"/></g><!--MD5=[3494d9d3c2c274ef7601de895729adc0]
reverse link A4 to A5--><g id="link_A4_A5"><path d="M800.63,141.3094 C806.02,155.2594 811.67,169.8394 816.63,182.6794 " fill="none" id="A4-backto-A5" style="stroke:#181818;stroke-width:1.0;"/><polygon fill="none" points="793.95,143.4494,793.26,122.2694,807.01,138.3994,793.95,143.4494" style="stroke:#181818;stroke-width:1.0;"/></g><!--MD5=[d4a5aae1b0e654ff863e0f2caddd3bea]
reverse link UC3 to UC4--><g id="link_UC3_UC4"><path d="M1426.05,247.3994 C1433.06,252.0894 1440.45,256.8594 1447.5,261.1094 C1502.54,294.2994 1566.59,328.2794 1615.95,353.5294 " fill="none" id="UC3-backto-UC4" style="stroke:#181818;stroke-width:1.0;"/><polygon fill="none" points="1421.87,253.0194,1409.34,235.9294,1429.79,241.4694,1421.87,253.0194" style="stroke:#181818;stroke-width:1.0;"/></g><!--MD5=[a1313c52b5c2d6db7ccca18a4247035e]
reverse link UC3 to UC5--><g id="link_UC3_UC5"><path d="M1404.59,256.5894 C1410.86,272.5194 1418.5,291.8194 1425.5,309.1094 C1434.79,332.0694 1445.76,358.4294 1452.9,375.5094 " fill="none" id="UC3-backto-UC5" style="stroke:#181818;stroke-width:1.0;"/><polygon fill="none" points="1397.99,258.9194,1397.2,237.7494,1411.02,253.8094,1397.99,258.9194" style="stroke:#181818;stroke-width:1.0;"/></g><!--MD5=[053c46636aba9a94c8c1280b18a6b98c]
reverse link UC6 to UC10--><g id="link_UC6_UC10"><path d="M716.38,431.9794 C708.15,464.7994 696.38,511.7094 690.01,537.1094 " fill="none" id="UC6-backto-UC10" style="stroke:#181818;stroke-width:1.0;"/><polygon fill="none" points="709.64,430.0694,721.29,412.3794,723.22,433.4794,709.64,430.0694" style="stroke:#181818;stroke-width:1.0;"/></g><!--MD5=[ba7a27d4d845c764fca708d1fb834800]
link UC7 to UC17--><g id="link_UC7_UC17"><path d="M1148.46,248.6394 C1117.07,273.6394 1068.39,312.4294 1029.28,343.5894 " fill="none" id="UC7-to-UC17" style="stroke:#181818;stroke-width:1.0;stroke-dasharray:7.0,7.0;"/><polygon fill="#181818" points="1025.04,346.9694,1034.5733,344.4961,1028.9527,343.8564,1029.5924,338.2358,1025.04,346.9694" style="stroke:#181818;stroke-width:1.0;"/><text fill="#000000" font-family="sans-serif" font-size="13" lengthAdjust="spacing" textLength="55" x="1094.5" y="305.6045">«Extend»</text></g><!--MD5=[bfd8dde6ab81d7a2b55598cd820ae084]
link UC15 to UC4--><g id="link_UC15_UC4"><path d="M1696.5,239.7694 C1696.5,261.3994 1696.5,300.3394 1696.5,333.6194 " fill="none" id="UC15-to-UC4" style="stroke:#181818;stroke-width:1.0;stroke-dasharray:7.0,7.0;"/><polygon fill="#181818" points="1696.5,338.9194,1700.5,329.9194,1696.5,333.9194,1692.5,329.9194,1696.5,338.9194" style="stroke:#181818;stroke-width:1.0;"/><text fill="#000000" font-family="sans-serif" font-size="13" lengthAdjust="spacing" textLength="55" x="1697.5" y="305.6045">«Extend»</text></g><!--MD5=[9892b2e98b11eaea265fba5f9446f3b5]
link UC2 to UC16--><g id="link_UC2_UC16"><path d="M464.5,412.6794 C464.5,438.9194 464.5,489.6194 464.5,522.9094 " fill="none" id="UC2-to-UC16" style="stroke:#181818;stroke-width:1.0;stroke-dasharray:7.0,7.0;"/><polygon fill="#181818" points="464.5,528.0994,468.5,519.0994,464.5,523.0994,460.5,519.0994,464.5,528.0994" style="stroke:#181818;stroke-width:1.0;"/><text fill="#000000" font-family="sans-serif" font-size="13" lengthAdjust="spacing" textLength="55" x="465.5" y="494.6045">«Include»</text></g><!--MD5=[b8f1b1fd37715a8078fbd4c01fa74a1e]
link UC3 to UC13--><g id="link_UC3_UC13"><path d="M1380.94,237.0594 C1358.45,266.7894 1305.67,336.5594 1278.81,372.0494 " fill="none" id="UC3-to-UC13" style="stroke:#181818;stroke-width:1.0;stroke-dasharray:7.0,7.0;"/><polygon fill="#181818" points="1275.67,376.1994,1284.2891,371.4338,1278.686,372.2114,1277.9084,366.6083,1275.67,376.1994" style="stroke:#181818;stroke-width:1.0;"/><text fill="#000000" font-family="sans-serif" font-size="13" lengthAdjust="spacing" textLength="55" x="1340.5" y="305.6045">«Include»</text></g><!--MD5=[992ad1d86e7e2107573929e9c7f93d19]
link UC5 to UC11--><g id="link_UC5_UC11"><path d="M1460.5,413.9094 C1460.5,443.7594 1460.5,502.7794 1460.5,534.2294 " fill="none" id="UC5-to-UC11" style="stroke:#181818;stroke-width:1.0;stroke-dasharray:7.0,7.0;"/><polygon fill="#181818" points="1460.5,539.3994,1464.5,530.3994,1460.5,534.3994,1456.5,530.3994,1460.5,539.3994" style="stroke:#181818;stroke-width:1.0;"/><text fill="#000000" font-family="sans-serif" font-size="13" lengthAdjust="spacing" textLength="55" x="1461.5" y="494.6045">«Include»</text></g><!--MD5=[79f3d2acaec08e152149ce4e84fa776e]
link UC9 to UC6--><g id="link_UC9_UC6"><path d="M693.02,239.7694 C699.55,270.7094 713.55,337.0394 720.86,371.6194 " fill="none" id="UC9-to-UC6" style="stroke:#181818;stroke-width:1.0;stroke-dasharray:7.0,7.0;"/><polygon fill="#181818" points="721.97,376.8794,724.0358,367.2496,720.9428,371.986,716.2064,368.8931,721.97,376.8794" style="stroke:#181818;stroke-width:1.0;"/><text fill="#000000" font-family="sans-serif" font-size="13" lengthAdjust="spacing" textLength="55" x="708.5" y="305.6045">«Include»</text></g><!--MD5=[90fc8e7eeedf7c39018ba1c418da7951]
link UC10 to UC18--><g id="link_UC10_UC18"><path d="M685.5,575.1894 C685.5,596.2394 685.5,631.3994 685.5,657.0994 " fill="none" id="UC10-to-UC18" style="stroke:#181818;stroke-width:1.0;stroke-dasharray:7.0,7.0;"/><polygon fill="#181818" points="685.5,662.1094,689.5,653.1094,685.5,657.1094,681.5,653.1094,685.5,662.1094" style="stroke:#181818;stroke-width:1.0;"/><text fill="#000000" font-family="sans-serif" font-size="13" lengthAdjust="spacing" textLength="55" x="686.5" y="628.6045">«Include»</text></g><!--MD5=[1c1b821b4642fc95b634e62a055e6ffe]
link UC17 to UC1--><g id="link_UC17_UC1"><path d="M966.5,447.8394 C966.5,476.9794 966.5,511.7194 966.5,533.5994 " fill="none" id="UC17-to-UC1" style="stroke:#181818;stroke-width:1.0;stroke-dasharray:7.0,7.0;"/><polygon fill="#181818" points="966.5,538.8694,970.5,529.8694,966.5,533.8694,962.5,529.8694,966.5,538.8694" style="stroke:#181818;stroke-width:1.0;"/><text fill="#000000" font-family="sans-serif" font-size="13" lengthAdjust="spacing" textLength="55" x="967.5" y="494.6045">«Include»</text></g><!--MD5=[b1045241757f425c5b8d33527f7ca979]
@startuml sistema_de_compras

title Sistema de Compras

:Administrador: as A1
:Comprador: as A2
:Proveedor: as A3
:Usuario: as A4
:Vendedor: as A5

(Acordar precio) as UC1
(Agregar producto)  as UC2
(Avisar)  as UC3
usecase UC4 as "Avisar de nuevo producto

- -
**extension points**
Incorporar oferta"
(Avisar fin de oferta) as UC5
(Buscar producto) as UC6
(Consultar histórico \n de ventas) as UC7
(Consultar oferta) as UC8
(Consultar precio) as UC9
(Consultar producto) as UC10
(Eliminar oferta) as UC11
(Eliminar producto) as UC12
(Enviar notificación) as UC13
(Finalizar compra) as UC14
(Incorporar oferta) as UC15
(Marcar producto \n como bloqueado) as UC16
usecase UC17 as "Realizar venta

- -
**extension points**
Consultar histórico de precios"
(Verificar disponibilidad \n de producto) as UC18

A1 - -> UC12
A2 - -> UC2
A2 - -> UC10
A2 - -> UC14
A2 - -> UC17
A3 - -> UC4
A3 - -> UC5
A4 - -> UC8
A4 - -> UC9
A5 - -> UC17

A4 <|- - A1
A4 <|- - A2
A4 <|- - A3
A4 <|- - A5
UC3 <|- - UC4
UC3 <|- - UC5
UC6 <|- - UC10

UC7 ..> UC17 : <<Extend>>
UC15 ..> UC4 : <<Extend>>

UC2 ..> UC16 : <<Include>>
UC3 ..> UC13 : <<Include>>
UC5 ..> UC11 : <<Include>>
UC9 ..> UC6 : <<Include>>
UC10 ..> UC18 : <<Include>>
UC17 ..> UC1 : <<Include>>

@enduml

PlantUML version 1.2022.7(Mon Aug 22 19:01:30 CEST 2022)
(GPL source distribution)
Java Runtime: OpenJDK Runtime Environment
JVM: OpenJDK 64-Bit Server VM
Default Encoding: Cp1252
Language: es
Country: ES
--></g></svg>