<?xml version="1.0" encoding="UTF-8" standalone="no"?><svg xmlns="http://www.w3.org/2000/svg" xmlns:xlink="http://www.w3.org/1999/xlink" contentStyleType="text/css" height="1022px" preserveAspectRatio="none" style="width:626px;height:1022px;background:#FFFFFF;" version="1.1" viewBox="0 0 626 1022" width="626px" zoomAndPan="magnify"><defs/><g><rect fill="none" height="27.6094" id="_title" style="stroke:none;stroke-width:1.0;" width="240" x="186" y="5"/><text fill="#000000" font-family="sans-serif" font-size="14" font-weight="bold" lengthAdjust="spacing" textLength="230" x="191" y="24.5332">Requisitos Información: Horarios</text><!--MD5=[3184df7dc2ab39bd027bebd5f4479e81]
class AlumnoClase--><g id="elem_AlumnoClase"><rect codeLine="4" fill="#F1F1F1" height="83.2188" id="AlumnoClase" rx="2.5" ry="2.5" style="stroke:#181818;stroke-width:0.5;" width="203" x="143.5" y="107.1094"/><ellipse cx="199.25" cy="123.1094" fill="#ADD1B2" rx="11" ry="11" style="stroke:#181818;stroke-width:1.0;"/><path d="M198.1094,123.9063 L198.1094,126.4063 L202.4375,126.4063 L202.4375,125.4844 Q202.4375,124.875 202.6719,124.6094 Q202.9219,124.3438 203.2969,124.3438 Q203.6719,124.3438 203.9063,124.6094 Q204.1406,124.875 204.1406,125.4844 L204.1406,128.1094 L196.1406,128.1094 Q195.5156,128.1094 195.25,127.875 Q195,127.6406 195,127.25 Q195,126.875 195.2656,126.6406 Q195.5313,126.4063 196.1406,126.4063 L196.4063,126.4063 L196.4063,119.75 L196.1406,119.75 Q195.5156,119.75 195.25,119.5156 Q195,119.2813 195,118.8906 Q195,118.5156 195.25,118.2813 Q195.5156,118.0469 196.1406,118.0469 L203.7656,118.0469 L203.7656,120.6406 Q203.7656,121.25 203.5313,121.5156 Q203.3125,121.7656 202.9219,121.7656 Q202.5469,121.7656 202.3125,121.5156 Q202.0781,121.25 202.0781,120.6406 L202.0781,119.75 L198.1094,119.75 L198.1094,122.2031 L199.5938,122.2031 Q199.5938,121.5469 199.7188,121.3594 Q199.9844,120.9531 200.4531,120.9531 Q200.8281,120.9531 201.0625,121.2188 Q201.2969,121.4688 201.2969,122.0781 L201.2969,124.0469 Q201.2969,124.5938 201.1719,124.7813 Q200.9063,125.1719 200.4531,125.1719 Q199.9844,125.1719 199.7188,124.7656 Q199.5938,124.5781 199.5938,123.9063 L198.1094,123.9063 Z " fill="#000000"/><text fill="#000000" font-family="sans-serif" font-size="14" lengthAdjust="spacing" textLength="83" x="219.75" y="128.8379">AlumnoClase</text><line style="stroke:#181818;stroke-width:0.5;" x1="144.5" x2="345.5" y1="139.1094" y2="139.1094"/><text fill="#000000" font-family="sans-serif" font-size="14" lengthAdjust="spacing" textLength="178" x="149.5" y="157.6426">PK FK idEstudiante : Integer</text><text fill="#000000" font-family="sans-serif" font-size="14" lengthAdjust="spacing" textLength="191" x="149.5" y="175.252">PK FK idEventoClase : Integer</text><line style="stroke:#181818;stroke-width:0.5;" x1="144.5" x2="345.5" y1="182.3281" y2="182.3281"/></g><!--MD5=[9196e7f5424c8ba52e10312e1fe81956]
class Estudiante--><g id="elem_Estudiante"><rect codeLine="9" fill="#F1F1F1" height="241.7031" id="Estudiante" rx="2.5" ry="2.5" style="stroke:#181818;stroke-width:0.5;" width="181" x="276.5" y="311.6094"/><ellipse cx="329.25" cy="327.6094" fill="#ADD1B2" rx="11" ry="11" style="stroke:#181818;stroke-width:1.0;"/><path d="M328.1094,328.4063 L328.1094,330.9063 L332.4375,330.9063 L332.4375,329.9844 Q332.4375,329.375 332.6719,329.1094 Q332.9219,328.8438 333.2969,328.8438 Q333.6719,328.8438 333.9063,329.1094 Q334.1406,329.375 334.1406,329.9844 L334.1406,332.6094 L326.1406,332.6094 Q325.5156,332.6094 325.25,332.375 Q325,332.1406 325,331.75 Q325,331.375 325.2656,331.1406 Q325.5313,330.9063 326.1406,330.9063 L326.4063,330.9063 L326.4063,324.25 L326.1406,324.25 Q325.5156,324.25 325.25,324.0156 Q325,323.7813 325,323.3906 Q325,323.0156 325.25,322.7813 Q325.5156,322.5469 326.1406,322.5469 L333.7656,322.5469 L333.7656,325.1406 Q333.7656,325.75 333.5313,326.0156 Q333.3125,326.2656 332.9219,326.2656 Q332.5469,326.2656 332.3125,326.0156 Q332.0781,325.75 332.0781,325.1406 L332.0781,324.25 L328.1094,324.25 L328.1094,326.7031 L329.5938,326.7031 Q329.5938,326.0469 329.7188,325.8594 Q329.9844,325.4531 330.4531,325.4531 Q330.8281,325.4531 331.0625,325.7188 Q331.2969,325.9688 331.2969,326.5781 L331.2969,328.5469 Q331.2969,329.0938 331.1719,329.2813 Q330.9063,329.6719 330.4531,329.6719 Q329.9844,329.6719 329.7188,329.2656 Q329.5938,329.0781 329.5938,328.4063 L328.1094,328.4063 Z " fill="#000000"/><text fill="#000000" font-family="sans-serif" font-size="14" lengthAdjust="spacing" textLength="67" x="349.75" y="333.3379">Estudiante</text><line style="stroke:#181818;stroke-width:0.5;" x1="277.5" x2="456.5" y1="343.6094" y2="343.6094"/><text fill="#000000" font-family="sans-serif" font-size="14" lengthAdjust="spacing" textLength="156" x="282.5" y="362.1426">PK idEstudiante : Integer</text><text fill="#000000" font-family="sans-serif" font-size="14" lengthAdjust="spacing" textLength="135" x="282.5" y="379.752">FK idHorario : Integer</text><text fill="#000000" font-family="sans-serif" font-size="14" lengthAdjust="spacing" textLength="71" x="282.5" y="397.3613">DNI : String</text><text fill="#000000" font-family="sans-serif" font-size="14" lengthAdjust="spacing" textLength="157" x="282.5" y="414.9707">nombreCompleto : String</text><text fill="#000000" font-family="sans-serif" font-size="14" lengthAdjust="spacing" textLength="153" x="282.5" y="432.5801">fechaNacimiento : String</text><text fill="#000000" font-family="sans-serif" font-size="14" lengthAdjust="spacing" textLength="78" x="282.5" y="450.1895">sexo : String</text><text fill="#000000" font-family="sans-serif" font-size="14" lengthAdjust="spacing" textLength="101" x="282.5" y="467.7988">fechaAlta : Date</text><text fill="#000000" font-family="sans-serif" font-size="14" lengthAdjust="spacing" textLength="102" x="282.5" y="485.4082">direccion: String</text><text fill="#000000" font-family="sans-serif" font-size="14" lengthAdjust="spacing" textLength="100" x="282.5" y="503.0176">telefono : String</text><text fill="#000000" font-family="sans-serif" font-size="14" lengthAdjust="spacing" textLength="160" x="282.5" y="520.627">correoElectronico : String</text><text fill="#000000" font-family="sans-serif" font-size="14" lengthAdjust="spacing" textLength="169" x="282.5" y="538.2363">datosVerificados : Boolean</text><line style="stroke:#181818;stroke-width:0.5;" x1="277.5" x2="456.5" y1="545.3125" y2="545.3125"/></g><!--MD5=[c0c5b535360f0239688a18024c124204]
class EventoClase--><g id="elem_EventoClase"><rect codeLine="23" fill="#F1F1F1" height="100.8281" id="EventoClase" rx="2.5" ry="2.5" style="stroke:#181818;stroke-width:0.5;" width="234" x="7" y="382.1094"/><ellipse cx="79.75" cy="398.1094" fill="#ADD1B2" rx="11" ry="11" style="stroke:#181818;stroke-width:1.0;"/><path d="M78.6094,398.9063 L78.6094,401.4063 L82.9375,401.4063 L82.9375,400.4844 Q82.9375,399.875 83.1719,399.6094 Q83.4219,399.3438 83.7969,399.3438 Q84.1719,399.3438 84.4063,399.6094 Q84.6406,399.875 84.6406,400.4844 L84.6406,403.1094 L76.6406,403.1094 Q76.0156,403.1094 75.75,402.875 Q75.5,402.6406 75.5,402.25 Q75.5,401.875 75.7656,401.6406 Q76.0313,401.4063 76.6406,401.4063 L76.9063,401.4063 L76.9063,394.75 L76.6406,394.75 Q76.0156,394.75 75.75,394.5156 Q75.5,394.2813 75.5,393.8906 Q75.5,393.5156 75.75,393.2813 Q76.0156,393.0469 76.6406,393.0469 L84.2656,393.0469 L84.2656,395.6406 Q84.2656,396.25 84.0313,396.5156 Q83.8125,396.7656 83.4219,396.7656 Q83.0469,396.7656 82.8125,396.5156 Q82.5781,396.25 82.5781,395.6406 L82.5781,394.75 L78.6094,394.75 L78.6094,397.2031 L80.0938,397.2031 Q80.0938,396.5469 80.2188,396.3594 Q80.4844,395.9531 80.9531,395.9531 Q81.3281,395.9531 81.5625,396.2188 Q81.7969,396.4688 81.7969,397.0781 L81.7969,399.0469 Q81.7969,399.5938 81.6719,399.7813 Q81.4063,400.1719 80.9531,400.1719 Q80.4844,400.1719 80.2188,399.7656 Q80.0938,399.5781 80.0938,398.9063 L78.6094,398.9063 Z " fill="#000000"/><text fill="#000000" font-family="sans-serif" font-size="14" lengthAdjust="spacing" textLength="80" x="100.25" y="403.8379">EventoClase</text><line style="stroke:#181818;stroke-width:0.5;" x1="8" x2="240" y1="414.1094" y2="414.1094"/><text fill="#000000" font-family="sans-serif" font-size="14" lengthAdjust="spacing" textLength="169" x="13" y="432.6426">PK idEventoClase : Integer</text><text fill="#000000" font-family="sans-serif" font-size="14" lengthAdjust="spacing" textLength="222" x="13" y="450.252">nombreActividadAsignatura : String</text><text fill="#000000" font-family="sans-serif" font-size="14" lengthAdjust="spacing" textLength="140" x="13" y="467.8613">lugarAsignado : String</text><line style="stroke:#181818;stroke-width:0.5;" x1="8" x2="240" y1="474.9375" y2="474.9375"/></g><!--MD5=[74438b4bcd0b343607a1e9b7af88b110]
class Horario--><g id="elem_Horario"><rect codeLine="29" fill="#F1F1F1" height="100.8281" id="Horario" rx="2.5" ry="2.5" style="stroke:#181818;stroke-width:0.5;" width="147" x="264.5" y="666.1094"/><ellipse cx="310.75" cy="682.1094" fill="#ADD1B2" rx="11" ry="11" style="stroke:#181818;stroke-width:1.0;"/><path d="M309.6094,682.9063 L309.6094,685.4063 L313.9375,685.4063 L313.9375,684.4844 Q313.9375,683.875 314.1719,683.6094 Q314.4219,683.3438 314.7969,683.3438 Q315.1719,683.3438 315.4063,683.6094 Q315.6406,683.875 315.6406,684.4844 L315.6406,687.1094 L307.6406,687.1094 Q307.0156,687.1094 306.75,686.875 Q306.5,686.6406 306.5,686.25 Q306.5,685.875 306.7656,685.6406 Q307.0313,685.4063 307.6406,685.4063 L307.9063,685.4063 L307.9063,678.75 L307.6406,678.75 Q307.0156,678.75 306.75,678.5156 Q306.5,678.2813 306.5,677.8906 Q306.5,677.5156 306.75,677.2813 Q307.0156,677.0469 307.6406,677.0469 L315.2656,677.0469 L315.2656,679.6406 Q315.2656,680.25 315.0313,680.5156 Q314.8125,680.7656 314.4219,680.7656 Q314.0469,680.7656 313.8125,680.5156 Q313.5781,680.25 313.5781,679.6406 L313.5781,678.75 L309.6094,678.75 L309.6094,681.2031 L311.0938,681.2031 Q311.0938,680.5469 311.2188,680.3594 Q311.4844,679.9531 311.9531,679.9531 Q312.3281,679.9531 312.5625,680.2188 Q312.7969,680.4688 312.7969,681.0781 L312.7969,683.0469 Q312.7969,683.5938 312.6719,683.7813 Q312.4063,684.1719 311.9531,684.1719 Q311.4844,684.1719 311.2188,683.7656 Q311.0938,683.5781 311.0938,682.9063 L309.6094,682.9063 Z " fill="#000000"/><text fill="#000000" font-family="sans-serif" font-size="14" lengthAdjust="spacing" textLength="46" x="331.25" y="687.8379">Horario</text><line style="stroke:#181818;stroke-width:0.5;" x1="265.5" x2="410.5" y1="698.1094" y2="698.1094"/><text fill="#000000" font-family="sans-serif" font-size="14" lengthAdjust="spacing" textLength="135" x="270.5" y="716.6426">PK idHorario : Integer</text><text fill="#000000" font-family="sans-serif" font-size="14" lengthAdjust="spacing" textLength="84" x="270.5" y="734.252">curso : String</text><text fill="#000000" font-family="sans-serif" font-size="14" lengthAdjust="spacing" textLength="86" x="270.5" y="751.8613">grado : String</text><line style="stroke:#181818;stroke-width:0.5;" x1="265.5" x2="410.5" y1="758.9375" y2="758.9375"/></g><!--MD5=[3293686c6f7d5090ebc8c83f6b998ca3]
class HorarioEventoClase--><g id="elem_HorarioEventoClase"><rect codeLine="35" fill="#F1F1F1" height="118.4375" id="HorarioEventoClase" rx="2.5" ry="2.5" style="stroke:#181818;stroke-width:0.5;" width="192" x="125" y="888.6094"/><ellipse cx="155.3" cy="904.6094" fill="#ADD1B2" rx="11" ry="11" style="stroke:#181818;stroke-width:1.0;"/><path d="M154.1594,905.4063 L154.1594,907.9063 L158.4875,907.9063 L158.4875,906.9844 Q158.4875,906.375 158.7219,906.1094 Q158.9719,905.8438 159.3469,905.8438 Q159.7219,905.8438 159.9563,906.1094 Q160.1906,906.375 160.1906,906.9844 L160.1906,909.6094 L152.1906,909.6094 Q151.5656,909.6094 151.3,909.375 Q151.05,909.1406 151.05,908.75 Q151.05,908.375 151.3156,908.1406 Q151.5813,907.9063 152.1906,907.9063 L152.4563,907.9063 L152.4563,901.25 L152.1906,901.25 Q151.5656,901.25 151.3,901.0156 Q151.05,900.7813 151.05,900.3906 Q151.05,900.0156 151.3,899.7813 Q151.5656,899.5469 152.1906,899.5469 L159.8156,899.5469 L159.8156,902.1406 Q159.8156,902.75 159.5813,903.0156 Q159.3625,903.2656 158.9719,903.2656 Q158.5969,903.2656 158.3625,903.0156 Q158.1281,902.75 158.1281,902.1406 L158.1281,901.25 L154.1594,901.25 L154.1594,903.7031 L155.6438,903.7031 Q155.6438,903.0469 155.7688,902.8594 Q156.0344,902.4531 156.5031,902.4531 Q156.8781,902.4531 157.1125,902.7188 Q157.3469,902.9688 157.3469,903.5781 L157.3469,905.5469 Q157.3469,906.0938 157.2219,906.2813 Q156.9563,906.6719 156.5031,906.6719 Q156.0344,906.6719 155.7688,906.2656 Q155.6438,906.0781 155.6438,905.4063 L154.1594,905.4063 Z " fill="#000000"/><text fill="#000000" font-family="sans-serif" font-size="14" lengthAdjust="spacing" textLength="126" x="172.7" y="910.3379">HorarioEventoClase</text><line style="stroke:#181818;stroke-width:0.5;" x1="126" x2="316" y1="920.6094" y2="920.6094"/><text fill="#000000" font-family="sans-serif" font-size="14" lengthAdjust="spacing" textLength="157" x="131" y="939.1426">PK FK idHorario : Integer</text><text fill="#000000" font-family="sans-serif" font-size="14" lengthAdjust="spacing" textLength="180" x="131" y="956.752">PK FK EventoClase : Integer</text><text fill="#000000" font-family="sans-serif" font-size="14" lengthAdjust="spacing" textLength="129" x="131" y="974.3613">horaInicio : Datetime</text><text fill="#000000" font-family="sans-serif" font-size="14" lengthAdjust="spacing" textLength="117" x="131" y="991.9707">horaFin : Datetime</text><line style="stroke:#181818;stroke-width:0.5;" x1="126" x2="316" y1="999.0469" y2="999.0469"/></g><!--MD5=[36acb3e840b16351e2158aca66e9df6c]
class PAS--><g id="elem_PAS"><rect codeLine="42" fill="#F1F1F1" height="206.4844" id="PAS" rx="2.5" ry="2.5" style="stroke:#181818;stroke-width:0.5;" width="172" x="382" y="45.6094"/><ellipse cx="450.25" cy="61.6094" fill="#ADD1B2" rx="11" ry="11" style="stroke:#181818;stroke-width:1.0;"/><path d="M449.1094,62.4063 L449.1094,64.9063 L453.4375,64.9063 L453.4375,63.9844 Q453.4375,63.375 453.6719,63.1094 Q453.9219,62.8438 454.2969,62.8438 Q454.6719,62.8438 454.9063,63.1094 Q455.1406,63.375 455.1406,63.9844 L455.1406,66.6094 L447.1406,66.6094 Q446.5156,66.6094 446.25,66.375 Q446,66.1406 446,65.75 Q446,65.375 446.2656,65.1406 Q446.5313,64.9063 447.1406,64.9063 L447.4063,64.9063 L447.4063,58.25 L447.1406,58.25 Q446.5156,58.25 446.25,58.0156 Q446,57.7813 446,57.3906 Q446,57.0156 446.25,56.7813 Q446.5156,56.5469 447.1406,56.5469 L454.7656,56.5469 L454.7656,59.1406 Q454.7656,59.75 454.5313,60.0156 Q454.3125,60.2656 453.9219,60.2656 Q453.5469,60.2656 453.3125,60.0156 Q453.0781,59.75 453.0781,59.1406 L453.0781,58.25 L449.1094,58.25 L449.1094,60.7031 L450.5938,60.7031 Q450.5938,60.0469 450.7188,59.8594 Q450.9844,59.4531 451.4531,59.4531 Q451.8281,59.4531 452.0625,59.7188 Q452.2969,59.9688 452.2969,60.5781 L452.2969,62.5469 Q452.2969,63.0938 452.1719,63.2813 Q451.9063,63.6719 451.4531,63.6719 Q450.9844,63.6719 450.7188,63.2656 Q450.5938,63.0781 450.5938,62.4063 L449.1094,62.4063 Z " fill="#000000"/><text fill="#000000" font-family="sans-serif" font-size="14" lengthAdjust="spacing" textLength="27" x="470.75" y="67.3379">PAS</text><line style="stroke:#181818;stroke-width:0.5;" x1="383" x2="553" y1="77.6094" y2="77.6094"/><text fill="#000000" font-family="sans-serif" font-size="14" lengthAdjust="spacing" textLength="116" x="388" y="96.1426">PK idPAS : Integer</text><text fill="#000000" font-family="sans-serif" font-size="14" lengthAdjust="spacing" textLength="71" x="388" y="113.752">DNI : String</text><text fill="#000000" font-family="sans-serif" font-size="14" lengthAdjust="spacing" textLength="157" x="388" y="131.3613">nombreCompleto : String</text><text fill="#000000" font-family="sans-serif" font-size="14" lengthAdjust="spacing" textLength="153" x="388" y="148.9707">fechaNacimiento : String</text><text fill="#000000" font-family="sans-serif" font-size="14" lengthAdjust="spacing" textLength="78" x="388" y="166.5801">sexo : String</text><text fill="#000000" font-family="sans-serif" font-size="14" lengthAdjust="spacing" textLength="101" x="388" y="184.1895">fechaAlta : Date</text><text fill="#000000" font-family="sans-serif" font-size="14" lengthAdjust="spacing" textLength="102" x="388" y="201.7988">direccion: String</text><text fill="#000000" font-family="sans-serif" font-size="14" lengthAdjust="spacing" textLength="100" x="388" y="219.4082">telefono : String</text><text fill="#000000" font-family="sans-serif" font-size="14" lengthAdjust="spacing" textLength="160" x="388" y="237.0176">correoElectronico : String</text><line style="stroke:#181818;stroke-width:0.5;" x1="383" x2="553" y1="244.0938" y2="244.0938"/></g><!--MD5=[5b14968682f2e46256dc8a570ae0d27b]
class PDI--><g id="elem_PDI"><rect codeLine="54" fill="#F1F1F1" height="206.4844" id="PDI" rx="2.5" ry="2.5" style="stroke:#181818;stroke-width:0.5;" width="172" x="447" y="613.6094"/><ellipse cx="517.75" cy="629.6094" fill="#ADD1B2" rx="11" ry="11" style="stroke:#181818;stroke-width:1.0;"/><path d="M516.6094,630.4063 L516.6094,632.9063 L520.9375,632.9063 L520.9375,631.9844 Q520.9375,631.375 521.1719,631.1094 Q521.4219,630.8438 521.7969,630.8438 Q522.1719,630.8438 522.4063,631.1094 Q522.6406,631.375 522.6406,631.9844 L522.6406,634.6094 L514.6406,634.6094 Q514.0156,634.6094 513.75,634.375 Q513.5,634.1406 513.5,633.75 Q513.5,633.375 513.7656,633.1406 Q514.0313,632.9063 514.6406,632.9063 L514.9063,632.9063 L514.9063,626.25 L514.6406,626.25 Q514.0156,626.25 513.75,626.0156 Q513.5,625.7813 513.5,625.3906 Q513.5,625.0156 513.75,624.7813 Q514.0156,624.5469 514.6406,624.5469 L522.2656,624.5469 L522.2656,627.1406 Q522.2656,627.75 522.0313,628.0156 Q521.8125,628.2656 521.4219,628.2656 Q521.0469,628.2656 520.8125,628.0156 Q520.5781,627.75 520.5781,627.1406 L520.5781,626.25 L516.6094,626.25 L516.6094,628.7031 L518.0938,628.7031 Q518.0938,628.0469 518.2188,627.8594 Q518.4844,627.4531 518.9531,627.4531 Q519.3281,627.4531 519.5625,627.7188 Q519.7969,627.9688 519.7969,628.5781 L519.7969,630.5469 Q519.7969,631.0938 519.6719,631.2813 Q519.4063,631.6719 518.9531,631.6719 Q518.4844,631.6719 518.2188,631.2656 Q518.0938,631.0781 518.0938,630.4063 L516.6094,630.4063 Z " fill="#000000"/><text fill="#000000" font-family="sans-serif" font-size="14" lengthAdjust="spacing" textLength="22" x="538.25" y="635.3379">PDI</text><line style="stroke:#181818;stroke-width:0.5;" x1="448" x2="618" y1="645.6094" y2="645.6094"/><text fill="#000000" font-family="sans-serif" font-size="14" lengthAdjust="spacing" textLength="111" x="453" y="664.1426">PK idPDI : Integer</text><text fill="#000000" font-family="sans-serif" font-size="14" lengthAdjust="spacing" textLength="71" x="453" y="681.752">DNI : String</text><text fill="#000000" font-family="sans-serif" font-size="14" lengthAdjust="spacing" textLength="157" x="453" y="699.3613">nombreCompleto : String</text><text fill="#000000" font-family="sans-serif" font-size="14" lengthAdjust="spacing" textLength="153" x="453" y="716.9707">fechaNacimiento : String</text><text fill="#000000" font-family="sans-serif" font-size="14" lengthAdjust="spacing" textLength="78" x="453" y="734.5801">sexo : String</text><text fill="#000000" font-family="sans-serif" font-size="14" lengthAdjust="spacing" textLength="101" x="453" y="752.1895">fechaAlta : Date</text><text fill="#000000" font-family="sans-serif" font-size="14" lengthAdjust="spacing" textLength="102" x="453" y="769.7988">direccion: String</text><text fill="#000000" font-family="sans-serif" font-size="14" lengthAdjust="spacing" textLength="100" x="453" y="787.4082">telefono : String</text><text fill="#000000" font-family="sans-serif" font-size="14" lengthAdjust="spacing" textLength="160" x="453" y="805.0176">correoElectronico : String</text><line style="stroke:#181818;stroke-width:0.5;" x1="448" x2="618" y1="812.0938" y2="812.0938"/></g><!--MD5=[79e384cf2055b8aaf72e41e1cbf45d89]
class PropuestaCambioHorario--><g id="elem_PropuestaCambioHorario"><rect codeLine="66" fill="#F1F1F1" height="136.0469" id="PropuestaCambioHorario" rx="2.5" ry="2.5" style="stroke:#181818;stroke-width:0.5;" width="224" x="372" y="879.6094"/><ellipse cx="401.85" cy="895.6094" fill="#ADD1B2" rx="11" ry="11" style="stroke:#181818;stroke-width:1.0;"/><path d="M400.7094,896.4063 L400.7094,898.9063 L405.0375,898.9063 L405.0375,897.9844 Q405.0375,897.375 405.2719,897.1094 Q405.5219,896.8438 405.8969,896.8438 Q406.2719,896.8438 406.5063,897.1094 Q406.7406,897.375 406.7406,897.9844 L406.7406,900.6094 L398.7406,900.6094 Q398.1156,900.6094 397.85,900.375 Q397.6,900.1406 397.6,899.75 Q397.6,899.375 397.8656,899.1406 Q398.1313,898.9063 398.7406,898.9063 L399.0063,898.9063 L399.0063,892.25 L398.7406,892.25 Q398.1156,892.25 397.85,892.0156 Q397.6,891.7813 397.6,891.3906 Q397.6,891.0156 397.85,890.7813 Q398.1156,890.5469 398.7406,890.5469 L406.3656,890.5469 L406.3656,893.1406 Q406.3656,893.75 406.1313,894.0156 Q405.9125,894.2656 405.5219,894.2656 Q405.1469,894.2656 404.9125,894.0156 Q404.6781,893.75 404.6781,893.1406 L404.6781,892.25 L400.7094,892.25 L400.7094,894.7031 L402.1938,894.7031 Q402.1938,894.0469 402.3188,893.8594 Q402.5844,893.4531 403.0531,893.4531 Q403.4281,893.4531 403.6625,893.7188 Q403.8969,893.9688 403.8969,894.5781 L403.8969,896.5469 Q403.8969,897.0938 403.7719,897.2813 Q403.5063,897.6719 403.0531,897.6719 Q402.5844,897.6719 402.3188,897.2656 Q402.1938,897.0781 402.1938,896.4063 L400.7094,896.4063 Z " fill="#000000"/><text fill="#000000" font-family="sans-serif" font-size="14" lengthAdjust="spacing" textLength="159" x="419.15" y="901.3379">PropuestaCambioHorario</text><line style="stroke:#181818;stroke-width:0.5;" x1="373" x2="595" y1="911.6094" y2="911.6094"/><text fill="#000000" font-family="sans-serif" font-size="14" lengthAdjust="spacing" textLength="202" x="378" y="930.1426">PK idPropuestaCambio : Integer</text><text fill="#000000" font-family="sans-serif" font-size="14" lengthAdjust="spacing" textLength="111" x="378" y="947.752">FK idPDI : Integer</text><text fill="#000000" font-family="sans-serif" font-size="14" lengthAdjust="spacing" textLength="135" x="378" y="965.3613">FK idHorario : Integer</text><text fill="#000000" font-family="sans-serif" font-size="14" lengthAdjust="spacing" textLength="212" x="378" y="982.9707">motivoProposicionCambio : String</text><text fill="#000000" font-family="sans-serif" font-size="14" lengthAdjust="spacing" textLength="159" x="378" y="1000.5801">cambioPropuesto : String</text><line style="stroke:#181818;stroke-width:0.5;" x1="373" x2="595" y1="1007.6563" y2="1007.6563"/></g><!--MD5=[2e7b7bb0d668f1d56e275d3138aea4bf]
link AlumnoClase to Estudiante--><g id="link_AlumnoClase_Estudiante"><path codeLine="74" d="M262.61,190.3094 C276.4,222.1894 296.33,268.2494 315.08,311.5994 " fill="none" id="AlumnoClase-Estudiante" style="stroke:#181818;stroke-width:1.0;"/><text fill="#000000" font-family="sans-serif" font-size="13" lengthAdjust="spacing" textLength="26" x="237.3447" y="211.736">0..m</text><text fill="#000000" font-family="sans-serif" font-size="13" lengthAdjust="spacing" textLength="7" x="304.5297" y="300.8506">1</text></g><!--MD5=[f0ef5e0fed5464f827e253beebe26b53]
link AlumnoClase to EventoClase--><g id="link_AlumnoClase_EventoClase"><path codeLine="75" d="M227.53,190.3094 C205.81,240.9494 168.72,327.3794 145.34,381.8894 " fill="none" id="AlumnoClase-EventoClase" style="stroke:#181818;stroke-width:1.0;"/><text fill="#000000" font-family="sans-serif" font-size="13" lengthAdjust="spacing" textLength="26" x="196.6738" y="211.736">0..m</text><text fill="#000000" font-family="sans-serif" font-size="13" lengthAdjust="spacing" textLength="7" x="140.8488" y="371.1638">1</text></g><!--MD5=[393ba1a3c4dafd861e5090b8d5a53bc3]
link Estudiante to Horario--><g id="link_Estudiante_Horario"><path codeLine="76" d="M354.66,553.6094 C350.6,593.0394 346.32,634.6994 343.11,665.9094 " fill="none" id="Estudiante-Horario" style="stroke:#181818;stroke-width:1.0;stroke-dasharray:7.0,7.0;"/><text fill="#000000" font-family="sans-serif" font-size="13" lengthAdjust="spacing" textLength="26" x="327.1158" y="574.9852">0..m</text><text fill="#000000" font-family="sans-serif" font-size="13" lengthAdjust="spacing" textLength="7" x="336.3364" y="655.1866">1</text></g><!--MD5=[035459fd4da61150c183d52e96eba128]
link EventoClase to HorarioEventoClase--><g id="link_EventoClase_HorarioEventoClase"><path codeLine="77" d="M133.39,483.2594 C151.41,578.5594 190.76,786.6594 209.98,888.3494 " fill="none" id="EventoClase-HorarioEventoClase" style="stroke:#181818;stroke-width:1.0;"/><text fill="#000000" font-family="sans-serif" font-size="13" lengthAdjust="spacing" textLength="7" x="127.1447" y="504.3026">1</text><text fill="#000000" font-family="sans-serif" font-size="13" lengthAdjust="spacing" textLength="26" x="181.0526" y="877.6419">0..m</text></g><!--MD5=[ed51ed19ee51358231abbd789ae7a664]
link Horario to HorarioEventoClase--><g id="link_Horario_HorarioEventoClase"><path codeLine="78" d="M312.61,767.2994 C294.4,802.9494 269.8,851.0894 250.68,888.5194 " fill="none" id="Horario-HorarioEventoClase" style="stroke:#181818;stroke-width:1.0;"/><text fill="#000000" font-family="sans-serif" font-size="13" lengthAdjust="spacing" textLength="7" x="301.9085" y="788.3477">1</text><text fill="#000000" font-family="sans-serif" font-size="13" lengthAdjust="spacing" textLength="26" x="226.7129" y="877.8327">0..m</text></g><!--MD5=[c3f45514f87df5513dabae71e3ce8770]
link Horario to PropuestaCambioHorario--><g id="link_Horario_PropuestaCambioHorario"><path codeLine="79" d="M369.68,767.2994 C390.56,800.0494 418.17,843.3594 441.03,879.2094 " fill="none" id="Horario-PropuestaCambioHorario" style="stroke:#181818;stroke-width:1.0;stroke-dasharray:7.0,7.0;"/><text fill="#000000" font-family="sans-serif" font-size="13" lengthAdjust="spacing" textLength="7" x="366.2906" y="788.3477">1</text><text fill="#000000" font-family="sans-serif" font-size="13" lengthAdjust="spacing" textLength="26" x="409.2581" y="868.8415">0..m</text></g><!--MD5=[8343760cf3d6c8f3b88a6f1d244568f8]
link PDI to PropuestaCambioHorario--><g id="link_PDI_PropuestaCambioHorario"><path codeLine="80" d="M511.15,819.7194 C506.81,839.9994 502.36,860.7994 498.35,879.5394 " fill="none" id="PDI-PropuestaCambioHorario" style="stroke:#181818;stroke-width:1.0;stroke-dasharray:7.0,7.0;"/><text fill="#000000" font-family="sans-serif" font-size="13" lengthAdjust="spacing" textLength="7" x="502.2091" y="841.7163">1</text><text fill="#000000" font-family="sans-serif" font-size="13" lengthAdjust="spacing" textLength="26" x="472.4977" y="868.731">0..m</text></g><!--MD5=[c7d2730ea6aafb7f2145ee795f8c588d]
@startuml IRs_horarios

title Requisitos Información: Horarios

Entity AlumnoClase {
    PK FK idEstudiante : Integer
    PK FK idEventoClase : Integer
}

Entity Estudiante {
    PK idEstudiante : Integer
    FK idHorario : Integer
    DNI : String
    nombreCompleto : String
    fechaNacimiento : String
    sexo : String
    fechaAlta : Date
    direccion: String
    telefono : String
    correoElectronico : String
    datosVerificados : Boolean
}

Entity EventoClase {
    PK idEventoClase : Integer
    nombreActividadAsignatura : String
    lugarAsignado : String
}

Entity Horario {
    PK idHorario : Integer
    curso : String
    grado : String
}

Entity HorarioEventoClase {
    PK FK idHorario : Integer
    PK FK EventoClase : Integer
    horaInicio : Datetime
    horaFin : Datetime
}

Entity PAS {
    PK idPAS : Integer
    DNI : String
    nombreCompleto : String
    fechaNacimiento : String
    sexo : String
    fechaAlta : Date
    direccion: String
    telefono : String
    correoElectronico : String
}

Entity PDI {
    PK idPDI : Integer
    DNI : String
    nombreCompleto : String
    fechaNacimiento : String
    sexo : String
    fechaAlta : Date
    direccion: String
    telefono : String
    correoElectronico : String
}

Entity PropuestaCambioHorario {
    PK idPropuestaCambio : Integer
    FK idPDI : Integer
    FK idHorario : Integer
    motivoProposicionCambio : String
    cambioPropuesto : String
}

AlumnoClase "0..m" - - "1" Estudiante
AlumnoClase "0..m" - - "1" EventoClase
Estudiante "0..m" .. "1" Horario
EventoClase "1" - - "0..m" HorarioEventoClase
Horario "1" - - "0..m" HorarioEventoClase
Horario "1" .. "0..m" PropuestaCambioHorario
PDI "1" .. "0..m" PropuestaCambioHorario

@enduml

PlantUML version 1.2022.7(Mon Aug 22 19:01:30 CEST 2022)
(GPL source distribution)
Java Runtime: OpenJDK Runtime Environment
JVM: OpenJDK 64-Bit Server VM
Default Encoding: Cp1252
Language: es
Country: ES
--></g></svg>