<?xml version="1.0" encoding="UTF-8" standalone="no"?><svg xmlns="http://www.w3.org/2000/svg" xmlns:xlink="http://www.w3.org/1999/xlink" contentStyleType="text/css" height="980px" preserveAspectRatio="none" style="width:2366px;height:980px;background:#FFFFFF;" version="1.1" viewBox="0 0 2366 980" width="2366px" zoomAndPan="magnify"><defs/><g><rect fill="none" height="27.6094" id="_title" style="stroke:none;stroke-width:1.0;" width="171" x="1090.8631" y="5"/><text fill="#000000" font-family="sans-serif" font-size="14" font-weight="bold" lengthAdjust="spacing" textLength="161" x="1095.8631" y="24.5332">Gestión de Incidencias</text><!--MD5=[23bc7945312e1f0a2e37cebfe503a03b]
entity A1--><g id="elem_A1"><ellipse cx="1249" cy="364.6094" fill="#F1F1F1" rx="8" ry="8" style="stroke:#181818;stroke-width:0.5;"/><path d="M1249,372.6094 L1249,399.6094 M1236,380.6094 L1262,380.6094 M1249,399.6094 L1236,414.6094 M1249,399.6094 L1262,414.6094 " fill="none" style="stroke:#181818;stroke-width:0.5;"/><text fill="#000000" font-family="sans-serif" font-size="14" lengthAdjust="spacing" textLength="87" x="1205.5" y="430.6426">Administrador</text></g><!--MD5=[406a5e0ae180932da9bcb21c819a1904]
entity A2--><g id="elem_A2"><ellipse cx="645" cy="364.6094" fill="#F1F1F1" rx="8" ry="8" style="stroke:#181818;stroke-width:0.5;"/><path d="M645,372.6094 L645,399.6094 M632,380.6094 L658,380.6094 M645,399.6094 L632,414.6094 M645,399.6094 L658,414.6094 " fill="none" style="stroke:#181818;stroke-width:0.5;"/><text fill="#000000" font-family="sans-serif" font-size="14" lengthAdjust="spacing" textLength="53" x="618.5" y="430.6426">Común1</text></g><!--MD5=[305b0bf20d1e87c4314d270a9e4e4ae4]
entity A3--><g id="elem_A3"><ellipse cx="1249" cy="191.6094" fill="#F1F1F1" rx="8" ry="8" style="stroke:#181818;stroke-width:0.5;"/><path d="M1249,199.6094 L1249,226.6094 M1236,207.6094 L1262,207.6094 M1249,226.6094 L1236,241.6094 M1249,226.6094 L1262,241.6094 " fill="none" style="stroke:#181818;stroke-width:0.5;"/><text fill="#000000" font-family="sans-serif" font-size="14" lengthAdjust="spacing" textLength="53" x="1222.5" y="257.6426">Común2</text></g><!--MD5=[b4296d86aafbbd2074f03a740cb37cff]
entity A4--><g id="elem_A4"><ellipse cx="436" cy="191.6094" fill="#F1F1F1" rx="8" ry="8" style="stroke:#181818;stroke-width:0.5;"/><path d="M436,199.6094 L436,226.6094 M423,207.6094 L449,207.6094 M436,226.6094 L423,241.6094 M436,226.6094 L449,241.6094 " fill="none" style="stroke:#181818;stroke-width:0.5;"/><text fill="#000000" font-family="sans-serif" font-size="14" lengthAdjust="spacing" textLength="108" x="382" y="257.6426">Gestor de correo</text></g><!--MD5=[92e12b53097991ea4e702b1584848830]
entity A5--><g id="elem_A5"><ellipse cx="1988" cy="52.6094" fill="#F1F1F1" rx="8" ry="8" style="stroke:#181818;stroke-width:0.5;"/><path d="M1988,60.6094 L1988,87.6094 M1975,68.6094 L2001,68.6094 M1988,87.6094 L1975,102.6094 M1988,87.6094 L2001,102.6094 " fill="none" style="stroke:#181818;stroke-width:0.5;"/><text fill="#000000" font-family="sans-serif" font-size="14" lengthAdjust="spacing" textLength="49" x="1963.5" y="118.6426">Invitado</text></g><!--MD5=[00940e3e2b7781a4fdcc3900bb29d190]
entity A6--><g id="elem_A6"><ellipse cx="756" cy="537.6094" fill="#F1F1F1" rx="8" ry="8" style="stroke:#181818;stroke-width:0.5;"/><path d="M756,545.6094 L756,572.6094 M743,553.6094 L769,553.6094 M756,572.6094 L743,587.6094 M756,572.6094 L769,587.6094 " fill="none" style="stroke:#181818;stroke-width:0.5;"/><text fill="#000000" font-family="sans-serif" font-size="14" lengthAdjust="spacing" textLength="61" x="725.5" y="603.6426">Operador</text></g><!--MD5=[9d1b510f1fc0534e317165f9c1a293e0]
entity A7--><g id="elem_A7"><ellipse cx="586" cy="537.6094" fill="#F1F1F1" rx="8" ry="8" style="stroke:#181818;stroke-width:0.5;"/><path d="M586,545.6094 L586,572.6094 M573,553.6094 L599,553.6094 M586,572.6094 L573,587.6094 M586,572.6094 L599,587.6094 " fill="none" style="stroke:#181818;stroke-width:0.5;"/><text fill="#000000" font-family="sans-serif" font-size="14" lengthAdjust="spacing" textLength="50" x="561" y="603.6426">Técnico</text></g><g id="elem_UC1"><ellipse cx="1873.1837" cy="222.0603" fill="#F1F1F1" rx="102.1837" ry="27.9509" style="stroke:#181818;stroke-width:0.5;"/><text fill="#000000" font-family="sans-serif" font-size="14" lengthAdjust="spacing" textLength="124" x="1806.1837" y="217.7722">Acceder al histórico</text><text fill="#000000" font-family="sans-serif" font-size="14" lengthAdjust="spacing" textLength="106" x="1819.1837" y="235.3816">de notificaciones</text></g><g id="elem_UC2"><ellipse cx="1015.7827" cy="955.5659" fill="#F1F1F1" rx="80.2827" ry="18.4565" style="stroke:#181818;stroke-width:0.5;"/><text fill="#000000" font-family="sans-serif" font-size="14" lengthAdjust="spacing" textLength="115" x="957.4192" y="959.5435">Añadir comentario</text></g><g id="elem_UC3"><ellipse cx="942.1457" cy="568.0128" fill="#F1F1F1" rx="87.1457" ry="27.9034" style="stroke:#181818;stroke-width:0.5;"/><text fill="#000000" font-family="sans-serif" font-size="14" lengthAdjust="spacing" textLength="103" x="888.6457" y="562.9366">Atender llamada</text><text fill="#000000" font-family="sans-serif" font-size="14" lengthAdjust="spacing" textLength="61" x="913.6457" y="580.546">telefónica</text></g><g id="elem_UC4"><ellipse cx="1064.9948" cy="696.7083" fill="#F1F1F1" rx="130.9948" ry="28.599" style="stroke:#181818;stroke-width:0.5;"/><text fill="#000000" font-family="sans-serif" font-size="14" lengthAdjust="spacing" textLength="168" x="975.9948" y="692.4202">Atender llamada telefónica</text><text fill="#000000" font-family="sans-serif" font-size="14" lengthAdjust="spacing" textLength="102" x="1012.9948" y="710.0296">[vista Operador]</text></g><g id="elem_UC5"><ellipse cx="566.9948" cy="696.7083" fill="#F1F1F1" rx="130.9948" ry="28.599" style="stroke:#181818;stroke-width:0.5;"/><text fill="#000000" font-family="sans-serif" font-size="14" lengthAdjust="spacing" textLength="168" x="477.9948" y="692.4202">Atender llamada telefónica</text><text fill="#000000" font-family="sans-serif" font-size="14" lengthAdjust="spacing" textLength="91" x="520.4948" y="710.0296">[vista Técnico]</text></g><g id="elem_UC6"><ellipse cx="567.1058" cy="831.0157" fill="#F1F1F1" rx="92.1058" ry="27.9063" style="stroke:#181818;stroke-width:0.5;"/><text fill="#000000" font-family="sans-serif" font-size="14" lengthAdjust="spacing" textLength="110" x="509.1474" y="826.2074">Comprobar datos</text><text fill="#000000" font-family="sans-serif" font-size="14" lengthAdjust="spacing" textLength="63" x="536.6474" y="843.8168">incidencia</text></g><g id="elem_UC7"><ellipse cx="1448.2192" cy="394.8728" fill="#F1F1F1" rx="120.7192" ry="55.7634" style="stroke:#181818;stroke-width:0.5;"/><text fill="#000000" font-family="sans-serif" font-size="14" lengthAdjust="spacing" textLength="128" x="1375.4692" y="368.1873">Consultar incidencia</text><text fill="#000000" font-family="sans-serif" font-size="14" lengthAdjust="spacing" textLength="4" x="1437.4692" y="385.7966"> </text><line style="stroke:#181818;stroke-width:1.0;" x1="1329.2008" x2="1567.2376" y1="388.8728" y2="388.8728"/><text fill="#000000" font-family="sans-serif" font-size="14" font-weight="bold" lengthAdjust="spacing" textLength="118" x="1380.4692" y="407.406">extension points</text><text fill="#000000" font-family="sans-serif" font-size="14" lengthAdjust="spacing" textLength="163" x="1357.9692" y="425.0154">Editar datos de incidencia</text></g><g id="elem_UC8"><ellipse cx="1432.0754" cy="222.0744" fill="#F1F1F1" rx="105.0754" ry="27.9651" style="stroke:#181818;stroke-width:0.5;"/><text fill="#000000" font-family="sans-serif" font-size="14" lengthAdjust="spacing" textLength="128" x="1363.0754" y="217.7863">Consultar incidencia</text><text fill="#000000" font-family="sans-serif" font-size="14" lengthAdjust="spacing" textLength="90" x="1386.0754" y="235.3957">[vista Invitado]</text></g><g id="elem_UC9"><ellipse cx="436.035" cy="567.9164" fill="#F1F1F1" rx="89.535" ry="20.307" style="stroke:#181818;stroke-width:0.5;"/><text fill="#000000" font-family="sans-serif" font-size="14" lengthAdjust="spacing" textLength="137" x="367.535" y="571.6449">Dar de alta incidencia</text></g><g id="elem_UC10"><ellipse cx="1848.0887" cy="395.1296" fill="#F1F1F1" rx="118.0887" ry="28.0202" style="stroke:#181818;stroke-width:0.5;"/><text fill="#000000" font-family="sans-serif" font-size="14" lengthAdjust="spacing" textLength="146" x="1770.0887" y="390.8415">Dar de alta localización</text><text fill="#000000" font-family="sans-serif" font-size="14" lengthAdjust="spacing" textLength="75" x="1809.5887" y="408.4509">en un mapa</text></g><g id="elem_UC11"><ellipse cx="1654.196" cy="222.0128" fill="#F1F1F1" rx="82.196" ry="27.9034" style="stroke:#181818;stroke-width:0.5;"/><text fill="#000000" font-family="sans-serif" font-size="14" lengthAdjust="spacing" textLength="96" x="1604.196" y="216.9366">Editar datos de</text><text fill="#000000" font-family="sans-serif" font-size="14" lengthAdjust="spacing" textLength="63" x="1624.696" y="234.546">incidencia</text></g><g id="elem_UC12"><ellipse cx="435.8391" cy="395.088" fill="#F1F1F1" rx="99.8391" ry="53.9786" style="stroke:#181818;stroke-width:0.5;"/><text fill="#000000" font-family="sans-serif" font-size="14" lengthAdjust="spacing" textLength="85" x="385.5304" y="366.1465">Enviar correo</text><text fill="#000000" font-family="sans-serif" font-size="14" lengthAdjust="spacing" textLength="4" x="426.0304" y="383.7559"> </text><line style="stroke:#181818;stroke-width:1.0;" x1="338.1747" x2="533.5035" y1="386.8321" y2="386.8321"/><text fill="#000000" font-family="sans-serif" font-size="14" font-weight="bold" lengthAdjust="spacing" textLength="118" x="369.0304" y="405.3653">extension points</text><text fill="#000000" font-family="sans-serif" font-size="14" lengthAdjust="spacing" textLength="137" x="359.5304" y="422.9746">Dar de alta incidencia</text></g><g id="elem_UC13"><ellipse cx="1404.9066" cy="568.0639" fill="#F1F1F1" rx="102.9066" ry="27.9545" style="stroke:#181818;stroke-width:0.5;"/><text fill="#000000" font-family="sans-serif" font-size="14" lengthAdjust="spacing" textLength="125" x="1337.4066" y="563.7758">Gestionar categoría</text><text fill="#000000" font-family="sans-serif" font-size="14" lengthAdjust="spacing" textLength="83" x="1362.4066" y="581.3852">de incidencia</text></g><g id="elem_UC14"><ellipse cx="2103.7928" cy="394.9679" fill="#F1F1F1" rx="102.2928" ry="22.8586" style="stroke:#181818;stroke-width:0.5;"/><text fill="#000000" font-family="sans-serif" font-size="14" lengthAdjust="spacing" textLength="166" x="2020.7928" y="398.6965">Incorporar una explicación</text></g><g id="elem_UC15"><ellipse cx="2104.0097" cy="222.0128" fill="#F1F1F1" rx="93.5097" ry="27.9034" style="stroke:#181818;stroke-width:0.5;"/><text fill="#000000" font-family="sans-serif" font-size="14" lengthAdjust="spacing" textLength="92" x="2056.0097" y="216.9366">Informar sobre</text><text fill="#000000" font-family="sans-serif" font-size="14" lengthAdjust="spacing" textLength="112" x="2050.0097" y="234.546">posible incidencia</text></g><g id="elem_UC16"><ellipse cx="1307.1102" cy="831.0128" fill="#F1F1F1" rx="83.6102" ry="27.9034" style="stroke:#181818;stroke-width:0.5;"/><text fill="#000000" font-family="sans-serif" font-size="14" lengthAdjust="spacing" textLength="98" x="1256.1102" y="825.9366">Introducir datos</text><text fill="#000000" font-family="sans-serif" font-size="14" lengthAdjust="spacing" textLength="63" x="1277.6102" y="843.546">incidencia</text></g><g id="elem_UC17"><ellipse cx="307.8187" cy="696.5173" fill="#F1F1F1" rx="92.8187" ry="27.9079" style="stroke:#181818;stroke-width:0.5;"/><text fill="#000000" font-family="sans-serif" font-size="14" lengthAdjust="spacing" textLength="111" x="249.1145" y="691.775">Marcar incidencia</text><text fill="#000000" font-family="sans-serif" font-size="14" lengthAdjust="spacing" textLength="99" x="259.1145" y="709.3844">como duplicada</text></g><g id="elem_UC18"><ellipse cx="815.8351" cy="696.4764" fill="#F1F1F1" rx="82.3351" ry="18.867" style="stroke:#181818;stroke-width:0.5;"/><text fill="#000000" font-family="sans-serif" font-size="14" lengthAdjust="spacing" textLength="120" x="755.8351" y="700.2049">Ordenar incidencia</text></g><g id="elem_UC19"><ellipse cx="1015.8234" cy="831.0128" fill="#F1F1F1" rx="104.8234" ry="27.9034" style="stroke:#181818;stroke-width:0.5;"/><text fill="#000000" font-family="sans-serif" font-size="14" lengthAdjust="spacing" textLength="120" x="953.8234" y="825.9366">Ordenar incidencia</text><text fill="#000000" font-family="sans-serif" font-size="14" lengthAdjust="spacing" textLength="128" x="953.8234" y="843.546">[vista Administrador]</text></g><g id="elem_UC20"><ellipse cx="93.1457" cy="696.5128" fill="#F1F1F1" rx="87.1457" ry="27.9034" style="stroke:#181818;stroke-width:0.5;"/><text fill="#000000" font-family="sans-serif" font-size="14" lengthAdjust="spacing" textLength="102" x="40.1457" y="691.4366">Realizar informe</text><text fill="#000000" font-family="sans-serif" font-size="14" lengthAdjust="spacing" textLength="103" x="43.6457" y="709.046">sobre incidencia</text></g><g id="elem_UC21"><ellipse cx="2296.8631" cy="222.2183" fill="#F1F1F1" rx="63.8631" ry="15.609" style="stroke:#181818;stroke-width:0.5;"/><text fill="#000000" font-family="sans-serif" font-size="14" lengthAdjust="spacing" textLength="73" x="2257.3631" y="226.7349">Registrarse</text></g><g id="elem_UC22"><ellipse cx="2296.9968" cy="395.1523" fill="#F1F1F1" rx="54.9968" ry="15.5429" style="stroke:#181818;stroke-width:0.5;"/><text fill="#000000" font-family="sans-serif" font-size="14" lengthAdjust="spacing" textLength="61" x="2263.4968" y="399.6689">Subir foto</text></g><!--MD5=[679ee646217f42e21f9e3d3c562c03f1]
link A1 to UC13--><g id="link_A1_UC13"><path d="M1284.01,434.4894 C1312.29,465.4894 1351.55,508.5194 1377.58,537.0594 " fill="none" id="A1-to-UC13" style="stroke:#181818;stroke-width:1.0;"/><polygon fill="#181818" points="1381.01,540.8094,1377.9247,531.4563,1377.6502,537.1064,1372,536.8319,1381.01,540.8094" style="stroke:#181818;stroke-width:1.0;"/></g><!--MD5=[8de9303d1a49ff748a2ae1b6979a0609]
link A1 to UC19--><g id="link_A1_UC19"><path d="M1255.67,434.2194 C1264.99,499.7894 1274.57,635.5394 1214,725.1094 C1185.88,766.6994 1135.81,793.0394 1093.05,808.9294 " fill="none" id="A1-to-UC19" style="stroke:#181818;stroke-width:1.0;"/><polygon fill="#181818" points="1088.14,810.7294,1097.9658,811.4033,1092.8373,809.0161,1095.2245,803.8876,1088.14,810.7294" style="stroke:#181818;stroke-width:1.0;"/></g><!--MD5=[4fb169714c9b9a8108876eb40278121d]
link A2 to UC9--><g id="link_A2_UC9"><path d="M618.1,418.1194 C578.21,450.7494 503.76,511.6694 463.52,544.5994 " fill="none" id="A2-to-UC9" style="stroke:#181818;stroke-width:1.0;"/><polygon fill="#181818" points="459.26,548.0794,468.757,545.4703,463.1279,544.9109,463.6874,539.2817,459.26,548.0794" style="stroke:#181818;stroke-width:1.0;"/></g><!--MD5=[03062a677d5c394ee55ff9908a2e46c9]
link A3 to UC7--><g id="link_A3_UC7"><path d="M1275.84,246.1694 C1304.29,270.6194 1350.19,310.0594 1387.43,342.0694 " fill="none" id="A3-to-UC7" style="stroke:#181818;stroke-width:1.0;"/><polygon fill="#181818" points="1391.47,345.5294,1387.2564,336.6274,1387.6798,342.2684,1382.0388,342.6917,1391.47,345.5294" style="stroke:#181818;stroke-width:1.0;"/></g><!--MD5=[80116d7ec6e68177e0258c740b1c0ca1]
link A4 to UC12--><g id="link_A4_UC12"><path d="M436,261.4894 C436,283.3694 436,311.2294 436,335.7694 " fill="none" id="A4-to-UC12" style="stroke:#181818;stroke-width:1.0;"/><polygon fill="#181818" points="436,340.9494,440,331.9494,436,335.9494,432,331.9494,436,340.9494" style="stroke:#181818;stroke-width:1.0;"/></g><!--MD5=[9813566fbebe62f9c13b4e3e0d49ef81]
link A5 to UC1--><g id="link_A5_UC1"><path d="M1963.33,113.4994 C1944.24,136.2394 1917.89,167.6394 1898.57,190.6494 " fill="none" id="A5-to-UC1" style="stroke:#181818;stroke-width:1.0;"/><polygon fill="#181818" points="1895.29,194.5494,1904.1404,190.2285,1898.505,190.72,1898.0134,185.0845,1895.29,194.5494" style="stroke:#181818;stroke-width:1.0;"/></g><!--MD5=[75adcfdc9176394f110143918dd46f27]
link A5 to UC8--><g id="link_A5_UC8"><path d="M1963.43,89.0494 C1897.12,102.5394 1709.17,141.7294 1555,183.1094 C1537.64,187.7694 1519.04,193.2494 1501.7,198.5794 " fill="none" id="A5-to-UC8" style="stroke:#181818;stroke-width:1.0;"/><polygon fill="#181818" points="1496.85,200.0794,1506.6281,201.2578,1501.6292,198.6099,1504.277,193.611,1496.85,200.0794" style="stroke:#181818;stroke-width:1.0;"/></g><!--MD5=[da50c50ca2753c0b931a46e17aaa890d]
link A5 to UC15--><g id="link_A5_UC15"><path d="M2012.6,113.1594 C2031.96,136.0294 2058.86,167.7994 2078.46,190.9494 " fill="none" id="A5-to-UC15" style="stroke:#181818;stroke-width:1.0;"/><polygon fill="#181818" points="2081.79,194.8794,2079.0285,185.4256,2078.5596,191.063,2072.9223,190.5942,2081.79,194.8794" style="stroke:#181818;stroke-width:1.0;"/></g><!--MD5=[a68d0d742f8509efc46d003b51c5d49a]
link A5 to UC21--><g id="link_A5_UC21"><path d="M2012.6,94.6194 C2054.35,112.5094 2141.67,150.1394 2215,183.1094 C2231.47,190.5194 2249.71,198.9394 2264.79,205.9794 " fill="none" id="A5-to-UC21" style="stroke:#181818;stroke-width:1.0;"/><polygon fill="#181818" points="2269.36,208.1094,2262.8972,200.6776,2264.8294,205.9942,2259.5128,207.9264,2269.36,208.1094" style="stroke:#181818;stroke-width:1.0;"/></g><!--MD5=[fc55366503014e2a25800fde99c81fca]
link A6 to UC4--><g id="link_A6_UC4"><path d="M786.56,583.8194 C801.9,591.0594 820.82,599.7894 838,607.1094 C890.37,629.4294 950.43,652.7394 995.6,669.8394 " fill="none" id="A6-to-UC4" style="stroke:#181818;stroke-width:1.0;"/><polygon fill="#181818" points="1000.48,671.6794,993.483,664.7481,995.8048,669.9065,990.6465,672.2284,1000.48,671.6794" style="stroke:#181818;stroke-width:1.0;"/></g><!--MD5=[2e89c79597fe280f7af60fe4912a1942]
link A6 to UC17--><g id="link_A6_UC17"><path d="M725.26,578.5094 C699.57,586.3194 661.96,597.6394 629,607.1094 C543.99,631.5394 445.92,658.3894 380.78,676.0294 " fill="none" id="A6-to-UC17" style="stroke:#181818;stroke-width:1.0;"/><polygon fill="#181818" points="375.75,677.3894,385.4846,678.8852,380.5745,676.0762,383.3835,671.1661,375.75,677.3894" style="stroke:#181818;stroke-width:1.0;"/></g><!--MD5=[c38a873cf51f0fb5585265ef1d23a751]
link A6 to UC18--><g id="link_A6_UC18"><path d="M774.16,607.4094 C784.25,628.6794 796.47,654.4294 805.09,672.5994 " fill="none" id="A6-to-UC18" style="stroke:#181818;stroke-width:1.0;"/><polygon fill="#181818" points="807.42,677.5194,807.1741,667.6736,805.2759,673.0024,799.947,671.1042,807.42,677.5194" style="stroke:#181818;stroke-width:1.0;"/></g><!--MD5=[1f4cc7cc4ff77f5a5a80c838a6cad73b]
link A7 to UC5--><g id="link_A7_UC5"><path d="M580.25,607.4094 C577.6,625.0694 574.48,645.8194 571.93,662.7594 " fill="none" id="A7-to-UC5" style="stroke:#181818;stroke-width:1.0;"/><polygon fill="#181818" points="571.16,667.8894,576.4532,659.5838,571.9031,662.9449,568.542,658.3948,571.16,667.8894" style="stroke:#181818;stroke-width:1.0;"/></g><!--MD5=[5d827cd2a5eca0be251f6d0759c16ebc]
link A7 to UC20--><g id="link_A7_UC20"><path d="M560.84,595.3394 C555.34,599.8694 549.28,604.0794 543,607.1094 C402.34,674.9094 349.5,634.5694 197,668.1094 C185.75,670.5794 173.88,673.4594 162.35,676.4094 " fill="none" id="A7-to-UC20" style="stroke:#181818;stroke-width:1.0;"/><polygon fill="#181818" points="157.43,677.6694,167.1418,679.3066,162.2731,676.4265,165.1532,671.5577,157.43,677.6694" style="stroke:#181818;stroke-width:1.0;"/></g><!--MD5=[a3e422627ee118d4e48e8d2fb01dda08]
reverse link A2 to A6--><g id="link_A2_A6"><path d="M681.03,451.6094 C697.42,476.8594 716.41,506.1094 731.17,528.8594 " fill="none" id="A2-backto-A6" style="stroke:#181818;stroke-width:1.0;"/><polygon fill="none" points="674.93,455.0694,669.91,434.4894,686.67,447.4494,674.93,455.0694" style="stroke:#181818;stroke-width:1.0;"/></g><!--MD5=[549c432ebfa4ea54d87dc804f74fde1c]
reverse link A2 to A7--><g id="link_A2_A7"><path d="M625.22,453.4394 C616.65,478.2694 606.86,506.6594 599.2,528.8594 " fill="none" id="A2-backto-A7" style="stroke:#181818;stroke-width:1.0;"/><polygon fill="none" points="618.62,451.1094,631.76,434.4894,631.85,455.6794,618.62,451.1094" style="stroke:#181818;stroke-width:1.0;"/></g><!--MD5=[d3a23696660f5d888990957abff58dca]
reverse link A3 to A1--><g id="link_A3_A1"><path d="M1249,281.5494 C1249,306.1094 1249,333.9894 1249,355.8594 " fill="none" id="A3-backto-A1" style="stroke:#181818;stroke-width:1.0;"/><polygon fill="none" points="1242,281.4894,1249,261.4894,1256,281.4894,1242,281.4894" style="stroke:#181818;stroke-width:1.0;"/></g><!--MD5=[19f4da9d4d3ffdef7c1b5ef510e80f78]
reverse link A3 to A2--><g id="link_A3_A2"><path d="M1202.97,236.1394 C1083.46,269.9794 766.04,359.8394 671.77,386.5294 " fill="none" id="A3-backto-A2" style="stroke:#181818;stroke-width:1.0;"/><polygon fill="none" points="1201.12,229.3894,1222.27,230.6794,1204.93,242.8594,1201.12,229.3894" style="stroke:#181818;stroke-width:1.0;"/></g><!--MD5=[d4a5aae1b0e654ff863e0f2caddd3bea]
reverse link UC3 to UC4--><g id="link_UC3_UC4"><path d="M981.35,609.5794 C1000.04,628.7994 1021.89,651.2694 1038.57,668.4294 " fill="none" id="UC3-backto-UC4" style="stroke:#181818;stroke-width:1.0;"/><polygon fill="none" points="976.11,614.2294,967.19,595.0094,986.15,604.4694,976.11,614.2294" style="stroke:#181818;stroke-width:1.0;"/></g><!--MD5=[a1313c52b5c2d6db7ccca18a4247035e]
reverse link UC3 to UC5--><g id="link_UC3_UC5"><path d="M864.39,595.2894 C797.1,617.9894 700.63,650.5294 636,672.3294 " fill="none" id="UC3-backto-UC5" style="stroke:#181818;stroke-width:1.0;"/><polygon fill="none" points="862.22,588.6394,883.41,588.8794,866.69,601.8994,862.22,588.6394" style="stroke:#181818;stroke-width:1.0;"/></g><!--MD5=[b1727192324887a3787a26d08fb0fb0d]
reverse link UC8 to UC7--><g id="link_UC8_UC7"><path d="M1436.41,270.2294 C1438.4,291.4694 1440.76,316.6994 1442.83,338.8294 " fill="none" id="UC8-backto-UC7" style="stroke:#181818;stroke-width:1.0;"/><polygon fill="none" points="1429.43,270.7694,1434.54,250.2094,1443.37,269.4694,1429.43,270.7694" style="stroke:#181818;stroke-width:1.0;"/></g><!--MD5=[1fb06e3e2909d743208d4155953bcacc]
reverse link UC18 to UC19--><g id="link_UC18_UC19"><path d="M859.17,726.2094 C894.5,749.6194 943.99,782.3994 977.87,804.8494 " fill="none" id="UC18-backto-UC19" style="stroke:#181818;stroke-width:1.0;"/><polygon fill="none" points="854.95,731.8094,842.15,714.9294,862.69,720.1394,854.95,731.8094" style="stroke:#181818;stroke-width:1.0;"/></g><!--MD5=[ec9f7e13411305357bf1604f950fc7e5]
link UC11 to UC7--><g id="link_UC11_UC7"><path d="M1623.6,248.3394 C1593.91,272.9894 1547.83,311.2394 1510.33,342.3694 " fill="none" id="UC11-to-UC7" style="stroke:#181818;stroke-width:1.0;stroke-dasharray:7.0,7.0;"/><polygon fill="#181818" points="1506.26,345.7494,1515.7357,343.0641,1510.1023,342.5499,1510.6165,336.9164,1506.26,345.7494" style="stroke:#181818;stroke-width:1.0;"/><text fill="#000000" font-family="sans-serif" font-size="13" lengthAdjust="spacing" textLength="55" x="1570" y="305.6045">«Extend»</text></g><!--MD5=[c44bf8cb47e1e53a32449055f0eb0301]
link UC12 to UC9--><g id="link_UC12_UC9"><path d="M436,449.2794 C436,480.2694 436,517.9094 436,542.1694 " fill="none" id="UC12-to-UC9" style="stroke:#181818;stroke-width:1.0;stroke-dasharray:7.0,7.0;"/><polygon fill="#181818" points="436,547.4394,440,538.4394,436,542.4394,432,538.4394,436,547.4394" style="stroke:#181818;stroke-width:1.0;"/><text fill="#000000" font-family="sans-serif" font-size="13" lengthAdjust="spacing" textLength="55" x="437" y="495.6045">«Extend»</text></g><!--MD5=[0da82db47a741327b812f7df6d2137bd]
link UC4 to UC16--><g id="link_UC4_UC16"><path d="M1111.95,723.3094 C1154.65,746.6994 1217.35,781.0194 1260.05,804.3994 " fill="none" id="UC4-to-UC16" style="stroke:#181818;stroke-width:1.0;stroke-dasharray:7.0,7.0;"/><polygon fill="#181818" points="1264.64,806.9194,1258.6651,799.0899,1260.2538,804.5191,1254.8246,806.1079,1264.64,806.9194" style="stroke:#181818;stroke-width:1.0;"/><text fill="#000000" font-family="sans-serif" font-size="13" lengthAdjust="spacing" textLength="55" x="1201" y="769.6045">«Include»</text></g><!--MD5=[3ab3c4f0aa88f122bda36575115a204e]
link UC5 to UC6--><g id="link_UC5_UC6"><path d="M567,725.3894 C567,746.4594 567,775.4894 567,797.6394 " fill="none" id="UC5-to-UC6" style="stroke:#181818;stroke-width:1.0;stroke-dasharray:7.0,7.0;"/><polygon fill="#181818" points="567,802.8194,571,793.8194,567,797.8194,563,793.8194,567,802.8194" style="stroke:#181818;stroke-width:1.0;"/><text fill="#000000" font-family="sans-serif" font-size="13" lengthAdjust="spacing" textLength="55" x="568" y="769.6045">«Include»</text></g><!--MD5=[83022dd8a20f10541c3263e76a2439f6]
link UC15 to UC10--><g id="link_UC15_UC10"><path d="M2066.78,247.9694 C2020.07,279.1794 1940.13,332.5694 1890.9,365.4594 " fill="none" id="UC15-to-UC10" style="stroke:#181818;stroke-width:1.0;stroke-dasharray:7.0,7.0;"/><polygon fill="#181818" points="1886.53,368.3794,1896.2333,366.6922,1890.6837,365.596,1891.7799,360.0464,1886.53,368.3794" style="stroke:#181818;stroke-width:1.0;"/><text fill="#000000" font-family="sans-serif" font-size="13" lengthAdjust="spacing" textLength="55" x="1999" y="305.6045">«Include»</text></g><!--MD5=[7b05b64a3e587d14b749c61e268eddae]
link UC15 to UC14--><g id="link_UC15_UC14"><path d="M2104,250.2094 C2104,282.0794 2104,334.6894 2104,366.6894 " fill="none" id="UC15-to-UC14" style="stroke:#181818;stroke-width:1.0;stroke-dasharray:7.0,7.0;"/><polygon fill="#181818" points="2104,372.0394,2108,363.0394,2104,367.0394,2100,363.0394,2104,372.0394" style="stroke:#181818;stroke-width:1.0;"/><text fill="#000000" font-family="sans-serif" font-size="13" lengthAdjust="spacing" textLength="55" x="2105" y="305.6045">«Include»</text></g><!--MD5=[ffe7774cdc0c47217211018ef8617010]
link UC15 to UC22--><g id="link_UC15_UC22"><path d="M2133.31,249.0794 C2173.03,284.2794 2242.91,346.1794 2277.07,376.4494 " fill="none" id="UC15-to-UC22" style="stroke:#181818;stroke-width:1.0;stroke-dasharray:7.0,7.0;"/><polygon fill="#181818" points="2281.05,379.9794,2276.9638,371.0182,2277.3067,376.6647,2271.6602,377.0076,2281.05,379.9794" style="stroke:#181818;stroke-width:1.0;"/><text fill="#000000" font-family="sans-serif" font-size="13" lengthAdjust="spacing" textLength="55" x="2201" y="305.6045">«Include»</text></g><!--MD5=[9fa52f60d169bb5ac2dda20be190279b]
link UC19 to UC2--><g id="link_UC19_UC2"><path d="M1016,859.2994 C1016,881.0394 1016,911.1694 1016,931.6994 " fill="none" id="UC19-to-UC2" style="stroke:#181818;stroke-width:1.0;stroke-dasharray:7.0,7.0;"/><polygon fill="#181818" points="1016,936.9594,1020,927.9594,1016,931.9594,1012,927.9594,1016,936.9594" style="stroke:#181818;stroke-width:1.0;"/><text fill="#000000" font-family="sans-serif" font-size="13" lengthAdjust="spacing" textLength="55" x="1017" y="903.6045">«Include»</text></g><!--MD5=[3cbf333299342a83ada19872f451fa4a]
@startuml gestion_de_incidencias
title Gestión de Incidencias

:Administrador: as A1
:Común1: as A2
:Común2: as A3
:Gestor de correo: as A4
:Invitado: as A5
:Operador: as A6
:Técnico: as A7

(Acceder al histórico \n de notificaciones) as UC1
(Añadir comentario) as UC2
(Atender llamada \n telefónica) as UC3
(Atender llamada telefónica \n [vista Operador]) as UC4
(Atender llamada telefónica \n [vista Técnico]) as UC5
(Comprobar datos \n incidencia) as UC6
usecase UC7 as "Consultar incidencia

- -
**extension points**
Editar datos de incidencia"
(Consultar incidencia \n [vista Invitado]) as UC8
(Dar de alta incidencia) as UC9
(Dar de alta localización \n en un mapa) as UC10
(Editar datos de \n incidencia) as UC11
usecase UC12 as "Enviar correo

- -
**extension points**
Dar de alta incidencia"
(Gestionar categoría \n de incidencia) as UC13
(Incorporar una explicación) as UC14
(Informar sobre \n posible incidencia) as UC15
(Introducir datos \n incidencia) as UC16
(Marcar incidencia \n como duplicada) as UC17
(Ordenar incidencia) as UC18
(Ordenar incidencia \n [vista Administrador]) as UC19
(Realizar informe \n sobre incidencia) as UC20
(Registrarse) as UC21
(Subir foto) as UC22

A1 - -> UC13
A1 - -> UC19
A2 - -> UC9
A3 - -> UC7
A4 - -> UC12
A5 - -> UC1
A5 - -> UC8
A5 - -> UC15
A5 - -> UC21
A6 - -> UC4
A6 - -> UC17
A6 - -> UC18
A7 - -> UC5
A7 - -> UC20

A2 <|- - A6
A2 <|- - A7
A3 <|- - A1
A3 <|- - A2
UC3 <|- - UC4
UC3 <|- - UC5
UC8 <|- - UC7
UC18 <|- - UC19

UC11 ..> UC7 : <<Extend>>
UC12 ..> UC9 : <<Extend>>

UC4 ..> UC16 : <<Include>>
UC5 ..> UC6 : <<Include>>
UC15 ..> UC10 : <<Include>>
UC15 ..> UC14 : <<Include>>
UC15 ..> UC22 : <<Include>>
UC19 ..> UC2 : <<Include>>

@enduml

PlantUML version 1.2022.7(Mon Aug 22 19:01:30 CEST 2022)
(GPL source distribution)
Java Runtime: OpenJDK Runtime Environment
JVM: OpenJDK 64-Bit Server VM
Default Encoding: Cp1252
Language: es
Country: ES
--></g></svg>