<?xml version="1.0" encoding="UTF-8" standalone="no"?><svg xmlns="http://www.w3.org/2000/svg" xmlns:xlink="http://www.w3.org/1999/xlink" contentStyleType="text/css" height="934px" preserveAspectRatio="none" style="width:1547px;height:934px;background:#FFFFFF;" version="1.1" viewBox="0 0 1547 934" width="1547px" zoomAndPan="magnify"><defs/><g><rect fill="none" height="27.6094" id="_title" style="stroke:none;stroke-width:1.0;" width="132" x="700.6041" y="5"/><text fill="#000000" font-family="sans-serif" font-size="14" font-weight="bold" lengthAdjust="spacing" textLength="122" x="705.6041" y="24.5332">Fotografía Online</text><!--MD5=[23bc7945312e1f0a2e37cebfe503a03b]
entity A1--><g id="elem_A1"><ellipse cx="154" cy="520.1094" fill="#F1F1F1" rx="8" ry="8" style="stroke:#181818;stroke-width:0.5;"/><path d="M154,528.1094 L154,555.1094 M141,536.1094 L167,536.1094 M154,555.1094 L141,570.1094 M154,555.1094 L167,570.1094 " fill="none" style="stroke:#181818;stroke-width:0.5;"/><text fill="#000000" font-family="sans-serif" font-size="14" lengthAdjust="spacing" textLength="87" x="110.5" y="586.1426">Administrador</text></g><!--MD5=[406a5e0ae180932da9bcb21c819a1904]
entity A2--><g id="elem_A2"><ellipse cx="857" cy="347.6094" fill="#F1F1F1" rx="8" ry="8" style="stroke:#181818;stroke-width:0.5;"/><path d="M857,355.6094 L857,382.6094 M844,363.6094 L870,363.6094 M857,382.6094 L844,397.6094 M857,382.6094 L870,397.6094 " fill="none" style="stroke:#181818;stroke-width:0.5;"/><text fill="#000000" font-family="sans-serif" font-size="14" lengthAdjust="spacing" textLength="44" x="835" y="413.6426">Cliente</text></g><!--MD5=[305b0bf20d1e87c4314d270a9e4e4ae4]
entity A3--><g id="elem_A3"><ellipse cx="853" cy="191.6094" fill="#F1F1F1" rx="8" ry="8" style="stroke:#181818;stroke-width:0.5;"/><path d="M853,199.6094 L853,226.6094 M840,207.6094 L866,207.6094 M853,226.6094 L840,241.6094 M853,226.6094 L866,241.6094 " fill="none" style="stroke:#181818;stroke-width:0.5;"/><text fill="#000000" font-family="sans-serif" font-size="14" lengthAdjust="spacing" textLength="45" x="830.5" y="257.6426">Común</text></g><!--MD5=[b4296d86aafbbd2074f03a740cb37cff]
entity A4--><g id="elem_A4"><ellipse cx="1185" cy="52.6094" fill="#F1F1F1" rx="8" ry="8" style="stroke:#181818;stroke-width:0.5;"/><path d="M1185,60.6094 L1185,87.6094 M1172,68.6094 L1198,68.6094 M1185,87.6094 L1172,102.6094 M1185,87.6094 L1198,102.6094 " fill="none" style="stroke:#181818;stroke-width:0.5;"/><text fill="#000000" font-family="sans-serif" font-size="14" lengthAdjust="spacing" textLength="75" x="1147.5" y="118.6426">Controlador</text></g><!--MD5=[92e12b53097991ea4e702b1584848830]
entity A5--><g id="elem_A5"><ellipse cx="551" cy="347.6094" fill="#F1F1F1" rx="8" ry="8" style="stroke:#181818;stroke-width:0.5;"/><path d="M551,355.6094 L551,382.6094 M538,363.6094 L564,363.6094 M551,382.6094 L538,397.6094 M551,382.6094 L564,397.6094 " fill="none" style="stroke:#181818;stroke-width:0.5;"/><text fill="#000000" font-family="sans-serif" font-size="14" lengthAdjust="spacing" textLength="43" x="529.5" y="413.6426">Gestor</text></g><!--MD5=[00940e3e2b7781a4fdcc3900bb29d190]
entity A6--><g id="elem_A6"><ellipse cx="1184" cy="191.6094" fill="#F1F1F1" rx="8" ry="8" style="stroke:#181818;stroke-width:0.5;"/><path d="M1184,199.6094 L1184,226.6094 M1171,207.6094 L1197,207.6094 M1184,226.6094 L1171,241.6094 M1184,226.6094 L1197,241.6094 " fill="none" style="stroke:#181818;stroke-width:0.5;"/><text fill="#000000" font-family="sans-serif" font-size="14" lengthAdjust="spacing" textLength="108" x="1130" y="257.6426">Gestor de correo</text></g><!--MD5=[9d1b510f1fc0534e317165f9c1a293e0]
entity A7--><g id="elem_A7"><ellipse cx="725" cy="347.6094" fill="#F1F1F1" rx="8" ry="8" style="stroke:#181818;stroke-width:0.5;"/><path d="M725,355.6094 L725,382.6094 M712,363.6094 L738,363.6094 M725,382.6094 L712,397.6094 M725,382.6094 L738,397.6094 " fill="none" style="stroke:#181818;stroke-width:0.5;"/><text fill="#000000" font-family="sans-serif" font-size="14" lengthAdjust="spacing" textLength="149" x="650.5" y="413.6426">Software de facturación</text></g><!--MD5=[beef048a2fc0f2aec2136ad30dfff291]
entity A8--><g id="elem_A8"><ellipse cx="1154" cy="520.1094" fill="#F1F1F1" rx="8" ry="8" style="stroke:#181818;stroke-width:0.5;"/><path d="M1154,528.1094 L1154,555.1094 M1141,536.1094 L1167,536.1094 M1154,555.1094 L1141,570.1094 M1154,555.1094 L1167,570.1094 " fill="none" style="stroke:#181818;stroke-width:0.5;"/><text fill="#000000" font-family="sans-serif" font-size="14" lengthAdjust="spacing" textLength="62" x="1123" y="586.1426">Vendedor</text></g><g id="elem_UC1"><ellipse cx="551.2427" cy="550.7579" fill="#F1F1F1" rx="73.7427" ry="17.1485" style="stroke:#181818;stroke-width:0.5;"/><text fill="#000000" font-family="sans-serif" font-size="14" lengthAdjust="spacing" textLength="98" x="499.2427" y="555.2745">Bloquear oferta</text></g><g id="elem_UC2"><ellipse cx="1048.9031" cy="739.5128" fill="#F1F1F1" rx="82.9031" ry="27.9034" style="stroke:#181818;stroke-width:0.5;"/><text fill="#000000" font-family="sans-serif" font-size="14" lengthAdjust="spacing" textLength="97" x="998.4031" y="734.4366">Buscar detalles</text><text fill="#000000" font-family="sans-serif" font-size="14" lengthAdjust="spacing" textLength="59" x="1021.4031" y="752.046">en la foto</text></g><g id="elem_UC3"><ellipse cx="858.0039" cy="739.6102" fill="#F1F1F1" rx="70.5039" ry="16.5008" style="stroke:#181818;stroke-width:0.5;"/><text fill="#000000" font-family="sans-serif" font-size="14" lengthAdjust="spacing" textLength="89" x="810.5039" y="744.1268">Consultar foto</text></g><g id="elem_UC4"><ellipse cx="1171.8631" cy="378.2183" fill="#F1F1F1" rx="63.8631" ry="15.609" style="stroke:#181818;stroke-width:0.5;"/><text fill="#000000" font-family="sans-serif" font-size="14" lengthAdjust="spacing" textLength="73" x="1132.3631" y="382.7349">Crear email</text></g><g id="elem_UC5"><ellipse cx="75.8041" cy="739.4702" fill="#F1F1F1" rx="69.8041" ry="16.3608" style="stroke:#181818;stroke-width:0.5;"/><text fill="#000000" font-family="sans-serif" font-size="14" lengthAdjust="spacing" textLength="87" x="29.3041" y="743.9868">Crear usuario</text></g><g id="elem_UC6"><ellipse cx="1000.9259" cy="377.8946" fill="#F1F1F1" rx="71.9259" ry="16.7852" style="stroke:#181818;stroke-width:0.5;"/><text fill="#000000" font-family="sans-serif" font-size="14" lengthAdjust="spacing" textLength="93" x="951.4259" y="382.4112">Denunciar foto</text></g><g id="elem_UC7"><ellipse cx="373.1119" cy="550.8318" fill="#F1F1F1" rx="69.1119" ry="16.2224" style="stroke:#181818;stroke-width:0.5;"/><text fill="#000000" font-family="sans-serif" font-size="14" lengthAdjust="spacing" textLength="85" x="327.6119" y="555.3484">Editar factura</text></g><g id="elem_UC8"><ellipse cx="1367.9654" cy="222.024" fill="#F1F1F1" rx="94.9654" ry="27.9147" style="stroke:#181818;stroke-width:0.5;"/><text fill="#000000" font-family="sans-serif" font-size="14" lengthAdjust="spacing" textLength="114" x="1307.0113" y="217.4773">Editar información</text><text fill="#000000" font-family="sans-serif" font-size="14" lengthAdjust="spacing" textLength="44" x="1346.0113" y="235.0866">de foto</text></g><g id="elem_UC9"><ellipse cx="251.1531" cy="739.54" fill="#F1F1F1" rx="70.1531" ry="16.4306" style="stroke:#181818;stroke-width:0.5;"/><text fill="#000000" font-family="sans-serif" font-size="14" lengthAdjust="spacing" textLength="88" x="204.1531" y="744.0566">Editar usuario</text></g><g id="elem_UC10"><ellipse cx="727.9277" cy="550.6949" fill="#F1F1F1" rx="68.4277" ry="16.0855" style="stroke:#181818;stroke-width:0.5;"/><text fill="#000000" font-family="sans-serif" font-size="14" lengthAdjust="spacing" textLength="83" x="683.4277" y="555.2115">Emitir factura</text></g><g id="elem_UC11"><ellipse cx="1299.2399" cy="739.8586" fill="#F1F1F1" rx="126.7399" ry="55.7492" style="stroke:#181818;stroke-width:0.5;"/><text fill="#000000" font-family="sans-serif" font-size="14" lengthAdjust="spacing" textLength="135" x="1222.4899" y="713.173">Hacer oferta a cliente</text><text fill="#000000" font-family="sans-serif" font-size="14" lengthAdjust="spacing" textLength="4" x="1287.9899" y="730.7824"> </text><line style="stroke:#181818;stroke-width:1.0;" x1="1174.2362" x2="1424.2436" y1="733.8586" y2="733.8586"/><text fill="#000000" font-family="sans-serif" font-size="14" font-weight="bold" lengthAdjust="spacing" textLength="118" x="1230.9899" y="752.3918">extension points</text><text fill="#000000" font-family="sans-serif" font-size="14" lengthAdjust="spacing" textLength="172" x="1203.9899" y="770.0011">Reducir precio de producto</text></g><g id="elem_UC12"><ellipse cx="1003.1309" cy="221.9356" fill="#F1F1F1" rx="92.1309" ry="20.8262" style="stroke:#181818;stroke-width:0.5;"/><text fill="#000000" font-family="sans-serif" font-size="14" lengthAdjust="spacing" textLength="143" x="931.6309" y="225.6641">Indicar revisión de foto</text></g><g id="elem_UC13"><ellipse cx="1478.1041" cy="550.5128" fill="#F1F1F1" rx="63.1041" ry="27.9034" style="stroke:#181818;stroke-width:0.5;"/><text fill="#000000" font-family="sans-serif" font-size="14" lengthAdjust="spacing" textLength="59" x="1446.6041" y="545.4366">Introducir</text><text fill="#000000" font-family="sans-serif" font-size="14" lengthAdjust="spacing" textLength="69" x="1445.6041" y="563.046">explicación</text></g><g id="elem_UC14"><ellipse cx="292.1968" cy="378.1184" fill="#F1F1F1" rx="115.1968" ry="28.0091" style="stroke:#181818;stroke-width:0.5;"/><text fill="#000000" font-family="sans-serif" font-size="14" lengthAdjust="spacing" textLength="142" x="216.1968" y="373.8303">Operaciones comunes</text><text fill="#000000" font-family="sans-serif" font-size="14" lengthAdjust="spacing" textLength="65" x="258.6968" y="391.4397">de edición</text></g><g id="elem_UC15"><ellipse cx="1299.8675" cy="550.5128" fill="#F1F1F1" rx="79.3675" ry="27.9034" style="stroke:#181818;stroke-width:0.5;"/><text fill="#000000" font-family="sans-serif" font-size="14" lengthAdjust="spacing" textLength="92" x="1251.8675" y="545.4366">Reducir precio</text><text fill="#000000" font-family="sans-serif" font-size="14" lengthAdjust="spacing" textLength="76" x="1263.8675" y="563.046">de producto</text></g><g id="elem_UC16"><ellipse cx="1327.9744" cy="378.1647" fill="#F1F1F1" rx="56.4744" ry="15.5553" style="stroke:#181818;stroke-width:0.5;"/><text fill="#000000" font-family="sans-serif" font-size="14" lengthAdjust="spacing" textLength="63" x="1293.4744" y="382.6813">Ver oferta</text></g><g id="elem_UC17"><ellipse cx="1049.1604" cy="901.0128" fill="#F1F1F1" rx="78.6604" ry="27.9034" style="stroke:#181818;stroke-width:0.5;"/><text fill="#000000" font-family="sans-serif" font-size="14" lengthAdjust="spacing" textLength="91" x="1001.6604" y="895.9366">Verificar datos</text><text fill="#000000" font-family="sans-serif" font-size="14" lengthAdjust="spacing" textLength="77" x="1012.6604" y="913.546">introducidos</text></g><g id="elem_UC18"><ellipse cx="997.7828" cy="550.4711" fill="#F1F1F1" rx="89.7828" ry="55.3617" style="stroke:#181818;stroke-width:0.5;"/><text fill="#000000" font-family="sans-serif" font-size="14" lengthAdjust="spacing" textLength="88" x="946.2828" y="523.7856">Visualizar foto</text><text fill="#000000" font-family="sans-serif" font-size="14" lengthAdjust="spacing" textLength="4" x="988.2828" y="541.3949"> </text><line style="stroke:#181818;stroke-width:1.0;" x1="909.5288" x2="1086.0367" y1="544.4711" y2="544.4711"/><text fill="#000000" font-family="sans-serif" font-size="14" font-weight="bold" lengthAdjust="spacing" textLength="118" x="931.2828" y="563.0043">extension points</text><text fill="#000000" font-family="sans-serif" font-size="14" lengthAdjust="spacing" textLength="93" x="943.7828" y="580.6137">Denunciar foto</text></g><!--MD5=[6427c4237199cbf2e73e3595f518a157]
link A1 to UC5--><g id="link_A1_UC5"><path d="M138.03,589.8994 C121.78,628.8494 97.23,687.7094 84.43,718.3894 " fill="none" id="A1-to-UC5" style="stroke:#181818;stroke-width:1.0;"/><polygon fill="#181818" points="82.48,723.0694,89.6413,716.308,84.4081,718.4561,82.26,713.223,82.48,723.0694" style="stroke:#181818;stroke-width:1.0;"/></g><!--MD5=[d08fd0d3280cc062529fcc2ef70bcd8f]
link A1 to UC9--><g id="link_A1_UC9"><path d="M173.86,589.8994 C194.07,628.8494 224.6,687.7094 240.51,718.3894 " fill="none" id="A1-to-UC9" style="stroke:#181818;stroke-width:1.0;"/><polygon fill="#181818" points="242.94,723.0694,242.3297,713.2394,240.6301,718.6349,235.2346,716.9353,242.94,723.0694" style="stroke:#181818;stroke-width:1.0;"/></g><!--MD5=[7ae2ac6efe0e2e078ca237d7519b00e8]
link A2 to UC3--><g id="link_A2_UC3"><path d="M857.11,417.2394 C857.32,492.6894 857.78,658.7994 857.94,717.5294 " fill="none" id="A2-to-UC3" style="stroke:#181818;stroke-width:1.0;"/><polygon fill="#181818" points="857.96,722.8694,861.9343,713.858,857.9457,717.8694,853.9343,713.8808,857.96,722.8694" style="stroke:#181818;stroke-width:1.0;"/></g><!--MD5=[82eb7d1a8160081ac154c17c0ae348ef]
link A2 to UC18--><g id="link_A2_UC18"><path d="M879.03,405.7494 C899.12,430.0394 929.38,466.6394 954.36,496.8394 " fill="none" id="A2-to-UC18" style="stroke:#181818;stroke-width:1.0;"/><polygon fill="#181818" points="957.69,500.8694,955.0428,491.3829,954.506,497.0143,948.8746,496.4774,957.69,500.8694" style="stroke:#181818;stroke-width:1.0;"/></g><!--MD5=[c1f9aede99eae56a1a15428be80388e1]
link A3 to UC16--><g id="link_A3_UC16"><path d="M875.6,249.2694 C880.85,253.9194 886.75,258.1994 893,261.1094 C1000.43,311.1894 1044.43,257.1794 1158,291.1094 C1203.33,304.6494 1210.79,317.7494 1253,339.1094 C1267.74,346.5694 1284.11,354.8594 1297.79,361.7894 " fill="none" id="A3-to-UC16" style="stroke:#181818;stroke-width:1.0;"/><polygon fill="#181818" points="1302.32,364.0894,1296.098,356.4548,1297.8594,361.8305,1292.4837,363.5918,1302.32,364.0894" style="stroke:#181818;stroke-width:1.0;"/></g><!--MD5=[eea72cf21e663a81dcc210105fafd51c]
link A4 to UC8--><g id="link_A4_UC8"><path d="M1222.92,112.4994 C1254.28,135.9694 1298.6,169.1594 1329.99,192.6494 " fill="none" id="A4-to-UC8" style="stroke:#181818;stroke-width:1.0;"/><polygon fill="#181818" points="1334.14,195.7594,1329.3203,187.1704,1330.1331,192.7685,1324.535,193.5814,1334.14,195.7594" style="stroke:#181818;stroke-width:1.0;"/></g><!--MD5=[80116d7ec6e68177e0258c740b1c0ca1]
link A4 to UC12--><g id="link_A4_UC12"><path d="M1147.29,112.4994 C1113.31,138.0694 1064.03,175.1694 1032.75,198.7094 " fill="none" id="A4-to-UC12" style="stroke:#181818;stroke-width:1.0;"/><polygon fill="#181818" points="1028.65,201.7994,1038.245,199.5775,1032.6431,198.7903,1033.4304,193.1884,1028.65,201.7994" style="stroke:#181818;stroke-width:1.0;"/></g><!--MD5=[9813566fbebe62f9c13b4e3e0d49ef81]
link A5 to UC1--><g id="link_A5_UC1"><path d="M551,417.3694 C551,451.6094 551,500.5594 551,528.2994 " fill="none" id="A5-to-UC1" style="stroke:#181818;stroke-width:1.0;"/><polygon fill="#181818" points="551,533.5494,555,524.5494,551,528.5494,547,524.5494,551,533.5494" style="stroke:#181818;stroke-width:1.0;"/></g><!--MD5=[ca567d35c1a340486d9ff856b72f8420]
link A5 to UC7--><g id="link_A5_UC7"><path d="M529.17,400.0194 C494.2,433.5094 426.16,498.6894 392.63,530.8094 " fill="none" id="A5-to-UC7" style="stroke:#181818;stroke-width:1.0;"/><polygon fill="#181818" points="388.72,534.5494,397.9887,531.2189,392.3332,531.0933,392.4589,525.4378,388.72,534.5494" style="stroke:#181818;stroke-width:1.0;"/></g><!--MD5=[83fe7c85aa4d62c38c3cdf011ccd3801]
link A5 to UC10--><g id="link_A5_UC10"><path d="M572.7,400.0194 C607.48,433.5094 675.14,498.6894 708.48,530.8094 " fill="none" id="A5-to-UC10" style="stroke:#181818;stroke-width:1.0;"/><polygon fill="#181818" points="712.37,534.5494,708.6499,525.4301,708.7639,531.0858,703.1082,531.1999,712.37,534.5494" style="stroke:#181818;stroke-width:1.0;"/></g><!--MD5=[fc55366503014e2a25800fde99c81fca]
link A6 to UC4--><g id="link_A6_UC4"><path d="M1181.03,261.1794 C1178.66,291.6494 1175.42,333.1594 1173.54,357.3594 " fill="none" id="A6-to-UC4" style="stroke:#181818;stroke-width:1.0;"/><polygon fill="#181818" points="1173.14,362.5394,1177.8469,353.8881,1173.5399,357.5554,1169.8726,353.2483,1173.14,362.5394" style="stroke:#181818;stroke-width:1.0;"/></g><!--MD5=[523116ffe03ab0d06db8be39f82de758]
link A7 to UC10--><g id="link_A7_UC10"><path d="M725.67,417.3694 C726.28,451.9794 727.16,501.6194 727.64,529.1794 " fill="none" id="A7-to-UC10" style="stroke:#181818;stroke-width:1.0;"/><polygon fill="#181818" points="727.73,534.3894,731.5751,525.3221,727.6443,529.3901,723.5763,525.4593,727.73,534.3894" style="stroke:#181818;stroke-width:1.0;"/></g><!--MD5=[c2258dc6578f13a71721b739ae007042]
link A8 to UC11--><g id="link_A8_UC11"><path d="M1183.69,589.8994 C1204.47,616.6994 1232.55,652.9094 1255.8,682.8894 " fill="none" id="A8-to-UC11" style="stroke:#181818;stroke-width:1.0;"/><polygon fill="#181818" points="1258.9,686.8894,1256.5415,677.3271,1255.8342,682.9395,1250.2218,682.2323,1258.9,686.8894" style="stroke:#181818;stroke-width:1.0;"/></g><!--MD5=[59f9286c3ea93feadd96854598c12212]
link A8 to UC2--><g id="link_A8_UC2"><path d="M1132.5,589.8994 C1113.06,624.5294 1084.77,674.8994 1066.63,707.2094 " fill="none" id="A8-to-UC2" style="stroke:#181818;stroke-width:1.0;"/><polygon fill="#181818" points="1064.03,711.8394,1071.9268,705.9538,1066.48,707.4807,1064.953,702.0339,1064.03,711.8394" style="stroke:#181818;stroke-width:1.0;"/></g><!--MD5=[19f4da9d4d3ffdef7c1b5ef510e80f78]
reverse link A3 to A2--><g id="link_A3_A2"><path d="M854.51,281.2194 C855.01,300.5294 855.56,321.5294 856.01,338.9494 " fill="none" id="A3-backto-A2" style="stroke:#181818;stroke-width:1.0;"/><polygon fill="none" points="847.51,281.3494,853.99,261.1794,861.51,280.9894,847.51,281.3494" style="stroke:#181818;stroke-width:1.0;"/></g><!--MD5=[8b151a89ab7f3604b8cf55b00a31bdba]
reverse link A3 to A5--><g id="link_A3_A5"><path d="M812.23,243.8994 C747.37,276.9694 622.89,340.4494 572.74,366.0294 " fill="none" id="A3-backto-A5" style="stroke:#181818;stroke-width:1.0;"/><polygon fill="none" points="809.3,237.5294,830.3,234.6894,815.66,250.0094,809.3,237.5294" style="stroke:#181818;stroke-width:1.0;"/></g><!--MD5=[a88ea0ad552532cf42b7920b9b9268b0]
reverse link A5 to A1--><g id="link_A5_A1"><path d="M510.6,396.4594 C435.54,428.6994 275.17,497.5694 197.68,530.8494 " fill="none" id="A5-backto-A1" style="stroke:#181818;stroke-width:1.0;"/><polygon fill="none" points="508.23,389.8594,529.37,388.3994,513.76,402.7194,508.23,389.8594" style="stroke:#181818;stroke-width:1.0;"/></g><!--MD5=[eb7e47016b18f4614ae2078386c57506]
reverse link UC12 to UC6--><g id="link_UC12_UC6"><path d="M1002.47,263.5594 C1002.06,295.2794 1001.51,337.7694 1001.21,360.7294 " fill="none" id="UC12-backto-UC6" style="stroke:#181818;stroke-width:1.0;"/><polygon fill="none" points="995.48,263.1494,1002.74,243.2394,1009.48,263.3294,995.48,263.1494" style="stroke:#181818;stroke-width:1.0;"/></g><!--MD5=[ccb3a713f56f6c917b085357961df3e5]
reverse link UC14 to UC7--><g id="link_UC14_UC7"><path d="M313.49,424.3494 C330.82,460.8194 354.14,509.9194 365.78,534.3994 " fill="none" id="UC14-backto-UC7" style="stroke:#181818;stroke-width:1.0;"/><polygon fill="none" points="307.09,427.1994,304.83,406.1294,319.74,421.1894,307.09,427.1994" style="stroke:#181818;stroke-width:1.0;"/></g><!--MD5=[fee169da98f32046bf09235aa1d3e2d4]
reverse link UC14 to UC9--><g id="link_UC14_UC9"><path d="M286.64,426.0894 C277.35,507.5594 258.68,671.2794 252.81,722.7494 " fill="none" id="UC14-backto-UC9" style="stroke:#181818;stroke-width:1.0;"/><polygon fill="none" points="279.7,425.2094,288.92,406.1294,293.61,426.7994,279.7,425.2094" style="stroke:#181818;stroke-width:1.0;"/></g><!--MD5=[8786987a91916669482e7173b5d0c59a]
reverse link UC18 to UC2--><g id="link_UC18_UC2"><path d="M1017.99,624.8994 C1026.3,655.3794 1035.44,688.8694 1041.62,711.5594 " fill="none" id="UC18-backto-UC2" style="stroke:#181818;stroke-width:1.0;"/><polygon fill="none" points="1011.19,626.5794,1012.68,605.4494,1024.7,622.8994,1011.19,626.5794" style="stroke:#181818;stroke-width:1.0;"/></g><!--MD5=[d2f11f6c951230996dd79c0aab1e159a]
reverse link UC18 to UC3--><g id="link_UC18_UC3"><path d="M948.8,617.3294 C920.28,655.4194 886.7,700.2794 869.47,723.2894 " fill="none" id="UC18-backto-UC3" style="stroke:#181818;stroke-width:1.0;"/><polygon fill="none" points="943.26,613.0494,960.85,601.2294,954.47,621.4394,943.26,613.0494" style="stroke:#181818;stroke-width:1.0;"/></g><!--MD5=[40147b2357d411f41294b1aefd57fa9d]
link UC6 to UC18--><g id="link_UC6_UC18"><path d="M1000.72,395.1494 C1000.34,416.6294 999.65,455.9394 999.06,489.5194 " fill="none" id="UC6-to-UC18" style="stroke:#181818;stroke-width:1.0;stroke-dasharray:7.0,7.0;"/><polygon fill="#181818" points="998.96,494.8594,1003.1137,485.9293,999.0457,489.8601,995.1149,485.7921,998.96,494.8594" style="stroke:#181818;stroke-width:1.0;"/><text fill="#000000" font-family="sans-serif" font-size="13" lengthAdjust="spacing" textLength="55" x="1001" y="461.6045">«Extend»</text></g><!--MD5=[4b68362775e9bcb254ae6157194e5068]
link UC15 to UC11--><g id="link_UC15_UC11"><path d="M1299.85,578.7994 C1299.72,604.8594 1299.5,645.0694 1299.32,678.6394 " fill="none" id="UC15-to-UC11" style="stroke:#181818;stroke-width:1.0;stroke-dasharray:7.0,7.0;"/><polygon fill="#181818" points="1299.29,683.9694,1303.3414,674.9924,1299.3186,678.9695,1295.3415,674.9467,1299.29,683.9694" style="stroke:#181818;stroke-width:1.0;"/><text fill="#000000" font-family="sans-serif" font-size="13" lengthAdjust="spacing" textLength="55" x="1300" y="650.6045">«Extend»</text></g><!--MD5=[e70b62b178de1d37c572a27303752892]
link UC2 to UC17--><g id="link_UC2_UC17"><path d="M1049,767.6694 C1049,795.2794 1049,838.1394 1049,867.5894 " fill="none" id="UC2-to-UC17" style="stroke:#181818;stroke-width:1.0;stroke-dasharray:7.0,7.0;"/><polygon fill="#181818" points="1049,872.9194,1053,863.9194,1049,867.9194,1045,863.9194,1049,872.9194" style="stroke:#181818;stroke-width:1.0;"/><text fill="#000000" font-family="sans-serif" font-size="13" lengthAdjust="spacing" textLength="55" x="1050" y="839.6045">«Include»</text></g><!--MD5=[460d98f75473c06e3fc046aab0fc49dd]
link UC6 to UC13--><g id="link_UC6_UC13"><path d="M1031.84,393.6794 C1048.77,401.3094 1070.27,410.4294 1090,417.1094 C1223.36,462.2194 1268.49,437.6394 1397,495.1094 C1413.27,502.3794 1429.83,512.8694 1443.71,522.7094 " fill="none" id="UC6-to-UC13" style="stroke:#181818;stroke-width:1.0;stroke-dasharray:7.0,7.0;"/><polygon fill="#181818" points="1447.92,525.7394,1442.9298,517.2483,1443.8542,522.8291,1438.2734,523.7536,1447.92,525.7394" style="stroke:#181818;stroke-width:1.0;"/><text fill="#000000" font-family="sans-serif" font-size="13" lengthAdjust="spacing" textLength="55" x="1311" y="461.6045">«Include»</text></g><!--MD5=[bf29171b4ac92c095e042832333f29c7]
link UC12 to UC4--><g id="link_UC12_UC4"><path d="M1024.4,242.6094 C1057.52,272.7894 1120.67,330.3394 1152.56,359.3894 " fill="none" id="UC12-to-UC4" style="stroke:#181818;stroke-width:1.0;stroke-dasharray:7.0,7.0;"/><polygon fill="#181818" points="1156.29,362.7894,1152.3316,353.771,1152.5942,359.4218,1146.9434,359.6843,1156.29,362.7894" style="stroke:#181818;stroke-width:1.0;"/><text fill="#000000" font-family="sans-serif" font-size="13" lengthAdjust="spacing" textLength="55" x="1094" y="305.6045">«Include»</text></g><!--MD5=[bb7957156d482381acb37dacdede7a69]
@startuml fotografia_online

title Fotografía Online

:Administrador: as A1
:Cliente: as A2
:Común: as A3
:Controlador: as A4
:Gestor: as A5
:Gestor de correo: as A6
:Software de facturación: as A7
:Vendedor: as A8

(Bloquear oferta) as UC1
(Buscar detalles \n en la foto)  as UC2
(Consultar foto) as UC3
(Crear email) as UC4
(Crear usuario) as UC5
(Denunciar foto) as UC6
(Editar factura) as UC7
(Editar información \n de foto) as UC8
(Editar usuario) as UC9
(Emitir factura) as UC10
usecase UC11 as "Hacer oferta a cliente

- -
**extension points**
Reducir precio de producto"
(Indicar revisión de foto) as UC12
(Introducir \n explicación) as UC13
(Operaciones comunes \n de edición) as UC14
(Reducir precio \n de producto)  as UC15
(Ver oferta) as UC16
(Verificar datos \n introducidos) as UC17
usecase UC18 as "Visualizar foto

- -
**extension points**
Denunciar foto"

A1 - -> UC5
A1 - -> UC9
A2 - -> UC3
A2 - -> UC18
A3 - -> UC16
A4 - -> UC8
A4 - -> UC12
A5 - -> UC1
A5 - -> UC7
A5 - -> UC10
A6 - -> UC4
A7 - -> UC10
A8 - -> UC11
A8 - -> UC2

A3 <|- - A2
A3 <|- - A5
A5 <|- - A1
UC12 <|- - UC6
UC14 <|- - UC7
UC14 <|- - UC9
UC18 <|- - UC2
UC18 <|- - UC3

UC6 ..> UC18 : <<Extend>>
UC15 ..> UC11 : <<Extend>>

UC2 ..> UC17 : <<Include>>
UC6 ..> UC13 : <<Include>>
UC12 ..> UC4 : <<Include>>

@enduml

PlantUML version 1.2022.7(Mon Aug 22 19:01:30 CEST 2022)
(GPL source distribution)
Java Runtime: OpenJDK Runtime Environment
JVM: OpenJDK 64-Bit Server VM
Default Encoding: Cp1252
Language: es
Country: ES
--></g></svg>